<?xml version="1.0" standalone="no"?>
<!DOCTYPE svg PUBLIC "-//W3C//DTD SVG 1.1//EN" "http://www.w3.org/Graphics/SVG/1.1/DTD/svg11.dtd" >
<svg xmlns="http://www.w3.org/2000/svg" xmlns:xlink="http://www.w3.org/1999/xlink" version="1.1">
<metadata></metadata>
<defs>
<font id="ralewayblack" horiz-adv-x="1247" >
<font-face units-per-em="2048" ascent="1638" descent="-410" />
<missing-glyph horiz-adv-x="460" />
<glyph unicode="ff" horiz-adv-x="1415" d="M1251 1188q-96 0 -96 -105v-131h236v-293h-236v-659h-389v659h-203v-659h-389v659h-133v293h133v47q0 100 27.5 183.5t80 141.5t127 90t166.5 32q127 0 291 -62q53 61 128 96.5t173 35.5q129 0 293 -62l-65 -295q-35 12 -75 20.5t-69 8.5zM766 1100q-29 8 -57.5 13 t-51.5 5q-94 0 -94 -104v-62h203v148z" />
<glyph unicode="fi" horiz-adv-x="1271" d="M174 659h-133v293h133v117q0 100 36 183t101.5 141.5t154.5 90.5t198 32q119 0 230.5 -40t240.5 -124l-148 -295q-72 61 -148.5 96t-148.5 35q-59 0 -93 -25.5t-34 -79.5v-131h613v-952h-390v659h-223v-659h-389v659z" />
<glyph unicode="fl" horiz-adv-x="1470" d="M1475 49q-2 -2 -31 -13t-73 -23.5t-99 -21.5t-111 -9q-78 0 -138 20.5t-102 56t-64.5 81.5t-22.5 100v729q0 111 -23 165t-104 54q-84 0 -114 -49t-30 -127v-60h142v-293h-142v-659h-389v659h-133v293h133v154q0 106 38 184t105.5 128t162.5 74t210 24q139 0 239.5 -34 t166 -95.5t96.5 -148.5t31 -194v-600q0 -39 19.5 -77.5t68.5 -38.5q16 0 36.5 5t37 11t28.5 11t14 5z" />
<glyph unicode="ffi" horiz-adv-x="1865" d="M174 659h-133v293h133v47q0 100 27.5 183.5t80 141.5t127 90t166.5 32q127 0 291 -62q66 61 163 96.5t220 35.5q104 0 222 -39t255 -125l-147 -295q-66 59 -145.5 95t-141.5 36q-137 0 -137 -105v-131h614v-952h-391v659h-223v-659h-389v659h-203v-659h-389v659zM766 952 v148q-29 8 -57.5 13t-51.5 5q-94 0 -94 -104v-62h203z" />
<glyph unicode="ffl" horiz-adv-x="2060" d="M1751 -18q-78 0 -138.5 20.5t-102.5 56t-64.5 81.5t-22.5 100v749q0 45 -4 81t-19.5 62.5t-43 41t-72.5 14.5q-74 0 -102.5 -52.5t-28.5 -123.5v-60h141v-293h-141v-659h-389v659h-201v-659h-389v659h-133v293h133v47q0 100 28.5 183.5t80 141.5t124 90t162.5 32 q135 0 299 -62q68 68 173.5 100t238.5 32q139 0 239.5 -34t166 -95.5t96 -148.5t30.5 -194v-600q0 -39 19.5 -77.5t69.5 -38.5q16 0 36.5 5t37 11t28.5 11t14 5l47 -311q-2 -2 -30.5 -13t-72.5 -23.5t-99.5 -21.5t-110.5 -9zM764 952v150q-59 16 -107 16q-94 0 -94 -104v-62 h201z" />
<glyph horiz-adv-x="0" />
<glyph horiz-adv-x="0" />
<glyph unicode=" "  horiz-adv-x="460" />
<glyph unicode="&#x09;" horiz-adv-x="460" />
<glyph unicode="&#xa0;" horiz-adv-x="460" />
<glyph unicode="!" horiz-adv-x="741" d="M176 614v854h389v-854h-389zM176 0v377h389v-377h-389z" />
<glyph unicode="&#x22;" horiz-adv-x="974" d="M109 1016v479h327v-479h-327zM539 1016v479h327v-479h-327z" />
<glyph unicode="#" horiz-adv-x="1550" d="M1477 813h-326l-41 -178h262v-287h-332l-84 -348h-309l86 348h-123l-84 -348h-309l86 348h-229v287h299l41 178h-236v266h301l92 375h310l-95 -375h123l92 375h310l-94 -375h260v-266zM803 635l41 178h-123l-41 -178h123z" />
<glyph unicode="$" horiz-adv-x="1329" d="M1044 979q-45 29 -98 53q-45 23 -101.5 42.5t-113.5 29.5v-184q18 -4 39 -11.5t43 -13.5q100 -31 181 -67.5t138.5 -87t88 -122t30.5 -174.5q0 -121 -42 -205.5t-110.5 -139t-156.5 -82t-182 -33.5v-248h-164v252q-141 12 -280.5 55t-249.5 109l172 350q55 -35 118 -66 q53 -27 124 -52.5t145 -35.5v180q-63 16 -127 39q-96 33 -166 71t-115 86t-66.5 109.5t-21.5 141.5q0 111 37 195.5t100.5 146t148.5 98.5t181 47v207h164v-209q68 -8 131 -24.5t121.5 -38t110 -45t94.5 -43.5zM821 406q0 29 -24.5 50t-65.5 38v-152q49 4 69.5 20.5 t20.5 43.5zM543 1040q0 -31 20.5 -50t61.5 -36v156q-82 -11 -82 -70z" />
<glyph unicode="%" horiz-adv-x="1742" d="M432 827q-78 0 -144.5 26t-115.5 69t-76.5 102t-27.5 127t27.5 127t76.5 102t115.5 69t144.5 26q76 0 142.5 -26t115.5 -69t78 -102t29 -127t-29 -127t-78 -102t-115.5 -69t-142.5 -26zM432 1012q41 0 69.5 41t28.5 98t-28.5 98t-69.5 41t-69.5 -41t-28.5 -98t28.5 -98 t69.5 -41zM1311 -20q-78 0 -144.5 25.5t-116 68.5t-77 102.5t-27.5 126.5q0 68 27.5 127t77 102t116 69t144.5 26q76 0 142.5 -26t115.5 -69t77.5 -102t28.5 -127t-28.5 -127t-77.5 -102t-115.5 -68.5t-142.5 -25.5zM1311 164q41 0 69.5 41t28.5 98t-28.5 98t-69.5 41 t-70 -41t-29 -98t29 -98t70 -41zM240 133l579 653l514 691l170 -154l-555 -633l-538 -710z" />
<glyph unicode="&#x26;" horiz-adv-x="1533" d="M1036 0l-78 82q-88 -53 -183 -77.5t-191 -24.5q-127 0 -222.5 40.5t-160 106.5t-97 148.5t-32.5 166.5q0 125 60.5 216.5t143.5 158.5q-66 80 -92 142.5t-26 138.5q0 88 32.5 158.5t89 117.5t134.5 73t170 26q80 0 156.5 -19.5t137 -61.5t97.5 -108.5t37 -161.5 q0 -111 -51.5 -198.5t-137.5 -161.5l168 -178q23 57 35 123.5t12 144.5h314q-2 -158 -37 -284t-94 -226l325 -342h-510zM625 283q61 0 120 26l-231 248q-70 -57 -70 -115q0 -23 9.5 -50t31 -52t56.5 -41t84 -16zM510 1114q0 -27 15.5 -46t52.5 -54q41 29 59 50t18 54 q0 35 -19.5 53.5t-51.5 18.5q-35 0 -54.5 -21.5t-19.5 -54.5z" />
<glyph unicode="'" horiz-adv-x="544" d="M109 1016v479h327v-479h-327z" />
<glyph unicode="(" horiz-adv-x="700" d="M51 713q0 104 24.5 209.5t67.5 213t101.5 219t126.5 226.5l297 -119q-25 -39 -67 -119.5t-84 -185t-72.5 -222.5t-30.5 -228q0 -168 70.5 -340t172.5 -365l-282 -137q-63 94 -121.5 197.5t-104 211t-72 218t-26.5 221.5z" />
<glyph unicode=")" horiz-adv-x="698" d="M647 713q0 -111 -26.5 -221.5t-71.5 -218t-103.5 -211t-121.5 -197.5l-283 137q102 193 173 365t71 340q0 111 -31 228.5t-73 222t-84 185t-66 119.5l297 119q68 -115 126 -226.5t101 -219t67.5 -213t24.5 -209.5z" />
<glyph unicode="*" horiz-adv-x="745" d="M133 1022l100 160l-147 43l49 157l154 -73l-15 168h197l-14 -168l153 73l49 -157l-147 -43l100 -160l-141 -92l-98 170l-99 -170z" />
<glyph unicode="+" horiz-adv-x="876" d="M786 881v-308h-174v-194h-348v194h-174v308h174v194h348v-194h174z" />
<glyph unicode="," horiz-adv-x="526" d="M145 -322l74 322h-117v377h322v-377l-111 -322h-168z" />
<glyph unicode="-" horiz-adv-x="845" d="M102 391v348h641v-348h-641z" />
<glyph unicode="." horiz-adv-x="520" d="M102 0v377h316v-377h-316z" />
<glyph unicode="/" horiz-adv-x="1591" d="M1538 1454l-1057 -1454h-428l1055 1454h430z" />
<glyph unicode="0" horiz-adv-x="1257" d="M1171 600q0 -135 -40.5 -248.5t-113.5 -196.5t-172.5 -129t-215.5 -46q-117 0 -216.5 46t-172 129t-113.5 196.5t-41 248.5t41 249t113.5 196.5t172 130t216.5 47.5t216 -47.5t172 -130t113.5 -196.5t40.5 -249zM778 600q0 119 -42 192.5t-107 73.5q-70 0 -112 -73.5 t-42 -192.5t42 -191.5t112 -72.5q66 0 107.5 72.5t41.5 191.5z" />
<glyph unicode="1" horiz-adv-x="1120" d="M1071 348v-348h-948v348h291v408q-18 -25 -57.5 -48.5t-87.5 -44t-97 -33t-88 -12.5v357q29 0 80 21.5t102 51t93 63.5t55 58h397v-821h260z" />
<glyph unicode="2" horiz-adv-x="1226" d="M63 0q0 102 16.5 180t53.5 140.5t95.5 111.5t144.5 96q111 59 175 95t97 59t42 38t9 34q0 51 -32.5 75.5t-90.5 24.5q-68 0 -128 -35t-126 -112l-245 288q39 43 100.5 79t136 61.5t158.5 40t172 14.5q236 0 357.5 -97.5t121.5 -271.5q0 -63 -16.5 -112.5t-44 -89 t-66.5 -72.5t-82 -62q-51 -35 -107 -66.5t-112 -70.5h451v-348h-1080z" />
<glyph unicode="3" horiz-adv-x="1189" d="M836 485q63 -10 115.5 -42.5t90 -82t59 -112t21.5 -131.5q0 -96 -41 -174t-115.5 -132.5t-183 -83t-243.5 -28.5q-158 0 -279 40t-219 124l199 282q59 -47 125.5 -68.5t152.5 -21.5q104 0 152.5 32t48.5 101q0 78 -61.5 112t-200.5 34h-64v270h72q98 0 157.5 38t59.5 103 q0 49 -35 77t-98 28q-72 0 -134.5 -36t-109.5 -107l-246 288q37 41 93.5 75t127 58.5t150.5 38t164 13.5q113 0 207 -26t159.5 -73t102.5 -113.5t37 -148.5q0 -61 -20.5 -116.5t-55.5 -100.5t-83 -76t-105 -41z" />
<glyph unicode="4" horiz-adv-x="1200" d="M557 -260v254h-526v348l649 827h266v-827h180v-348h-180v-254h-389zM414 342h188v246z" />
<glyph unicode="5" horiz-adv-x="1150" d="M614 668q106 0 194.5 -35t153 -97.5t100.5 -149.5t36 -191q0 -111 -41 -203t-116 -157.5t-178.5 -102.5t-227.5 -37q-160 0 -288 59.5t-198 169.5l213 246q59 -63 132 -99t143 -36q76 0 118.5 41t42.5 110q0 68 -38.5 109t-102.5 41q-43 0 -79 -19.5t-54 -52.5h-334 l172 905h729v-354h-448l-23 -158q8 2 23 5q10 2 28 4t43 2z" />
<glyph unicode="6" d="M1171 492q0 -109 -40.5 -202t-114.5 -162t-173.5 -108.5t-215.5 -39.5q-262 0 -404.5 188t-142.5 528q0 180 40 322.5t115.5 242t184 152.5t246.5 53q266 0 462 -196l-215 -250q-111 111 -254 110q-100 0 -158.5 -60t-62.5 -171q78 70 221 70q111 0 204 -36t162 -100.5 t107.5 -151.5t38.5 -189zM627 305q35 0 66.5 15.5t55 41t38 59.5t14.5 71q0 72 -51.5 122t-122.5 50q-72 0 -123 -50.5t-51 -121.5q0 -37 14 -71t37.5 -59.5t55.5 -41t67 -15.5z" />
<glyph unicode="7" horiz-adv-x="1214" d="M616 842h-555v354h1168l-711 -1454h-440z" />
<glyph unicode="8" horiz-adv-x="1251" d="M1174 453q0 -106 -43.5 -193.5t-118 -150t-175 -96t-212.5 -33.5q-109 0 -208.5 33.5t-175 97t-120.5 153.5t-45 201q0 55 16.5 102t42 86t56 70t61.5 53q-59 35 -97 104.5t-38 141.5q0 104 48 185t121.5 136.5t164 83t174.5 27.5t174 -27.5t164.5 -81t123 -134.5 t48.5 -185q0 -72 -39 -143.5t-99 -106.5q31 -23 63 -54.5t56.5 -72.5t41 -90t16.5 -106zM778 475q0 68 -44 104.5t-109 36.5q-68 0 -111 -37.5t-43 -103.5q0 -59 44 -100t110 -41q68 0 110.5 41t42.5 100zM512 1014q0 -55 36 -82t77 -27t77.5 26.5t36.5 82.5 q0 41 -31.5 69.5t-82.5 28.5t-82 -28.5t-31 -69.5z" />
<glyph unicode="9" horiz-adv-x="1206" d="M55 657q0 106 41 200.5t115 163.5t173 108.5t216 39.5q131 0 232.5 -48t171 -140t106.5 -225t37 -303q0 -180 -40 -322.5t-116 -242t-184.5 -152.5t-245.5 -53q-266 0 -463 196l215 250q111 -111 254 -111q100 0 158.5 60.5t62.5 171.5q-78 -70 -221 -70q-111 0 -204 36 t-161.5 100.5t-107.5 151.5t-39 189zM600 844q-35 0 -66.5 -15.5t-55 -41t-38 -59.5t-14.5 -71q0 -72 51 -122t123 -50t123 50.5t51 121.5q0 37 -14.5 71t-38 59.5t-55 41t-66.5 15.5z" />
<glyph unicode=":" horiz-adv-x="622" d="M154 686v377h315v-377h-315zM154 0v377h315v-377h-315z" />
<glyph unicode=";" horiz-adv-x="624" d="M156 686v377h315v-377h-315zM195 -322l73 322h-116v377h321v-377l-111 -322h-167z" />
<glyph unicode="&#x3c;" horiz-adv-x="1067" d="M63 610l869 529v-414l-303 -195l303 -178v-434l-869 512v180z" />
<glyph unicode="=" horiz-adv-x="886" d="M113 207v246h661v-246h-661zM113 678v246h661v-246h-661z" />
<glyph unicode="&#x3e;" horiz-adv-x="1067" d="M1004 430l-869 -512v434l303 178l-303 195v414l869 -529v-180z" />
<glyph unicode="?" horiz-adv-x="1013" d="M195 530q0 43 4 85t20.5 80t49 73t87.5 63q23 12 65 33t84 49.5t72.5 64.5t30.5 79q0 47 -36.5 74.5t-86.5 27.5q-37 0 -63.5 -14.5t-46 -34.5t-32.5 -41.5t-26 -36.5l-247 176q53 125 167.5 195t262.5 70q78 0 157.5 -23t144 -72t104.5 -129t40 -194q0 -98 -36 -179 t-128 -143q-45 -31 -92 -53.5t-87 -45t-65.5 -47t-25.5 -57.5h-317zM201 0v336h317v-336h-317z" />
<glyph unicode="@" horiz-adv-x="1744" d="M870 1235q150 0 291.5 -46t251 -141.5t175 -243t65.5 -351.5q0 -29 -3 -76t-13.5 -100.5t-32 -108.5t-58.5 -100t-92 -73t-133 -28q-57 0 -96 14.5t-63.5 37t-37 49t-16.5 49.5q-70 -66 -160 -97.5t-186 -31.5q-158 0 -238 79.5t-80 215.5q0 88 33 148.5t86 97t122 53 t140 16.5q78 0 129.5 -13.5t79.5 -27.5q0 41 -10 76t-34.5 59.5t-66.5 37.5t-106 13q-86 0 -152.5 -22.5t-107.5 -61.5l-65 199q78 53 170 76.5t194 23.5q147 0 229 -43t121 -108.5t46.5 -141t7.5 -143.5v-137q0 -45 2 -90t12 -82t29.5 -59.5t56.5 -22.5q49 0 76.5 39t43 93 t19.5 109.5t4 88.5q0 137 -45 252.5t-129 199.5t-202.5 131.5t-268.5 47.5q-147 0 -265 -47.5t-199 -130.5t-124 -196.5t-43 -248.5q0 -129 40 -242.5t117 -198.5t187.5 -134.5t253.5 -49.5q53 0 96.5 7.5t81 17.5t72.5 24.5t74 28.5l41 -139q-88 -41 -183.5 -61.5 t-187.5 -20.5q-154 0 -289 54.5t-236 154.5t-159.5 242.5t-58.5 320.5q0 188 65.5 330.5t175 239t252.5 144.5t301 48zM952 205q27 14 53.5 38.5t26.5 59.5v84q-31 12 -87 25.5t-116 13.5q-86 0 -123.5 -35t-37.5 -106q0 -115 120 -115q29 0 76 6t88 29z" />
<glyph unicode="A" horiz-adv-x="1366" d="M502 1454h364l504 -1454h-405l-88 285h-388l-86 -285h-407zM813 551l-129 450l-135 -450h264z" />
<glyph unicode="B" horiz-adv-x="1413" d="M1362 373q0 -98 -41 -169t-112.5 -116t-167 -66.5t-201.5 -21.5h-715v1454h844q76 0 137 -32.5t104 -85t66.5 -119t23.5 -136.5q0 -102 -52 -195t-156 -141q125 -37 197.5 -127.5t72.5 -244.5zM956 455q0 53 -28.5 89t-73.5 36h-330v-244h316q49 0 82.5 31t33.5 88z M524 1114v-223h273q41 0 74.5 22.5t33.5 90.5q0 59 -28.5 84.5t-67.5 25.5h-285z" />
<glyph unicode="C" horiz-adv-x="1415" d="M45 739q0 133 50 262t146.5 231.5t233.5 166t313 63.5q211 0 366 -87t230 -230l-305 -217q-20 53 -54 88t-75 55.5t-85 28.5t-85 8q-86 0 -148.5 -34t-102.5 -88t-59 -122.5t-19 -136.5q0 -76 22.5 -145.5t65.5 -122.5t105.5 -85t139.5 -32q41 0 84 9t83 30.5t72 55.5 t50 83l326 -194q-33 -80 -99.5 -143.5t-151.5 -106.5t-182.5 -65.5t-189.5 -22.5q-162 0 -296 64.5t-231 171t-150.5 241.5t-53.5 274z" />
<glyph unicode="D" horiz-adv-x="1466" d="M125 0v1454h559q180 0 317.5 -57.5t229.5 -155.5t139 -230t47 -282q0 -166 -52 -300t-148.5 -229.5t-231.5 -147.5t-301 -52h-559zM1012 729q0 84 -22.5 153.5t-64.5 119t-103.5 77t-137.5 27.5h-160v-758h160q78 0 139.5 29t103.5 80t63.5 120.5t21.5 151.5z" />
<glyph unicode="E" horiz-adv-x="1222" d="M1161 348v-348h-1036v1454h1018v-348h-619v-205h529v-323h-529v-230h637z" />
<glyph unicode="F" horiz-adv-x="1153" d="M125 0v1454h997v-348h-598v-242h488v-323h-488v-541h-399z" />
<glyph unicode="G" horiz-adv-x="1513" d="M1112 121q-156 -131 -358 -131q-141 0 -270.5 50t-225.5 146.5t-153.5 235.5t-57.5 317q0 154 57.5 286t157.5 229.5t236.5 153.5t294.5 56q98 0 188 -21.5t167 -63.5t138.5 -100t99.5 -132l-296 -227q-43 86 -129.5 138t-182.5 52q-72 0 -131 -28.5t-102 -80t-67.5 -122 t-24.5 -154.5q0 -86 24.5 -155.5t68.5 -120t105.5 -78t136.5 -27.5q174 0 308 143h-252v287h598v-774h-330v121z" />
<glyph unicode="H" horiz-adv-x="1536" d="M1411 1454v-1454h-399v569h-488v-569h-399v1454h399v-536h488v536h399z" />
<glyph unicode="I" horiz-adv-x="649" d="M125 0v1454h399v-1454h-399z" />
<glyph unicode="J" horiz-adv-x="1019" d="M86 393q6 -4 26.5 -14t51.5 -20.5t70.5 -18.5t82.5 -8q63 0 102.5 20.5t60 66.5t26.5 118.5t6 177.5v739h399v-739q0 -166 -18.5 -302.5t-79.5 -232.5t-179 -149.5t-317 -53.5q-184 0 -315 91z" />
<glyph unicode="K" horiz-adv-x="1413" d="M125 0v1454h399v-553l443 553h450l-528 -651l565 -803h-459l-360 535l-111 -115v-420h-399z" />
<glyph unicode="L" horiz-adv-x="1198" d="M125 0v1454h399v-1106h660v-348h-1059z" />
<glyph unicode="M" horiz-adv-x="1748" d="M1225 0v766l-244 -539h-213l-244 539v-766h-399v1454h436l313 -684l316 684h434v-1454h-399z" />
<glyph unicode="N" horiz-adv-x="1544" d="M524 715v-715h-399v1454h311l584 -739v739h399v-1454h-317z" />
<glyph unicode="O" horiz-adv-x="1566" d="M780 -12q-166 0 -301 63.5t-231 167t-149.5 236.5t-53.5 274q0 143 55.5 276.5t154.5 234.5t235.5 161.5t297.5 60.5q166 0 301.5 -63.5t231.5 -168t148.5 -237.5t52.5 -272q0 -143 -55.5 -275.5t-154 -233.5t-234.5 -162.5t-298 -61.5zM451 725q0 -74 20.5 -142.5 t61 -121.5t103 -86t148.5 -33t149.5 34t103.5 88t59.5 123.5t19.5 141.5q0 74 -20.5 142.5t-62.5 120.5t-104.5 84t-146.5 32q-86 0 -148.5 -33t-103.5 -87t-60 -122.5t-19 -140.5z" />
<glyph unicode="P" horiz-adv-x="1275" d="M125 0v1454h627q106 0 196 -44t154.5 -114.5t101.5 -162t37 -183.5q0 -96 -35 -187t-97 -162t-151.5 -113t-195.5 -42h-238v-446h-399zM524 795h211q37 0 69 33.5t32 121.5q0 90 -37 123t-74 33h-201v-311z" />
<glyph unicode="Q" horiz-adv-x="1566" d="M1120 70q-76 -39 -161 -59.5t-179 -20.5q-166 0 -301 62.5t-231 166t-149.5 236.5t-53.5 274q0 143 55.5 276.5t154.5 235.5t235.5 162.5t297.5 60.5q166 0 301.5 -64.5t231.5 -169t148.5 -237.5t52.5 -272q0 -135 -48.5 -259t-136.5 -222l222 -240h-373zM784 344 q45 0 76 8l-239 262h372l80 -88q23 47 33 98.5t10 104.5q0 74 -20.5 142.5t-62.5 122t-104.5 85t-146.5 31.5q-86 0 -148.5 -34t-103.5 -88t-60 -122.5t-19 -140.5q0 -74 20.5 -142.5t61 -121.5t103 -85t148.5 -32z" />
<glyph unicode="R" horiz-adv-x="1382" d="M125 0v1454h668q106 0 196 -44t154.5 -114.5t101.5 -162t37 -183.5q0 -127 -55.5 -236.5t-153.5 -178.5l307 -535h-450l-256 446h-150v-446h-399zM524 795h252q37 0 69 41t32 114q0 76 -37 116t-74 40h-242v-311z" />
<glyph unicode="S" horiz-adv-x="1263" d="M1006 979q-61 37 -127 65q-55 25 -124 46.5t-134 21.5q-53 0 -85 -16.5t-32 -55.5q0 -29 18.5 -47t53 -33.5t85 -30t113.5 -34.5q100 -31 181 -67.5t138.5 -87t88 -122t30.5 -174.5q0 -131 -48 -220t-127 -142t-178 -76.5t-200 -23.5q-80 0 -163.5 12t-166.5 34.5 t-160 53.5t-142 70l172 350q72 -45 149 -80q66 -31 149 -55.5t169 -24.5q66 0 91 17.5t25 46.5q0 31 -25.5 52t-70.5 37.5t-103.5 33t-123.5 38.5q-96 33 -166 71t-115 86t-66.5 109.5t-21.5 141.5q0 121 44 213t120 153.5t173 93t206 31.5q80 0 155.5 -15t146.5 -38.5 t132 -51.5t111 -52z" />
<glyph unicode="T" horiz-adv-x="1277" d="M1257 1106h-417v-1106h-400v1106h-420v348h1237v-348z" />
<glyph unicode="U" horiz-adv-x="1521" d="M760 342q70 0 119 30.5t79.5 81t45 116t14.5 137.5v747h399v-747q0 -152 -39 -284t-120.5 -228.5t-205.5 -151.5t-292 -55q-174 0 -298 58t-204 156.5t-117 228.5t-37 276v747h400v-747q0 -72 14 -138.5t45 -117t79 -80t118 -29.5z" />
<glyph unicode="V" horiz-adv-x="1376" d="M406 1454l284 -952l281 952h420l-535 -1454h-332l-540 1454h422z" />
<glyph unicode="W" horiz-adv-x="2164" d="M588 1454h366l127 -448l129 448h367l-240 -694l105 -303l313 997h434l-569 -1454h-332l-207 520l-204 -520h-332l-570 1454h433l315 -997l100 303z" />
<glyph unicode="X" horiz-adv-x="1345" d="M410 1454l264 -459l264 459h430l-485 -737l469 -717h-430l-248 438l-248 -438h-432l469 717l-486 737h433z" />
<glyph unicode="Y" horiz-adv-x="1363" d="M420 1454l260 -629l266 629h434l-501 -973v-481h-398v485l-493 969h432z" />
<glyph unicode="Z" horiz-adv-x="1273" d="M55 297l680 809h-649v348h1110v-297l-639 -809h651v-348h-1153v297z" />
<glyph unicode="[" horiz-adv-x="759" d="M162 -82v1598h502v-308h-144v-983h144v-307h-502z" />
<glyph unicode="\" horiz-adv-x="1421" d="M481 1454l891 -1454h-428l-893 1454h430z" />
<glyph unicode="]" horiz-adv-x="759" d="M96 -82v307h144v983h-144v308h502v-1598h-502z" />
<glyph unicode="^" horiz-adv-x="1280" d="M74 621l405 833h324l403 -833h-313l-252 518l-258 -518h-309z" />
<glyph unicode="_" horiz-adv-x="903" d="M90 -348v348h723v-348h-723z" />
<glyph unicode="`" horiz-adv-x="581" d="M92 1495h346l103 -291l-246 -65z" />
<glyph unicode="a" horiz-adv-x="1226" d="M416 -20q-80 0 -149.5 26.5t-120 72.5t-79 109.5t-28.5 137.5q0 82 35 149.5t96 116.5t146 75.5t188 26.5q131 0 217 -41v33q0 76 -44 113t-142 37q-92 0 -170 -30t-164 -87l-113 242q213 137 485 137q258 0 397.5 -115t139.5 -344v-209q0 -55 16.5 -76.5t57.5 -25.5 v-328q-47 -10 -89 -15t-75 -5q-104 0 -158.5 37.5t-70.5 111.5l-9 39q-72 -92 -166 -140t-200 -48zM532 258q35 0 72 11.5t66 29.5q23 16 37 35.5t14 40.5v80q-35 12 -76 20t-74 8q-72 0 -118.5 -34.5t-46.5 -88.5q0 -45 35.5 -73.5t90.5 -28.5z" />
<glyph unicode="b" horiz-adv-x="1325" d="M784 -20q-244 0 -348 188v-168h-338v1495h389v-577q47 88 133.5 134t202.5 46q98 0 183.5 -43t146.5 -118t96 -178.5t35 -223.5q0 -121 -38 -222.5t-104.5 -175.5t-159 -115.5t-198.5 -41.5zM672 307q96 0 154.5 61.5t58.5 163.5q0 49 -15.5 92.5t-41 76t-61.5 51 t-79 18.5q-61 0 -116.5 -44t-84.5 -116v-192q76 -111 185 -111z" />
<glyph unicode="c" horiz-adv-x="1181" d="M39 539q0 111 39 212t113.5 178t185 123t254.5 46q197 0 329 -82t197 -211l-379 -115q-55 80 -149 80q-80 0 -135.5 -60.5t-55.5 -170.5q0 -111 55.5 -171.5t135.5 -60.5q94 0 149 80l379 -115q-66 -129 -198 -210.5t-328 -81.5q-143 0 -254 46t-185.5 122.5t-113.5 178 t-39 212.5z" />
<glyph unicode="d" horiz-adv-x="1361" d="M549 -20q-111 0 -204 40.5t-160.5 115.5t-105.5 178.5t-38 226.5q0 119 35 221t97.5 177t148.5 117t190 42t191.5 -47t134.5 -133v577h389v-1065q0 -55 16.5 -76.5t56.5 -25.5v-328q-100 -20 -163 -20q-199 0 -230 149l-8 39q-55 -98 -149.5 -143t-200.5 -45zM655 307 q106 0 185 111v192q-29 72 -84.5 116t-116.5 44q-43 0 -79 -18.5t-61.5 -51t-41 -75.5t-15.5 -93q0 -102 58.5 -163.5t154.5 -61.5z" />
<glyph unicode="e" d="M629 -20q-141 0 -252 44t-185.5 119.5t-113.5 174t-39 206.5q0 117 38 221.5t112.5 182.5t184 124t255.5 46q143 0 253.5 -46t185.5 -123t113 -178.5t38 -211.5q0 -31 -3.5 -63t-7.5 -56h-755q6 -86 63 -124t125 -38q63 0 119.5 28.5t75.5 80.5l329 -95 q-66 -129 -201.5 -210.5t-334.5 -81.5zM801 653q-10 78 -57.5 123t-120.5 45q-74 0 -121 -45t-58 -123h357z" />
<glyph unicode="f" horiz-adv-x="823" d="M174 0v659h-133v293h133v117q0 100 28.5 183t80 141.5t124 90.5t162.5 32q135 0 299 -62l-65 -295q-35 12 -75 20.5t-71 8.5q-94 0 -94 -105v-131h236v-293h-236v-659h-389z" />
<glyph unicode="g" horiz-adv-x="1325" d="M512 0q-104 0 -191.5 42t-148.5 114.5t-95 171t-34 213.5q0 121 37 223t103.5 176t158.5 116t203 42q117 0 205 -46t139 -134v159h338v-979q0 -127 -47 -229t-133 -174t-207 -112t-269 -40q-172 0 -299 53.5t-225 153.5l205 213q59 -55 142 -93t177 -38q53 0 101.5 14.5 t85.5 46t58.5 83t21.5 122.5v70q-47 -86 -134.5 -127t-191.5 -41zM651 307q59 0 103.5 27.5t83.5 83.5v192q-29 74 -85.5 117t-117.5 43q-41 0 -77 -19.5t-62.5 -51t-41 -75.5t-14.5 -94q0 -100 59.5 -161.5t151.5 -61.5z" />
<glyph unicode="h" horiz-adv-x="1271" d="M1182 0h-389v606q0 80 -36 116t-89 36q-18 0 -44 -11.5t-51.5 -31t-48 -48t-37.5 -63.5v-604h-389v1495h389v-577q57 88 149.5 134t207.5 46q113 0 180.5 -39t102 -97.5t45 -126t10.5 -126.5v-709z" />
<glyph unicode="i" horiz-adv-x="585" d="M98 0v1077h389v-1077h-389zM98 1167v328h389v-328h-389z" />
<glyph unicode="j" horiz-adv-x="593" d="M74 -428q-86 0 -164 28.5t-141 82.5l159 264q37 -41 97 -41q82 0 81 88v1083h390v-1052q0 -100 -31 -183.5t-87 -143.5t-134 -93t-170 -33zM106 1167v328h390v-328h-390z" />
<glyph unicode="k" horiz-adv-x="1191" d="M809 0l-244 393l-78 -86v-307h-389v1495h389v-817l287 399h410l-371 -471l408 -606h-412z" />
<glyph unicode="l" horiz-adv-x="727" d="M90 1495h389v-1067q0 -123 101 -123q25 0 53.5 8.5t52.5 22.5l49 -287q-70 -33 -156.5 -51t-164.5 -18q-156 0 -240 79.5t-84 231.5v1204z" />
<glyph unicode="m" horiz-adv-x="1925" d="M1835 0h-389v606q0 80 -32 116t-77 36q-47 0 -99 -43t-77 -111v-604h-389v606q0 80 -31.5 116t-76.5 36q-47 0 -99.5 -43t-77.5 -111v-604h-389v1077h351v-159q57 88 157.5 134t237.5 46q66 0 115 -15.5t84.5 -42t57 -59.5t34.5 -70q57 88 156.5 137.5t226.5 49.5 q106 0 168.5 -40t95.5 -99.5t43 -127t10 -122.5v-709z" />
<glyph unicode="n" horiz-adv-x="1271" d="M1182 0h-389v606q0 80 -36 116t-83 36q-49 0 -104.5 -43t-82.5 -111v-604h-389v1077h351v-159q57 88 160.5 134t244.5 46q111 0 175.5 -40t98 -99.5t44 -127t10.5 -122.5v-709z" />
<glyph unicode="o" horiz-adv-x="1257" d="M629 -20q-145 0 -255 46t-184.5 122.5t-112.5 178t-38 212.5t38 212t112.5 178t184 123t255.5 46q143 0 253.5 -46t185.5 -123t113 -178.5t38 -211.5q0 -111 -38 -212.5t-113 -178t-185.5 -122.5t-253.5 -46zM438 539q0 -109 53.5 -170.5t137.5 -61.5t137 61.5t53 170.5 t-53 170t-137 61t-137.5 -61t-53.5 -170z" />
<glyph unicode="p" horiz-adv-x="1325" d="M823 -20q-117 0 -202.5 46t-133.5 134v-596h-389v1513h338v-162q57 88 141.5 135.5t206.5 47.5q106 0 198.5 -42t158 -116t103.5 -176t38 -221q0 -121 -35 -224.5t-96 -179.5t-145.5 -117.5t-182.5 -41.5zM688 307q43 0 79 18.5t61.5 51.5t41 76t15.5 92 q0 102 -58.5 163.5t-154.5 61.5q-109 0 -185 -111v-186q29 -72 84.5 -119t116.5 -47z" />
<glyph unicode="q" horiz-adv-x="1325" d="M502 -20q-98 0 -182 41.5t-145.5 117.5t-96.5 179.5t-35 224.5q0 119 38 221t103.5 176t156.5 116t200 42q123 0 206.5 -49.5t141.5 -137.5v166h338v-1063q0 -55 20.5 -76.5t73.5 -25.5v-328q-51 -10 -110.5 -15t-104.5 -5q-55 0 -103.5 17.5t-85 48t-58 74.5t-21.5 99 v357q-47 -88 -133 -134t-203 -46zM653 307q106 0 185 111v192q-29 72 -84.5 116t-116.5 44q-43 0 -79 -18.5t-61.5 -51t-41 -75.5t-15.5 -93q0 -102 58.5 -163.5t154.5 -61.5z" />
<glyph unicode="r" horiz-adv-x="851" d="M829 745q-113 0 -205 -24.5t-137 -81.5v-639h-389v1077h357v-205q57 109 142 167.5t183 58.5q39 0 49 -2v-351z" />
<glyph unicode="s" horiz-adv-x="1026" d="M543 -20q-141 0 -276.5 46t-229.5 134l133 233q100 -68 193.5 -104.5t171.5 -36.5q82 0 81 51q0 29 -31.5 49.5t-123.5 46.5q-115 33 -191.5 65t-125 68.5t-69 81.5t-20.5 107q0 82 33 151.5t91.5 120.5t139 79t177.5 28q119 0 226 -31t216 -125l-147 -233 q-100 66 -168 93t-127 27q-35 0 -57.5 -13t-22.5 -42q0 -31 32.5 -50t129.5 -44q117 -31 196.5 -64.5t127.5 -73.5t68.5 -90.5t20.5 -115.5q0 -84 -30.5 -149.5t-89 -112.5t-141.5 -71.5t-187 -24.5z" />
<glyph unicode="t" horiz-adv-x="866" d="M854 59q-82 -35 -175 -58.5t-183 -23.5q-66 0 -125.5 16.5t-103.5 53.5t-69.5 96.5t-25.5 147.5v493h-133v293h133v338h389v-338h211v-293h-211v-356q0 -53 22.5 -74.5t61.5 -21.5q29 0 66 9t73 26z" />
<glyph unicode="u" horiz-adv-x="1306" d="M424 -20q-164 0 -250 99t-86 290v708h389v-620q0 -72 32 -111t87 -39q45 0 92 20.5t94 90.5v659h389v-647q0 -55 16.5 -76.5t57.5 -25.5v-328q-100 -20 -164 -20q-199 0 -229 149l-8 39q-76 -100 -180.5 -144t-239.5 -44z" />
<glyph unicode="v" horiz-adv-x="1153" d="M365 0l-363 1077h399l193 -772l194 772h363l-363 -1077h-423z" />
<glyph unicode="w" horiz-adv-x="1765" d="M1419 1077h367l-440 -1077h-318l-145 410l-146 -410h-317l-440 1077h366l260 -723l68 232l-193 491h310l92 -315l92 315h309l-192 -491l67 -232z" />
<glyph unicode="x" horiz-adv-x="1134" d="M393 1077l154 -264l20 -43l21 43l153 264h396l-361 -538l371 -539h-395l-166 264l-19 41l-18 -41l-166 -264h-395l370 539l-360 538h395z" />
<glyph unicode="y" horiz-adv-x="1136" d="M90 -109q94 -35 160 -34q125 0 137 143l-391 1077h399l205 -747l166 747h362l-364 -1206q-25 -80 -70 -144.5t-107.5 -110.5t-138 -70.5t-157.5 -24.5q-104 0 -201 39v331z" />
<glyph unicode="z" horiz-adv-x="1011" d="M45 229l492 582h-461v266h866v-229l-489 -582h508v-266h-916v229z" />
<glyph unicode="{" horiz-adv-x="765" d="M543 1208v-315q0 -57 -25.5 -92t-58.5 -64q31 -29 57.5 -64.5t26.5 -90.5v-338h112v-307h-413q-12 0 -29.5 11t-17.5 50v451q0 66 -40 106.5t-83 50.5v266q20 0 42.5 13.5t40 35t29 49t11.5 56.5v428q0 37 17 49.5t30 12.5h413v-308h-112z" />
<glyph unicode="|" horiz-adv-x="638" d="M156 -266v1853h327v-1853h-327z" />
<glyph unicode="}" horiz-adv-x="765" d="M111 1208v308h413q12 0 29.5 -12.5t17.5 -49.5v-428q0 -29 11.5 -56.5t29 -49t39 -35t43.5 -13.5v-266q-43 -10 -83 -51t-40 -106v-451q0 -39 -17 -50t-30 -11h-413v307h112v338q0 55 26.5 91t57.5 64q-33 29 -58.5 64t-25.5 92v315h-112z" />
<glyph unicode="~" horiz-adv-x="1249" d="M92 442q0 25 16.5 79t56.5 108.5t104.5 95.5t162.5 41q61 0 111.5 -16.5t95.5 -36t88 -35.5t92 -16q45 0 74 15t43 33.5t19.5 35t5.5 20.5h204q0 -16 -17.5 -68.5t-57 -110t-106 -101.5t-167.5 -44q-59 0 -108.5 15.5t-95.5 34t-90 34t-93 15.5q-47 0 -73.5 -14.5 t-39 -33t-15.5 -34t-3 -17.5h-207v0z" />
<glyph unicode="&#xa1;" horiz-adv-x="737" d="M563 840v-854h-389v854h389zM563 1454v-377h-389v377h389z" />
<glyph unicode="&#xa2;" horiz-adv-x="1265" d="M565 -246v228q-109 8 -199 58t-154.5 126t-101 170t-36.5 192q0 104 30.5 196.5t92 167.5t153.5 127t215 75v227h164v-227q135 -4 262 -75t203 -214l-379 -115q-14 25 -38.5 44.5t-47.5 23.5v-441q33 14 53.5 32t32.5 38l379 -115q-35 -74 -93.5 -129t-124 -91t-132 -54 t-115.5 -18v-226h-164zM475 528q0 -57 21.5 -107t68.5 -85v403q-41 -23 -65.5 -79t-24.5 -132z" />
<glyph unicode="&#xa3;" horiz-adv-x="1200" d="M125 795h113q-29 72 -57.5 143.5t-28.5 148.5q0 80 35.5 149t99 119t147.5 79.5t182 29.5q135 0 259 -56t212 -159l-196 -239q-27 31 -60.5 56.5t-70.5 43.5t-75 29.5t-71 11.5q-55 0 -86.5 -28.5t-31.5 -78.5q0 -53 29.5 -114.5t58.5 -134.5h387v-287h-365 q-14 -55 -45 -105.5t-82 -103.5q49 16 87 23.5t73 7.5q66 0 133.5 -15.5t132.5 -15.5q35 0 63.5 6t65.5 21l94 -287q-47 -31 -114.5 -50.5t-128.5 -19.5q-47 0 -98.5 10.5t-103.5 23.5t-105.5 23.5t-104.5 10.5q-59 0 -138 -15.5t-157 -39.5l-78 274q63 37 110.5 105.5 t65.5 146.5h-151v287z" />
<glyph unicode="&#xa4;" horiz-adv-x="1165" d="M375 1038q45 23 97 34t114 11q59 0 110.5 -11t94.5 -30l139 142l145 -146l-129 -129q29 -47 45.5 -102t16.5 -115q0 -121 -64 -219l131 -131l-135 -135l-145 137q-86 -43 -209 -43q-121 0 -215 45l-148 -139l-135 135l135 135q-59 96 -59 215q0 57 14.5 110.5t42.5 100.5 l-133 135l145 146zM436 692q0 -76 42 -119t108 -43t107.5 43t41.5 119t-42 119t-107 43q-66 0 -108 -43t-42 -119z" />
<glyph unicode="&#xa5;" horiz-adv-x="1519" d="M1159 885h131v-246h-258l-80 -158v-67h340v-246h-340v-168h-397v168h-338v246h338v71l-78 154h-258v246h133l-291 569h433l260 -629l266 629h434z" />
<glyph unicode="&#xa6;" horiz-adv-x="647" d="M487 520v-786h-327v786h327zM487 1587v-786h-327v786h327z" />
<glyph unicode="&#xa7;" horiz-adv-x="1128" d="M999 475q18 -29 35 -78t17 -127q0 -127 -49.5 -213t-123 -139t-159.5 -75.5t-160 -22.5q-88 0 -165 26.5t-138 64.5t-104 78t-64 66l248 238q53 -59 104.5 -82t100.5 -23q45 0 74.5 16.5t29.5 51.5t-26.5 42t-55.5 9q-115 8 -197.5 42t-138 86t-82 119t-26.5 144 q0 61 11 90t13 43q-16 23 -40.5 79.5t-24.5 133.5q0 80 33.5 155t94 134.5t145.5 95t188 35.5q98 0 176 -32.5t136 -79.5t100 -98.5t69 -90.5l-297 -139q-23 37 -59.5 66.5t-100.5 29.5q-53 0 -72.5 -20.5t-19.5 -48.5q0 -41 26.5 -49.5t61.5 -10.5q78 -4 161 -22.5 t150.5 -60.5t111.5 -110.5t44 -170.5q0 -59 -11.5 -99.5t-15.5 -52.5zM496 643q0 -29 16 -42t38.5 -19.5t47.5 -7.5t41 -7q10 8 14 21.5t4 25.5q0 39 -28.5 53.5t-53.5 14.5q-10 0 -20 1t-20 3t-21 4q-18 -14 -18 -47z" />
<glyph unicode="&#xa8;" horiz-adv-x="1159" d="M184 1188v287h320v-287h-320zM655 1188v287h320v-287h-320z" />
<glyph unicode="&#xa9;" horiz-adv-x="1734" d="M858 -14q-168 0 -311.5 56t-247.5 155.5t-162.5 234.5t-58.5 295q0 158 58.5 293t162.5 233.5t247.5 154.5t311.5 56q172 0 319.5 -56t254 -154.5t167 -233.5t60.5 -293q0 -160 -60.5 -295t-167 -234.5t-254 -155.5t-319.5 -56zM858 117q137 0 258 45t209 125 t139.5 192.5t51.5 247.5q0 125 -50.5 235.5t-137.5 193.5t-208 130t-262 47q-135 0 -252 -47t-203 -130t-134 -193.5t-48 -235.5q0 -127 48 -238.5t133 -194.5t202 -130t254 -47zM879 227q-133 0 -236.5 41t-173.5 109.5t-105.5 159t-35.5 188.5t35.5 188.5t105.5 159 t173 109.5t237 41q188 0 315 -82t190 -211l-378 -115q-47 80 -129 80q-61 0 -105.5 -44t-44.5 -126t44 -126t106 -44q82 0 129 80l378 -115q-63 -129 -190 -211t-315 -82z" />
<glyph unicode="&#xaa;" horiz-adv-x="923" d="M317 682q-53 0 -99 18.5t-80 50t-52 75.5t-18 98q0 57 22.5 104t63.5 81t97 53.5t124 19.5q86 0 139 -29v23q0 53 -26.5 79.5t-92.5 26.5q-59 0 -110.5 -20.5t-108.5 -61.5l-78 168q141 96 324 96q174 0 266 -80.5t92 -240.5v-146q0 -39 14.5 -54t49.5 -17v-230 q-35 -8 -68 -11t-57 -3q-72 0 -109 25.5t-47 78.5l-6 29q-97 -133 -240 -133zM397 877q20 0 44 8t40 20q33 23 33 53v56q-20 10 -46 15t-46 5q-45 0 -75 -24.5t-30 -61.5q0 -31 22.5 -51t57.5 -20z" />
<glyph unicode="&#xab;" horiz-adv-x="1460" d="M61 610l568 406v-311l-262 -175l262 -157v-312l-568 369v180zM780 610l568 406v-311l-263 -175l263 -157v-312l-568 369v180z" />
<glyph unicode="&#xac;" horiz-adv-x="1304" d="M1184 883v-701h-328v353h-756v348h1084z" />
<glyph unicode="&#xad;" horiz-adv-x="1288" d="M102 391v348h1084v-348h-1084z" />
<glyph unicode="&#xae;" horiz-adv-x="1734" d="M862 -14q-170 0 -314.5 56t-248.5 155.5t-162.5 234.5t-58.5 295q0 158 58.5 293t162.5 233.5t248.5 154.5t314.5 56t316.5 -56t253 -154.5t167 -233.5t60.5 -293q0 -160 -60.5 -295t-167 -234.5t-253 -155.5t-316.5 -56zM864 115q135 0 253 46t205 127t136 191.5 t49 241.5q0 129 -48 240.5t-134 194.5t-203.5 130t-257.5 47q-139 0 -255.5 -47t-200.5 -130t-131.5 -193.5t-47.5 -237.5t47.5 -237.5t131.5 -193.5t200.5 -131t255.5 -48zM514 1171h408q63 0 118.5 -26.5t94.5 -70.5t61.5 -99t22.5 -111q0 -72 -35 -139.5t-92 -108.5 l196 -321h-301l-166 268h-37v-268h-270v876zM893 793q23 0 41 14t18 57q0 47 -20.5 59.5t-42.5 12.5h-105v-143h109z" />
<glyph unicode="&#xaf;" horiz-adv-x="897" d="M131 1243v232h635v-232h-635z" />
<glyph unicode="&#xb0;" horiz-adv-x="614" d="M63 1249q0 100 68 167t176 67q109 0 176.5 -66.5t67.5 -167.5q0 -117 -67.5 -185.5t-176.5 -68.5t-176.5 70.5t-67.5 183.5zM260 1284q-18 -18 -18 -45t18 -45q20 -20 47 -20q29 0 45 20q10 8 14.5 21.5t4.5 23.5q0 29 -19 45q-8 10 -20.5 14.5t-24.5 4.5q-29 -1 -47 -19 z" />
<glyph unicode="&#xb1;" horiz-adv-x="983" d="M100 2v307h779v-307h-779zM881 946v-307h-215v-236h-349v236h-215v307h215v236h349v-236h215z" />
<glyph unicode="&#xb2;" horiz-adv-x="903" d="M53 770q0 88 12.5 152.5t43 114.5t84 89t135.5 74q49 20 96 40t84 41.5t59.5 46t22.5 58.5q0 47 -40 62.5t-108 15.5q-78 0 -141 -27.5t-104 -62.5l-140 164q45 59 153.5 101t264.5 42q178 0 273.5 -74.5t95.5 -222.5q0 -70 -25.5 -118.5t-63.5 -83.5t-83 -55.5 t-84 -30.5q-74 -20 -119 -43t-45 -64h383v-219h-754z" />
<glyph unicode="&#xb3;" horiz-adv-x="864" d="M397 756q-129 0 -219 34.5t-131 110.5l117 172q12 -12 31.5 -28.5t47 -30t64.5 -23.5t86 -10q74 0 129.5 15.5t55.5 56.5q0 47 -80 65.5t-224 18.5h-51v202h49q119 0 197 17.5t78 64.5q0 16 -14.5 26.5t-36 16.5t-45 8.5t-41.5 2.5q-80 0 -131.5 -25t-94.5 -66l-141 183 q27 29 68 50t89 35.5t101 21.5t107 7q80 0 149.5 -18t119.5 -52t78.5 -79t28.5 -96q0 -74 -54 -122t-146 -63q104 -14 162.5 -80.5t58.5 -152.5q0 -72 -36 -122t-93.5 -81t-130 -45t-148.5 -14z" />
<glyph unicode="&#xb4;" horiz-adv-x="581" d="M338 1139l-246 65l103 291h346z" />
<glyph unicode="&#xb5;" horiz-adv-x="1449" d="M154 1077h389v-620q0 -72 30.5 -111t96.5 -39q37 0 84 20.5t94 90.5v659h389v-647q0 -55 20.5 -76.5t73.5 -25.5v-328q-59 -10 -104 -15t-80 -5q-199 0 -229 149l-9 39q-12 -31 -41.5 -64.5t-68.5 -61.5t-82 -46.5t-82 -18.5q-35 0 -65.5 17.5t-51.5 58.5v-489h-364v1513 z" />
<glyph unicode="&#xb6;" horiz-adv-x="1443" d="M70 911q0 262 150.5 402.5t426.5 140.5h699v-287h-144v-1331h-328v549h-63v-549h-328v549q-92 0 -167.5 39t-131 107.5t-85 165.5t-29.5 214zM391 922q0 -102 25.5 -172t66.5 -78v495q-41 -8 -66.5 -76.5t-25.5 -168.5zM874 1167h-63v-495h63v495z" />
<glyph unicode="&#xb7;" horiz-adv-x="520" d="M102 487v377h316v-377h-316z" />
<glyph unicode="&#xb8;" horiz-adv-x="741" d="M113 -262q23 -14 76 -27.5t108 -13.5q47 0 81 14.5t34 48.5q0 35 -31 48.5t-82 13.5q-43 0 -91 -7.5t-71 -11.5l131 271l142 -39l-74 -105q12 2 25.5 3t29.5 1q37 0 72 -9t61.5 -27.5t43 -49t16.5 -73.5q0 -86 -75 -148.5t-237 -62.5q-74 0 -132 13t-99 30z" />
<glyph unicode="&#xb9;" horiz-adv-x="657" d="M614 993v-219h-518v219h156v453q-10 -14 -32.5 -32.5t-49.5 -36t-55.5 -29t-53.5 -11.5v224q31 0 65 18t61.5 40.5t46 41t18.5 20.5h225v-688h137z" />
<glyph unicode="&#xba;" horiz-adv-x="897" d="M449 682q-96 0 -169 31.5t-122 86t-75 125t-26 148.5t26 148.5t75 125t121.5 86t169.5 31.5q96 0 169.5 -31.5t123 -86t74 -125t24.5 -148.5t-24.5 -148.5t-74 -125t-123 -86t-169.5 -31.5zM330 1073q0 -76 32.5 -119t86.5 -43q53 0 85.5 43t32.5 119t-32.5 119t-85.5 43 t-86 -43t-33 -119z" />
<glyph unicode="&#xbb;" horiz-adv-x="1460" d="M1399 430l-568 -369v312l263 157l-263 175v311l568 -406v-180zM680 430l-567 -369v312l262 157l-262 175v311l567 -406v-180z" />
<glyph unicode="&#xbc;" horiz-adv-x="2088" d="M438 133l580 653l514 691l170 -154l-555 -633l-539 -710zM635 809v-219h-518v219h155v453q-10 -14 -32.5 -33t-49 -36t-55.5 -28.5t-53 -11.5v223q31 0 64.5 18.5t61.5 41t46 41t18 20.5h226v-688h137zM1667 2v170h-440v219l510 512h151v-512h131v-219h-131v-170h-221z M1434 391h241v248z" />
<glyph unicode="&#xbd;" horiz-adv-x="2115" d="M350 133l580 653l514 691l170 -154l-555 -633l-539 -710zM629 809v-219h-518v219h155v453q-10 -14 -32.5 -33t-49 -36t-55.5 -28.5t-53 -11.5v223q31 0 64.5 18.5t61 41t46 41t18.5 20.5h226v-688h137zM1247 0q0 88 12.5 152.5t43 114.5t84 89t137.5 74q49 20 95 39.5 t83 41t59.5 46.5t22.5 59q0 47 -40 62.5t-108 15.5q-78 0 -141 -27.5t-104 -62.5l-140 164q45 59 153.5 101t266.5 42q176 0 271.5 -74.5t95.5 -222.5q0 -70 -25.5 -119t-63.5 -83.5t-83 -55t-84 -30.5q-74 -20 -119 -43t-45 -64h422v-219h-793z" />
<glyph unicode="&#xbe;" horiz-adv-x="2103" d="M498 133l579 653l514 691l170 -154l-555 -633l-538 -710zM1681 2v170h-440v219l510 512h152v-512h131v-219h-131v-170h-222zM1448 391h242v248zM426 571q-129 0 -219 35t-131 111l117 172q41 -37 93 -64.5t136 -27.5q74 0 129 15t55 56q0 47 -80 65.5t-223 18.5h-51v203 h49q119 0 196.5 17.5t77.5 64.5q0 16 -14 26.5t-35.5 16.5t-45 8t-42.5 2q-80 0 -131 -24.5t-94 -65.5l-141 182q27 29 67.5 50.5t88.5 36t101.5 21.5t106.5 7q80 0 149.5 -18.5t120 -52t79 -78.5t28.5 -97q0 -74 -54 -122t-147 -62q104 -14 163 -80.5t59 -152.5 q0 -72 -36 -122t-93.5 -81t-130 -45.5t-148.5 -14.5z" />
<glyph unicode="&#xbf;" horiz-adv-x="997" d="M809 506q0 -43 -4 -85t-20.5 -80t-49.5 -73t-88 -63q-23 -12 -65.5 -32.5t-83.5 -49.5t-72 -64.5t-31 -78.5q0 -47 37 -75t86 -28q37 0 63.5 14.5t46 35t33 42t25.5 35.5l248 -176q-53 -125 -168 -194.5t-262 -69.5q-78 0 -158 22.5t-144.5 71.5t-104.5 129t-40 195 q0 98 36 179t128 142q45 31 92 53.5t87 45t66 46t26 58.5h317zM803 1036v-336h-318v336h318z" />
<glyph unicode="&#xc0;" horiz-adv-x="1366" d="M502 1454h364l504 -1454h-405l-88 285h-388l-86 -285h-407zM813 551l-129 450l-135 -450h264zM362 1874h347l102 -291l-246 -65z" />
<glyph unicode="&#xc1;" horiz-adv-x="1366" d="M502 1454h364l504 -1454h-405l-88 285h-388l-86 -285h-407zM813 551l-129 450l-135 -450h264zM803 1516l-246 65l102 291h347z" />
<glyph unicode="&#xc2;" horiz-adv-x="1366" d="M502 1454h364l504 -1454h-405l-88 285h-388l-86 -285h-407zM813 551l-129 450l-135 -450h264zM313 1636l232 236h278l232 -236l-197 -86l-174 129l-174 -129z" />
<glyph unicode="&#xc3;" horiz-adv-x="1366" d="M502 1454h364l504 -1454h-405l-88 285h-388l-86 -285h-407zM813 551l-129 450l-135 -450h264zM815 1548q-47 0 -83 15.5t-66.5 34t-60.5 34t-64 15.5q-35 0 -53.5 -14.5t-27.5 -33t-11.5 -34t-2.5 -17.5h-206q0 27 15 81t50 107.5t88 94.5t131 41q49 0 86 -16.5t68 -36 t59.5 -36t63.5 -16.5q33 0 53 15.5t31.5 35t14.5 36t3 18.5h205q0 -18 -16.5 -70.5t-51 -109t-90 -100.5t-135.5 -44z" />
<glyph unicode="&#xc4;" horiz-adv-x="1366" d="M502 1454h364l504 -1454h-405l-88 285h-388l-86 -285h-407zM813 551l-129 450l-135 -450h264zM289 1567v286h319v-286h-319zM760 1567v286h319v-286h-319z" />
<glyph unicode="&#xc5;" horiz-adv-x="1366" d="M502 1454h364l504 -1454h-405l-88 285h-388l-86 -285h-407zM813 551l-129 450l-135 -450h264zM444 1694q0 90 64.5 134t175.5 44t175.5 -44t64.5 -134t-64.5 -134t-175.5 -44t-175.5 44t-64.5 134zM684 1761q-35 0 -58.5 -18.5t-23.5 -46.5q0 -31 23.5 -50.5t58.5 -19.5 t58.5 19.5t23.5 50.5q0 29 -23.5 47t-58.5 18z" />
<glyph unicode="&#xc6;" horiz-adv-x="1988" d="M829 1454h1080v-348h-578v-193h467v-348h-467v-217h596v-348h-993v285h-412l-153 -285h-422zM903 633v381l-213 -381h213z" />
<glyph unicode="&#xc7;" horiz-adv-x="1415" d="M567 -262q23 -14 76 -27.5t109 -13.5q47 0 80.5 14.5t33.5 48.5q0 35 -30.5 48.5t-81.5 13.5q-43 0 -91.5 -7.5t-70.5 -11.5l92 191q-143 18 -261 88t-202 173t-130 229t-46 255q0 133 50 262t146.5 231.5t233.5 166t313 63.5q211 0 366 -87t230 -230l-305 -217 q-20 53 -54 88t-75 55.5t-85 28.5t-85 8q-86 0 -148.5 -34t-102.5 -88t-59 -122.5t-19 -136.5q0 -76 22.5 -145.5t65.5 -122.5t105.5 -85t139.5 -32q41 0 84 9t83 30.5t72 55.5t50 83l326 -194q-31 -74 -90.5 -133.5t-136 -102.5t-164.5 -68.5t-177 -31.5l-40 -60q12 2 25 3 t30 1q37 0 71.5 -9t61.5 -27.5t43 -49t16 -73.5q0 -86 -74.5 -148.5t-236.5 -62.5q-74 0 -132 13t-99 30z" />
<glyph unicode="&#xc8;" horiz-adv-x="1222" d="M1161 348v-348h-1036v1454h1018v-348h-619v-205h529v-323h-529v-230h637zM326 1874h346l102 -291l-246 -65z" />
<glyph unicode="&#xc9;" horiz-adv-x="1222" d="M1161 348v-348h-1036v1454h1018v-348h-619v-205h529v-323h-529v-230h637zM766 1516l-246 65l103 291h346z" />
<glyph unicode="&#xca;" horiz-adv-x="1222" d="M1161 348v-348h-1036v1454h1018v-348h-619v-205h529v-323h-529v-230h637zM276 1636l232 236h278l232 -236l-197 -86l-174 129l-174 -129z" />
<glyph unicode="&#xcb;" horiz-adv-x="1222" d="M1161 348v-348h-1036v1454h1018v-348h-619v-205h529v-323h-529v-230h637zM252 1567v286h319v-286h-319zM723 1567v286h319v-286h-319z" />
<glyph unicode="&#xcc;" horiz-adv-x="649" d="M125 0v1454h399v-1454h-399zM2 1874h346l103 -291l-246 -65z" />
<glyph unicode="&#xcd;" horiz-adv-x="649" d="M125 0v1454h399v-1454h-399zM442 1516l-245 65l102 291h346z" />
<glyph unicode="&#xce;" horiz-adv-x="649" d="M125 0v1454h399v-1454h-399zM-47 1636l231 236h279l231 -236l-196 -86l-174 129l-174 -129z" />
<glyph unicode="&#xcf;" horiz-adv-x="649" d="M125 0v1454h399v-1454h-399zM-72 1567v286h320v-286h-320zM399 1567v286h320v-286h-320z" />
<glyph unicode="&#xd0;" horiz-adv-x="1474" d="M133 0v588h-76v286h76v580h559q180 0 317.5 -57.5t229.5 -155.5t139 -230t47 -282q0 -166 -52 -300t-148.5 -229.5t-231.5 -147.5t-301 -52h-559zM1020 729q0 84 -22.5 153.5t-64.5 119t-103.5 77t-137.5 27.5h-160v-232h234v-286h-234v-240h160q78 0 139.5 29t103.5 80 t63.5 120.5t21.5 151.5z" />
<glyph unicode="&#xd1;" horiz-adv-x="1544" d="M524 715v-715h-399v1454h311l584 -739v739h399v-1454h-317zM897 1546q-47 0 -83 15.5t-66.5 34t-60.5 34t-64 15.5q-35 0 -53.5 -14.5t-28 -33t-11.5 -34t-2 -17.5h-206q0 27 15 81t50 107.5t88 94.5t131 41q49 0 86 -16.5t68 -36t59.5 -36t63.5 -16.5q33 0 53 15.5 t31.5 35t14.5 36t3 18.5h205q0 -18 -16.5 -70.5t-51.5 -109t-90 -100.5t-135 -44z" />
<glyph unicode="&#xd2;" horiz-adv-x="1566" d="M780 -12q-166 0 -301 63.5t-231 167t-149.5 236.5t-53.5 274q0 143 55.5 276.5t154.5 234.5t235.5 161.5t297.5 60.5q166 0 301.5 -63.5t231.5 -168t148.5 -237.5t52.5 -272q0 -143 -55.5 -275.5t-154 -233.5t-234.5 -162.5t-298 -61.5zM451 725q0 -74 20.5 -142.5 t61 -121.5t103 -86t148.5 -33t149.5 34t103.5 88t59.5 123.5t19.5 141.5q0 74 -20.5 142.5t-62.5 120.5t-104.5 84t-146.5 32q-86 0 -148.5 -33t-103.5 -87t-60 -122.5t-19 -140.5zM477 1874h346l103 -291l-246 -65z" />
<glyph unicode="&#xd3;" horiz-adv-x="1566" d="M780 -12q-166 0 -301 63.5t-231 167t-149.5 236.5t-53.5 274q0 143 55.5 276.5t154.5 234.5t235.5 161.5t297.5 60.5q166 0 301.5 -63.5t231.5 -168t148.5 -237.5t52.5 -272q0 -143 -55.5 -275.5t-154 -233.5t-234.5 -162.5t-298 -61.5zM451 725q0 -74 20.5 -142.5 t61 -121.5t103 -86t148.5 -33t149.5 34t103.5 88t59.5 123.5t19.5 141.5q0 74 -20.5 142.5t-62.5 120.5t-104.5 84t-146.5 32q-86 0 -148.5 -33t-103.5 -87t-60 -122.5t-19 -140.5zM924 1516l-246 65l102 291h346z" />
<glyph unicode="&#xd4;" horiz-adv-x="1566" d="M780 -12q-166 0 -301 63.5t-231 167t-149.5 236.5t-53.5 274q0 143 55.5 276.5t154.5 234.5t235.5 161.5t297.5 60.5q166 0 301.5 -63.5t231.5 -168t148.5 -237.5t52.5 -272q0 -143 -55.5 -275.5t-154 -233.5t-234.5 -162.5t-298 -61.5zM451 725q0 -74 20.5 -142.5 t61 -121.5t103 -86t148.5 -33t149.5 34t103.5 88t59.5 123.5t19.5 141.5q0 74 -20.5 142.5t-62.5 120.5t-104.5 84t-146.5 32q-86 0 -148.5 -33t-103.5 -87t-60 -122.5t-19 -140.5zM416 1636l231 236h279l231 -236l-196 -86l-175 129l-174 -129z" />
<glyph unicode="&#xd5;" horiz-adv-x="1566" d="M780 -12q-166 0 -301 63.5t-231 167t-149.5 236.5t-53.5 274q0 143 55.5 276.5t154.5 234.5t235.5 161.5t297.5 60.5q166 0 301.5 -63.5t231.5 -168t148.5 -237.5t52.5 -272q0 -143 -55.5 -275.5t-154 -233.5t-234.5 -162.5t-298 -61.5zM451 725q0 -74 20.5 -142.5 t61 -121.5t103 -86t148.5 -33t149.5 34t103.5 88t59.5 123.5t19.5 141.5q0 74 -20.5 142.5t-62.5 120.5t-104.5 84t-146.5 32q-86 0 -148.5 -33t-103.5 -87t-60 -122.5t-19 -140.5zM926 1548q-47 0 -83 15.5t-67 34t-60.5 34t-64.5 15.5t-53 -14.5t-27.5 -33t-11.5 -34 t-2 -17.5h-207q0 27 15.5 81t50.5 107.5t88 94.5t131 41q49 0 86 -16.5t67.5 -36t59.5 -36t63 -16.5q33 0 53.5 15.5t32 35t14.5 36t3 18.5h205q0 -18 -16.5 -70.5t-51.5 -109t-90 -100.5t-135 -44z" />
<glyph unicode="&#xd6;" horiz-adv-x="1566" d="M780 -12q-166 0 -301 63.5t-231 167t-149.5 236.5t-53.5 274q0 143 55.5 276.5t154.5 234.5t235.5 161.5t297.5 60.5q166 0 301.5 -63.5t231.5 -168t148.5 -237.5t52.5 -272q0 -143 -55.5 -275.5t-154 -233.5t-234.5 -162.5t-298 -61.5zM451 725q0 -74 20.5 -142.5 t61 -121.5t103 -86t148.5 -33t149.5 34t103.5 88t59.5 123.5t19.5 141.5q0 74 -20.5 142.5t-62.5 120.5t-104.5 84t-146.5 32q-86 0 -148.5 -33t-103.5 -87t-60 -122.5t-19 -140.5zM391 1567v286h320v-286h-320zM862 1567v286h320v-286h-320z" />
<glyph unicode="&#xd7;" horiz-adv-x="1007" d="M924 391l-244 -241l-178 178l-178 -178l-240 241l176 176l-164 166l244 242l164 -164l164 164l239 -242l-164 -164z" />
<glyph unicode="&#xd8;" horiz-adv-x="1562" d="M1526 1454l-185 -252q86 -102 132.5 -227t46.5 -254q0 -143 -55.5 -275.5t-154 -233.5t-234.5 -162.5t-298 -61.5q-152 0 -280 53l-29 -41h-428l178 246q-86 102 -131 226t-45 257q0 143 55.5 276.5t154.5 234.5t235.5 161.5t297.5 60.5q76 0 144.5 -14t132.5 -39l33 45 h430zM449 725q0 -74 18 -137l375 514q-31 6 -62 6q-86 0 -148.5 -33t-103.5 -87t-60 -122.5t-19 -140.5zM1114 729q0 72 -18 133l-375 -516q14 -2 29.5 -3t31.5 -1q86 0 149.5 34t103.5 88t59.5 123.5t19.5 141.5z" />
<glyph unicode="&#xd9;" horiz-adv-x="1521" d="M760 342q70 0 119 30.5t79.5 81t45 116t14.5 137.5v747h399v-747q0 -152 -39 -284t-120.5 -228.5t-205.5 -151.5t-292 -55q-174 0 -298 58t-204 156.5t-117 228.5t-37 276v747h400v-747q0 -72 14 -138.5t45 -117t79 -80t118 -29.5zM438 1874h346l103 -291l-246 -65z" />
<glyph unicode="&#xda;" horiz-adv-x="1521" d="M760 342q70 0 119 30.5t79.5 81t45 116t14.5 137.5v747h399v-747q0 -152 -39 -284t-120.5 -228.5t-205.5 -151.5t-292 -55q-174 0 -298 58t-204 156.5t-117 228.5t-37 276v747h400v-747q0 -72 14 -138.5t45 -117t79 -80t118 -29.5zM879 1516l-246 65l102 291h346z" />
<glyph unicode="&#xdb;" horiz-adv-x="1521" d="M760 342q70 0 119 30.5t79.5 81t45 116t14.5 137.5v747h399v-747q0 -152 -39 -284t-120.5 -228.5t-205.5 -151.5t-292 -55q-174 0 -298 58t-204 156.5t-117 228.5t-37 276v747h400v-747q0 -72 14 -138.5t45 -117t79 -80t118 -29.5zM389 1636l232 236h278l231 -236 l-196 -86l-174 129l-174 -129z" />
<glyph unicode="&#xdc;" horiz-adv-x="1521" d="M760 342q70 0 119 30.5t79.5 81t45 116t14.5 137.5v747h399v-747q0 -152 -39 -284t-120.5 -228.5t-205.5 -151.5t-292 -55q-174 0 -298 58t-204 156.5t-117 228.5t-37 276v747h400v-747q0 -72 14 -138.5t45 -117t79 -80t118 -29.5zM365 1567v286h319v-286h-319zM836 1567 v286h319v-286h-319z" />
<glyph unicode="&#xdd;" horiz-adv-x="1363" d="M420 1454l260 -629l266 629h434l-501 -973v-481h-398v485l-493 969h432zM799 1516l-246 65l102 291h346z" />
<glyph unicode="&#xde;" horiz-adv-x="1239" d="M721 1212q106 0 196.5 -44t155 -114.5t101 -160.5t36.5 -182q0 -98 -34.5 -188.5t-97 -161t-151.5 -112.5t-196 -42h-207v-207h-399v1454h399v-242h197zM711 555q39 0 69.5 42t30.5 114q0 76 -36 114.5t-75 38.5h-176v-309h187z" />
<glyph unicode="&#xdf;" horiz-adv-x="1153" d="M520 344q76 0 130.5 36t54.5 105q0 37 -15.5 62.5t-38 42t-46 24t-42.5 7.5h-47v348h43q43 0 61.5 22.5t18.5 57.5q0 33 -13.5 50t-29.5 25.5t-29.5 9.5t-15.5 1q-31 0 -48.5 -15.5t-25.5 -36t-9 -41t-1 -30.5v-1012h-369v1083q0 82 38 151t104.5 120t155.5 79.5 t194 28.5q90 0 167 -22.5t132 -66.5t87 -108.5t32 -146.5q0 -51 -12.5 -98t-32 -85t-46 -66.5t-55.5 -43.5q117 -45 184.5 -143t67.5 -246q0 -133 -54 -220t-139 -137t-190.5 -70.5t-210.5 -20.5v356z" />
<glyph unicode="&#xe0;" horiz-adv-x="1226" d="M416 -20q-80 0 -149.5 26.5t-120 72.5t-79 109.5t-28.5 137.5q0 82 35 149.5t96 116.5t146 75.5t188 26.5q131 0 217 -41v33q0 76 -44 113t-142 37q-92 0 -170 -30t-164 -87l-113 242q213 137 485 137q258 0 397.5 -115t139.5 -344v-209q0 -55 16.5 -76.5t57.5 -25.5 v-328q-47 -10 -89 -15t-75 -5q-104 0 -158.5 37.5t-70.5 111.5l-9 39q-72 -92 -166 -140t-200 -48zM532 258q35 0 72 11.5t66 29.5q23 16 37 35.5t14 40.5v80q-35 12 -76 20t-74 8q-72 0 -118.5 -34.5t-46.5 -88.5q0 -45 35.5 -73.5t90.5 -28.5zM252 1497h346l102 -291 l-245 -65z" />
<glyph unicode="&#xe1;" horiz-adv-x="1226" d="M416 -20q-80 0 -149.5 26.5t-120 72.5t-79 109.5t-28.5 137.5q0 82 35 149.5t96 116.5t146 75.5t188 26.5q131 0 217 -41v33q0 76 -44 113t-142 37q-92 0 -170 -30t-164 -87l-113 242q213 137 485 137q258 0 397.5 -115t139.5 -344v-209q0 -55 16.5 -76.5t57.5 -25.5 v-328q-47 -10 -89 -15t-75 -5q-104 0 -158.5 37.5t-70.5 111.5l-9 39q-72 -92 -166 -140t-200 -48zM532 258q35 0 72 11.5t66 29.5q23 16 37 35.5t14 40.5v80q-35 12 -76 20t-74 8q-72 0 -118.5 -34.5t-46.5 -88.5q0 -45 35.5 -73.5t90.5 -28.5zM692 1139l-246 65l103 291 h346z" />
<glyph unicode="&#xe2;" horiz-adv-x="1226" d="M416 -20q-80 0 -149.5 26.5t-120 72.5t-79 109.5t-28.5 137.5q0 82 35 149.5t96 116.5t146 75.5t188 26.5q131 0 217 -41v33q0 76 -44 113t-142 37q-92 0 -170 -30t-164 -87l-113 242q213 137 485 137q258 0 397.5 -115t139.5 -344v-209q0 -55 16.5 -76.5t57.5 -25.5 v-328q-47 -10 -89 -15t-75 -5q-104 0 -158.5 37.5t-70.5 111.5l-9 39q-72 -92 -166 -140t-200 -48zM532 258q35 0 72 11.5t66 29.5q23 16 37 35.5t14 40.5v80q-35 12 -76 20t-74 8q-72 0 -118.5 -34.5t-46.5 -88.5q0 -45 35.5 -73.5t90.5 -28.5zM203 1260l231 235h279 l231 -235l-196 -86l-175 129l-174 -129z" />
<glyph unicode="&#xe3;" horiz-adv-x="1226" d="M416 -20q-80 0 -149.5 26.5t-120 72.5t-79 109.5t-28.5 137.5q0 82 35 149.5t96 116.5t146 75.5t188 26.5q131 0 217 -41v33q0 76 -44 113t-142 37q-92 0 -170 -30t-164 -87l-113 242q213 137 485 137q258 0 397.5 -115t139.5 -344v-209q0 -55 16.5 -76.5t57.5 -25.5 v-328q-47 -10 -89 -15t-75 -5q-104 0 -158.5 37.5t-70.5 111.5l-9 39q-72 -92 -166 -140t-200 -48zM532 258q35 0 72 11.5t66 29.5q23 16 37 35.5t14 40.5v80q-35 12 -76 20t-74 8q-72 0 -118.5 -34.5t-46.5 -88.5q0 -45 35.5 -73.5t90.5 -28.5zM705 1171q-47 0 -83 15.5 t-67 34t-60.5 34t-64.5 15.5t-53.5 -14.5t-27.5 -33t-11 -33.5t-2 -18h-207q0 27 15.5 81.5t50 107.5t88 94t131.5 41q49 0 86 -16.5t67.5 -36t59 -35.5t63.5 -16q33 0 53.5 15t31.5 34.5t14.5 36t3.5 18.5h204q0 -18 -16 -70.5t-51 -108.5t-90 -100.5t-135 -44.5z" />
<glyph unicode="&#xe4;" horiz-adv-x="1226" d="M416 -20q-80 0 -149.5 26.5t-120 72.5t-79 109.5t-28.5 137.5q0 82 35 149.5t96 116.5t146 75.5t188 26.5q131 0 217 -41v33q0 76 -44 113t-142 37q-92 0 -170 -30t-164 -87l-113 242q213 137 485 137q258 0 397.5 -115t139.5 -344v-209q0 -55 16.5 -76.5t57.5 -25.5 v-328q-47 -10 -89 -15t-75 -5q-104 0 -158.5 37.5t-70.5 111.5l-9 39q-72 -92 -166 -140t-200 -48zM532 258q35 0 72 11.5t66 29.5q23 16 37 35.5t14 40.5v80q-35 12 -76 20t-74 8q-72 0 -118.5 -34.5t-46.5 -88.5q0 -45 35.5 -73.5t90.5 -28.5zM178 1190v287h320v-287h-320 zM649 1190v287h320v-287h-320z" />
<glyph unicode="&#xe5;" horiz-adv-x="1226" d="M416 -20q-80 0 -149.5 26.5t-120 72.5t-79 109.5t-28.5 137.5q0 82 35 149.5t96 116.5t146 75.5t188 26.5q131 0 217 -41v33q0 76 -44 113t-142 37q-92 0 -170 -30t-164 -87l-113 242q213 137 485 137q258 0 397.5 -115t139.5 -344v-209q0 -55 16.5 -76.5t57.5 -25.5 v-328q-47 -10 -89 -15t-75 -5q-104 0 -158.5 37.5t-70.5 111.5l-9 39q-72 -92 -166 -140t-200 -48zM532 258q35 0 72 11.5t66 29.5q23 16 37 35.5t14 40.5v80q-35 12 -76 20t-74 8q-72 0 -118.5 -34.5t-46.5 -88.5q0 -45 35.5 -73.5t90.5 -28.5zM334 1317q0 90 64.5 134 t174.5 44q111 0 175.5 -44t64.5 -134t-64.5 -134t-175.5 -44t-175 44t-64 134zM573 1384q-35 0 -58 -18t-23 -47q0 -31 23.5 -50.5t57.5 -19.5q35 0 58.5 19.5t23.5 50.5q0 29 -23.5 47t-58.5 18z" />
<glyph unicode="&#xe6;" horiz-adv-x="1929" d="M416 -20q-80 0 -149.5 26.5t-120 72.5t-79 109.5t-28.5 137.5q0 82 35 149.5t96 116.5t146 75.5t188 26.5q131 0 217 -41v33q-2 76 -45 113t-141 37q-92 0 -170 -30t-164 -87l-113 242q213 137 485 137q240 0 379 -103q70 47 159 75t200 28q143 0 253.5 -46t185.5 -123 t113 -178.5t38 -211.5q0 -31 -3.5 -63t-7.5 -56h-755q6 -86 63 -124t125 -38q63 0 119.5 28.5t75.5 80.5l329 -95q-66 -129 -202 -210.5t-334 -81.5q-164 0 -284 57t-193 151q-39 -55 -90.5 -95t-106.5 -64.5t-112.5 -36.5t-108.5 -12zM532 258q35 0 72 11.5t66 29.5 q23 16 37 35.5t14 40.5v80q-35 12 -76 20t-74 8q-72 0 -118.5 -34.5t-46.5 -88.5q0 -45 35.5 -73.5t90.5 -28.5zM1483 653q-10 78 -57.5 123t-120.5 45q-74 0 -121 -45t-58 -123h357z" />
<glyph unicode="&#xe7;" horiz-adv-x="1181" d="M442 -262q23 -14 76 -27.5t109 -13.5q47 0 80.5 14.5t33.5 48.5q0 35 -30.5 48.5t-81.5 13.5q-43 0 -91.5 -7.5t-70.5 -11.5l86 181q-125 12 -220 61t-161 125t-99.5 171t-33.5 198q0 111 39 212t113.5 178t185 123t254.5 46q197 0 329 -82t197 -211l-379 -115 q-55 80 -149 80q-80 0 -135.5 -60.5t-55.5 -170.5q0 -111 55.5 -171.5t135.5 -60.5q94 0 149 80l379 -115q-59 -117 -174 -195.5t-281 -92.5l-36 -54q12 2 25.5 3t29.5 1q37 0 71.5 -9t61.5 -27.5t43 -49t16 -73.5q0 -86 -74.5 -148.5t-236.5 -62.5q-74 0 -132 13t-99 30z " />
<glyph unicode="&#xe8;" d="M629 -20q-141 0 -252 44t-185.5 119.5t-113.5 174t-39 206.5q0 117 38 221.5t112.5 182.5t184 124t255.5 46q143 0 253.5 -46t185.5 -123t113 -178.5t38 -211.5q0 -31 -3.5 -63t-7.5 -56h-755q6 -86 63 -124t125 -38q63 0 119.5 28.5t75.5 80.5l329 -95 q-66 -129 -201.5 -210.5t-334.5 -81.5zM801 653q-10 78 -57.5 123t-120.5 45q-74 0 -121 -45t-58 -123h357zM307 1497h346l103 -291l-246 -65z" />
<glyph unicode="&#xe9;" d="M629 -20q-141 0 -252 44t-185.5 119.5t-113.5 174t-39 206.5q0 117 38 221.5t112.5 182.5t184 124t255.5 46q143 0 253.5 -46t185.5 -123t113 -178.5t38 -211.5q0 -31 -3.5 -63t-7.5 -56h-755q6 -86 63 -124t125 -38q63 0 119.5 28.5t75.5 80.5l329 -95 q-66 -129 -201.5 -210.5t-334.5 -81.5zM801 653q-10 78 -57.5 123t-120.5 45q-74 0 -121 -45t-58 -123h357zM748 1139l-246 65l102 291h346z" />
<glyph unicode="&#xea;" d="M629 -20q-141 0 -252 44t-185.5 119.5t-113.5 174t-39 206.5q0 117 38 221.5t112.5 182.5t184 124t255.5 46q143 0 253.5 -46t185.5 -123t113 -178.5t38 -211.5q0 -31 -3.5 -63t-7.5 -56h-755q6 -86 63 -124t125 -38q63 0 119.5 28.5t75.5 80.5l329 -95 q-66 -129 -201.5 -210.5t-334.5 -81.5zM801 653q-10 78 -57.5 123t-120.5 45q-74 0 -121 -45t-58 -123h357zM258 1260l231 235h279l231 -235l-196 -86l-174 129l-174 -129z" />
<glyph unicode="&#xeb;" d="M629 -20q-141 0 -252 44t-185.5 119.5t-113.5 174t-39 206.5q0 117 38 221.5t112.5 182.5t184 124t255.5 46q143 0 253.5 -46t185.5 -123t113 -178.5t38 -211.5q0 -31 -3.5 -63t-7.5 -56h-755q6 -86 63 -124t125 -38q63 0 119.5 28.5t75.5 80.5l329 -95 q-66 -129 -201.5 -210.5t-334.5 -81.5zM801 653q-10 78 -57.5 123t-120.5 45q-74 0 -121 -45t-58 -123h357zM233 1190v287h320v-287h-320zM705 1190v287h319v-287h-319z" />
<glyph unicode="&#xec;" horiz-adv-x="585" d="M98 0v1077h389v-1077h-389zM-29 1497h346l103 -291l-246 -65z" />
<glyph unicode="&#xed;" horiz-adv-x="585" d="M98 0v1077h389v-1077h-389zM412 1139l-246 65l102 291h346z" />
<glyph unicode="&#xee;" horiz-adv-x="585" d="M98 0v1077h389v-1077h-389zM-78 1260l232 235h278l232 -235l-197 -86l-174 129l-174 -129z" />
<glyph unicode="&#xef;" horiz-adv-x="585" d="M98 0v1077h389v-1077h-389zM-102 1190v287h319v-287h-319zM369 1190v287h319v-287h-319z" />
<glyph unicode="&#xf0;" horiz-adv-x="1271" d="M1128 1313l-127 -66q104 -135 164 -303t60 -348q0 -145 -41 -259t-117 -194t-185.5 -121.5t-246.5 -41.5q-129 0 -237.5 36.5t-187.5 103t-122 158t-43 201.5q0 102 38 190.5t103.5 154t154.5 103.5t191 38q82 0 158 -25t135 -70q-18 68 -47.5 130.5t-72.5 121.5 l-156 -78l-107 146l138 70q-137 125 -359 235h471q47 -23 93 -50.5t89 -64.5l148 78zM444 481q0 -78 52.5 -126t138.5 -48t138 48t52 126t-52 126t-138 48t-138.5 -48t-52.5 -126z" />
<glyph unicode="&#xf1;" horiz-adv-x="1271" d="M1182 0h-389v606q0 80 -36 116t-83 36q-49 0 -104.5 -43t-82.5 -111v-604h-389v1077h351v-159q57 88 160.5 134t244.5 46q111 0 175.5 -40t98 -99.5t44 -127t10.5 -122.5v-709zM813 1171q-47 0 -83 15.5t-66.5 34t-60.5 34t-64 15.5q-35 0 -53.5 -14.5t-27.5 -33 t-11.5 -33.5t-2.5 -18h-206q0 27 15 81.5t50 107.5t88 94t131 41q49 0 86 -16.5t68 -36t59.5 -35.5t63.5 -16q33 0 53 15t31.5 34.5t14.5 36t3 18.5h205q0 -18 -16.5 -70.5t-51 -108.5t-90 -100.5t-135.5 -44.5z" />
<glyph unicode="&#xf2;" horiz-adv-x="1257" d="M629 -20q-145 0 -255 46t-184.5 122.5t-112.5 178t-38 212.5t38 212t112.5 178t184 123t255.5 46q143 0 253.5 -46t185.5 -123t113 -178.5t38 -211.5q0 -111 -38 -212.5t-113 -178t-185.5 -122.5t-253.5 -46zM438 539q0 -109 53.5 -170.5t137.5 -61.5t137 61.5t53 170.5 t-53 170t-137 61t-137.5 -61t-53.5 -170zM307 1497h346l103 -291l-246 -65z" />
<glyph unicode="&#xf3;" horiz-adv-x="1257" d="M629 -20q-145 0 -255 46t-184.5 122.5t-112.5 178t-38 212.5t38 212t112.5 178t184 123t255.5 46q143 0 253.5 -46t185.5 -123t113 -178.5t38 -211.5q0 -111 -38 -212.5t-113 -178t-185.5 -122.5t-253.5 -46zM438 539q0 -109 53.5 -170.5t137.5 -61.5t137 61.5t53 170.5 t-53 170t-137 61t-137.5 -61t-53.5 -170zM748 1139l-246 65l102 291h346z" />
<glyph unicode="&#xf4;" horiz-adv-x="1257" d="M629 -20q-145 0 -255 46t-184.5 122.5t-112.5 178t-38 212.5t38 212t112.5 178t184 123t255.5 46q143 0 253.5 -46t185.5 -123t113 -178.5t38 -211.5q0 -111 -38 -212.5t-113 -178t-185.5 -122.5t-253.5 -46zM438 539q0 -109 53.5 -170.5t137.5 -61.5t137 61.5t53 170.5 t-53 170t-137 61t-137.5 -61t-53.5 -170zM258 1260l231 235h279l231 -235l-196 -86l-174 129l-174 -129z" />
<glyph unicode="&#xf5;" horiz-adv-x="1257" d="M629 -20q-145 0 -255 46t-184.5 122.5t-112.5 178t-38 212.5t38 212t112.5 178t184 123t255.5 46q143 0 253.5 -46t185.5 -123t113 -178.5t38 -211.5q0 -111 -38 -212.5t-113 -178t-185.5 -122.5t-253.5 -46zM438 539q0 -109 53.5 -170.5t137.5 -61.5t137 61.5t53 170.5 t-53 170t-137 61t-137.5 -61t-53.5 -170zM760 1171q-47 0 -83 15.5t-66.5 34t-60.5 34t-65 15.5t-53 -14.5t-27.5 -33t-11.5 -33.5t-2 -18h-207q0 27 15.5 81.5t50.5 107.5t88 94t131 41q49 0 86 -16.5t67.5 -36t59.5 -35.5t63 -16q33 0 53.5 15t32 34.5t14.5 36t3 18.5h205 q0 -18 -16.5 -70.5t-51.5 -108.5t-90 -100.5t-135 -44.5z" />
<glyph unicode="&#xf6;" horiz-adv-x="1257" d="M629 -20q-145 0 -255 46t-184.5 122.5t-112.5 178t-38 212.5t38 212t112.5 178t184 123t255.5 46q143 0 253.5 -46t185.5 -123t113 -178.5t38 -211.5q0 -111 -38 -212.5t-113 -178t-185.5 -122.5t-253.5 -46zM438 539q0 -109 53.5 -170.5t137.5 -61.5t137 61.5t53 170.5 t-53 170t-137 61t-137.5 -61t-53.5 -170zM233 1190v287h320v-287h-320zM705 1190v287h319v-287h-319z" />
<glyph unicode="&#xf7;" horiz-adv-x="993" d="M336 891v328h326v-328h-326zM336 55v328h326v-328h-326zM84 481v307h827v-307h-827z" />
<glyph unicode="&#xf8;" horiz-adv-x="1257" d="M29 -12l151 170q-72 78 -106.5 175t-34.5 206q0 111 38 212t112.5 178t184 123t255.5 46q94 0 172 -19.5t143 -54.5l60 66h206l-143 -160q76 -78 114 -179.5t38 -211.5q0 -111 -38 -212.5t-113 -178t-185.5 -122.5t-253.5 -46q-98 0 -181 21.5t-149 59.5l-66 -73h-204z M629 307q84 0 137 61.5t53 170.5q0 57 -16 102l-273 -307q42 -27 99 -27zM438 539q0 -25 3 -46.5t8 -41.5l266 299q-45 20 -86 20q-84 0 -137.5 -61t-53.5 -170z" />
<glyph unicode="&#xf9;" horiz-adv-x="1306" d="M424 -20q-164 0 -250 99t-86 290v708h389v-620q0 -72 32 -111t87 -39q45 0 92 20.5t94 90.5v659h389v-647q0 -55 16.5 -76.5t57.5 -25.5v-328q-100 -20 -164 -20q-199 0 -229 149l-8 39q-76 -100 -180.5 -144t-239.5 -44zM309 1497h346l103 -291l-246 -65z" />
<glyph unicode="&#xfa;" horiz-adv-x="1306" d="M424 -20q-164 0 -250 99t-86 290v708h389v-620q0 -72 32 -111t87 -39q45 0 92 20.5t94 90.5v659h389v-647q0 -55 16.5 -76.5t57.5 -25.5v-328q-100 -20 -164 -20q-199 0 -229 149l-8 39q-76 -100 -180.5 -144t-239.5 -44zM750 1139l-246 65l102 291h346z" />
<glyph unicode="&#xfb;" horiz-adv-x="1306" d="M424 -20q-164 0 -250 99t-86 290v708h389v-620q0 -72 32 -111t87 -39q45 0 92 20.5t94 90.5v659h389v-647q0 -55 16.5 -76.5t57.5 -25.5v-328q-100 -20 -164 -20q-199 0 -229 149l-8 39q-76 -100 -180.5 -144t-239.5 -44zM260 1260l232 235h278l231 -235l-196 -86 l-174 129l-174 -129z" />
<glyph unicode="&#xfc;" horiz-adv-x="1306" d="M424 -20q-164 0 -250 99t-86 290v708h389v-620q0 -72 32 -111t87 -39q45 0 92 20.5t94 90.5v659h389v-647q0 -55 16.5 -76.5t57.5 -25.5v-328q-100 -20 -164 -20q-199 0 -229 149l-8 39q-76 -100 -180.5 -144t-239.5 -44zM236 1190v287h319v-287h-319zM707 1190v287h319 v-287h-319z" />
<glyph unicode="&#xfd;" horiz-adv-x="1136" d="M90 -109q94 -35 160 -34q125 0 137 143l-391 1077h399l205 -747l166 747h362l-364 -1206q-25 -80 -70 -144.5t-107.5 -110.5t-138 -70.5t-157.5 -24.5q-104 0 -201 39v331zM719 1139l-246 65l102 291h347z" />
<glyph unicode="&#xfe;" horiz-adv-x="1226" d="M1190 522q0 -117 -45 -223t-120 -187t-175 -128t-211 -47q-47 0 -87 10t-54 26v-409h-400v1890h400v-379q23 18 62.5 28.5t92.5 10.5q109 0 206 -47t171 -128t117 -188.5t43 -228.5zM791 530q0 109 -44.5 172.5t-117.5 63.5q-41 0 -72 -21.5t-59 -74.5v-303 q0 -14 11 -28.5t29.5 -27t41 -19.5t45.5 -7q74 0 120 67t46 178z" />
<glyph unicode="&#xff;" horiz-adv-x="1136" d="M90 -109q94 -35 160 -34q125 0 137 143l-391 1077h399l205 -747l166 747h362l-364 -1206q-25 -80 -70 -144.5t-107.5 -110.5t-138 -70.5t-157.5 -24.5q-104 0 -201 39v331zM205 1190v287h319v-287h-319zM676 1190v287h319v-287h-319z" />
<glyph unicode="&#x100;" horiz-adv-x="1366" d="M502 1454h364l504 -1454h-405l-88 285h-388l-86 -285h-407zM813 551l-129 450l-135 -450h264zM369 1620v231h635v-231h-635z" />
<glyph unicode="&#x101;" horiz-adv-x="1226" d="M416 -20q-80 0 -149.5 26.5t-120 72.5t-79 109.5t-28.5 137.5q0 82 35 149.5t96 116.5t146 75.5t188 26.5q131 0 217 -41v33q0 76 -44 113t-142 37q-92 0 -170 -30t-164 -87l-113 242q213 137 485 137q258 0 397.5 -115t139.5 -344v-209q0 -55 16.5 -76.5t57.5 -25.5 v-328q-47 -10 -89 -15t-75 -5q-104 0 -158.5 37.5t-70.5 111.5l-9 39q-72 -92 -166 -140t-200 -48zM532 258q35 0 72 11.5t66 29.5q23 16 37 35.5t14 40.5v80q-35 12 -76 20t-74 8q-72 0 -118.5 -34.5t-46.5 -88.5q0 -45 35.5 -73.5t90.5 -28.5zM258 1243v232h635v-232h-635 z" />
<glyph unicode="&#x102;" horiz-adv-x="1366" d="M502 1454h364l504 -1454h-405l-88 285h-388l-86 -285h-407zM813 551l-129 450l-135 -450h264zM684 1706q47 0 83 47t42 119h201q0 -74 -23.5 -134.5t-66.5 -104.5t-103.5 -68.5t-132.5 -24.5t-132 24.5t-103 68.5t-67 104.5t-24 134.5h201q0 -68 37 -117t88 -49z" />
<glyph unicode="&#x103;" horiz-adv-x="1226" d="M416 -20q-80 0 -149.5 26.5t-120 72.5t-79 109.5t-28.5 137.5q0 82 35 149.5t96 116.5t146 75.5t188 26.5q131 0 217 -41v33q0 76 -44 113t-142 37q-92 0 -170 -30t-164 -87l-113 242q213 137 485 137q258 0 397.5 -115t139.5 -344v-209q0 -55 16.5 -76.5t57.5 -25.5 v-328q-47 -10 -89 -15t-75 -5q-104 0 -158.5 37.5t-70.5 111.5l-9 39q-72 -92 -166 -140t-200 -48zM532 258q35 0 72 11.5t66 29.5q23 16 37 35.5t14 40.5v80q-35 12 -76 20t-74 8q-72 0 -118.5 -34.5t-46.5 -88.5q0 -45 35.5 -73.5t90.5 -28.5zM573 1329q47 0 83 47t42 119 h201q0 -74 -23.5 -134.5t-66.5 -104.5t-103.5 -68.5t-132.5 -24.5t-132 24.5t-103 68.5t-66.5 104.5t-23.5 134.5h201q0 -68 36.5 -117t87.5 -49z" />
<glyph unicode="&#x104;" horiz-adv-x="1392" d="M1294 -440q-160 18 -235.5 75.5t-75.5 128.5q0 59 44 121t132 115h-194l-88 285h-388l-86 -285h-407l506 1454h364l504 -1454q-72 -41 -109.5 -83t-37.5 -77t34.5 -55.5t108.5 -20.5zM813 551l-129 450l-135 -450h264z" />
<glyph unicode="&#x105;" horiz-adv-x="1228" d="M1108 -440q-160 18 -235.5 75.5t-75.5 128.5q0 55 37.5 112.5t113.5 109.5q-133 20 -157 143l-9 39q-72 -92 -166 -140t-200 -48q-80 0 -149.5 26.5t-120 72.5t-79 109.5t-28.5 137.5q0 82 35 149.5t96 116.5t146 75.5t188 26.5q131 0 217 -41v33q0 76 -44 113t-142 37 q-92 0 -170 -30t-164 -87l-113 242q213 137 485 137q258 0 397.5 -115t139.5 -344v-209q0 -55 16.5 -76.5t57.5 -25.5v-328q-72 -41 -110 -83t-38 -77t35 -55.5t109 -20.5zM532 258q35 0 72 11.5t66 29.5q23 16 37 35.5t14 40.5v80q-35 12 -76 20t-74 8q-72 0 -118.5 -34.5 t-46.5 -88.5q0 -45 35.5 -73.5t90.5 -28.5z" />
<glyph unicode="&#x106;" horiz-adv-x="1415" d="M45 739q0 133 50 262t146.5 231.5t233.5 166t313 63.5q211 0 366 -87t230 -230l-305 -217q-20 53 -54 88t-75 55.5t-85 28.5t-85 8q-86 0 -148.5 -34t-102.5 -88t-59 -122.5t-19 -136.5q0 -76 22.5 -145.5t65.5 -122.5t105.5 -85t139.5 -32q41 0 84 9t83 30.5t72 55.5 t50 83l326 -194q-33 -80 -99.5 -143.5t-151.5 -106.5t-182.5 -65.5t-189.5 -22.5q-162 0 -296 64.5t-231 171t-150.5 241.5t-53.5 274zM918 1516l-246 65l102 291h346z" />
<glyph unicode="&#x107;" horiz-adv-x="1181" d="M39 539q0 111 39 212t113.5 178t185 123t254.5 46q197 0 329 -82t197 -211l-379 -115q-55 80 -149 80q-80 0 -135.5 -60.5t-55.5 -170.5q0 -111 55.5 -171.5t135.5 -60.5q94 0 149 80l379 -115q-66 -129 -198 -210.5t-328 -81.5q-143 0 -254 46t-185.5 122.5t-113.5 178 t-39 212.5zM750 1139l-246 65l102 291h346z" />
<glyph unicode="&#x108;" horiz-adv-x="1415" d="M45 739q0 133 50 262t146.5 231.5t233.5 166t313 63.5q211 0 366 -87t230 -230l-305 -217q-20 53 -54 88t-75 55.5t-85 28.5t-85 8q-86 0 -148.5 -34t-102.5 -88t-59 -122.5t-19 -136.5q0 -76 22.5 -145.5t65.5 -122.5t105.5 -85t139.5 -32q41 0 84 9t83 30.5t72 55.5 t50 83l326 -194q-33 -80 -99.5 -143.5t-151.5 -106.5t-182.5 -65.5t-189.5 -22.5q-162 0 -296 64.5t-231 171t-150.5 241.5t-53.5 274zM412 1636l231 236h279l231 -236l-197 -86l-174 129l-174 -129z" />
<glyph unicode="&#x109;" horiz-adv-x="1181" d="M39 539q0 111 39 212t113.5 178t185 123t254.5 46q197 0 329 -82t197 -211l-379 -115q-55 80 -149 80q-80 0 -135.5 -60.5t-55.5 -170.5q0 -111 55.5 -171.5t135.5 -60.5q94 0 149 80l379 -115q-66 -129 -198 -210.5t-328 -81.5q-143 0 -254 46t-185.5 122.5t-113.5 178 t-39 212.5zM260 1260l232 235h278l231 -235l-196 -86l-174 129l-174 -129z" />
<glyph unicode="&#x10a;" horiz-adv-x="1415" d="M45 739q0 133 50 262t146.5 231.5t233.5 166t313 63.5q211 0 366 -87t230 -230l-305 -217q-20 53 -54 88t-75 55.5t-85 28.5t-85 8q-86 0 -148.5 -34t-102.5 -88t-59 -122.5t-19 -136.5q0 -76 22.5 -145.5t65.5 -122.5t105.5 -85t139.5 -32q41 0 84 9t83 30.5t72 55.5 t50 83l326 -194q-33 -80 -99.5 -143.5t-151.5 -106.5t-182.5 -65.5t-189.5 -22.5q-162 0 -296 64.5t-231 171t-150.5 241.5t-53.5 274zM625 1565v307h348v-307h-348z" />
<glyph unicode="&#x10b;" horiz-adv-x="1181" d="M39 539q0 111 39 212t113.5 178t185 123t254.5 46q197 0 329 -82t197 -211l-379 -115q-55 80 -149 80q-80 0 -135.5 -60.5t-55.5 -170.5q0 -111 55.5 -171.5t135.5 -60.5q94 0 149 80l379 -115q-66 -129 -198 -210.5t-328 -81.5q-143 0 -254 46t-185.5 122.5t-113.5 178 t-39 212.5zM457 1188v307h348v-307h-348z" />
<glyph unicode="&#x10c;" horiz-adv-x="1415" d="M45 739q0 133 50 262t146.5 231.5t233.5 166t313 63.5q211 0 366 -87t230 -230l-305 -217q-20 53 -54 88t-75 55.5t-85 28.5t-85 8q-86 0 -148.5 -34t-102.5 -88t-59 -122.5t-19 -136.5q0 -76 22.5 -145.5t65.5 -122.5t105.5 -85t139.5 -32q41 0 84 9t83 30.5t72 55.5 t50 83l326 -194q-33 -80 -99.5 -143.5t-151.5 -106.5t-182.5 -65.5t-189.5 -22.5q-162 0 -296 64.5t-231 171t-150.5 241.5t-53.5 274zM635 1872l174 -129l174 129l197 -86l-232 -236h-278l-232 236z" />
<glyph unicode="&#x10d;" horiz-adv-x="1181" d="M39 539q0 111 39 212t113.5 178t185 123t254.5 46q197 0 329 -82t197 -211l-379 -115q-55 80 -149 80q-80 0 -135.5 -60.5t-55.5 -170.5q0 -111 55.5 -171.5t135.5 -60.5q94 0 149 80l379 -115q-66 -129 -198 -210.5t-328 -81.5q-143 0 -254 46t-185.5 122.5t-113.5 178 t-39 212.5zM457 1495l174 -129l174 129l196 -86l-231 -235h-278l-232 235z" />
<glyph unicode="&#x10e;" horiz-adv-x="1466" d="M125 0v1454h559q180 0 317.5 -57.5t229.5 -155.5t139 -230t47 -282q0 -166 -52 -300t-148.5 -229.5t-231.5 -147.5t-301 -52h-559zM1012 729q0 84 -22.5 153.5t-64.5 119t-103.5 77t-137.5 27.5h-160v-758h160q78 0 139.5 29t103.5 80t63.5 120.5t21.5 151.5zM475 1872 l174 -129l174 129l197 -86l-232 -236h-278l-231 236z" />
<glyph unicode="&#x10f;" horiz-adv-x="1361" d="M549 -20q-111 0 -204 40.5t-160.5 115.5t-105.5 178.5t-38 226.5q0 119 35 221t97.5 177t148.5 117t190 42t191.5 -47t134.5 -133v577h389v-1065q0 -55 16.5 -76.5t56.5 -25.5v-328q-100 -20 -163 -20q-199 0 -230 149l-8 39q-55 -98 -149.5 -143t-200.5 -45zM655 307 q106 0 185 111v192q-29 72 -84.5 116t-116.5 44q-43 0 -79 -18.5t-61.5 -51t-41 -75.5t-15.5 -93q0 -102 58.5 -163.5t154.5 -61.5zM1513 1139l-245 65l102 291h346z" />
<glyph unicode="&#x110;" horiz-adv-x="1474" d="M133 0v588h-76v286h76v580h559q180 0 317.5 -57.5t229.5 -155.5t139 -230t47 -282q0 -166 -52 -300t-148.5 -229.5t-231.5 -147.5t-301 -52h-559zM1020 729q0 84 -22.5 153.5t-64.5 119t-103.5 77t-137.5 27.5h-160v-232h234v-286h-234v-240h160q78 0 139.5 29t103.5 80 t63.5 120.5t21.5 151.5z" />
<glyph unicode="&#x111;" horiz-adv-x="1361" d="M549 -20q-111 0 -204 40.5t-160.5 115.5t-105.5 178.5t-38 226.5q0 119 35 221t97.5 177t148.5 117t190 42t191.5 -47t134.5 -133v268h-179v223h179v86h389v-86h119v-223h-119v-756q0 -55 16.5 -76.5t56.5 -25.5v-328q-100 -20 -163 -20q-199 0 -230 149l-8 39 q-55 -98 -149.5 -143t-200.5 -45zM655 307q106 0 185 111v192q-29 72 -84.5 116t-116.5 44q-43 0 -79 -18.5t-61.5 -51t-41 -75.5t-15.5 -93q0 -102 58.5 -163.5t154.5 -61.5z" />
<glyph unicode="&#x112;" horiz-adv-x="1222" d="M1161 348v-348h-1036v1454h1018v-348h-619v-205h529v-323h-529v-230h637zM332 1620v231h635v-231h-635z" />
<glyph unicode="&#x113;" d="M629 -20q-141 0 -252 44t-185.5 119.5t-113.5 174t-39 206.5q0 117 38 221.5t112.5 182.5t184 124t255.5 46q143 0 253.5 -46t185.5 -123t113 -178.5t38 -211.5q0 -31 -3.5 -63t-7.5 -56h-755q6 -86 63 -124t125 -38q63 0 119.5 28.5t75.5 80.5l329 -95 q-66 -129 -201.5 -210.5t-334.5 -81.5zM801 653q-10 78 -57.5 123t-120.5 45q-74 0 -121 -45t-58 -123h357zM313 1243v232h635v-232h-635z" />
<glyph unicode="&#x114;" horiz-adv-x="1222" d="M1161 348v-348h-1036v1454h1018v-348h-619v-205h529v-323h-529v-230h637zM647 1706q47 0 83 47t42 119h201q0 -74 -23.5 -134.5t-66.5 -104.5t-103.5 -68.5t-132.5 -24.5t-132 24.5t-103 68.5t-66.5 104.5t-23.5 134.5h200q0 -68 37 -117t88 -49z" />
<glyph unicode="&#x115;" d="M629 -20q-141 0 -252 44t-185.5 119.5t-113.5 174t-39 206.5q0 117 38 221.5t112.5 182.5t184 124t255.5 46q143 0 253.5 -46t185.5 -123t113 -178.5t38 -211.5q0 -31 -3.5 -63t-7.5 -56h-755q6 -86 63 -124t125 -38q63 0 119.5 28.5t75.5 80.5l329 -95 q-66 -129 -201.5 -210.5t-334.5 -81.5zM801 653q-10 78 -57.5 123t-120.5 45q-74 0 -121 -45t-58 -123h357zM629 1329q47 0 83 47t42 119h200q0 -74 -23.5 -134.5t-66.5 -104.5t-103.5 -68.5t-131.5 -24.5q-72 0 -132.5 24.5t-103.5 68.5t-66.5 104.5t-23.5 134.5h201 q0 -68 37 -117t88 -49z" />
<glyph unicode="&#x116;" horiz-adv-x="1222" d="M1161 348v-348h-1036v1454h1018v-348h-619v-205h529v-323h-529v-230h637zM473 1565v307h348v-307h-348z" />
<glyph unicode="&#x117;" d="M629 -20q-141 0 -252 44t-185.5 119.5t-113.5 174t-39 206.5q0 117 38 221.5t112.5 182.5t184 124t255.5 46q143 0 253.5 -46t185.5 -123t113 -178.5t38 -211.5q0 -31 -3.5 -63t-7.5 -56h-755q6 -86 63 -124t125 -38q63 0 119.5 28.5t75.5 80.5l329 -95 q-66 -129 -201.5 -210.5t-334.5 -81.5zM801 653q-10 78 -57.5 123t-120.5 45q-74 0 -121 -45t-58 -123h357zM455 1188v307h348v-307h-348z" />
<glyph unicode="&#x118;" horiz-adv-x="1224" d="M1085 -440q-160 18 -235.5 75.5t-75.5 128.5q0 59 44 121t132 115h-825v1454h1018v-348h-619v-205h529v-323h-529v-230h637v-348q-72 -41 -109.5 -83t-37.5 -77t34.5 -55.5t108.5 -20.5l-72 -204v0z" />
<glyph unicode="&#x119;" d="M745 -436q-160 18 -235.5 75.5t-75.5 129.5q0 53 35 108t106 105q-129 8 -229 55t-168.5 120.5t-103.5 169t-35 197.5q0 117 38 221.5t112.5 182.5t184 124t255.5 46q143 0 253.5 -46t185.5 -123t113 -178.5t38 -211.5q0 -31 -3.5 -63t-7.5 -56h-755q6 -86 63 -124 t125 -38q63 0 119.5 28.5t75.5 80.5l329 -95q-49 -96 -136 -166.5t-210 -103.5q-145 -82 -145 -158q0 -35 34.5 -55t108.5 -20zM801 653q-10 78 -57.5 123t-120.5 45q-74 0 -121 -45t-58 -123h357z" />
<glyph unicode="&#x11a;" horiz-adv-x="1222" d="M1161 348v-348h-1036v1454h1018v-348h-619v-205h529v-323h-529v-230h637zM473 1872l174 -129l174 129l197 -86l-232 -236h-278l-232 236z" />
<glyph unicode="&#x11b;" d="M629 -20q-141 0 -252 44t-185.5 119.5t-113.5 174t-39 206.5q0 117 38 221.5t112.5 182.5t184 124t255.5 46q143 0 253.5 -46t185.5 -123t113 -178.5t38 -211.5q0 -31 -3.5 -63t-7.5 -56h-755q6 -86 63 -124t125 -38q63 0 119.5 28.5t75.5 80.5l329 -95 q-66 -129 -201.5 -210.5t-334.5 -81.5zM801 653q-10 78 -57.5 123t-120.5 45q-74 0 -121 -45t-58 -123h357zM455 1495l174 -129l174 129l196 -86l-231 -235h-279l-231 235z" />
<glyph unicode="&#x11c;" horiz-adv-x="1513" d="M1112 121q-156 -131 -358 -131q-141 0 -270.5 50t-225.5 146.5t-153.5 235.5t-57.5 317q0 154 57.5 286t157.5 229.5t236.5 153.5t294.5 56q98 0 188 -21.5t167 -63.5t138.5 -100t99.5 -132l-296 -227q-43 86 -129.5 138t-182.5 52q-72 0 -131 -28.5t-102 -80t-67.5 -122 t-24.5 -154.5q0 -86 24.5 -155.5t68.5 -120t105.5 -78t136.5 -27.5q174 0 308 143h-252v287h598v-774h-330v121zM426 1636l231 236h279l231 -236l-196 -86l-174 129l-174 -129z" />
<glyph unicode="&#x11d;" horiz-adv-x="1325" d="M512 0q-104 0 -191.5 42t-148.5 114.5t-95 171t-34 213.5q0 121 37 223t103.5 176t158.5 116t203 42q117 0 205 -46t139 -134v159h338v-979q0 -127 -47 -229t-133 -174t-207 -112t-269 -40q-172 0 -299 53.5t-225 153.5l205 213q59 -55 142 -93t177 -38q53 0 101.5 14.5 t85.5 46t58.5 83t21.5 122.5v70q-47 -86 -134.5 -127t-191.5 -41zM651 307q59 0 103.5 27.5t83.5 83.5v192q-29 74 -85.5 117t-117.5 43q-41 0 -77 -19.5t-62.5 -51t-41 -75.5t-14.5 -94q0 -100 59.5 -161.5t151.5 -61.5zM352 1260l232 235h278l232 -235l-197 -86l-174 129 l-174 -129z" />
<glyph unicode="&#x11e;" horiz-adv-x="1513" d="M1112 121q-156 -131 -358 -131q-141 0 -270.5 50t-225.5 146.5t-153.5 235.5t-57.5 317q0 154 57.5 286t157.5 229.5t236.5 153.5t294.5 56q98 0 188 -21.5t167 -63.5t138.5 -100t99.5 -132l-296 -227q-43 86 -129.5 138t-182.5 52q-72 0 -131 -28.5t-102 -80t-67.5 -122 t-24.5 -154.5q0 -86 24.5 -155.5t68.5 -120t105.5 -78t136.5 -27.5q174 0 308 143h-252v287h598v-774h-330v121zM797 1706q47 0 82.5 47t42.5 119h200q0 -74 -23.5 -134.5t-66.5 -104.5t-103.5 -68.5t-131.5 -24.5q-72 0 -132.5 24.5t-103.5 68.5t-66.5 104.5t-23.5 134.5 h201q0 -68 37 -117t88 -49z" />
<glyph unicode="&#x11f;" horiz-adv-x="1325" d="M512 0q-104 0 -191.5 42t-148.5 114.5t-95 171t-34 213.5q0 121 37 223t103.5 176t158.5 116t203 42q117 0 205 -46t139 -134v159h338v-979q0 -127 -47 -229t-133 -174t-207 -112t-269 -40q-172 0 -299 53.5t-225 153.5l205 213q59 -55 142 -93t177 -38q53 0 101.5 14.5 t85.5 46t58.5 83t21.5 122.5v70q-47 -86 -134.5 -127t-191.5 -41zM651 307q59 0 103.5 27.5t83.5 83.5v192q-29 74 -85.5 117t-117.5 43q-41 0 -77 -19.5t-62.5 -51t-41 -75.5t-14.5 -94q0 -100 59.5 -161.5t151.5 -61.5zM723 1329q47 0 83 47t42 119h201q0 -74 -24 -134.5 t-67 -104.5t-103 -68.5t-132 -24.5t-132.5 24.5t-103.5 68.5t-66.5 104.5t-23.5 134.5h201q0 -68 37 -117t88 -49z" />
<glyph unicode="&#x120;" horiz-adv-x="1513" d="M1112 121q-156 -131 -358 -131q-141 0 -270.5 50t-225.5 146.5t-153.5 235.5t-57.5 317q0 154 57.5 286t157.5 229.5t236.5 153.5t294.5 56q98 0 188 -21.5t167 -63.5t138.5 -100t99.5 -132l-296 -227q-43 86 -129.5 138t-182.5 52q-72 0 -131 -28.5t-102 -80t-67.5 -122 t-24.5 -154.5q0 -86 24.5 -155.5t68.5 -120t105.5 -78t136.5 -27.5q174 0 308 143h-252v287h598v-774h-330v121zM627 1565v307h348v-307h-348z" />
<glyph unicode="&#x121;" horiz-adv-x="1325" d="M512 0q-104 0 -191.5 42t-148.5 114.5t-95 171t-34 213.5q0 121 37 223t103.5 176t158.5 116t203 42q117 0 205 -46t139 -134v159h338v-979q0 -127 -47 -229t-133 -174t-207 -112t-269 -40q-172 0 -299 53.5t-225 153.5l205 213q59 -55 142 -93t177 -38q53 0 101.5 14.5 t85.5 46t58.5 83t21.5 122.5v70q-47 -86 -134.5 -127t-191.5 -41zM651 307q59 0 103.5 27.5t83.5 83.5v192q-29 74 -85.5 117t-117.5 43q-41 0 -77 -19.5t-62.5 -51t-41 -75.5t-14.5 -94q0 -100 59.5 -161.5t151.5 -61.5zM549 1188v307h348v-307h-348z" />
<glyph unicode="&#x122;" horiz-adv-x="1513" d="M1112 121q-156 -131 -358 -131q-141 0 -270.5 50t-225.5 146.5t-153.5 235.5t-57.5 317q0 154 57.5 286t157.5 229.5t236.5 153.5t294.5 56q98 0 188 -21.5t167 -63.5t138.5 -100t99.5 -132l-296 -227q-43 86 -129.5 138t-182.5 52q-72 0 -131 -28.5t-102 -80t-67.5 -122 t-24.5 -154.5q0 -86 24.5 -155.5t68.5 -120t105.5 -78t136.5 -27.5q174 0 308 143h-252v287h598v-774h-330v121zM641 -436l74 125h-117v217h322v-217l-111 -125h-168z" />
<glyph unicode="&#x123;" horiz-adv-x="1325" d="M512 0q-104 0 -191.5 42t-148.5 114.5t-95 171t-34 213.5q0 121 37 223t103.5 176t158.5 116t203 42q117 0 205 -46t139 -134v159h338v-979q0 -127 -47 -229t-133 -174t-207 -112t-269 -40q-172 0 -299 53.5t-225 153.5l205 213q59 -55 142 -93t177 -38q53 0 101.5 14.5 t85.5 46t58.5 83t21.5 122.5v70q-47 -86 -134.5 -127t-191.5 -41zM651 307q59 0 103.5 27.5t83.5 83.5v192q-29 74 -85.5 117t-117.5 43q-41 0 -77 -19.5t-62.5 -51t-41 -75.5t-14.5 -94q0 -100 59.5 -161.5t151.5 -61.5zM811 1536l-74 -125h117v-217h-322v217l111 125h168z " />
<glyph unicode="&#x124;" horiz-adv-x="1536" d="M1411 1454v-1454h-399v569h-488v-569h-399v1454h399v-536h488v536h399zM403 1634l232 236h278l232 -236l-197 -86l-174 129l-174 -129z" />
<glyph unicode="&#x125;" horiz-adv-x="1271" d="M1182 0h-389v606q0 80 -36 116t-89 36q-18 0 -44 -11.5t-51.5 -31t-48 -48t-37.5 -63.5v-604h-389v1495h389v-577q57 88 149.5 134t207.5 46q113 0 180.5 -39t102 -97.5t45 -126t10.5 -126.5v-709zM545 1264l190 229h228l188 -229l-160 -82l-143 125l-141 -125z" />
<glyph unicode="&#x126;" horiz-adv-x="1548" d="M1417 1454v-172h103v-180h-103v-1102h-399v569h-488v-569h-399v1102h-102v180h102v172h399v-172h488v172h399zM1018 918v184h-488v-184h488z" />
<glyph unicode="&#x127;" horiz-adv-x="1271" d="M1182 0h-389v606q0 80 -36 116t-89 36q-18 0 -44 -11.5t-51.5 -31t-48 -48t-37.5 -63.5v-604h-389v1186h-61v223h61v86h389v-86h236v-223h-236v-268q57 88 149.5 134t207.5 46q113 0 180.5 -39t102 -97.5t45 -126t10.5 -126.5v-709z" />
<glyph unicode="&#x128;" horiz-adv-x="649" d="M125 0v1454h399v-1454h-399zM455 1548q-47 0 -83 15.5t-67 34t-60.5 34t-64.5 15.5t-53 -14.5t-27.5 -33t-11.5 -34t-2 -17.5h-207q0 27 15.5 81t50.5 107.5t88 94.5t131 41q49 0 86 -16.5t67.5 -36t59.5 -36t63 -16.5q33 0 53.5 15.5t32 35t14.5 36t3 18.5h205 q0 -18 -16.5 -70.5t-51.5 -109t-90 -100.5t-135 -44z" />
<glyph unicode="&#x129;" horiz-adv-x="585" d="M98 0v1077h389v-1077h-389zM424 1171q-47 0 -83 15.5t-66.5 34t-60.5 34t-64 15.5q-35 0 -53.5 -14.5t-28 -33t-11.5 -33.5t-2 -18h-207q0 27 15.5 81.5t50.5 107.5t88 94t131 41q49 0 86 -16.5t67.5 -36t59.5 -35.5t64 -16q33 0 53 15t31.5 34.5t14.5 36t3 18.5h205 q0 -18 -16.5 -70.5t-51.5 -108.5t-90 -100.5t-135 -44.5z" />
<glyph unicode="&#x12a;" horiz-adv-x="649" d="M125 0v1454h399v-1454h-399zM8 1620v231h635v-231h-635z" />
<glyph unicode="&#x12b;" horiz-adv-x="585" d="M98 0v1077h389v-1077h-389zM-23 1243v232h635v-232h-635z" />
<glyph unicode="&#x12c;" horiz-adv-x="649" d="M125 0v1454h399v-1454h-399zM324 1706q47 0 82.5 47t42.5 119h200q0 -74 -23.5 -134.5t-66.5 -104.5t-103.5 -68.5t-131.5 -24.5q-72 0 -132.5 24.5t-103.5 68.5t-66.5 104.5t-23.5 134.5h201q0 -68 37 -117t88 -49z" />
<glyph unicode="&#x12d;" horiz-adv-x="585" d="M98 0v1077h389v-1077h-389zM293 1329q47 0 83 47t42 119h200q0 -74 -23.5 -134.5t-66.5 -104.5t-103 -68.5t-132 -24.5t-132.5 24.5t-103.5 68.5t-66.5 104.5t-23.5 134.5h201q0 -68 37 -117t88 -49z" />
<glyph unicode="&#x12e;" horiz-adv-x="651" d="M449 -440q-160 18 -236 75.5t-76 128.5q0 59 44 121t132 115h-188v1454h399v-1454q-72 -41 -109.5 -83t-37.5 -77t34.5 -55.5t108.5 -20.5l-71 -204v0z" />
<glyph unicode="&#x12f;" horiz-adv-x="585" d="M412 -440q-160 18 -236 75.5t-76 128.5q0 59 44 121t132 115h-178v1077h389v-1077q-72 -41 -109.5 -83t-37.5 -77t35 -55.5t108 -20.5zM98 1167v328h389v-328h-389z" />
<glyph unicode="&#x130;" horiz-adv-x="649" d="M125 0v1454h399v-1454h-399zM150 1565v307h348v-307h-348z" />
<glyph unicode="&#x131;" horiz-adv-x="585" d="M98 0v1077h389v-1077h-389z" />
<glyph unicode="&#x132;" horiz-adv-x="1669" d="M125 0v1454h399v-1454h-399zM735 393q6 -4 26.5 -14t51.5 -20.5t71 -18.5t83 -8q63 0 102 20.5t59.5 66.5t26.5 118.5t6 177.5v739h400v-739q0 -166 -18.5 -302.5t-80 -232.5t-179.5 -149.5t-316 -53.5q-184 0 -316 91z" />
<glyph unicode="&#x133;" horiz-adv-x="1179" d="M98 0v1077h389v-1077h-389zM98 1167v328h389v-328h-389zM659 -428q-86 0 -163.5 28.5t-141.5 82.5l160 264q37 -41 96 -41q82 0 82 88v1083h389v-1052q0 -100 -30.5 -183.5t-87 -143.5t-134.5 -93t-170 -33zM692 1167v328h389v-328h-389z" />
<glyph unicode="&#x134;" horiz-adv-x="1019" d="M86 393q6 -4 26.5 -14t51.5 -20.5t70.5 -18.5t82.5 -8q63 0 102.5 20.5t60 66.5t26.5 118.5t6 177.5v739h399v-739q0 -166 -18.5 -302.5t-79.5 -232.5t-179 -149.5t-317 -53.5q-184 0 -315 91zM346 1636l232 236h278l231 -236l-196 -86l-174 129l-174 -129z" />
<glyph unicode="&#x135;" horiz-adv-x="585" d="M66 -428q-86 0 -164 28.5t-142 82.5l160 264q37 -41 96 -41q82 0 82 88v1083h389v-1052q0 -100 -30.5 -183.5t-87 -143.5t-134 -93t-169.5 -33zM-78 1260l232 235h278l232 -235l-197 -86l-174 129l-174 -129z" />
<glyph unicode="&#x136;" horiz-adv-x="1413" d="M125 0v1454h399v-553l443 553h450l-528 -651l565 -803h-459l-360 535l-111 -115v-420h-399zM633 -436l74 125h-117v217h321v-217l-110 -125h-168z" />
<glyph unicode="&#x137;" horiz-adv-x="1191" d="M809 0l-244 393l-78 -86v-307h-389v1495h389v-817l287 399h410l-371 -471l408 -606h-412zM489 -436l74 125h-117v217h322v-217l-111 -125h-168z" />
<glyph unicode="&#x138;" horiz-adv-x="1191" d="M809 0l-244 393l-78 -86v-307h-389v1077h389v-399l287 399h410l-371 -471l408 -606h-412z" />
<glyph unicode="&#x139;" horiz-adv-x="1198" d="M125 0v1454h399v-1106h660v-348h-1059zM879 1516l-246 65l102 291h346z" />
<glyph unicode="&#x13a;" horiz-adv-x="727" d="M90 1495h389v-1067q0 -123 101 -123q25 0 53.5 8.5t52.5 22.5l49 -287q-70 -33 -156.5 -51t-164.5 -18q-156 0 -240 79.5t-84 231.5v1204zM403 1552l-245 66l102 291h346z" />
<glyph unicode="&#x13b;" horiz-adv-x="1198" d="M125 0v1454h399v-1106h660v-348h-1059zM565 -436l74 125h-117v217h322v-217l-111 -125h-168z" />
<glyph unicode="&#x13c;" horiz-adv-x="727" d="M90 1495h389v-1067q0 -123 101 -123q25 0 53.5 8.5t52.5 22.5l49 -287q-70 -33 -156.5 -51t-164.5 -18q-156 0 -240 79.5t-84 231.5v1204zM289 -436l73 125h-116v217h321v-217l-110 -125h-168z" />
<glyph unicode="&#x13d;" horiz-adv-x="1198" d="M125 0v1454h399v-1106h660v-348h-1059zM899 1137l-246 65l103 291h346z" />
<glyph unicode="&#x13e;" horiz-adv-x="727" d="M90 1495h389v-1067q0 -123 101 -123q25 0 53.5 8.5t52.5 22.5l49 -287q-70 -33 -156.5 -51t-164.5 -18q-156 0 -240 79.5t-84 231.5v1204zM797 1137l-246 65l102 291h346z" />
<glyph unicode="&#x13f;" horiz-adv-x="1198" d="M125 0v1454h399v-1106h660v-348h-1059zM745 649v377h316v-377h-316z" />
<glyph unicode="&#x140;" horiz-adv-x="956" d="M90 1495h389v-1067q0 -123 101 -123q25 0 53.5 8.5t52.5 22.5l49 -287q-70 -33 -156.5 -51t-164.5 -18q-156 0 -240 79.5t-84 231.5v1204zM604 612v377h316v-377h-316z" />
<glyph unicode="&#x141;" horiz-adv-x="1222" d="M150 0v563l-97 -47l-88 207l185 90v641h399v-446l145 71l88 -207l-233 -114v-410h659v-348h-1058z" />
<glyph unicode="&#x142;" horiz-adv-x="792" d="M147 555l-81 -39l-89 207l170 82v690h390v-500l170 84l88 -207l-258 -127v-317q0 -123 100 -123q25 0 53.5 8.5t52.5 22.5l50 -287q-70 -33 -157 -51t-165 -18q-156 0 -240 79.5t-84 231.5v264z" />
<glyph unicode="&#x143;" horiz-adv-x="1544" d="M524 715v-715h-399v1454h311l584 -739v739h399v-1454h-317zM885 1513l-246 66l102 291h346z" />
<glyph unicode="&#x144;" horiz-adv-x="1271" d="M1182 0h-389v606q0 80 -36 116t-83 36q-49 0 -104.5 -43t-82.5 -111v-604h-389v1077h351v-159q57 88 160.5 134t244.5 46q111 0 175.5 -40t98 -99.5t44 -127t10.5 -122.5v-709zM801 1139l-246 65l102 291h347z" />
<glyph unicode="&#x145;" horiz-adv-x="1544" d="M524 715v-715h-399v1454h311l584 -739v739h399v-1454h-317zM641 -436l74 125h-117v217h322v-217l-111 -125h-168z" />
<glyph unicode="&#x146;" horiz-adv-x="1271" d="M1182 0h-389v606q0 80 -36 116t-83 36q-49 0 -104.5 -43t-82.5 -111v-604h-389v1077h351v-159q57 88 160.5 134t244.5 46q111 0 175.5 -40t98 -99.5t44 -127t10.5 -122.5v-709zM512 -436l74 125h-117v217h322v-217l-111 -125h-168z" />
<glyph unicode="&#x147;" horiz-adv-x="1544" d="M524 715v-715h-399v1454h311l584 -739v739h399v-1454h-317zM592 1870l174 -129l174 129l197 -86l-232 -236h-278l-232 236z" />
<glyph unicode="&#x148;" horiz-adv-x="1271" d="M1182 0h-389v606q0 80 -36 116t-83 36q-49 0 -104.5 -43t-82.5 -111v-604h-389v1077h351v-159q57 88 160.5 134t244.5 46q111 0 175.5 -40t98 -99.5t44 -127t10.5 -122.5v-709zM508 1495l174 -129l174 129l197 -86l-232 -235h-278l-232 235z" />
<glyph unicode="&#x149;" horiz-adv-x="1271" d="M1182 0h-389v606q0 80 -36 116t-83 36q-49 0 -104.5 -43t-82.5 -111v-604h-389v1077h351v-159q57 88 160.5 134t244.5 46q111 0 175.5 -40t98 -99.5t44 -127t10.5 -122.5v-709zM162 1139l-246 65l64 178l-23 113h408z" />
<glyph unicode="&#x14a;" horiz-adv-x="1505" d="M524 702v-702h-399v1454h307l547 -719v717h399v-1442q0 -100 -31.5 -181t-89 -138.5t-134 -88t-167.5 -30.5q-86 0 -163.5 28.5t-141.5 82.5l160 264q37 -41 96 -41q82 0 82 88v96z" />
<glyph unicode="&#x14b;" horiz-adv-x="1269" d="M758 -428q-86 0 -164 28.5t-141 82.5l159 264q37 -41 97 -41q39 0 61.5 23.5t22.5 64.5v612q0 80 -36 116t-83 36q-49 0 -104.5 -43t-82.5 -111v-604h-389v1077h351v-159q57 88 160.5 134t244.5 46q111 0 175.5 -40t98 -99.5t43 -127t9.5 -122.5v-684q0 -100 -32 -183.5 t-88 -143.5t-133 -93t-169 -33z" />
<glyph unicode="&#x14c;" horiz-adv-x="1566" d="M780 -12q-166 0 -301 63.5t-231 167t-149.5 236.5t-53.5 274q0 143 55.5 276.5t154.5 234.5t235.5 161.5t297.5 60.5q166 0 301.5 -63.5t231.5 -168t148.5 -237.5t52.5 -272q0 -143 -55.5 -275.5t-154 -233.5t-234.5 -162.5t-298 -61.5zM451 725q0 -74 20.5 -142.5 t61 -121.5t103 -86t148.5 -33t149.5 34t103.5 88t59.5 123.5t19.5 141.5q0 74 -20.5 142.5t-62.5 120.5t-104.5 84t-146.5 32q-86 0 -148.5 -33t-103.5 -87t-60 -122.5t-19 -140.5zM475 1620v231h635v-231h-635z" />
<glyph unicode="&#x14d;" horiz-adv-x="1257" d="M629 -20q-145 0 -255 46t-184.5 122.5t-112.5 178t-38 212.5t38 212t112.5 178t184 123t255.5 46q143 0 253.5 -46t185.5 -123t113 -178.5t38 -211.5q0 -111 -38 -212.5t-113 -178t-185.5 -122.5t-253.5 -46zM438 539q0 -109 53.5 -170.5t137.5 -61.5t137 61.5t53 170.5 t-53 170t-137 61t-137.5 -61t-53.5 -170zM313 1243v232h635v-232h-635z" />
<glyph unicode="&#x14e;" horiz-adv-x="1566" d="M780 -12q-166 0 -301 63.5t-231 167t-149.5 236.5t-53.5 274q0 143 55.5 276.5t154.5 234.5t235.5 161.5t297.5 60.5q166 0 301.5 -63.5t231.5 -168t148.5 -237.5t52.5 -272q0 -143 -55.5 -275.5t-154 -233.5t-234.5 -162.5t-298 -61.5zM451 725q0 -74 20.5 -142.5 t61 -121.5t103 -86t148.5 -33t149.5 34t103.5 88t59.5 123.5t19.5 141.5q0 74 -20.5 142.5t-62.5 120.5t-104.5 84t-146.5 32q-86 0 -148.5 -33t-103.5 -87t-60 -122.5t-19 -140.5zM795 1706q47 0 82.5 47t42.5 119h200q0 -74 -23.5 -134.5t-66.5 -104.5t-103.5 -68.5 t-131.5 -24.5q-72 0 -132.5 24.5t-103.5 68.5t-66.5 104.5t-23.5 134.5h201q0 -68 37 -117t88 -49z" />
<glyph unicode="&#x14f;" horiz-adv-x="1257" d="M629 -20q-145 0 -255 46t-184.5 122.5t-112.5 178t-38 212.5t38 212t112.5 178t184 123t255.5 46q143 0 253.5 -46t185.5 -123t113 -178.5t38 -211.5q0 -111 -38 -212.5t-113 -178t-185.5 -122.5t-253.5 -46zM438 539q0 -109 53.5 -170.5t137.5 -61.5t137 61.5t53 170.5 t-53 170t-137 61t-137.5 -61t-53.5 -170zM629 1329q47 0 83 47t42 119h200q0 -74 -23.5 -134.5t-66.5 -104.5t-103.5 -68.5t-131.5 -24.5q-72 0 -132.5 24.5t-103.5 68.5t-66.5 104.5t-23.5 134.5h201q0 -68 37 -117t88 -49z" />
<glyph unicode="&#x150;" horiz-adv-x="1566" d="M780 -12q-166 0 -301 63.5t-231 167t-149.5 236.5t-53.5 274q0 143 55.5 276.5t154.5 234.5t235.5 161.5t297.5 60.5q166 0 301.5 -63.5t231.5 -168t148.5 -237.5t52.5 -272q0 -143 -55.5 -275.5t-154 -233.5t-234.5 -162.5t-298 -61.5zM451 725q0 -74 20.5 -142.5 t61 -121.5t103 -86t148.5 -33t149.5 34t103.5 88t59.5 123.5t19.5 141.5q0 74 -20.5 142.5t-62.5 120.5t-104.5 84t-146.5 32q-86 0 -148.5 -33t-103.5 -87t-60 -122.5t-19 -140.5zM666 1518l-185 65l82 291h285zM1055 1518l-185 65l82 291h285z" />
<glyph unicode="&#x151;" horiz-adv-x="1257" d="M629 -20q-145 0 -255 46t-184.5 122.5t-112.5 178t-38 212.5t38 212t112.5 178t184 123t255.5 46q143 0 253.5 -46t185.5 -123t113 -178.5t38 -211.5q0 -111 -38 -212.5t-113 -178t-185.5 -122.5t-253.5 -46zM438 539q0 -109 53.5 -170.5t137.5 -61.5t137 61.5t53 170.5 t-53 170t-137 61t-137.5 -61t-53.5 -170zM500 1141l-185 65l82 291h285zM889 1141l-184 65l81 291h285z" />
<glyph unicode="&#x152;" horiz-adv-x="2109" d="M2048 348v-348h-995v84q-70 -43 -149 -68.5t-165 -25.5q-156 0 -283.5 62.5t-219 166t-141.5 236.5t-50 274q0 143 52.5 276.5t146.5 235.5t222 162.5t282 60.5q86 0 161.5 -24.5t143.5 -67.5v82h977v-348h-578v-193h467v-348h-467v-217h596zM743 344q76 0 131.5 34 t90 88t52 122.5t17.5 140.5q0 74 -18.5 142.5t-54 122t-91 85t-129.5 31.5q-76 0 -130 -34t-90 -88t-53 -122.5t-17 -140.5q0 -74 17 -142.5t54 -121.5t92 -85t129 -32z" />
<glyph unicode="&#x153;" horiz-adv-x="2029" d="M625 -20q-129 0 -236.5 40.5t-185.5 115.5t-121 177.5t-43 225.5t43 225t120 177t184.5 116t234.5 41q123 0 218 -42t179 -134q96 94 189 135t212 41q127 0 234.5 -42t184.5 -116t120 -176t43 -225q0 -31 -3 -63t-7 -56h-756q4 -74 59.5 -122t135.5 -48q66 0 122 32.5 t76 84.5l320 -95q-72 -137 -212.5 -214.5t-318.5 -77.5q-55 0 -102 8t-94 27.5t-96.5 51t-106.5 76.5q-57 -47 -105.5 -77.5t-94.5 -50t-93 -27.5t-100 -8zM629 307q86 0 138 63.5t52 168.5q0 104 -52 167.5t-138 63.5t-138.5 -63.5t-52.5 -167.5t52.5 -168t138.5 -64z M1591 653q-10 78 -59 123t-125 45q-78 0 -127 -45t-57 -123h368z" />
<glyph unicode="&#x154;" horiz-adv-x="1382" d="M125 0v1454h668q106 0 196 -44t154.5 -114.5t101.5 -162t37 -183.5q0 -127 -55.5 -236.5t-153.5 -178.5l307 -535h-450l-256 446h-150v-446h-399zM524 795h252q37 0 69 41t32 114q0 76 -37 116t-74 40h-242v-311zM772 1513l-246 66l103 291h346z" />
<glyph unicode="&#x155;" horiz-adv-x="851" d="M829 745q-113 0 -205 -24.5t-137 -81.5v-639h-389v1077h357v-205q57 109 142 167.5t183 58.5q39 0 49 -2v-351zM649 1139l-246 65l103 291h346z" />
<glyph unicode="&#x156;" horiz-adv-x="1382" d="M125 0v1454h668q106 0 196 -44t154.5 -114.5t101.5 -162t37 -183.5q0 -127 -55.5 -236.5t-153.5 -178.5l307 -535h-450l-256 446h-150v-446h-399zM524 795h252q37 0 69 41t32 114q0 76 -37 116t-74 40h-242v-311zM600 -436l74 125h-117v217h322v-217l-111 -125h-168z" />
<glyph unicode="&#x157;" horiz-adv-x="851" d="M829 745q-113 0 -205 -24.5t-137 -81.5v-639h-389v1077h357v-205q57 109 142 167.5t183 58.5q39 0 49 -2v-351zM154 -436l73 125h-116v217h321v-217l-110 -125h-168z" />
<glyph unicode="&#x158;" horiz-adv-x="1382" d="M125 0v1454h668q106 0 196 -44t154.5 -114.5t101.5 -162t37 -183.5q0 -127 -55.5 -236.5t-153.5 -178.5l307 -535h-450l-256 446h-150v-446h-399zM524 795h252q37 0 69 41t32 114q0 76 -37 116t-74 40h-242v-311zM479 1870l174 -129l174 129l197 -86l-231 -236h-279 l-231 236z" />
<glyph unicode="&#x159;" horiz-adv-x="851" d="M829 745q-113 0 -205 -24.5t-137 -81.5v-639h-389v1077h357v-205q57 109 142 167.5t183 58.5q39 0 49 -2v-351zM356 1495l174 -129l175 129l196 -86l-231 -235h-279l-231 235z" />
<glyph unicode="&#x15a;" horiz-adv-x="1263" d="M1006 979q-61 37 -127 65q-55 25 -124 46.5t-134 21.5q-53 0 -85 -16.5t-32 -55.5q0 -29 18.5 -47t53 -33.5t85 -30t113.5 -34.5q100 -31 181 -67.5t138.5 -87t88 -122t30.5 -174.5q0 -131 -48 -220t-127 -142t-178 -76.5t-200 -23.5q-80 0 -163.5 12t-166.5 34.5 t-160 53.5t-142 70l172 350q72 -45 149 -80q66 -31 149 -55.5t169 -24.5q66 0 91 17.5t25 46.5q0 31 -25.5 52t-70.5 37.5t-103.5 33t-123.5 38.5q-96 33 -166 71t-115 86t-66.5 109.5t-21.5 141.5q0 121 44 213t120 153.5t173 93t206 31.5q80 0 155.5 -15t146.5 -38.5 t132 -51.5t111 -52zM788 1516l-245 65l102 291h346z" />
<glyph unicode="&#x15b;" horiz-adv-x="1026" d="M543 -20q-141 0 -276.5 46t-229.5 134l133 233q100 -68 193.5 -104.5t171.5 -36.5q82 0 81 51q0 29 -31.5 49.5t-123.5 46.5q-115 33 -191.5 65t-125 68.5t-69 81.5t-20.5 107q0 82 33 151.5t91.5 120.5t139 79t177.5 28q119 0 226 -31t216 -125l-147 -233 q-100 66 -168 93t-127 27q-35 0 -57.5 -13t-22.5 -42q0 -31 32.5 -50t129.5 -44q117 -31 196.5 -64.5t127.5 -73.5t68.5 -90.5t20.5 -115.5q0 -84 -30.5 -149.5t-89 -112.5t-141.5 -71.5t-187 -24.5zM614 1139l-245 65l102 291h346z" />
<glyph unicode="&#x15c;" horiz-adv-x="1263" d="M1006 979q-61 37 -127 65q-55 25 -124 46.5t-134 21.5q-53 0 -85 -16.5t-32 -55.5q0 -29 18.5 -47t53 -33.5t85 -30t113.5 -34.5q100 -31 181 -67.5t138.5 -87t88 -122t30.5 -174.5q0 -131 -48 -220t-127 -142t-178 -76.5t-200 -23.5q-80 0 -163.5 12t-166.5 34.5 t-160 53.5t-142 70l172 350q72 -45 149 -80q66 -31 149 -55.5t169 -24.5q66 0 91 17.5t25 46.5q0 31 -25.5 52t-70.5 37.5t-103.5 33t-123.5 38.5q-96 33 -166 71t-115 86t-66.5 109.5t-21.5 141.5q0 121 44 213t120 153.5t173 93t206 31.5q80 0 155.5 -15t146.5 -38.5 t132 -51.5t111 -52zM299 1636l231 236h279l231 -236l-196 -86l-174 129l-174 -129z" />
<glyph unicode="&#x15d;" horiz-adv-x="1026" d="M543 -20q-141 0 -276.5 46t-229.5 134l133 233q100 -68 193.5 -104.5t171.5 -36.5q82 0 81 51q0 29 -31.5 49.5t-123.5 46.5q-115 33 -191.5 65t-125 68.5t-69 81.5t-20.5 107q0 82 33 151.5t91.5 120.5t139 79t177.5 28q119 0 226 -31t216 -125l-147 -233 q-100 66 -168 93t-127 27q-35 0 -57.5 -13t-22.5 -42q0 -31 32.5 -50t129.5 -44q117 -31 196.5 -64.5t127.5 -73.5t68.5 -90.5t20.5 -115.5q0 -84 -30.5 -149.5t-89 -112.5t-141.5 -71.5t-187 -24.5zM125 1260l231 235h279l231 -235l-196 -86l-174 129l-174 -129z" />
<glyph unicode="&#x15e;" horiz-adv-x="1263" d="M477 -262q23 -14 76 -27.5t109 -13.5q47 0 80.5 14.5t33.5 48.5q0 35 -30.5 48.5t-81.5 13.5q-43 0 -91.5 -7.5t-70.5 -11.5l86 181q-145 10 -295 54t-266 114l172 350q72 -45 149 -80q66 -31 149 -55.5t169 -24.5q66 0 91 17.5t25 46.5q0 31 -25.5 52t-70.5 37.5 t-103.5 33t-123.5 38.5q-96 33 -166 71t-115 86t-66.5 109.5t-21.5 141.5q0 121 44 213t120 153.5t173 93t206 31.5q80 0 155.5 -15t146.5 -38.5t132 -51.5t111 -52l-172 -330q-61 37 -127 65q-55 25 -124 46.5t-134 21.5q-53 0 -85 -16.5t-32 -55.5q0 -29 18.5 -47 t53 -33.5t85 -30t113.5 -34.5q100 -31 181 -67.5t138.5 -87t88 -122t30.5 -174.5q0 -119 -39.5 -202.5t-106.5 -138t-152 -83t-177 -34.5l-37 -56q12 2 25.5 3t30.5 1q37 0 71.5 -9t61 -27.5t43 -49t16.5 -73.5q0 -86 -74.5 -148.5t-236.5 -62.5q-74 0 -132.5 13t-98.5 30z " />
<glyph unicode="&#x15f;" horiz-adv-x="1026" d="M328 -262q23 -14 76 -27.5t108 -13.5q47 0 81 14.5t34 48.5q0 35 -31 48.5t-82 13.5q-43 0 -91 -7.5t-71 -11.5l88 183q-117 14 -221 58t-182 116l133 233q100 -68 193.5 -104.5t171.5 -36.5q82 0 81 51q0 29 -31.5 49.5t-123.5 46.5q-115 33 -191.5 65t-125 68.5 t-69 81.5t-20.5 107q0 82 33 151.5t91.5 120.5t139 79t177.5 28q119 0 226 -31t216 -125l-147 -233q-100 66 -168 93t-127 27q-35 0 -57.5 -13t-22.5 -42q0 -31 32.5 -50t129.5 -44q117 -31 196.5 -64.5t127.5 -73.5t68.5 -90.5t20.5 -115.5q0 -158 -107.5 -252t-297.5 -104 l-35 -52q12 2 25.5 3t29.5 1q37 0 72 -9t61.5 -27.5t43 -49t16.5 -73.5q0 -86 -75 -148.5t-237 -62.5q-74 0 -132 13t-99 30z" />
<glyph unicode="&#x160;" horiz-adv-x="1263" d="M1006 979q-61 37 -127 65q-55 25 -124 46.5t-134 21.5q-53 0 -85 -16.5t-32 -55.5q0 -29 18.5 -47t53 -33.5t85 -30t113.5 -34.5q100 -31 181 -67.5t138.5 -87t88 -122t30.5 -174.5q0 -131 -48 -220t-127 -142t-178 -76.5t-200 -23.5q-80 0 -163.5 12t-166.5 34.5 t-160 53.5t-142 70l172 350q72 -45 149 -80q66 -31 149 -55.5t169 -24.5q66 0 91 17.5t25 46.5q0 31 -25.5 52t-70.5 37.5t-103.5 33t-123.5 38.5q-96 33 -166 71t-115 86t-66.5 109.5t-21.5 141.5q0 121 44 213t120 153.5t173 93t206 31.5q80 0 155.5 -15t146.5 -38.5 t132 -51.5t111 -52zM496 1872l174 -129l174 129l196 -86l-231 -236h-279l-231 236z" />
<glyph unicode="&#x161;" horiz-adv-x="1026" d="M543 -20q-141 0 -276.5 46t-229.5 134l133 233q100 -68 193.5 -104.5t171.5 -36.5q82 0 81 51q0 29 -31.5 49.5t-123.5 46.5q-115 33 -191.5 65t-125 68.5t-69 81.5t-20.5 107q0 82 33 151.5t91.5 120.5t139 79t177.5 28q119 0 226 -31t216 -125l-147 -233 q-100 66 -168 93t-127 27q-35 0 -57.5 -13t-22.5 -42q0 -31 32.5 -50t129.5 -44q117 -31 196.5 -64.5t127.5 -73.5t68.5 -90.5t20.5 -115.5q0 -84 -30.5 -149.5t-89 -112.5t-141.5 -71.5t-187 -24.5zM322 1495l174 -129l174 129l196 -86l-231 -235h-279l-231 235z" />
<glyph unicode="&#x162;" horiz-adv-x="1277" d="M449 -262q23 -14 76 -27.5t108 -13.5q47 0 81 14.5t34 48.5q0 35 -31 48.5t-82 13.5q-43 0 -91 -7.5t-71 -11.5l94 197h-127v1106h-420v348h1237v-348h-417v-1106h-119l-49 -70q12 2 25.5 3t29.5 1q37 0 72 -9t61.5 -27.5t43 -49t16.5 -73.5q0 -86 -75 -148.5t-237 -62.5 q-74 0 -132 13t-99 30z" />
<glyph unicode="&#x163;" horiz-adv-x="866" d="M328 -262q23 -14 76 -27.5t108 -13.5q47 0 81 14.5t34 48.5q0 35 -31 48.5t-82 13.5q-43 0 -91 -7.5t-71 -11.5l86 179q-55 6 -104 25.5t-85 56t-56.5 93t-20.5 134.5v493h-133v293h133v338h389v-338h211v-293h-211v-356q0 -53 22.5 -74.5t61.5 -21.5q29 0 66 9t73 26 l70 -308q-61 -27 -129 -46t-137 -29l-37 -54q12 2 25.5 3t29.5 1q37 0 72 -9t61.5 -27.5t43 -49t16.5 -73.5q0 -86 -75 -148.5t-237 -62.5q-74 0 -132 13t-99 30z" />
<glyph unicode="&#x164;" horiz-adv-x="1277" d="M1257 1106h-417v-1106h-400v1106h-420v348h1237v-348zM481 1872l174 -129l174 129l197 -86l-231 -236h-279l-231 236z" />
<glyph unicode="&#x165;" horiz-adv-x="866" d="M854 59q-82 -35 -175 -58.5t-183 -23.5q-66 0 -125.5 16.5t-103.5 53.5t-69.5 96.5t-25.5 147.5v493h-133v293h133v338h389v-338h211v-293h-211v-356q0 -53 22.5 -74.5t61.5 -21.5q29 0 66 9t73 26zM868 1139l-245 65l102 291h346z" />
<glyph unicode="&#x166;" horiz-adv-x="1323" d="M1280 1106h-418v-377h336v-180h-336v-549h-399v549h-338v180h338v377h-420v348h1237v-348z" />
<glyph unicode="&#x167;" horiz-adv-x="868" d="M856 59q-82 -35 -175 -58.5t-183 -23.5q-66 0 -125.5 16.5t-103.5 53.5t-69.5 96.5t-25.5 147.5v174h-133v223h133v96h-133v293h133v338h389v-338h211v-293h-211v-96h211v-223h-211v-37q0 -53 22.5 -74.5t61.5 -21.5q29 0 66 9t73 26z" />
<glyph unicode="&#x168;" horiz-adv-x="1521" d="M760 342q70 0 119 30.5t79.5 81t45 116t14.5 137.5v747h399v-747q0 -152 -39 -284t-120.5 -228.5t-205.5 -151.5t-292 -55q-174 0 -298 58t-204 156.5t-117 228.5t-37 276v747h400v-747q0 -72 14 -138.5t45 -117t79 -80t118 -29.5zM891 1548q-47 0 -83 15.5t-66.5 34 t-60.5 34t-65 15.5t-53 -14.5t-27.5 -33t-11.5 -34t-2 -17.5h-207q0 27 15.5 81t50.5 107.5t88 94.5t131 41q49 0 86 -16.5t67.5 -36t59.5 -36t64 -16.5q33 0 53 15.5t31.5 35t14.5 36t3 18.5h205q0 -18 -16.5 -70.5t-51.5 -109t-90 -100.5t-135 -44z" />
<glyph unicode="&#x169;" horiz-adv-x="1306" d="M424 -20q-164 0 -250 99t-86 290v708h389v-620q0 -72 32 -111t87 -39q45 0 92 20.5t94 90.5v659h389v-647q0 -55 16.5 -76.5t57.5 -25.5v-328q-100 -20 -164 -20q-199 0 -229 149l-8 39q-76 -100 -180.5 -144t-239.5 -44zM762 1171q-47 0 -83 15.5t-66.5 34t-60.5 34 t-65 15.5t-53 -14.5t-27.5 -33t-11.5 -33.5t-2 -18h-207q0 27 15.5 81.5t50.5 107.5t88 94t131 41q49 0 86 -16.5t67.5 -36t59.5 -35.5t64 -16q33 0 53 15t31.5 34.5t14.5 36t3 18.5h205q0 -18 -16.5 -70.5t-51.5 -108.5t-90 -100.5t-135 -44.5z" />
<glyph unicode="&#x16a;" horiz-adv-x="1521" d="M760 342q70 0 119 30.5t79.5 81t45 116t14.5 137.5v747h399v-747q0 -152 -39 -284t-120.5 -228.5t-205.5 -151.5t-292 -55q-174 0 -298 58t-204 156.5t-117 228.5t-37 276v747h400v-747q0 -72 14 -138.5t45 -117t79 -80t118 -29.5zM444 1620v231h635v-231h-635z" />
<glyph unicode="&#x16b;" horiz-adv-x="1306" d="M424 -20q-164 0 -250 99t-86 290v708h389v-620q0 -72 32 -111t87 -39q45 0 92 20.5t94 90.5v659h389v-647q0 -55 16.5 -76.5t57.5 -25.5v-328q-100 -20 -164 -20q-199 0 -229 149l-8 39q-76 -100 -180.5 -144t-239.5 -44zM315 1243v232h635v-232h-635z" />
<glyph unicode="&#x16c;" horiz-adv-x="1521" d="M760 342q70 0 119 30.5t79.5 81t45 116t14.5 137.5v747h399v-747q0 -152 -39 -284t-120.5 -228.5t-205.5 -151.5t-292 -55q-174 0 -298 58t-204 156.5t-117 228.5t-37 276v747h400v-747q0 -72 14 -138.5t45 -117t79 -80t118 -29.5zM760 1706q47 0 83 47t42 119h200 q0 -74 -23.5 -134.5t-66.5 -104.5t-103.5 -68.5t-131.5 -24.5q-72 0 -132.5 24.5t-103.5 68.5t-66.5 104.5t-23.5 134.5h201q0 -68 37 -117t88 -49z" />
<glyph unicode="&#x16d;" horiz-adv-x="1306" d="M424 -20q-164 0 -250 99t-86 290v708h389v-620q0 -72 32 -111t87 -39q45 0 92 20.5t94 90.5v659h389v-647q0 -55 16.5 -76.5t57.5 -25.5v-328q-100 -20 -164 -20q-199 0 -229 149l-8 39q-76 -100 -180.5 -144t-239.5 -44zM631 1329q47 0 83 47t42 119h200 q0 -74 -23.5 -134.5t-66.5 -104.5t-103.5 -68.5t-131.5 -24.5q-72 0 -132.5 24.5t-103.5 68.5t-66.5 104.5t-23.5 134.5h201q0 -68 37 -117t88 -49z" />
<glyph unicode="&#x16e;" horiz-adv-x="1521" d="M760 342q70 0 119 30.5t79.5 81t45 116t14.5 137.5v747h399v-747q0 -152 -39 -284t-120.5 -228.5t-205.5 -151.5t-292 -55q-174 0 -298 58t-204 156.5t-117 228.5t-37 276v747h400v-747q0 -72 14 -138.5t45 -117t79 -80t118 -29.5zM520 1694q0 90 64.5 134t175.5 44 t175 -44t64 -134t-64.5 -134t-174.5 -44q-111 0 -175.5 44t-64.5 134zM760 1761q-35 0 -58.5 -18.5t-23.5 -46.5q0 -31 23.5 -50.5t58.5 -19.5t58.5 19.5t23.5 50.5q0 29 -23.5 47t-58.5 18z" />
<glyph unicode="&#x16f;" horiz-adv-x="1306" d="M424 -20q-164 0 -250 99t-86 290v708h389v-620q0 -72 32 -111t87 -39q45 0 92 20.5t94 90.5v659h389v-647q0 -55 16.5 -76.5t57.5 -25.5v-328q-100 -20 -164 -20q-199 0 -229 149l-8 39q-76 -100 -180.5 -144t-239.5 -44zM391 1317q0 90 64.5 134t175.5 44t175 -44 t64 -134t-64.5 -134t-174.5 -44q-111 0 -175.5 44t-64.5 134zM631 1384q-35 0 -58.5 -18t-23.5 -47q0 -31 23.5 -50.5t58.5 -19.5t58.5 19.5t23.5 50.5q0 29 -23.5 47t-58.5 18z" />
<glyph unicode="&#x170;" horiz-adv-x="1521" d="M760 342q70 0 119 30.5t79.5 81t45 116t14.5 137.5v747h399v-747q0 -152 -39 -284t-120.5 -228.5t-205.5 -151.5t-292 -55q-174 0 -298 58t-204 156.5t-117 228.5t-37 276v747h400v-747q0 -72 14 -138.5t45 -117t79 -80t118 -29.5zM631 1518l-185 65l82 291h285z M1020 1518l-184 65l82 291h284z" />
<glyph unicode="&#x171;" horiz-adv-x="1306" d="M424 -20q-164 0 -250 99t-86 290v708h389v-620q0 -72 32 -111t87 -39q45 0 92 20.5t94 90.5v659h389v-647q0 -55 16.5 -76.5t57.5 -25.5v-328q-100 -20 -164 -20q-199 0 -229 149l-8 39q-76 -100 -180.5 -144t-239.5 -44zM502 1141l-185 65l82 291h285zM891 1141l-184 65 l81 291h285z" />
<glyph unicode="&#x172;" horiz-adv-x="1521" d="M788 -438q-160 18 -235.5 75.5t-75.5 129.5q0 59 41 117.5t123 111.5q-141 18 -243.5 82.5t-167 160t-95.5 216t-31 252.5v747h400v-747q0 -72 14 -138.5t45 -117t79 -80t118 -29.5t119 30.5t79.5 81t45 116t14.5 137.5v747h399v-747q0 -141 -33.5 -266.5t-104.5 -220.5 t-178.5 -154.5t-254.5 -73.5q-61 -39 -95 -77t-34 -73t34.5 -55t108.5 -20l-72 -205v0z" />
<glyph unicode="&#x173;" horiz-adv-x="1308" d="M1171 -440q-160 18 -235.5 75.5t-75.5 128.5q0 55 38 112.5t114 109.5q-133 23 -158 143l-8 39q-76 -100 -180.5 -144t-239.5 -44q-164 0 -250 99t-86 290v708h389v-620q0 -72 32 -111t87 -39q45 0 92 20.5t94 90.5v659h390v-647q0 -55 16 -76.5t57 -25.5v-328 q-72 -41 -109.5 -83t-37.5 -77t34.5 -55.5t108.5 -20.5l-72 -204v0z" />
<glyph unicode="&#x174;" horiz-adv-x="2164" d="M588 1454h366l127 -448l129 448h367l-240 -694l105 -303l313 997h434l-569 -1454h-332l-207 520l-204 -520h-332l-570 1454h433l315 -997l100 303zM711 1636l231 236h279l231 -236l-197 -86l-174 129l-174 -129z" />
<glyph unicode="&#x175;" horiz-adv-x="1765" d="M1419 1077h367l-440 -1077h-318l-145 410l-146 -410h-317l-440 1077h366l260 -723l68 232l-193 491h310l92 -315l92 315h309l-192 -491l67 -232zM512 1260l231 235h279l231 -235l-196 -86l-174 129l-174 -129z" />
<glyph unicode="&#x176;" horiz-adv-x="1363" d="M420 1454l260 -629l266 629h434l-501 -973v-481h-398v485l-493 969h432zM309 1636l232 236h278l232 -236l-197 -86l-174 129l-174 -129z" />
<glyph unicode="&#x177;" horiz-adv-x="1136" d="M90 -109q94 -35 160 -34q125 0 137 143l-391 1077h399l205 -747l166 747h362l-364 -1206q-25 -80 -70 -144.5t-107.5 -110.5t-138 -70.5t-157.5 -24.5q-104 0 -201 39v331zM229 1260l232 235h278l232 -235l-197 -86l-174 129l-174 -129z" />
<glyph unicode="&#x178;" horiz-adv-x="1363" d="M420 1454l260 -629l266 629h434l-501 -973v-481h-398v485l-493 969h432zM285 1567v286h319v-286h-319zM756 1567v286h319v-286h-319z" />
<glyph unicode="&#x179;" horiz-adv-x="1273" d="M55 297l680 809h-649v348h1110v-297l-639 -809h651v-348h-1153v297zM774 1516l-246 65l103 291h346z" />
<glyph unicode="&#x17a;" horiz-adv-x="1011" d="M45 229l492 582h-461v266h866v-229l-489 -582h508v-266h-916v229zM616 1139l-245 65l102 291h346z" />
<glyph unicode="&#x17b;" horiz-adv-x="1273" d="M55 297l680 809h-649v348h1110v-297l-639 -809h651v-348h-1153v297zM481 1565v307h348v-307h-348z" />
<glyph unicode="&#x17c;" horiz-adv-x="1011" d="M45 229l492 582h-461v266h866v-229l-489 -582h508v-266h-916v229zM324 1188v307h348v-307h-348z" />
<glyph unicode="&#x17d;" horiz-adv-x="1273" d="M55 297l680 809h-649v348h1110v-297l-639 -809h651v-348h-1153v297zM481 1872l174 -129l174 129l197 -86l-231 -236h-279l-231 236z" />
<glyph unicode="&#x17e;" horiz-adv-x="1011" d="M45 229l492 582h-461v266h866v-229l-489 -582h508v-266h-916v229zM324 1495l174 -129l174 129l196 -86l-231 -235h-279l-231 235z" />
<glyph unicode="&#x18f;" horiz-adv-x="1552" d="M768 -10q-182 0 -321.5 66.5t-232.5 170t-141 227.5t-48 238q0 39 4 79t8 71h1034q-6 72 -33.5 123t-68.5 83.5t-92.5 48t-104.5 15.5q-43 0 -85 -11t-78 -31.5t-62.5 -50.5t-38.5 -69l-416 117q41 88 105.5 162t150.5 125t191.5 79.5t228.5 28.5q178 0 316.5 -66.5 t231.5 -170t142 -229.5t49 -246q0 -137 -47 -273.5t-141 -244t-232.5 -175t-318.5 -67.5zM774 338q117 0 193.5 55.5t93.5 155.5h-594q18 -100 101 -155.5t206 -55.5z" />
<glyph unicode="&#x192;" horiz-adv-x="1157" d="M362 -428q-86 0 -163.5 28.5t-141.5 82.5l160 264q37 -41 96 -41q82 0 82 88v665h-133v293h133v117q0 100 29 183t80 141.5t123.5 90.5t163.5 32q135 0 299 -62l-66 -295q-35 12 -75 20.5t-70 8.5q-94 0 -95 -105v-131h236v-293h-236v-655q0 -96 -31.5 -176t-88 -136.5 t-134.5 -88t-168 -31.5z" />
<glyph unicode="&#x1c4;" horiz-adv-x="2740" d="M125 0v1454h559q180 0 317.5 -57.5t229.5 -155.5t139 -230t47 -282q0 -166 -52 -300t-148.5 -229.5t-231.5 -147.5t-301 -52h-559zM1012 729q0 84 -22.5 153.5t-64.5 119t-103.5 77t-137.5 27.5h-160v-758h160q78 0 139.5 29t103.5 80t63.5 120.5t21.5 151.5zM1522 297 l680 809h-650v348h1110v-297l-639 -809h652v-348h-1153v297zM1948 1872l174 -129l174 129l196 -86l-231 -236h-279l-231 236z" />
<glyph unicode="&#x1c5;" horiz-adv-x="2478" d="M125 0v1454h559q180 0 317.5 -57.5t229.5 -155.5t139 -230t47 -282q0 -166 -52 -300t-148.5 -229.5t-231.5 -147.5t-301 -52h-559zM1012 729q0 84 -22.5 153.5t-64.5 119t-103.5 77t-137.5 27.5h-160v-758h160q78 0 139.5 29t103.5 80t63.5 120.5t21.5 151.5zM1511 229 l492 582h-461v266h866v-229l-489 -582h508v-266h-916v229zM1790 1495l174 -129l174 129l197 -86l-232 -235h-278l-232 235z" />
<glyph unicode="&#x1c6;" horiz-adv-x="2373" d="M549 -20q-111 0 -204 40.5t-160.5 115.5t-105.5 178.5t-38 226.5q0 119 35 221t97.5 177t148.5 117t190 42t191.5 -47t134.5 -133v577h389v-1065q0 -55 16.5 -76.5t56.5 -25.5v-328q-100 -20 -163 -20q-199 0 -230 149l-8 39q-55 -98 -149.5 -143t-200.5 -45zM655 307 q106 0 185 111v192q-29 72 -84.5 116t-116.5 44q-43 0 -79 -18.5t-61.5 -51t-41 -75.5t-15.5 -93q0 -102 58.5 -163.5t154.5 -61.5zM1407 229l491 582h-460v266h866v-229l-489 -582h507v-266h-915v229zM1686 1495l174 -129l174 129l196 -86l-231 -235h-279l-231 235z" />
<glyph unicode="&#x1c7;" horiz-adv-x="2217" d="M125 0v1454h399v-1106h660v-348h-1059zM1284 393q6 -4 26.5 -14t51.5 -20.5t71 -18.5t83 -8q63 0 102 20.5t59.5 66.5t26.5 118.5t6 177.5v739h399v-739q0 -166 -18 -302.5t-79.5 -232.5t-179.5 -149.5t-316 -53.5q-184 0 -316 91z" />
<glyph unicode="&#x1c8;" horiz-adv-x="1792" d="M125 0v1454h399v-1106h660v-348h-1059zM1272 -428q-86 0 -164 28.5t-141 82.5l159 264q37 -41 97 -41q82 0 82 88v1083h389v-1052q0 -100 -31 -183.5t-87 -143.5t-134 -93t-170 -33zM1305 1167v328h389v-328h-389z" />
<glyph unicode="&#x1c9;" horiz-adv-x="1320" d="M90 1495h389v-1067q0 -123 101 -123q25 0 53.5 8.5t52.5 22.5l49 -287q-70 -33 -156.5 -51t-164.5 -18q-156 0 -240 79.5t-84 231.5v1204zM801 -428q-86 0 -164 28.5t-141 82.5l159 264q37 -41 97 -41q82 0 82 88v1083h389v-1052q0 -100 -31 -183.5t-87 -143.5t-134 -93 t-170 -33zM834 1167v328h389v-328h-389z" />
<glyph unicode="&#x1ca;" horiz-adv-x="2564" d="M524 715v-715h-399v1454h311l584 -739v739h399v-1454h-317zM1630 393q6 -4 26.5 -14t51.5 -20.5t71 -18.5t83 -8q63 0 102 20.5t59.5 66.5t26.5 118.5t6 177.5v739h400v-739q0 -166 -18.5 -302.5t-80 -232.5t-179.5 -149.5t-316 -53.5q-184 0 -316 91z" />
<glyph unicode="&#x1cb;" horiz-adv-x="2138" d="M524 715v-715h-399v1454h311l584 -739v739h399v-1454h-317zM1618 -428q-86 0 -164 28.5t-141 82.5l160 264q37 -41 96 -41q82 0 82 88v1083h389v-1052q0 -100 -31 -183.5t-87 -143.5t-134 -93t-170 -33zM1651 1167v328h389v-328h-389z" />
<glyph unicode="&#x1cc;" horiz-adv-x="1865" d="M1182 0h-389v606q0 80 -36 116t-83 36q-49 0 -104.5 -43t-82.5 -111v-604h-389v1077h351v-159q57 88 160.5 134t244.5 46q111 0 175.5 -40t98 -99.5t44 -127t10.5 -122.5v-709zM1346 -428q-86 0 -164 28.5t-142 82.5l160 264q37 -41 96 -41q82 0 82 88v1083h389v-1052 q0 -100 -30.5 -183.5t-87 -143.5t-134 -93t-169.5 -33zM1378 1167v328h389v-328h-389z" />
<glyph unicode="&#x1ea;" horiz-adv-x="1566" d="M795 -438q-160 18 -236 75.5t-76 129.5q0 59 42 118.5t126 112.5q-139 23 -250.5 92.5t-190.5 169.5t-122 221t-43 248q0 143 55.5 276.5t154.5 234.5t235.5 161.5t297.5 60.5q166 0 301.5 -63.5t231.5 -168t148.5 -237.5t52.5 -272q0 -135 -49.5 -261t-137.5 -225.5 t-212 -164t-271 -78.5q-61 -39 -95 -77t-34 -73t35 -55t108 -20zM451 725q0 -74 20.5 -142.5t61 -121.5t103 -86t148.5 -33t149.5 34t103.5 88t59.5 123.5t19.5 141.5q0 74 -20.5 142.5t-62.5 120.5t-104.5 84t-146.5 32q-86 0 -148.5 -33t-103.5 -87t-60 -122.5t-19 -140.5 z" />
<glyph unicode="&#x1eb;" horiz-adv-x="1257" d="M731 -438q-160 18 -235.5 75.5t-75.5 129.5q0 53 37 109t108 108q-129 10 -227 59t-165 124t-100.5 171t-33.5 201q0 111 38 212t112.5 178t184 123t255.5 46q143 0 253.5 -46t185.5 -123t113 -178.5t38 -211.5q0 -92 -27 -179.5t-79 -158t-130 -123.5t-180 -78 q-143 -82 -144 -158q0 -35 35 -55t109 -20zM438 539q0 -109 53.5 -170.5t137.5 -61.5t137 61.5t53 170.5t-53 170t-137 61t-137.5 -61t-53.5 -170z" />
<glyph unicode="&#x1f1;" horiz-adv-x="2721" d="M125 0v1454h559q180 0 317.5 -57.5t229.5 -155.5t139 -230t47 -282q0 -166 -52 -300t-148.5 -229.5t-231.5 -147.5t-301 -52h-559zM1012 729q0 84 -22.5 153.5t-64.5 119t-103.5 77t-137.5 27.5h-160v-758h160q78 0 139.5 29t103.5 80t63.5 120.5t21.5 151.5zM1503 297 l680 809h-649v348h1110v-297l-639 -809h651v-348h-1153v297z" />
<glyph unicode="&#x1f2;" horiz-adv-x="2465" d="M125 0v1454h559q180 0 317.5 -57.5t229.5 -155.5t139 -230t47 -282q0 -166 -52 -300t-148.5 -229.5t-231.5 -147.5t-301 -52h-559zM1012 729q0 84 -22.5 153.5t-64.5 119t-103.5 77t-137.5 27.5h-160v-758h160q78 0 139.5 29t103.5 80t63.5 120.5t21.5 151.5zM1499 229 l492 582h-461v266h866v-229l-489 -582h508v-266h-916v229z" />
<glyph unicode="&#x1f3;" horiz-adv-x="2373" d="M549 -20q-111 0 -204 40.5t-160.5 115.5t-105.5 178.5t-38 226.5q0 119 35 221t97.5 177t148.5 117t190 42t191.5 -47t134.5 -133v577h389v-1065q0 -55 16.5 -76.5t56.5 -25.5v-328q-100 -20 -163 -20q-199 0 -230 149l-8 39q-55 -98 -149.5 -143t-200.5 -45zM655 307 q106 0 185 111v192q-29 72 -84.5 116t-116.5 44q-43 0 -79 -18.5t-61.5 -51t-41 -75.5t-15.5 -93q0 -102 58.5 -163.5t154.5 -61.5zM1407 229l491 582h-460v266h866v-229l-489 -582h507v-266h-915v229z" />
<glyph unicode="&#x1f4;" horiz-adv-x="1513" d="M1112 121q-156 -131 -358 -131q-141 0 -270.5 50t-225.5 146.5t-153.5 235.5t-57.5 317q0 154 57.5 286t157.5 229.5t236.5 153.5t294.5 56q98 0 188 -21.5t167 -63.5t138.5 -100t99.5 -132l-296 -227q-43 86 -129.5 138t-182.5 52q-72 0 -131 -28.5t-102 -80t-67.5 -122 t-24.5 -154.5q0 -86 24.5 -155.5t68.5 -120t105.5 -78t136.5 -27.5q174 0 308 143h-252v287h598v-774h-330v121zM918 1516l-246 65l102 291h346z" />
<glyph unicode="&#x1f5;" horiz-adv-x="1325" d="M512 0q-104 0 -191.5 42t-148.5 114.5t-95 171t-34 213.5q0 121 37 223t103.5 176t158.5 116t203 42q117 0 205 -46t139 -134v159h338v-979q0 -127 -47 -229t-133 -174t-207 -112t-269 -40q-172 0 -299 53.5t-225 153.5l205 213q59 -55 142 -93t177 -38q53 0 101.5 14.5 t85.5 46t58.5 83t21.5 122.5v70q-47 -86 -134.5 -127t-191.5 -41zM651 307q59 0 103.5 27.5t83.5 83.5v192q-29 74 -85.5 117t-117.5 43q-41 0 -77 -19.5t-62.5 -51t-41 -75.5t-14.5 -94q0 -100 59.5 -161.5t151.5 -61.5zM776 1139l-246 65l103 291h346z" />
<glyph unicode="&#x1fa;" horiz-adv-x="1366" d="M858 1655q66 -45 66 -133q0 -72 -43 -115l489 -1407h-405l-88 285h-388l-86 -285h-407l489 1409q-41 45 -41 113q0 66 35 106.5t101 59.5l77 192h347zM813 551l-129 450l-135 -450h264zM684 1589q-35 0 -58.5 -18.5t-23.5 -46.5q0 -31 23.5 -50.5t58.5 -19.5t58.5 19.5 t23.5 50.5q0 29 -23.5 47t-58.5 18z" />
<glyph unicode="&#x1fb;" horiz-adv-x="1226" d="M416 -20q-80 0 -149.5 26.5t-120 72.5t-79 109.5t-28.5 137.5q0 82 35 149.5t96 116.5t146 75.5t188 26.5q131 0 217 -41v33q0 76 -44 113t-142 37q-92 0 -170 -30t-164 -87l-113 242q213 137 485 137q258 0 397.5 -115t139.5 -344v-209q0 -55 16.5 -76.5t57.5 -25.5 v-328q-47 -10 -89 -15t-75 -5q-104 0 -158.5 37.5t-70.5 111.5l-9 39q-72 -92 -166 -140t-200 -48zM532 258q35 0 72 11.5t66 29.5q23 16 37 35.5t14 40.5v80q-35 12 -76 20t-74 8q-72 0 -118.5 -34.5t-46.5 -88.5q0 -45 35.5 -73.5t90.5 -28.5zM334 1317q0 90 64.5 134 t174.5 44q111 0 175.5 -44t64.5 -134t-64.5 -134t-175.5 -44t-175 44t-64 134zM573 1384q-35 0 -58 -18t-23 -47q0 -31 23.5 -50.5t57.5 -19.5q35 0 58.5 19.5t23.5 50.5q0 29 -23.5 47t-58.5 18zM692 1524l-246 65l103 291h346z" />
<glyph unicode="&#x1fc;" horiz-adv-x="1988" d="M829 1454h1080v-348h-578v-193h467v-348h-467v-217h596v-348h-993v285h-412l-153 -285h-422zM903 633v381l-213 -381h213zM1399 1516l-246 65l102 291h347z" />
<glyph unicode="&#x1fd;" horiz-adv-x="1929" d="M416 -20q-80 0 -149.5 26.5t-120 72.5t-79 109.5t-28.5 137.5q0 82 35 149.5t96 116.5t146 75.5t188 26.5q131 0 217 -41v33q-2 76 -45 113t-141 37q-92 0 -170 -30t-164 -87l-113 242q213 137 485 137q240 0 379 -103q70 47 159 75t200 28q143 0 253.5 -46t185.5 -123 t113 -178.5t38 -211.5q0 -31 -3.5 -63t-7.5 -56h-755q6 -86 63 -124t125 -38q63 0 119.5 28.5t75.5 80.5l329 -95q-66 -129 -202 -210.5t-334 -81.5q-164 0 -284 57t-193 151q-39 -55 -90.5 -95t-106.5 -64.5t-112.5 -36.5t-108.5 -12zM532 258q35 0 72 11.5t66 29.5 q23 16 37 35.5t14 40.5v80q-35 12 -76 20t-74 8q-72 0 -118.5 -34.5t-46.5 -88.5q0 -45 35.5 -73.5t90.5 -28.5zM1483 653q-10 78 -57.5 123t-120.5 45q-74 0 -121 -45t-58 -123h357zM1071 1139l-246 65l103 291h346z" />
<glyph unicode="&#x1fe;" horiz-adv-x="1562" d="M1526 1454l-185 -252q86 -102 132.5 -227t46.5 -254q0 -143 -55.5 -275.5t-154 -233.5t-234.5 -162.5t-298 -61.5q-152 0 -280 53l-29 -41h-428l178 246q-86 102 -131 226t-45 257q0 143 55.5 276.5t154.5 234.5t235.5 161.5t297.5 60.5q76 0 144.5 -14t132.5 -39l33 45 h430zM899 1516l-246 65l103 291h346zM449 725q0 -74 18 -137l375 514q-31 6 -62 6q-86 0 -148.5 -33t-103.5 -87t-60 -122.5t-19 -140.5zM1114 729q0 72 -18 133l-375 -516q14 -2 29.5 -3t31.5 -1q86 0 149.5 34t103.5 88t59.5 123.5t19.5 141.5z" />
<glyph unicode="&#x1ff;" horiz-adv-x="1257" d="M748 1139l-246 65l102 291h346zM29 -12l151 170q-72 78 -106.5 175t-34.5 206q0 111 38 212t112.5 178t184 123t255.5 46q94 0 172 -19.5t143 -54.5l60 66h206l-143 -160q76 -78 114 -179.5t38 -211.5q0 -111 -38 -212.5t-113 -178t-185.5 -122.5t-253.5 -46 q-98 0 -181 21.5t-149 59.5l-66 -73h-204zM629 307q84 0 137 61.5t53 170.5q0 57 -16 102l-273 -307q42 -27 99 -27zM438 539q0 -25 3 -46.5t8 -41.5l266 299q-45 20 -86 20q-84 0 -137.5 -61t-53.5 -170z" />
<glyph unicode="&#x200;" horiz-adv-x="1366" d="M502 1454h364l504 -1454h-405l-88 285h-388l-86 -285h-407zM813 551l-129 450l-135 -450h264zM662 1874h284l82 -291l-184 -65zM272 1874h285l82 -291l-184 -65z" />
<glyph unicode="&#x201;" horiz-adv-x="1226" d="M416 -20q-80 0 -149.5 26.5t-120 72.5t-79 109.5t-28.5 137.5q0 82 35 149.5t96 116.5t146 75.5t188 26.5q131 0 217 -41v33q0 76 -44 113t-142 37q-92 0 -170 -30t-164 -87l-113 242q213 137 485 137q258 0 397.5 -115t139.5 -344v-209q0 -55 16.5 -76.5t57.5 -25.5 v-328q-47 -10 -89 -15t-75 -5q-104 0 -158.5 37.5t-70.5 111.5l-9 39q-72 -92 -166 -140t-200 -48zM532 258q35 0 72 11.5t66 29.5q23 16 37 35.5t14 40.5v80q-35 12 -76 20t-74 8q-72 0 -118.5 -34.5t-46.5 -88.5q0 -45 35.5 -73.5t90.5 -28.5zM522 1495h285l82 -291 l-184 -65zM133 1495h285l82 -291l-185 -65z" />
<glyph unicode="&#x202;" horiz-adv-x="1366" d="M502 1454h364l504 -1454h-405l-88 285h-388l-86 -285h-407zM813 551l-129 450l-135 -450h264zM684 1706q-51 0 -88 -49t-37 -117h-201q0 74 24 134.5t67 104.5t103 68.5t132 24.5t132.5 -24.5t103.5 -68.5t66.5 -104.5t23.5 -134.5h-201q-6 72 -42 119t-83 47z" />
<glyph unicode="&#x203;" horiz-adv-x="1226" d="M416 -20q-80 0 -149.5 26.5t-120 72.5t-79 109.5t-28.5 137.5q0 82 35 149.5t96 116.5t146 75.5t188 26.5q131 0 217 -41v33q0 76 -44 113t-142 37q-92 0 -170 -30t-164 -87l-113 242q213 137 485 137q258 0 397.5 -115t139.5 -344v-209q0 -55 16.5 -76.5t57.5 -25.5 v-328q-47 -10 -89 -15t-75 -5q-104 0 -158.5 37.5t-70.5 111.5l-9 39q-72 -92 -166 -140t-200 -48zM532 258q35 0 72 11.5t66 29.5q23 16 37 35.5t14 40.5v80q-35 12 -76 20t-74 8q-72 0 -118.5 -34.5t-46.5 -88.5q0 -45 35.5 -73.5t90.5 -28.5zM602 1329q-51 0 -88 -49 t-37 -117h-201q0 74 24 134.5t67 104.5t103 68.5t132 24.5t132.5 -24.5t103.5 -68.5t66.5 -104.5t23.5 -134.5h-201q-6 72 -42 119t-83 47z" />
<glyph unicode="&#x204;" horiz-adv-x="1222" d="M1161 348v-348h-1036v1454h1018v-348h-619v-205h529v-323h-529v-230h637zM594 1874h285l82 -291l-185 -65zM205 1874h284l82 -291l-184 -65z" />
<glyph unicode="&#x205;" d="M629 -20q-141 0 -252 44t-185.5 119.5t-113.5 174t-39 206.5q0 117 38 221.5t112.5 182.5t184 124t255.5 46q143 0 253.5 -46t185.5 -123t113 -178.5t38 -211.5q0 -31 -3.5 -63t-7.5 -56h-755q6 -86 63 -124t125 -38q63 0 119.5 28.5t75.5 80.5l329 -95 q-66 -129 -201.5 -210.5t-334.5 -81.5zM801 653q-10 78 -57.5 123t-120.5 45q-74 0 -121 -45t-58 -123h357zM604 1495h285l82 -291l-185 -65zM215 1495h285l82 -291l-185 -65z" />
<glyph unicode="&#x206;" horiz-adv-x="1222" d="M1161 348v-348h-1036v1454h1018v-348h-619v-205h529v-323h-529v-230h637zM641 1706q-51 0 -88 -49t-37 -117h-201q0 74 23.5 134.5t67 104.5t103.5 68.5t132 24.5t132.5 -24.5t103.5 -68.5t66.5 -104.5t23.5 -134.5h-201q-6 72 -42 119t-83 47z" />
<glyph unicode="&#x207;" d="M629 -20q-141 0 -252 44t-185.5 119.5t-113.5 174t-39 206.5q0 117 38 221.5t112.5 182.5t184 124t255.5 46q143 0 253.5 -46t185.5 -123t113 -178.5t38 -211.5q0 -31 -3.5 -63t-7.5 -56h-755q6 -86 63 -124t125 -38q63 0 119.5 28.5t75.5 80.5l329 -95 q-66 -129 -201.5 -210.5t-334.5 -81.5zM801 653q-10 78 -57.5 123t-120.5 45q-74 0 -121 -45t-58 -123h357zM637 1329q-51 0 -88 -49t-37 -117h-201q0 74 23.5 134.5t66.5 104.5t103.5 68.5t132.5 24.5t132 -24.5t103 -68.5t67 -104.5t24 -134.5h-201q-6 72 -42 119t-83 47z " />
<glyph unicode="&#x208;" horiz-adv-x="649" d="M125 0v1454h399v-1454h-399zM303 1874h285l82 -291l-185 -65zM-86 1874h285l82 -291l-185 -65z" />
<glyph unicode="&#x209;" horiz-adv-x="585" d="M98 0v1077h389v-1077h-389zM276 1495h285l82 -291l-184 -65zM-113 1495h285l82 -291l-184 -65z" />
<glyph unicode="&#x20a;" horiz-adv-x="649" d="M125 0v1454h399v-1454h-399zM326 1706q-51 0 -88 -49t-37 -117h-201q0 74 23.5 134.5t66.5 104.5t103.5 68.5t132.5 24.5t132 -24.5t103 -68.5t66.5 -104.5t23.5 -134.5h-200q-6 72 -42 119t-83 47z" />
<glyph unicode="&#x20b;" horiz-adv-x="585" d="M98 0v1077h389v-1077h-389zM293 1329q-51 0 -88 -49t-37 -117h-201q0 74 23.5 134.5t66.5 104.5t103.5 68.5t132.5 24.5t132 -24.5t103 -68.5t66.5 -104.5t23.5 -134.5h-200q-6 72 -42 119t-83 47z" />
<glyph unicode="&#x20c;" horiz-adv-x="1566" d="M780 -12q-166 0 -301 63.5t-231 167t-149.5 236.5t-53.5 274q0 143 55.5 276.5t154.5 234.5t235.5 161.5t297.5 60.5q166 0 301.5 -63.5t231.5 -168t148.5 -237.5t52.5 -272q0 -143 -55.5 -275.5t-154 -233.5t-234.5 -162.5t-298 -61.5zM451 725q0 -74 20.5 -142.5 t61 -121.5t103 -86t148.5 -33t149.5 34t103.5 88t59.5 123.5t19.5 141.5q0 74 -20.5 142.5t-62.5 120.5t-104.5 84t-146.5 32q-86 0 -148.5 -33t-103.5 -87t-60 -122.5t-19 -140.5zM745 1874h285l82 -291l-184 -65zM356 1874h285l82 -291l-184 -65z" />
<glyph unicode="&#x20d;" horiz-adv-x="1257" d="M629 -20q-145 0 -255 46t-184.5 122.5t-112.5 178t-38 212.5t38 212t112.5 178t184 123t255.5 46q143 0 253.5 -46t185.5 -123t113 -178.5t38 -211.5q0 -111 -38 -212.5t-113 -178t-185.5 -122.5t-253.5 -46zM438 539q0 -109 53.5 -170.5t137.5 -61.5t137 61.5t53 170.5 t-53 170t-137 61t-137.5 -61t-53.5 -170zM604 1495h285l82 -291l-185 -65zM215 1495h285l82 -291l-185 -65z" />
<glyph unicode="&#x20e;" horiz-adv-x="1566" d="M780 -12q-166 0 -301 63.5t-231 167t-149.5 236.5t-53.5 274q0 143 55.5 276.5t154.5 234.5t235.5 161.5t297.5 60.5q166 0 301.5 -63.5t231.5 -168t148.5 -237.5t52.5 -272q0 -143 -55.5 -275.5t-154 -233.5t-234.5 -162.5t-298 -61.5zM451 725q0 -74 20.5 -142.5 t61 -121.5t103 -86t148.5 -33t149.5 34t103.5 88t59.5 123.5t19.5 141.5q0 74 -20.5 142.5t-62.5 120.5t-104.5 84t-146.5 32q-86 0 -148.5 -33t-103.5 -87t-60 -122.5t-19 -140.5zM786 1706q-51 0 -87.5 -49t-36.5 -117h-201q0 74 23.5 134.5t66.5 104.5t103.5 68.5 t131.5 24.5q72 0 132.5 -24.5t103.5 -68.5t66.5 -104.5t23.5 -134.5h-201q-6 72 -42 119t-83 47z" />
<glyph unicode="&#x20f;" horiz-adv-x="1257" d="M629 -20q-145 0 -255 46t-184.5 122.5t-112.5 178t-38 212.5t38 212t112.5 178t184 123t255.5 46q143 0 253.5 -46t185.5 -123t113 -178.5t38 -211.5q0 -111 -38 -212.5t-113 -178t-185.5 -122.5t-253.5 -46zM438 539q0 -109 53.5 -170.5t137.5 -61.5t137 61.5t53 170.5 t-53 170t-137 61t-137.5 -61t-53.5 -170zM629 1329q-51 0 -88 -49t-37 -117h-201q0 74 23.5 134.5t66.5 104.5t103.5 68.5t132.5 24.5t132 -24.5t103 -68.5t66.5 -104.5t23.5 -134.5h-200q-6 72 -42 119t-83 47z" />
<glyph unicode="&#x210;" horiz-adv-x="1382" d="M125 0v1454h668q106 0 196 -44t154.5 -114.5t101.5 -162t37 -183.5q0 -127 -55.5 -236.5t-153.5 -178.5l307 -535h-450l-256 446h-150v-446h-399zM524 795h252q37 0 69 41t32 114q0 76 -37 116t-74 40h-242v-311zM604 1874h285l82 -291l-185 -65zM215 1874h285l82 -291 l-185 -65z" />
<glyph unicode="&#x211;" horiz-adv-x="851" d="M829 745q-113 0 -205 -24.5t-137 -81.5v-639h-389v1077h357v-205q57 109 142 167.5t183 58.5q39 0 49 -2v-351zM440 1495h285l82 -291l-184 -65zM51 1495h285l82 -291l-185 -65z" />
<glyph unicode="&#x212;" horiz-adv-x="1382" d="M125 0v1454h668q106 0 196 -44t154.5 -114.5t101.5 -162t37 -183.5q0 -127 -55.5 -236.5t-153.5 -178.5l307 -535h-450l-256 446h-150v-446h-399zM524 795h252q37 0 69 41t32 114q0 76 -37 116t-74 40h-242v-311zM659 1706q-51 0 -87.5 -49t-36.5 -117h-201 q0 74 23.5 134.5t66.5 104.5t103.5 68.5t131.5 24.5q72 0 132.5 -24.5t103.5 -68.5t66.5 -104.5t23.5 -134.5h-201q-6 72 -42 119t-83 47z" />
<glyph unicode="&#x213;" horiz-adv-x="851" d="M829 745q-113 0 -205 -24.5t-137 -81.5v-639h-389v1077h357v-205q57 109 142 167.5t183 58.5q39 0 49 -2v-351zM457 1329q-51 0 -88 -49t-37 -117h-201q0 74 23.5 134.5t66.5 104.5t103.5 68.5t132.5 24.5t132 -24.5t103 -68.5t66.5 -104.5t23.5 -134.5h-200 q-6 72 -42 119t-83 47z" />
<glyph unicode="&#x214;" horiz-adv-x="1521" d="M760 342q70 0 119 30.5t79.5 81t45 116t14.5 137.5v747h399v-747q0 -152 -39 -284t-120.5 -228.5t-205.5 -151.5t-292 -55q-174 0 -298 58t-204 156.5t-117 228.5t-37 276v747h400v-747q0 -72 14 -138.5t45 -117t79 -80t118 -29.5zM729 1874h285l82 -291l-185 -65z M340 1874h285l82 -291l-185 -65z" />
<glyph unicode="&#x215;" horiz-adv-x="1306" d="M424 -20q-164 0 -250 99t-86 290v708h389v-620q0 -72 32 -111t87 -39q45 0 92 20.5t94 90.5v659h389v-647q0 -55 16.5 -76.5t57.5 -25.5v-328q-100 -20 -164 -20q-199 0 -229 149l-8 39q-76 -100 -180.5 -144t-239.5 -44zM612 1495h285l82 -291l-184 -65zM223 1495h285 l82 -291l-184 -65z" />
<glyph unicode="&#x216;" horiz-adv-x="1521" d="M760 342q70 0 119 30.5t79.5 81t45 116t14.5 137.5v747h399v-747q0 -152 -39 -284t-120.5 -228.5t-205.5 -151.5t-292 -55q-174 0 -298 58t-204 156.5t-117 228.5t-37 276v747h400v-747q0 -72 14 -138.5t45 -117t79 -80t118 -29.5zM760 1706q-51 0 -88 -49t-37 -117h-201 q0 74 23.5 134.5t66.5 104.5t103.5 68.5t132.5 24.5t132 -24.5t103 -68.5t66.5 -104.5t23.5 -134.5h-200q-6 72 -42 119t-83 47z" />
<glyph unicode="&#x217;" horiz-adv-x="1306" d="M424 -20q-164 0 -250 99t-86 290v708h389v-620q0 -72 32 -111t87 -39q45 0 92 20.5t94 90.5v659h389v-647q0 -55 16.5 -76.5t57.5 -25.5v-328q-100 -20 -164 -20q-199 0 -229 149l-8 39q-76 -100 -180.5 -144t-239.5 -44zM625 1329q-51 0 -88 -49t-37 -117h-201 q0 74 23.5 134.5t66.5 104.5t103.5 68.5t132.5 24.5t132 -24.5t103 -68.5t66.5 -104.5t23.5 -134.5h-200q-6 72 -42 119t-83 47z" />
<glyph unicode="&#x218;" horiz-adv-x="1263" d="M1006 979q-61 37 -127 65q-55 25 -124 46.5t-134 21.5q-53 0 -85 -16.5t-32 -55.5q0 -29 18.5 -47t53 -33.5t85 -30t113.5 -34.5q100 -31 181 -67.5t138.5 -87t88 -122t30.5 -174.5q0 -131 -48 -220t-127 -142t-178 -76.5t-200 -23.5q-80 0 -163.5 12t-166.5 34.5 t-160 53.5t-142 70l172 350q72 -45 149 -80q66 -31 149 -55.5t169 -24.5q66 0 91 17.5t25 46.5q0 31 -25.5 52t-70.5 37.5t-103.5 33t-123.5 38.5q-96 33 -166 71t-115 86t-66.5 109.5t-21.5 141.5q0 121 44 213t120 153.5t173 93t206 31.5q80 0 155.5 -15t146.5 -38.5 t132 -51.5t111 -52zM545 -436l73 125h-116v217h321v-217l-110 -125h-168z" />
<glyph unicode="&#x219;" horiz-adv-x="1026" d="M543 -20q-141 0 -276.5 46t-229.5 134l133 233q100 -68 193.5 -104.5t171.5 -36.5q82 0 81 51q0 29 -31.5 49.5t-123.5 46.5q-115 33 -191.5 65t-125 68.5t-69 81.5t-20.5 107q0 82 33 151.5t91.5 120.5t139 79t177.5 28q119 0 226 -31t216 -125l-147 -233 q-100 66 -168 93t-127 27q-35 0 -57.5 -13t-22.5 -42q0 -31 32.5 -50t129.5 -44q117 -31 196.5 -64.5t127.5 -73.5t68.5 -90.5t20.5 -115.5q0 -84 -30.5 -149.5t-89 -112.5t-141.5 -71.5t-187 -24.5zM418 -436l74 125h-117v217h321v-217l-110 -125h-168z" />
<glyph unicode="&#x21a;" horiz-adv-x="1277" d="M1257 1106h-417v-1106h-400v1106h-420v348h1237v-348zM530 -436l74 125h-117v217h322v-217l-111 -125h-168z" />
<glyph unicode="&#x21b;" horiz-adv-x="866" d="M854 59q-82 -35 -175 -58.5t-183 -23.5q-66 0 -125.5 16.5t-103.5 53.5t-69.5 96.5t-25.5 147.5v493h-133v293h133v338h389v-338h211v-293h-211v-356q0 -53 22.5 -74.5t61.5 -21.5q29 0 66 9t73 26zM371 -436l73 125h-116v217h321v-217l-110 -125h-168z" />
<glyph unicode="&#x237;" horiz-adv-x="585" d="M66 -428q-86 0 -164 28.5t-142 82.5l160 264q37 -41 96 -41q82 0 82 88v1083h389v-1052q0 -100 -30.5 -183.5t-87 -143.5t-134 -93t-169.5 -33z" />
<glyph unicode="&#x259;" d="M618 -20q-145 0 -254.5 46t-184.5 122.5t-112.5 178t-37.5 212.5q0 31 3 62.5t7 55.5h756q-6 86 -63.5 124t-125.5 38q-63 0 -119.5 -28.5t-74.5 -79.5l-330 94q66 129 202 211t334 82q141 0 252 -44t185.5 -120t113.5 -174t39 -207q0 -117 -37.5 -221.5t-112.5 -182 t-186 -123.5t-254 -46zM625 256q74 0 121 45t57 123h-357q10 -78 57.5 -123t121.5 -45z" />
<glyph unicode="&#x2bc;" horiz-adv-x="1060" d="M573 1139l-245 65l63 178l-22 113h407z" />
<glyph unicode="&#x2c6;" horiz-adv-x="823" d="M41 1260l231 235h279l231 -235l-196 -86l-174 129l-174 -129z" />
<glyph unicode="&#x2c7;" horiz-adv-x="823" d="M238 1495l174 -129l174 129l196 -86l-231 -235h-279l-231 235z" />
<glyph unicode="&#x2c9;" horiz-adv-x="897" d="M131 1243v232h635v-232h-635z" />
<glyph unicode="&#x2d8;" horiz-adv-x="753" d="M377 1329q47 0 83 47t42 119h200q0 -74 -23.5 -134.5t-66.5 -104.5t-103 -68.5t-132 -24.5t-132.5 24.5t-103.5 68.5t-66.5 104.5t-23.5 134.5h201q0 -68 37 -117t88 -49z" />
<glyph unicode="&#x2d9;" horiz-adv-x="552" d="M102 1188v307h349v-307h-349z" />
<glyph unicode="&#x2da;" horiz-adv-x="561" d="M41 1317q0 90 64.5 134t175.5 44t175 -44t64 -134t-64.5 -134t-174.5 -44q-111 0 -175.5 44t-64.5 134zM281 1384q-35 0 -58.5 -18t-23.5 -47q0 -31 23.5 -50.5t58.5 -19.5t58 19.5t23 50.5q0 29 -23 47t-58 18z" />
<glyph unicode="&#x2db;" horiz-adv-x="679" d="M463 -438q-160 18 -235.5 75.5t-75.5 129.5q0 74 68.5 149.5t203.5 134.5l115 -49q-72 -41 -110 -83t-38 -77t35 -55t109 -20l-72 -205v0z" />
<glyph unicode="&#x2dc;" horiz-adv-x="950" d="M616 1171q-47 0 -82.5 15.5t-66.5 34t-60.5 34t-64.5 15.5t-53.5 -14.5t-27.5 -33t-11 -33.5t-2 -18h-207q0 27 15.5 81.5t50 107.5t88 94t131.5 41q49 0 86 -16.5t67.5 -36t59 -35.5t63.5 -16q33 0 53.5 15t31.5 34.5t14.5 36t3.5 18.5h204q0 -18 -16 -70.5t-51 -108.5 t-90.5 -100.5t-135.5 -44.5z" />
<glyph unicode="&#x2dd;" horiz-adv-x="817" d="M236 1139l-185 65l82 291h285zM625 1139l-185 65l82 291h285z" />
<glyph unicode="&#x30f;" horiz-adv-x="817" d="M399 1495h285l82 -291l-184 -65zM10 1495h285l82 -291l-184 -65z" />
<glyph unicode="&#x311;" horiz-adv-x="753" d="M377 1329q-51 0 -88 -49t-37 -117h-201q0 74 23.5 134.5t66.5 104.5t103.5 68.5t132.5 24.5t132 -24.5t103 -68.5t66.5 -104.5t23.5 -134.5h-200q-6 72 -42 119t-83 47z" />
<glyph unicode="&#x394;" horiz-adv-x="1349" d="M1321 307v-307h-1292v307l485 1147h324zM948 348l-272 670l-260 -670h532z" />
<glyph unicode="&#x3a9;" horiz-adv-x="1622" d="M61 264h306q-133 78 -209 208t-76 296q0 137 55.5 263t152.5 222.5t230 153.5t291 57q156 0 290 -57t231.5 -153.5t152.5 -222.5t55 -263q0 -166 -75.5 -296t-209.5 -208h306v-264h-674v264q61 27 109 79t82 119.5t52.5 146.5t18.5 159q0 63 -23.5 124.5t-66.5 111 t-105.5 79t-142.5 29.5t-142.5 -29.5t-105.5 -79t-66.5 -111t-23.5 -124.5q0 -80 18.5 -159t52.5 -146.5t82 -119.5t109 -79v-264h-674v264z" />
<glyph unicode="&#x3bc;" horiz-adv-x="1337" d="M100 1077h389v-620q0 -72 31 -111t96 -39q37 0 84.5 20.5t94.5 90.5v659h389v-647q0 -55 20.5 -76.5t73.5 -25.5v-328q-59 -10 -104.5 -15t-79.5 -5q-199 0 -230 149l-8 39q-12 -31 -42 -64.5t-68.5 -61.5t-81.5 -46.5t-82 -18.5q-35 0 -66 17.5t-51 58.5v-489h-365v1513 z" />
<glyph unicode="&#x3c0;" horiz-adv-x="1396" d="M586 741v-741h-387v741h-144v328h1227v-328h-164v-313q0 -123 101 -123q25 0 53 8.5t53 22.5l49 -287q-70 -33 -157 -51t-164 -18q-156 0 -240 79.5t-84 231.5v450h-143z" />
<glyph unicode="&#x400;" horiz-adv-x="1230" d="M1169 348v-348h-1036v1454h1018v-348h-619v-205h529v-323h-529v-230h637zM334 1874h346l102 -291l-245 -65z" />
<glyph unicode="&#x401;" horiz-adv-x="1230" d="M1169 348v-348h-1036v1454h1018v-348h-619v-205h529v-323h-529v-230h637zM260 1567v286h320v-286h-320zM731 1567v286h320v-286h-320z" />
<glyph unicode="&#x402;" horiz-adv-x="1564" d="M268 1116h-248v338h1197v-338h-560v-266q70 53 159 82t190 29q129 0 230 -36t173 -100.5t109.5 -154.5t37.5 -199q0 -231 -140 -361t-392 -130q-141 0 -274 45l104 321q29 -16 63.5 -26.5t69.5 -10.5t67.5 8.5t57.5 28t40 50t15 75.5q0 76 -52 119t-134 43 q-176 0 -324 -127v-506h-389v1116z" />
<glyph unicode="&#x403;" horiz-adv-x="1095" d="M698 1516l-245 65l102 291h346zM1081 1106h-549v-1106h-399v1454h948v-348z" />
<glyph unicode="&#x404;" horiz-adv-x="1421" d="M1399 326q-33 -80 -99.5 -143.5t-151.5 -106.5t-182.5 -65.5t-189.5 -22.5q-162 0 -296 64.5t-231 171t-150.5 241.5t-53.5 274q0 133 50 262t146.5 231.5t233.5 166t313 63.5q211 0 366 -87t230 -230l-305 -217q-20 53 -54 88t-75 55.5t-85 28.5t-85 8 q-117 0 -190.5 -60.5t-108.5 -146.5h414v-317h-424q35 -104 115 -173t198 -69q41 0 84 9t83 30.5t72 55.5t50 83z" />
<glyph unicode="&#x405;" horiz-adv-x="1263" d="M1006 979q-61 37 -127 65q-55 25 -124 46.5t-134 21.5q-53 0 -85 -16.5t-32 -55.5q0 -29 18.5 -47t53 -33.5t85 -30t113.5 -34.5q100 -31 181 -67.5t138.5 -87t88 -122t30.5 -174.5q0 -131 -48 -220t-127 -142t-178 -76.5t-200 -23.5q-80 0 -163.5 12t-166.5 34.5 t-160 53.5t-142 70l172 350q72 -45 149 -80q66 -31 149 -55.5t169 -24.5q66 0 91 17.5t25 46.5q0 31 -25.5 52t-70.5 37.5t-103.5 33t-123.5 38.5q-96 33 -166 71t-115 86t-66.5 109.5t-21.5 141.5q0 121 44 213t120 153.5t173 93t206 31.5q80 0 155.5 -15t146.5 -38.5 t132 -51.5t111 -52z" />
<glyph unicode="&#x406;" horiz-adv-x="665" d="M133 0v1454h399v-1454h-399z" />
<glyph unicode="&#x407;" horiz-adv-x="665" d="M133 0v1454h399v-1454h-399zM-63 1567v286h319v-286h-319zM408 1567v286h319v-286h-319z" />
<glyph unicode="&#x408;" horiz-adv-x="1026" d="M86 393q6 -4 26.5 -14t51.5 -20.5t70.5 -18.5t82.5 -8q63 0 102.5 20.5t60 66.5t26.5 118.5t6 177.5v739h399v-739q0 -166 -18.5 -302.5t-79.5 -232.5t-179 -149.5t-317 -53.5q-184 0 -315 91z" />
<glyph unicode="&#x409;" horiz-adv-x="2244" d="M27 330q78 8 127 34.5t79.5 98.5t51 206t41.5 359l39 426h1015v-522h299q123 0 220.5 -32t166 -91t105.5 -143t37 -191q0 -111 -35 -199t-100.5 -149t-159.5 -94t-213 -33h-719v1106h-258l-18 -197q-27 -276 -68 -454.5t-116 -282.5t-193.5 -145t-300.5 -41v344z M1642 336q78 0 118 39t40 104q0 57 -40 99.5t-118 42.5h-262v-285h262z" />
<glyph unicode="&#x40a;" horiz-adv-x="2283" d="M133 1454h399v-536h488v536h399v-522h299q123 0 220.5 -32t166 -91t105.5 -143t37 -191q0 -111 -35 -199t-100.5 -149t-159.5 -94t-213 -33h-719v569h-488v-569h-399v1454zM1681 336q78 0 118 25.5t40 97.5q0 121 -158 121h-262v-244h262z" />
<glyph unicode="&#x40b;" horiz-adv-x="1544" d="M1094 276q0 147 -51.5 227.5t-174.5 80.5q-119 0 -211 -58v-526h-389v1116h-248v338h1156v-338h-519v-215q125 53 320 53q233 0 370.5 -121.5t137.5 -383.5v-449h-391v276z" />
<glyph unicode="&#x40c;" horiz-adv-x="1413" d="M831 1516l-245 65l102 291h346zM530 899h31l402 555h450l-526 -702l573 -752h-444l-420 537h-66v-537h-397v1454h397v-555z" />
<glyph unicode="&#x40d;" horiz-adv-x="1574" d="M535 1874h346l102 -291l-246 -65zM532 623l619 831h291v-1454h-400v807l-612 -807h-297v1454h399v-831z" />
<glyph unicode="&#x40e;" horiz-adv-x="1333" d="M446 -14q-25 0 -57.5 4t-69 14t-71.5 25.5t-62 38.5l84 325q2 -4 14.5 -14t31 -20.5t41 -18.5t49.5 -8q45 0 75.5 22.5t38.5 63.5l-538 1036h440l276 -649l254 649h420l-512 -1106q-45 -98 -87 -166.5t-90 -111.5t-104.5 -63.5t-132.5 -20.5zM688 1544q-96 0 -174 24.5 t-135 68.5t-88 104.5t-31 134.5h242q0 -53 56 -89t130 -36q72 0 124 36t62 89h242q0 -74 -30.5 -134.5t-88 -104.5t-136.5 -68.5t-173 -24.5z" />
<glyph unicode="&#x40f;" horiz-adv-x="1488" d="M131 1454h399v-1106h428v1106h400v-1454h-430v-340h-369v340h-428v1454z" />
<glyph unicode="&#x410;" horiz-adv-x="1366" d="M502 1454h364l504 -1454h-405l-88 285h-388l-86 -285h-407zM813 551l-129 450l-135 -450h264z" />
<glyph unicode="&#x411;" horiz-adv-x="1394" d="M133 1454h1112v-348h-713v-215h299q262 0 395.5 -116t133.5 -320q0 -213 -127 -334t-381 -121h-719v1454zM795 336q78 0 117.5 32.5t39.5 90.5q0 49 -40 85t-117 36h-263v-244h263z" />
<glyph unicode="&#x412;" horiz-adv-x="1421" d="M1370 373q0 -98 -41 -169t-112.5 -116t-167 -66.5t-201.5 -21.5h-715v1454h844q76 0 137.5 -32.5t104.5 -85t66.5 -119t23.5 -136.5q0 -102 -52.5 -195t-156.5 -141q125 -37 197.5 -127.5t72.5 -244.5zM965 455q0 53 -29 89t-74 36h-330v-244h316q49 0 83 31t34 88z M532 1114v-223h273q41 0 74.5 22.5t33.5 90.5q0 59 -28.5 84.5t-67.5 25.5h-285z" />
<glyph unicode="&#x413;" horiz-adv-x="1095" d="M1081 1106h-549v-1106h-399v1454h948v-348z" />
<glyph unicode="&#x414;" horiz-adv-x="1654" d="M33 348h90q51 0 87 36t62.5 116t45 210t36.5 318l39 426h1016v-1106h205v-688h-389v340h-803v-340h-389v688zM1010 348v758h-258l-19 -197q-16 -184 -46 -321t-71 -240h394z" />
<glyph unicode="&#x415;" horiz-adv-x="1230" d="M1169 348v-348h-1036v1454h1018v-348h-619v-205h529v-323h-529v-230h637z" />
<glyph unicode="&#x416;" horiz-adv-x="2164" d="M526 752l-526 702h451l401 -555h31v555h399v-555h31l401 555h451l-527 -702l574 -752h-445l-419 537h-66v-537h-399v537h-66l-420 -537h-444z" />
<glyph unicode="&#x417;" horiz-adv-x="1200" d="M47 1249q111 106 247 162.5t318 56.5q111 0 200 -24.5t152.5 -72.5t98.5 -120.5t35 -167.5q0 -47 -9.5 -93t-34 -88t-66.5 -78t-105 -60q135 -39 200.5 -132t65.5 -220q0 -104 -42 -184.5t-117 -133.5t-176 -79.5t-220 -26.5q-172 0 -304 44t-265 142l182 305 q78 -61 164 -98t198 -37q76 0 125 35t49 113q0 27 -8 53t-28.5 46.5t-53 33t-84.5 12.5h-202v262h168q102 0 149 33t47 92q0 51 -31.5 82t-117.5 31q-98 0 -177 -35t-157 -101z" />
<glyph unicode="&#x418;" horiz-adv-x="1574" d="M532 623l619 831h291v-1454h-400v807l-612 -807h-297v1454h399v-831z" />
<glyph unicode="&#x419;" horiz-adv-x="1574" d="M1249 1876q0 -74 -30.5 -134.5t-88 -104.5t-136.5 -68.5t-173 -24.5q-96 0 -174 24.5t-135 68.5t-88 104.5t-31 134.5h242q0 -53 56.5 -89t129.5 -36q72 0 124 36t63 89h241zM532 623l619 831h291v-1454h-400v807l-612 -807h-297v1454h399v-831z" />
<glyph unicode="&#x41a;" horiz-adv-x="1413" d="M530 899h31l402 555h450l-526 -702l573 -752h-444l-420 537h-66v-537h-397v1454h397v-555z" />
<glyph unicode="&#x41b;" horiz-adv-x="1511" d="M705 909q-27 -276 -68 -454.5t-116 -282.5t-193.5 -145t-300.5 -41v344q78 8 127 34.5t79.5 98.5t51 206t41.5 359l39 426h1015v-1454h-399v1106h-258z" />
<glyph unicode="&#x41c;" horiz-adv-x="1765" d="M1233 0v766l-244 -539h-213l-244 539v-766h-399v1454h436l314 -684l315 684h434v-1454h-399z" />
<glyph unicode="&#x41d;" horiz-adv-x="1552" d="M1419 1454v-1454h-399v569h-488v-569h-399v1454h399v-536h488v536h399z" />
<glyph unicode="&#x41e;" horiz-adv-x="1566" d="M780 -12q-166 0 -301 63.5t-231 167t-149.5 236.5t-53.5 274q0 143 55.5 276.5t154.5 234.5t235.5 161.5t297.5 60.5q166 0 301.5 -63.5t231.5 -168t148.5 -237.5t52.5 -272q0 -143 -55.5 -275.5t-154 -233.5t-234.5 -162.5t-298 -61.5zM451 725q0 -74 20.5 -142.5 t61 -121.5t103 -86t148.5 -33t149.5 34t103.5 88t59.5 123.5t19.5 141.5q0 74 -20.5 142.5t-62.5 120.5t-104.5 84t-146.5 32q-86 0 -148.5 -33t-103.5 -87t-60 -122.5t-19 -140.5z" />
<glyph unicode="&#x41f;" horiz-adv-x="1513" d="M133 1454h1247v-1454h-399v1106h-449v-1106h-399v1454z" />
<glyph unicode="&#x420;" horiz-adv-x="1284" d="M133 0v1454h627q106 0 196.5 -44t155 -114.5t101 -162t36.5 -183.5q0 -96 -34.5 -187t-97 -162t-151.5 -113t-196 -42h-238v-446h-399zM532 795h211q37 0 69 33.5t32 121.5q0 90 -37 123t-74 33h-201v-311z" />
<glyph unicode="&#x421;" horiz-adv-x="1415" d="M45 739q0 133 50 262t146.5 231.5t233.5 166t313 63.5q211 0 366 -87t230 -230l-305 -217q-20 53 -54 88t-75 55.5t-85 28.5t-85 8q-86 0 -148.5 -34t-102.5 -88t-59 -122.5t-19 -136.5q0 -76 22.5 -145.5t65.5 -122.5t105.5 -85t139.5 -32q41 0 84 9t83 30.5t72 55.5 t50 83l326 -194q-33 -80 -99.5 -143.5t-151.5 -106.5t-182.5 -65.5t-189.5 -22.5q-162 0 -296 64.5t-231 171t-150.5 241.5t-53.5 274z" />
<glyph unicode="&#x422;" horiz-adv-x="1277" d="M1257 1106h-417v-1106h-400v1106h-420v348h1237v-348z" />
<glyph unicode="&#x423;" horiz-adv-x="1333" d="M446 -14q-25 0 -57.5 4t-69 14t-71.5 25.5t-62 38.5l84 325q2 -4 14.5 -14t31 -20.5t41 -18.5t49.5 -8q45 0 75.5 22.5t38.5 63.5l-538 1036h440l276 -649l254 649h420l-512 -1106q-45 -98 -87 -166.5t-90 -111.5t-104.5 -63.5t-132.5 -20.5z" />
<glyph unicode="&#x424;" horiz-adv-x="1695" d="M659 106q-164 20 -281.5 76t-194.5 140t-113.5 192.5t-36.5 235.5q0 121 34.5 228t109.5 192t193.5 143.5t288.5 81.5v202h377v-202q168 -23 287 -81.5t194.5 -143.5t110.5 -192.5t35 -227.5q0 -127 -37 -234.5t-113.5 -190.5t-195.5 -139.5t-281 -76.5v-170h-377v167z M1036 475q137 29 190.5 100.5t53.5 176.5q0 111 -54.5 178t-189.5 96v-551zM659 1026q-135 -29 -190 -96.5t-55 -177.5q0 -104 54 -176t191 -101v551z" />
<glyph unicode="&#x425;" horiz-adv-x="1345" d="M410 1454l264 -459l264 459h430l-485 -737l469 -717h-430l-248 438l-248 -438h-432l469 717l-486 737h433z" />
<glyph unicode="&#x426;" horiz-adv-x="1585" d="M1155 0h-1022v1454h399v-1106h408v1106h399v-1106h205v-688h-389v340z" />
<glyph unicode="&#x427;" horiz-adv-x="1349" d="M827 1454h390v-1454h-390v512q-57 -27 -123.5 -40t-175.5 -13q-129 0 -218 38t-144 105.5t-80 158.5t-25 197v496h390v-364q0 -127 50 -196t173 -69q90 0 153 29v600z" />
<glyph unicode="&#x428;" horiz-adv-x="2115" d="M1982 1454v-1454h-1849v1454h399v-1106h326v1106h399v-1106h326v1106h399z" />
<glyph unicode="&#x429;" horiz-adv-x="2228" d="M1798 0h-1665v1454h399v-1106h326v1106h399v-1106h326v1106h399v-1106h205v-688h-389v340z" />
<glyph unicode="&#x42a;" horiz-adv-x="1581" d="M16 1454h760v-481h238q123 0 220 -33t165.5 -95.5t105.5 -150.5t37 -198q0 -231 -135 -363.5t-373 -132.5h-657v1126h-361v328zM776 336h201q78 0 118 44t40 120q0 66 -40 114t-118 48h-201v-326z" />
<glyph unicode="&#x42b;" horiz-adv-x="2017" d="M133 1454h399v-481h238q123 0 220 -33t166 -95.5t105.5 -150.5t36.5 -198q0 -231 -135 -363.5t-372 -132.5h-658v1454zM1485 0v1454h399v-1454h-399zM532 336h201q78 0 118 44t40 120q0 66 -40 114t-118 48h-201v-326z" />
<glyph unicode="&#x42c;" horiz-adv-x="1337" d="M133 1454h399v-481h238q123 0 220 -33t166 -95.5t105.5 -150.5t36.5 -198q0 -231 -135 -363.5t-372 -132.5h-658v1454zM532 336h201q78 0 118 44t40 120q0 66 -40 114t-118 48h-201v-326z" />
<glyph unicode="&#x42d;" horiz-adv-x="1421" d="M645 -12q-92 0 -189.5 22.5t-182.5 65.5t-151.5 106.5t-98.5 143.5l325 194q18 -49 50 -83t72 -55.5t83 -30.5t84 -9q119 0 198.5 68.5t114.5 173.5h-424v317h414q-35 86 -108.5 146.5t-190.5 60.5q-41 0 -85 -8t-85 -28.5t-75 -55.5t-54 -88l-305 217q76 143 230.5 230 t365.5 87q174 0 312 -63.5t234.5 -166t146.5 -231.5t50 -262q0 -139 -54 -274t-150.5 -241.5t-230.5 -171t-296 -64.5z" />
<glyph unicode="&#x42e;" horiz-adv-x="2113" d="M1374 -12q-133 0 -244.5 43t-198.5 118.5t-144.5 181t-81.5 230.5h-173v-561h-399v1454h399v-545h177q27 123 87 225.5t147 175t198.5 112.5t240.5 40q154 0 280 -58t215 -158.5t138 -236t49 -288.5q0 -166 -51 -301t-142 -231.5t-218 -148.5t-279 -52zM1096 725 q0 -178 68.5 -280.5t213.5 -102.5q147 0 214 106.5t67 280.5q0 180 -69.5 279.5t-213.5 99.5q-145 0 -212.5 -104.5t-67.5 -278.5z" />
<glyph unicode="&#x42f;" horiz-adv-x="1411" d="M879 0v508h-107l-319 -508h-428l350 553q-119 55 -186.5 164.5t-67.5 263.5q0 104 37 190t101.5 149.5t154.5 98.5t196 35h668v-1454h-399zM879 1116h-211q-25 0 -50.5 -6t-45 -21.5t-33 -42t-13.5 -65.5q0 -41 12.5 -66.5t32 -41t45 -21.5t52.5 -6h211v270z" />
<glyph unicode="&#x430;" horiz-adv-x="1230" d="M416 -20q-80 0 -149.5 26.5t-120 72.5t-79 109.5t-28.5 137.5q0 82 35 149.5t96 116.5t146 75.5t188 26.5q131 0 217 -41v33q0 76 -44 113t-142 37q-92 0 -170 -30t-164 -87l-113 242q213 137 485 137q258 0 397.5 -115t139.5 -344v-209q0 -55 16.5 -76.5t57.5 -25.5 v-328q-47 -10 -89 -15t-75 -5q-104 0 -158.5 37.5t-70.5 111.5l-9 39q-72 -92 -166 -140t-200 -48zM532 258q35 0 72 11.5t66 29.5q23 16 37 35.5t14 40.5v80q-35 12 -76 20t-74 8q-72 0 -118.5 -34.5t-46.5 -88.5q0 -45 35.5 -73.5t90.5 -28.5z" />
<glyph unicode="&#x431;" horiz-adv-x="1288" d="M645 1087q-92 -18 -146.5 -75.5t-74.5 -167.5q53 66 139 105.5t207 39.5q92 0 178 -38t152.5 -102.5t105.5 -149.5t39 -181q0 -106 -38 -203.5t-112.5 -172t-185 -118.5t-254.5 -44q-291 0 -440 161.5t-149 472.5q0 201 35.5 341.5t107.5 234.5t182.5 149.5t259.5 83.5 l469 93v-334zM465 518q0 -98 53 -154.5t137 -56.5t137.5 57.5t53.5 153.5q0 72 -53.5 118t-137.5 46t-137 -46t-53 -118z" />
<glyph unicode="&#x432;" horiz-adv-x="1214" d="M856 1077q61 0 110.5 -24.5t84 -63.5t53 -89t18.5 -101q0 -72 -41 -140.5t-127 -103.5q100 -29 158.5 -92.5t58.5 -186.5q0 -158 -116.5 -217t-331.5 -59h-621v1077h754zM657 641q35 0 57.5 18.5t22.5 59.5q0 35 -22.5 57.5t-57.5 22.5h-165v-158h165zM702 279 q29 0 51.5 22.5t22.5 56.5q0 43 -22.5 65.5t-51.5 22.5h-210v-167h210z" />
<glyph unicode="&#x433;" horiz-adv-x="901" d="M877 739h-385v-739h-390v1077h775v-338z" />
<glyph unicode="&#x434;" horiz-adv-x="1380" d="M25 338h53q47 0 77.5 15.5t51 56.5t34 112.5t25.5 184.5l41 370h856v-739h164v-608h-350v270h-615v-270h-337v608zM774 338v401h-137l-8 -73q-10 -96 -34 -175t-58 -153h237z" />
<glyph unicode="&#x435;" d="M629 -20q-141 0 -252 44t-185.5 119.5t-113.5 174t-39 206.5q0 117 38 221.5t112.5 182.5t184 124t255.5 46q143 0 253.5 -46t185.5 -123t113 -178.5t38 -211.5q0 -31 -3.5 -63t-7.5 -56h-755q6 -86 63 -124t125 -38q63 0 119.5 28.5t75.5 80.5l329 -95 q-66 -129 -201.5 -210.5t-334.5 -81.5zM801 653q-10 78 -57.5 123t-120.5 45q-74 0 -121 -45t-58 -123h357z" />
<glyph unicode="&#x436;" horiz-adv-x="1882" d="M449 1077l266 -360h26v360h402v-360h28l265 360h440l-385 -516l422 -561h-467l-275 379h-30v-379h-398v379h-30l-273 -379h-469l420 561l-383 516h441z" />
<glyph unicode="&#x437;" horiz-adv-x="976" d="M51 954q102 76 216 110t225 34q74 0 145.5 -16.5t126.5 -52.5t89 -92t34 -136q0 -74 -42 -140.5t-124 -87.5q115 -33 168 -105.5t53 -168.5q0 -72 -36 -130t-98.5 -100t-146 -65.5t-180.5 -23.5q-74 0 -144.5 11t-132 31.5t-110.5 48t-80 62.5l172 242q29 -35 93.5 -56.5 t134.5 -21.5q66 0 109.5 20.5t43.5 65.5q0 20 -7 37.5t-28.5 29t-59.5 17.5t-99 6h-99v184h95q92 0 137 31t45 74q0 37 -29.5 53t-77.5 16q-53 0 -123.5 -24.5t-119.5 -67.5z" />
<glyph unicode="&#x438;" horiz-adv-x="1288" d="M492 559l421 518h273v-1077h-389v500l-420 -500h-275v1077h390v-518z" />
<glyph unicode="&#x439;" horiz-adv-x="1288" d="M1028 1495q0 -74 -26.5 -134.5t-74.5 -104.5t-116 -68.5t-149 -24.5q-82 0 -150 24.5t-116 68.5t-74.5 104.5t-26.5 134.5h201q0 -68 41 -117t125 -49q78 0 117.5 47t47.5 119h201zM492 559l421 518h273v-1077h-389v500l-420 -500h-275v1077h390v-518z" />
<glyph unicode="&#x43a;" horiz-adv-x="1202" d="M786 1077h412l-418 -520l455 -557h-451l-286 346h-9v-346h-387v1077h387v-377h9z" />
<glyph unicode="&#x43b;" horiz-adv-x="1224" d="M25 338q51 2 82.5 16.5t53 54.5t36 111.5t26.5 186.5l41 370h858v-1077h-389v739h-137l-8 -73q-23 -197 -59.5 -326t-101.5 -206t-162 -107.5t-240 -32.5v344z" />
<glyph unicode="&#x43c;" horiz-adv-x="1544" d="M772 637l264 440h406v-1077h-369v514l-219 -367h-164l-219 367v-514h-369v1077h408z" />
<glyph unicode="&#x43d;" horiz-adv-x="1269" d="M492 721h286v356h389v-1077h-389v383h-286v-383h-390v1077h390v-356z" />
<glyph unicode="&#x43e;" horiz-adv-x="1257" d="M629 -20q-145 0 -255 46t-184.5 122.5t-112.5 178t-38 212.5t38 212t112.5 178t184 123t255.5 46q143 0 253.5 -46t185.5 -123t113 -178.5t38 -211.5q0 -111 -38 -212.5t-113 -178t-185.5 -122.5t-253.5 -46zM438 539q0 -109 53.5 -170.5t137.5 -61.5t137 61.5t53 170.5 t-53 170t-137 61t-137.5 -61t-53.5 -170z" />
<glyph unicode="&#x43f;" horiz-adv-x="1239" d="M1137 0h-389v739h-256v-739h-390v1077h1035v-1077z" />
<glyph unicode="&#x440;" horiz-adv-x="1327" d="M827 -20q-117 0 -202.5 46t-132.5 134v-596h-390v1513h338v-162q57 88 141.5 135.5t206.5 47.5q106 0 198.5 -42t158 -116t103.5 -176t38 -221q0 -121 -34.5 -224.5t-96 -179.5t-146 -117.5t-182.5 -41.5zM692 307q43 0 79 18.5t61.5 51.5t41 76t15.5 92 q0 102 -58.5 163.5t-154.5 61.5q-109 0 -184 -111v-186q29 -72 84 -119t116 -47z" />
<glyph unicode="&#x441;" horiz-adv-x="1181" d="M39 539q0 111 39 212t113.5 178t185 123t254.5 46q197 0 329 -82t197 -211l-379 -115q-55 80 -149 80q-80 0 -135.5 -60.5t-55.5 -170.5q0 -111 55.5 -171.5t135.5 -60.5q94 0 149 80l379 -115q-66 -129 -198 -210.5t-328 -81.5q-143 0 -254 46t-185.5 122.5t-113.5 178 t-39 212.5z" />
<glyph unicode="&#x442;" horiz-adv-x="1052" d="M723 0h-389v739h-309v338h1003v-338h-305v-739z" />
<glyph unicode="&#x443;" horiz-adv-x="1136" d="M172 -129q35 -8 65.5 -11t47.5 -3q47 0 71.5 29.5t30.5 113.5l-391 1077h399l205 -747l166 747h362l-364 -1206q-53 -172 -166 -261t-270 -89q-35 0 -76 4t-80 14v332z" />
<glyph unicode="&#x444;" horiz-adv-x="1564" d="M983 1083q135 -20 237.5 -68t170 -119t101.5 -162t34 -197q0 -223 -138.5 -363.5t-404.5 -179.5v-430h-389v428q-274 35 -414.5 175t-140.5 370q0 217 137 362t418 186v410h389v-412zM594 788q-104 -27 -145 -90t-41 -159t36.5 -160t149.5 -92v501zM983 291 q102 29 138 92t36 156q0 92 -38 154.5t-136 90.5v-493z" />
<glyph unicode="&#x445;" horiz-adv-x="1134" d="M393 1077l154 -264l20 -43l21 43l153 264h396l-361 -538l371 -539h-395l-166 264l-19 41l-18 -41l-166 -264h-395l370 539l-360 538h395z" />
<glyph unicode="&#x446;" horiz-adv-x="1320" d="M102 1077h390v-739h231v739h389v-739h156v-608h-350v270h-816v1077z" />
<glyph unicode="&#x447;" horiz-adv-x="1124" d="M1022 0h-377v332q-111 -41 -205 -41q-84 0 -155.5 27.5t-123.5 77.5t-82 119t-30 149v413h369v-362q0 -66 29.5 -99.5t95.5 -33.5q47 0 102 28v467h377v-1077z" />
<glyph unicode="&#x448;" horiz-adv-x="1861" d="M102 0v1077h390v-739h245v739h389v-739h244v739h389v-1077h-1657z" />
<glyph unicode="&#x449;" horiz-adv-x="1970" d="M102 1077h390v-739h245v739h389v-739h244v739h389v-739h158v-608h-352v270h-1463v1077z" />
<glyph unicode="&#x44a;" horiz-adv-x="1341" d="M647 774h219q217 0 336 -102.5t119 -274.5q0 -180 -110.5 -288.5t-321.5 -108.5h-631v764h-235v313h624v-303zM823 293q100 0 101 94q0 43 -26 68.5t-75 25.5h-176v-188h176z" />
<glyph unicode="&#x44b;" horiz-adv-x="1726" d="M102 1077h390v-303h155q219 0 338 -102.5t119 -274.5q0 -180 -110.5 -288.5t-321.5 -108.5h-570v1077zM1235 1077h389v-1077h-389v1077zM606 293q100 0 101 94q0 43 -26 68.5t-75 25.5h-114v-188h114z" />
<glyph unicode="&#x44c;" horiz-adv-x="1185" d="M102 1077h390v-303h217q219 0 337.5 -102.5t118.5 -274.5q0 -180 -110.5 -288.5t-321.5 -108.5h-631v1077zM668 293q100 0 100 94q0 43 -25.5 68.5t-74.5 25.5h-176v-188h176z" />
<glyph unicode="&#x44d;" horiz-adv-x="1153" d="M526 -20q-80 0 -156.5 16t-143 49t-121 79t-87.5 105l293 181q33 -51 90.5 -79t112.5 -28q63 0 107.5 32t70.5 85h-254v225h260q-27 66 -82 97.5t-120 31.5q-53 0 -106.5 -23.5t-90.5 -72.5l-268 182q61 111 190 174.5t291 63.5q139 0 252 -47t191.5 -125t120.5 -177.5 t42 -203.5q0 -109 -45 -210.5t-124 -180t-187.5 -126.5t-235.5 -48z" />
<glyph unicode="&#x44e;" horiz-adv-x="1710" d="M629 721q49 176 186 276.5t328 100.5q121 0 218 -41t165.5 -116t105.5 -179.5t37 -231.5q0 -133 -40 -235t-109.5 -172t-167 -106.5t-209.5 -36.5q-102 0 -188.5 28.5t-153 81.5t-112.5 127t-66 166h-131v-383h-390v1077h390v-356h137zM977 539q0 -117 45 -168.5 t117 -51.5t115.5 53.5t43.5 170.5t-43 166t-114 49q-74 0 -119 -51t-45 -168z" />
<glyph unicode="&#x44f;" horiz-adv-x="1206" d="M301 395q-100 33 -151.5 109t-51.5 205q0 88 31 157.5t85 117.5t129 73.5t163 25.5h598v-1083h-389v334h-74l-209 -334h-407zM715 606v185h-148q-31 0 -52 -25t-21 -68t21.5 -67.5t55.5 -24.5h144z" />
<glyph unicode="&#x450;" d="M629 -20q-141 0 -252 44t-185.5 119.5t-113.5 174t-39 206.5q0 117 38 221.5t112.5 182.5t184 124t255.5 46q143 0 253.5 -46t185.5 -123t113 -178.5t38 -211.5q0 -31 -3.5 -63t-7.5 -56h-755q6 -86 63 -124t125 -38q63 0 119.5 28.5t75.5 80.5l329 -95 q-66 -129 -201.5 -210.5t-334.5 -81.5zM801 653q-10 78 -57.5 123t-120.5 45q-74 0 -121 -45t-58 -123h357zM307 1497h346l103 -291l-246 -65z" />
<glyph unicode="&#x451;" d="M629 -20q-141 0 -252 44t-185.5 119.5t-113.5 174t-39 206.5q0 117 38 221.5t112.5 182.5t184 124t255.5 46q143 0 253.5 -46t185.5 -123t113 -178.5t38 -211.5q0 -31 -3.5 -63t-7.5 -56h-755q6 -86 63 -124t125 -38q63 0 119.5 28.5t75.5 80.5l329 -95 q-66 -129 -201.5 -210.5t-334.5 -81.5zM801 653q-10 78 -57.5 123t-120.5 45q-74 0 -121 -45t-58 -123h357zM233 1190v287h320v-287h-320zM705 1190v287h319v-287h-319z" />
<glyph unicode="&#x452;" horiz-adv-x="1282" d="M1186 25q0 -100 -31 -183.5t-87 -143.5t-134 -93t-170 -33q-86 0 -164 28.5t-141 82.5l159 264q37 -41 97 -41q82 0 82 88v489q0 80 -35 116t-82 36q-59 0 -109.5 -58.5t-78.5 -156.5v-420h-390v1094h-163v223h163v178h390v-178h415v-223h-415v-340q57 106 149 163.5 t207 57.5q113 0 180.5 -39t102 -97.5t45 -126t10.5 -126.5v-561z" />
<glyph unicode="&#x453;" horiz-adv-x="901" d="M877 739h-385v-739h-390v1077h775v-338zM616 1139l-245 65l102 291h346z" />
<glyph unicode="&#x454;" horiz-adv-x="1157" d="M629 -20q-127 0 -235.5 41.5t-187.5 117.5t-124 179.5t-45 226.5q0 111 42 211t121 176t191.5 121t251.5 45q162 0 293 -63.5t192 -174.5l-294 -213q-12 33 -35 56.5t-50.5 39t-55 23.5t-52.5 8q-74 0 -119 -42t-67 -87h262v-225h-254q25 -43 68.5 -80t109.5 -37 q49 0 104.5 31t75.5 88l316 -193q-25 -59 -80.5 -105t-126 -79t-149 -49t-152.5 -16z" />
<glyph unicode="&#x455;" horiz-adv-x="1026" d="M543 -20q-141 0 -276.5 46t-229.5 134l133 233q100 -68 193.5 -104.5t171.5 -36.5q82 0 81 51q0 29 -31.5 49.5t-123.5 46.5q-115 33 -191.5 65t-125 68.5t-69 81.5t-20.5 107q0 82 33 151.5t91.5 120.5t139 79t177.5 28q119 0 226 -31t216 -125l-147 -233 q-100 66 -168 93t-127 27q-35 0 -57.5 -13t-22.5 -42q0 -31 32.5 -50t129.5 -44q117 -31 196.5 -64.5t127.5 -73.5t68.5 -90.5t20.5 -115.5q0 -84 -30.5 -149.5t-89 -112.5t-141.5 -71.5t-187 -24.5z" />
<glyph unicode="&#x456;" horiz-adv-x="593" d="M102 0v1077h390v-1077h-390zM102 1167v328h390v-328h-390z" />
<glyph unicode="&#x457;" horiz-adv-x="593" d="M102 0v1077h390v-1077h-390zM-98 1190v287h319v-287h-319zM373 1190v287h319v-287h-319z" />
<glyph unicode="&#x458;" horiz-adv-x="602" d="M78 -428q-86 0 -164 28.5t-141 82.5l159 264q37 -41 97 -41q82 0 82 88v1083h389v-1052q0 -100 -31 -183.5t-87 -143.5t-134 -93t-170 -33zM111 1167v328h389v-328h-389z" />
<glyph unicode="&#x459;" horiz-adv-x="1753" d="M27 338q51 2 82.5 16.5t53 54.5t36 111.5t26.5 186.5l41 370h858v-350h144q219 0 337.5 -96t118.5 -256q0 -172 -110.5 -273.5t-321.5 -101.5h-557v739h-137l-8 -73q-23 -197 -59.5 -326t-101 -206t-162 -107.5t-240.5 -32.5v344zM1219 297q100 0 100 74q0 35 -25.5 54 t-74.5 19h-95v-147h95z" />
<glyph unicode="&#x45a;" horiz-adv-x="1828" d="M102 1077h390v-366h321v366h389v-350h144q217 0 335.5 -96t118.5 -256q0 -172 -110.5 -273.5t-321.5 -101.5h-555v373h-321v-373h-390v1077zM1296 297q100 0 101 74q0 35 -25.5 54t-75.5 19h-94v-147h94z" />
<glyph unicode="&#x45b;" horiz-adv-x="1282" d="M797 483q0 80 -35 116t-82 36q-59 0 -109.5 -58.5t-78.5 -156.5v-420h-390v1094h-163v223h163v178h390v-178h415v-223h-415v-340q57 106 149 163.5t207 57.5q113 0 180.5 -39t102 -97.5t45 -126t10.5 -126.5v-586h-389v483z" />
<glyph unicode="&#x45c;" horiz-adv-x="1202" d="M741 1139l-245 65l102 291h346zM786 1077h412l-418 -520l455 -557h-451l-286 346h-9v-346h-387v1077h387v-377h9z" />
<glyph unicode="&#x45d;" horiz-adv-x="1288" d="M367 1497h346l102 -291l-246 -65zM492 559l421 518h273v-1077h-389v500l-420 -500h-275v1077h390v-518z" />
<glyph unicode="&#x45e;" horiz-adv-x="1136" d="M598 1329q78 0 118 47t48 119h201q0 -74 -27 -134.5t-75 -104.5t-115.5 -68.5t-149.5 -24.5t-149.5 24.5t-115.5 68.5t-75 104.5t-27 134.5h201q0 -68 41 -117t125 -49zM172 -129q35 -8 65.5 -11t47.5 -3q47 0 71.5 29.5t30.5 113.5l-391 1077h399l205 -747l166 747h362 l-364 -1206q-53 -172 -166 -261t-270 -89q-35 0 -76 4t-80 14v332z" />
<glyph unicode="&#x45f;" horiz-adv-x="1236" d="M440 0h-338v1077h390v-739h253v739h390v-1077h-340v-270h-355v270z" />
<glyph unicode="&#x490;" horiz-adv-x="1093" d="M131 1454h602l15 340h331v-688h-549v-1106h-399v1454z" />
<glyph unicode="&#x491;" horiz-adv-x="901" d="M526 1077l21 271h330v-609h-385v-739h-390v1077h424z" />
<glyph unicode="&#x4b0;" horiz-adv-x="1327" d="M1208 469v-246h-348v-223h-397v223h-346v246h346v16l-494 969h432l261 -629l266 629h434l-502 -973v-12h348z" />
<glyph unicode="&#x4b1;" horiz-adv-x="1103" d="M381 0h-272v246h243v8l-364 823h411l152 -510l172 510h393l-366 -823v-8h245v-246h-274v-436h-340v436z" />
<glyph unicode="&#x1e0c;" horiz-adv-x="1466" d="M125 0v1454h559q180 0 317.5 -57.5t229.5 -155.5t139 -230t47 -282q0 -166 -52 -300t-148.5 -229.5t-231.5 -147.5t-301 -52h-559zM1012 729q0 84 -22.5 153.5t-64.5 119t-103.5 77t-137.5 27.5h-160v-758h160q78 0 139.5 29t103.5 80t63.5 120.5t21.5 151.5zM532 -436 v307h349v-307h-349z" />
<glyph unicode="&#x1e0d;" horiz-adv-x="1361" d="M549 -20q-111 0 -204 40.5t-160.5 115.5t-105.5 178.5t-38 226.5q0 119 35 221t97.5 177t148.5 117t190 42t191.5 -47t134.5 -133v577h389v-1065q0 -55 16.5 -76.5t56.5 -25.5v-328q-100 -20 -163 -20q-199 0 -230 149l-8 39q-55 -98 -149.5 -143t-200.5 -45zM655 307 q106 0 185 111v192q-29 72 -84.5 116t-116.5 44q-43 0 -79 -18.5t-61.5 -51t-41 -75.5t-15.5 -93q0 -102 58.5 -163.5t154.5 -61.5zM553 -436v307h348v-307h-348z" />
<glyph unicode="&#x1e24;" horiz-adv-x="1536" d="M1411 1454v-1454h-399v569h-488v-569h-399v1454h399v-536h488v536h399zM588 -436v307h348v-307h-348z" />
<glyph unicode="&#x1e25;" horiz-adv-x="1271" d="M1182 0h-389v606q0 80 -36 116t-89 36q-18 0 -44 -11.5t-51.5 -31t-48 -48t-37.5 -63.5v-604h-389v1495h389v-577q57 88 149.5 134t207.5 46q113 0 180.5 -39t102 -97.5t45 -126t10.5 -126.5v-709zM461 -436v307h348v-307h-348z" />
<glyph unicode="&#x1e44;" horiz-adv-x="1544" d="M524 715v-715h-399v1454h311l584 -739v739h399v-1454h-317zM592 1563v307h348v-307h-348z" />
<glyph unicode="&#x1e45;" horiz-adv-x="1271" d="M1182 0h-389v606q0 80 -36 116t-83 36q-49 0 -104.5 -43t-82.5 -111v-604h-389v1077h351v-159q57 88 160.5 134t244.5 46q111 0 175.5 -40t98 -99.5t44 -127t10.5 -122.5v-709zM508 1188v307h348v-307h-348z" />
<glyph unicode="&#x1e5a;" horiz-adv-x="1382" d="M125 0v1454h668q106 0 196 -44t154.5 -114.5t101.5 -162t37 -183.5q0 -127 -55.5 -236.5t-153.5 -178.5l307 -535h-450l-256 446h-150v-446h-399zM524 795h252q37 0 69 41t32 114q0 76 -37 116t-74 40h-242v-311zM532 -436v307h349v-307h-349z" />
<glyph unicode="&#x1e5b;" horiz-adv-x="851" d="M829 745q-113 0 -205 -24.5t-137 -81.5v-639h-389v1077h357v-205q57 109 142 167.5t183 58.5q39 0 49 -2v-351zM119 -436v307h348v-307h-348z" />
<glyph unicode="&#x1e62;" horiz-adv-x="1263" d="M1006 979q-61 37 -127 65q-55 25 -124 46.5t-134 21.5q-53 0 -85 -16.5t-32 -55.5q0 -29 18.5 -47t53 -33.5t85 -30t113.5 -34.5q100 -31 181 -67.5t138.5 -87t88 -122t30.5 -174.5q0 -131 -48 -220t-127 -142t-178 -76.5t-200 -23.5q-80 0 -163.5 12t-166.5 34.5 t-160 53.5t-142 70l172 350q72 -45 149 -80q66 -31 149 -55.5t169 -24.5q66 0 91 17.5t25 46.5q0 31 -25.5 52t-70.5 37.5t-103.5 33t-123.5 38.5q-96 33 -166 71t-115 86t-66.5 109.5t-21.5 141.5q0 121 44 213t120 153.5t173 93t206 31.5q80 0 155.5 -15t146.5 -38.5 t132 -51.5t111 -52zM446 -436v307h349v-307h-349z" />
<glyph unicode="&#x1e63;" horiz-adv-x="1026" d="M543 -20q-141 0 -276.5 46t-229.5 134l133 233q100 -68 193.5 -104.5t171.5 -36.5q82 0 81 51q0 29 -31.5 49.5t-123.5 46.5q-115 33 -191.5 65t-125 68.5t-69 81.5t-20.5 107q0 82 33 151.5t91.5 120.5t139 79t177.5 28q119 0 226 -31t216 -125l-147 -233 q-100 66 -168 93t-127 27q-35 0 -57.5 -13t-22.5 -42q0 -31 32.5 -50t129.5 -44q117 -31 196.5 -64.5t127.5 -73.5t68.5 -90.5t20.5 -115.5q0 -84 -30.5 -149.5t-89 -112.5t-141.5 -71.5t-187 -24.5zM342 -436v307h348v-307h-348z" />
<glyph unicode="&#x1e6c;" horiz-adv-x="1277" d="M1257 1106h-417v-1106h-400v1106h-420v348h1237v-348zM459 -436v307h348v-307h-348z" />
<glyph unicode="&#x1e6d;" horiz-adv-x="866" d="M854 59q-82 -35 -175 -58.5t-183 -23.5q-66 0 -125.5 16.5t-103.5 53.5t-69.5 96.5t-25.5 147.5v493h-133v293h133v338h389v-338h211v-293h-211v-356q0 -53 22.5 -74.5t61.5 -21.5q29 0 66 9t73 26zM311 -436v307h348v-307h-348z" />
<glyph unicode="&#x1e80;" horiz-adv-x="2164" d="M588 1454h366l127 -448l129 448h367l-240 -694l105 -303l313 997h434l-569 -1454h-332l-207 520l-204 -520h-332l-570 1454h433l315 -997l100 303zM760 1874h346l102 -291l-245 -65z" />
<glyph unicode="&#x1e81;" horiz-adv-x="1765" d="M1419 1077h367l-440 -1077h-318l-145 410l-146 -410h-317l-440 1077h366l260 -723l68 232l-193 491h310l92 -315l92 315h309l-192 -491l67 -232zM561 1497h346l103 -291l-246 -65z" />
<glyph unicode="&#x1e82;" horiz-adv-x="2164" d="M588 1454h366l127 -448l129 448h367l-240 -694l105 -303l313 997h434l-569 -1454h-332l-207 520l-204 -520h-332l-570 1454h433l315 -997l100 303zM1200 1516l-246 65l103 291h346z" />
<glyph unicode="&#x1e83;" horiz-adv-x="1765" d="M1419 1077h367l-440 -1077h-318l-145 410l-146 -410h-317l-440 1077h366l260 -723l68 232l-193 491h310l92 -315l92 315h309l-192 -491l67 -232zM1001 1139l-245 65l102 291h346z" />
<glyph unicode="&#x1e84;" horiz-adv-x="2164" d="M588 1454h366l127 -448l129 448h367l-240 -694l105 -303l313 997h434l-569 -1454h-332l-207 520l-204 -520h-332l-570 1454h433l315 -997l100 303zM686 1567v286h320v-286h-320zM1157 1567v286h320v-286h-320z" />
<glyph unicode="&#x1e85;" horiz-adv-x="1765" d="M1419 1077h367l-440 -1077h-318l-145 410l-146 -410h-317l-440 1077h366l260 -723l68 232l-193 491h310l92 -315l92 315h309l-192 -491l67 -232zM487 1190v287h320v-287h-320zM958 1190v287h320v-287h-320z" />
<glyph unicode="&#x1e92;" horiz-adv-x="1273" d="M55 297l680 809h-649v348h1110v-297l-639 -809h651v-348h-1153v297zM463 -436v307h348v-307h-348z" />
<glyph unicode="&#x1e93;" horiz-adv-x="1011" d="M45 229l492 582h-461v266h866v-229l-489 -582h508v-266h-916v229zM328 -436v307h348v-307h-348z" />
<glyph unicode="&#x1eb8;" horiz-adv-x="1222" d="M1161 348v-348h-1036v1454h1018v-348h-619v-205h529v-323h-529v-230h637zM475 -436v307h348v-307h-348z" />
<glyph unicode="&#x1eb9;" d="M629 -20q-141 0 -252 44t-185.5 119.5t-113.5 174t-39 206.5q0 117 38 221.5t112.5 182.5t184 124t255.5 46q143 0 253.5 -46t185.5 -123t113 -178.5t38 -211.5q0 -31 -3.5 -63t-7.5 -56h-755q6 -86 63 -124t125 -38q63 0 119.5 28.5t75.5 80.5l329 -95 q-66 -129 -201.5 -210.5t-334.5 -81.5zM801 653q-10 78 -57.5 123t-120.5 45q-74 0 -121 -45t-58 -123h357zM436 -436v307h348v-307h-348z" />
<glyph unicode="&#x1ebc;" horiz-adv-x="1222" d="M1161 348v-348h-1036v1454h1018v-348h-619v-205h529v-323h-529v-230h637zM778 1548q-47 0 -83 15.5t-66.5 34t-60 34t-64.5 15.5t-53.5 -14.5t-27.5 -33t-11 -34t-2 -17.5h-207q0 27 15 81t50 107.5t88.5 94.5t130.5 41q49 0 86 -16.5t68 -36t59.5 -36t63.5 -16.5 q33 0 53.5 15.5t31.5 35t14 36t3 18.5h205q0 -18 -16.5 -70.5t-51 -109t-90 -100.5t-135.5 -44z" />
<glyph unicode="&#x1ebd;" d="M629 -20q-141 0 -252 44t-185.5 119.5t-113.5 174t-39 206.5q0 117 38 221.5t112.5 182.5t184 124t255.5 46q143 0 253.5 -46t185.5 -123t113 -178.5t38 -211.5q0 -31 -3.5 -63t-7.5 -56h-755q6 -86 63 -124t125 -38q63 0 119.5 28.5t75.5 80.5l329 -95 q-66 -129 -201.5 -210.5t-334.5 -81.5zM801 653q-10 78 -57.5 123t-120.5 45q-74 0 -121 -45t-58 -123h357zM760 1171q-47 0 -83 15.5t-66.5 34t-60.5 34t-65 15.5t-53 -14.5t-27.5 -33t-11.5 -33.5t-2 -18h-207q0 27 15.5 81.5t50.5 107.5t88 94t131 41q49 0 86 -16.5 t67.5 -36t59.5 -35.5t63 -16q33 0 53.5 15t32 34.5t14.5 36t3 18.5h205q0 -18 -16.5 -70.5t-51.5 -108.5t-90 -100.5t-135 -44.5z" />
<glyph unicode="&#x1eca;" horiz-adv-x="649" d="M125 0v1454h399v-1454h-399zM147 -436v307h349v-307h-349z" />
<glyph unicode="&#x1ecb;" horiz-adv-x="585" d="M98 0v1077h389v-1077h-389zM98 1167v328h389v-328h-389zM115 -436v307h348v-307h-348z" />
<glyph unicode="&#x1ecc;" horiz-adv-x="1566" d="M780 -12q-166 0 -301 63.5t-231 167t-149.5 236.5t-53.5 274q0 143 55.5 276.5t154.5 234.5t235.5 161.5t297.5 60.5q166 0 301.5 -63.5t231.5 -168t148.5 -237.5t52.5 -272q0 -143 -55.5 -275.5t-154 -233.5t-234.5 -162.5t-298 -61.5zM451 725q0 -74 20.5 -142.5 t61 -121.5t103 -86t148.5 -33t149.5 34t103.5 88t59.5 123.5t19.5 141.5q0 74 -20.5 142.5t-62.5 120.5t-104.5 84t-146.5 32q-86 0 -148.5 -33t-103.5 -87t-60 -122.5t-19 -140.5zM604 -436v307h348v-307h-348z" />
<glyph unicode="&#x1ecd;" horiz-adv-x="1257" d="M629 -20q-145 0 -255 46t-184.5 122.5t-112.5 178t-38 212.5t38 212t112.5 178t184 123t255.5 46q143 0 253.5 -46t185.5 -123t113 -178.5t38 -211.5q0 -111 -38 -212.5t-113 -178t-185.5 -122.5t-253.5 -46zM438 539q0 -109 53.5 -170.5t137.5 -61.5t137 61.5t53 170.5 t-53 170t-137 61t-137.5 -61t-53.5 -170zM453 -436v307h348v-307h-348z" />
<glyph unicode="&#x1ee4;" horiz-adv-x="1521" d="M760 342q70 0 119 30.5t79.5 81t45 116t14.5 137.5v747h399v-747q0 -152 -39 -284t-120.5 -228.5t-205.5 -151.5t-292 -55q-174 0 -298 58t-204 156.5t-117 228.5t-37 276v747h400v-747q0 -72 14 -138.5t45 -117t79 -80t118 -29.5zM578 -436v307h348v-307h-348z" />
<glyph unicode="&#x1ee5;" horiz-adv-x="1306" d="M424 -20q-164 0 -250 99t-86 290v708h389v-620q0 -72 32 -111t87 -39q45 0 92 20.5t94 90.5v659h389v-647q0 -55 16.5 -76.5t57.5 -25.5v-328q-100 -20 -164 -20q-199 0 -229 149l-8 39q-76 -100 -180.5 -144t-239.5 -44zM455 -436v307h348v-307h-348z" />
<glyph unicode="&#x1ef2;" horiz-adv-x="1363" d="M420 1454l260 -629l266 629h434l-501 -973v-481h-398v485l-493 969h432zM358 1874h347l102 -291l-246 -65z" />
<glyph unicode="&#x1ef3;" horiz-adv-x="1136" d="M90 -109q94 -35 160 -34q125 0 137 143l-391 1077h399l205 -747l166 747h362l-364 -1206q-25 -80 -70 -144.5t-107.5 -110.5t-138 -70.5t-157.5 -24.5q-104 0 -201 39v331zM279 1497h346l102 -291l-246 -65z" />
<glyph unicode="&#x1ef8;" horiz-adv-x="1363" d="M420 1454l260 -629l266 629h434l-501 -973v-481h-398v485l-493 969h432zM811 1548q-47 0 -83 15.5t-66.5 34t-60.5 34t-64 15.5q-35 0 -53.5 -14.5t-28 -33t-11.5 -34t-2 -17.5h-206q0 27 15 81t50 107.5t88 94.5t131 41q49 0 86 -16.5t68 -36t59.5 -36t63.5 -16.5 q33 0 53 15.5t31.5 35t14.5 36t3 18.5h205q0 -18 -16.5 -70.5t-51.5 -109t-90 -100.5t-135 -44z" />
<glyph unicode="&#x1ef9;" horiz-adv-x="1136" d="M90 -109q94 -35 160 -34q125 0 137 143l-391 1077h399l205 -747l166 747h362l-364 -1206q-25 -80 -70 -144.5t-107.5 -110.5t-138 -70.5t-157.5 -24.5q-104 0 -201 39v331zM731 1171q-47 0 -83 15.5t-66.5 34t-60 34t-64.5 15.5t-53.5 -14.5t-27.5 -33t-11.5 -33.5 t-2.5 -18h-206q0 27 15 81.5t50 107.5t88 94t131 41q49 0 86 -16.5t68 -36t59.5 -35.5t63.5 -16q33 0 53.5 15t31.5 34.5t14 36t3 18.5h205q0 -18 -16.5 -70.5t-51 -108.5t-90 -100.5t-135.5 -44.5z" />
<glyph unicode="&#x2000;" horiz-adv-x="954" />
<glyph unicode="&#x2001;" horiz-adv-x="1909" />
<glyph unicode="&#x2002;" horiz-adv-x="1271" />
<glyph unicode="&#x2003;" horiz-adv-x="1925" />
<glyph unicode="&#x2004;" horiz-adv-x="636" />
<glyph unicode="&#x2005;" horiz-adv-x="477" />
<glyph unicode="&#x2006;" horiz-adv-x="318" />
<glyph unicode="&#x2007;" horiz-adv-x="318" />
<glyph unicode="&#x2008;" horiz-adv-x="238" />
<glyph unicode="&#x2009;" horiz-adv-x="381" />
<glyph unicode="&#x200a;" horiz-adv-x="106" />
<glyph unicode="&#x2010;" horiz-adv-x="845" d="M102 391v348h641v-348h-641z" />
<glyph unicode="&#x2011;" horiz-adv-x="845" d="M102 391v348h641v-348h-641z" />
<glyph unicode="&#x2012;" horiz-adv-x="845" d="M102 391v348h641v-348h-641z" />
<glyph unicode="&#x2013;" horiz-adv-x="1288" d="M102 391v348h1084v-348h-1084z" />
<glyph unicode="&#x2014;" horiz-adv-x="1941" d="M102 391v348h1737v-348h-1737z" />
<glyph unicode="&#x2018;" horiz-adv-x="600" d="M451 1495l-54 -268h107v-328h-404v338l86 258h265z" />
<glyph unicode="&#x2019;" horiz-adv-x="577" d="M141 928l54 268h-107v328h404v-338l-86 -258h-265z" />
<glyph unicode="&#x201a;" horiz-adv-x="608" d="M156 -309l53 309h-107v377h404v-387l-86 -299h-264z" />
<glyph unicode="&#x201c;" horiz-adv-x="1110" d="M451 1495l-54 -268h107v-328h-404v338l86 258h265zM961 1495l-54 -268h107v-328h-404v338l86 258h265z" />
<glyph unicode="&#x201d;" horiz-adv-x="1087" d="M141 928l54 268h-107v328h404v-338l-86 -258h-265zM651 928l54 268h-107v328h403v-338l-86 -258h-264z" />
<glyph unicode="&#x201e;" horiz-adv-x="1093" d="M156 -309l53 309h-107v377h404v-387l-86 -299h-264zM641 -309l53 309h-106v377h403v-387l-86 -299h-264z" />
<glyph unicode="&#x2020;" horiz-adv-x="1042" d="M338 -266v647h-270v348h270v858h369v-858h268v-348h-268v-647h-369z" />
<glyph unicode="&#x2021;" horiz-adv-x="1099" d="M367 -266v375h-271v348h271v231h-271v348h271v551h368v-551h269v-348h-269v-231h269v-348h-269v-375h-368z" />
<glyph unicode="&#x2022;" horiz-adv-x="759" d="M618 723q0 -49 -18 -93t-51 -77t-77 -51.5t-93 -18.5t-93 18.5t-76 51.5t-51.5 77t-19.5 93t19.5 93t51.5 76t76 51.5t93 19.5t93 -19.5t77 -51.5t51 -76t18 -93z" />
<glyph unicode="&#x2026;" horiz-adv-x="1478" d="M102 0v377h316v-377h-316zM582 0v377h315v-377h-315zM1061 0v377h315v-377h-315z" />
<glyph unicode="&#x202f;" horiz-adv-x="381" />
<glyph unicode="&#x2030;" horiz-adv-x="2576" d="M438 827q-78 0 -144.5 26t-115.5 69t-76.5 102t-27.5 127t27.5 127t76.5 102t115.5 69t144.5 26q76 0 142.5 -26t115.5 -69t78 -102t29 -127t-29 -127t-78 -102t-115.5 -69t-142.5 -26zM438 1012q41 0 70 41t29 98t-29 98t-70 41t-69.5 -41t-28.5 -98t28.5 -98t69.5 -41z M1317 -20q-78 0 -144.5 25.5t-115.5 68.5t-77 102.5t-28 126.5q0 68 28 127t77 102t115.5 69t144.5 26q76 0 142.5 -26t115.5 -69t77.5 -102t28.5 -127t-28.5 -127t-77.5 -102t-115.5 -68.5t-142.5 -25.5zM1317 164q41 0 69.5 41t28.5 98t-28.5 98t-69.5 41t-69.5 -41 t-28.5 -98t28.5 -98t69.5 -41zM2148 -20q-78 0 -144.5 25.5t-115.5 68.5t-76.5 102.5t-27.5 126.5q0 68 27.5 127t76.5 102t116 69t144 26q76 0 142.5 -26t116 -69t78 -102t28.5 -127t-28.5 -127t-78 -102t-116 -68.5t-142.5 -25.5zM2148 164q41 0 70 41t29 98t-29 98 t-70 41t-69.5 -41t-28.5 -98t28.5 -98t69.5 -41zM246 133l579 653l514 691l170 -154l-555 -633l-538 -710z" />
<glyph unicode="&#x2039;" horiz-adv-x="741" d="M61 610l568 406v-311l-262 -175l262 -157v-312l-568 369v180z" />
<glyph unicode="&#x203a;" horiz-adv-x="741" d="M680 430l-567 -369v312l262 157l-262 175v311l567 -406v-180z" />
<glyph unicode="&#x2044;" horiz-adv-x="491" d="M-387 133l580 653l514 691l170 -154l-555 -633l-539 -710z" />
<glyph unicode="&#x205f;" horiz-adv-x="477" />
<glyph unicode="&#x2070;" horiz-adv-x="1046" d="M524 766q-117 0 -205 43t-147 109.5t-89 147.5t-30 157q0 82 33 162.5t94.5 146t148.5 106.5t195 41q117 0 204 -44t146.5 -110.5t89 -147.5t29.5 -154q0 -82 -32.5 -164t-93 -146.5t-147.5 -105.5t-196 -41zM283 1223q0 -41 14 -82t44 -75t76 -55.5t107 -21.5 q63 0 108.5 22.5t75 57.5t43 76t13.5 78q0 41 -15.5 82t-45 74.5t-74.5 55t-105 21.5q-66 0 -110.5 -22.5t-74.5 -57.5t-43 -75.5t-13 -77.5z" />
<glyph unicode="&#x2074;" horiz-adv-x="882" d="M479 780v170h-440v219l510 512h151v-512h131v-219h-131v-170h-221zM246 1169h241v248z" />
<glyph unicode="&#x2075;" horiz-adv-x="843" d="M442 1370q76 0 140.5 -21.5t112.5 -60.5t75 -93t27 -118q0 -68 -30 -125t-84 -99t-129 -64.5t-163 -22.5q-113 0 -206 38t-144 103l127 156q43 -39 103.5 -60.5t134.5 -21.5q68 0 115.5 23.5t47.5 85.5q0 31 -13 53t-34.5 36.5t-46 20.5t-47.5 6q-47 0 -96 -24.5 t-70 -63.5h-192q27 141 63.5 280.5t61.5 282.5h528v-223h-369l-35 -104q14 4 44 10t79 6z" />
<glyph unicode="&#x2076;" horiz-adv-x="903" d="M852 1073q0 -66 -29.5 -123t-83 -100t-126 -67.5t-158.5 -24.5q-186 0 -291 115.5t-105 330.5q0 221 114 348t312 127q96 0 181.5 -30.5t146.5 -89.5l-127 -158q-35 33 -91 49t-120 16q-94 0 -150.5 -34.5t-60.5 -100.5q35 23 93.5 31t107.5 8q86 0 157.5 -22.5 t123 -62.5t79 -94.5t27.5 -117.5zM459 963q74 0 128 32.5t54 77.5t-53 75t-129 30q-78 0 -131.5 -30t-53.5 -75t55.5 -77.5t129.5 -32.5z" />
<glyph unicode="&#x2077;" horiz-adv-x="854" d="M518 1458h-471v223h819l-530 -901h-252z" />
<glyph unicode="&#x2078;" horiz-adv-x="899" d="M844 1051q0 -61 -32 -113.5t-85 -90.5t-125 -59.5t-151 -21.5q-80 0 -153 21.5t-126 60.5t-85 92t-32 115q0 39 13.5 69.5t35 55t51 44t62.5 36.5q-51 23 -89 61.5t-38 101.5q0 55 32 102.5t83 81t115.5 53t128.5 19.5q63 0 127.5 -18.5t116.5 -52t85 -79.5t33 -102 q0 -59 -37 -101t-92 -66q72 -35 117 -84t45 -125zM618 1075q0 39 -52 61.5t-117 22.5q-70 0 -119 -23.5t-49 -60.5q0 -39 53 -62.5t117 -23.5q66 0 116.5 24.5t50.5 61.5zM311 1403q0 -29 44 -45.5t94 -16.5q49 0 94 16.5t45 45.5t-42 45t-97 16t-96.5 -16t-41.5 -45z" />
<glyph unicode="&#x2079;" horiz-adv-x="903" d="M51 1362q0 68 30 125t83 100t125.5 67.5t159.5 24.5q186 0 290.5 -116.5t104.5 -331.5q0 -221 -113 -347t-311 -126q-98 0 -183 30.5t-147 90.5l127 157q35 -33 91.5 -50t119.5 -17q94 0 150.5 35.5t60.5 101.5q-33 -23 -91.5 -32t-111.5 -9q-86 0 -156.5 22.5 t-120.5 62.5t-79 94.5t-29 117.5zM444 1475q-74 0 -127 -34t-53 -79q0 -43 53.5 -72.5t128.5 -29.5q76 0 129.5 29.5t53.5 72.5q0 45 -54.5 79t-130.5 34z" />
<glyph unicode="&#x2080;" horiz-adv-x="1046" d="M524 -197q-117 0 -205 43t-147 110t-89 147.5t-30 156.5q0 82 33 163t94.5 146.5t148.5 106.5t195 41q117 0 204 -44t146.5 -110.5t89 -147.5t29.5 -155q0 -82 -32.5 -164t-93 -146.5t-147.5 -105.5t-196 -41zM283 260q0 -41 14 -82t44 -74.5t76 -55t107 -21.5 q63 0 108.5 22.5t75 57t43 75.5t13.5 78q0 41 -15.5 82t-45 75t-74.5 55.5t-105 21.5q-66 0 -110.5 -22.5t-74.5 -57.5t-43 -76t-13 -78z" />
<glyph unicode="&#x2081;" horiz-adv-x="757" d="M725 35v-219h-629v219h211v452q-12 -14 -40.5 -32.5t-64.5 -36t-73 -28.5t-68 -11v223q39 0 83 18.5t80 41t59.5 41t23.5 20.5h225v-688h193z" />
<glyph unicode="&#x2082;" horiz-adv-x="915" d="M53 -184q0 88 12.5 152.5t43 114.5t84 89t137.5 74q49 20 95 39.5t83 41t59.5 46t22.5 59.5q0 47 -40 62.5t-108 15.5q-78 0 -141 -27.5t-104 -62.5l-140 164q45 59 153.5 101t266.5 42q176 0 271.5 -74.5t95.5 -222.5q0 -70 -25.5 -119t-63.5 -83.5t-83 -55t-84 -31.5 q-74 -20 -119 -42.5t-45 -63.5h422v-219h-793z" />
<glyph unicode="&#x2083;" horiz-adv-x="864" d="M397 -197q-129 0 -219 35t-131 111l117 172q39 -37 93 -64.5t136 -27.5q74 0 129.5 15t55.5 56q0 47 -80 65.5t-224 18.5h-51v203h49q119 0 197 17.5t78 64.5q0 16 -14.5 26.5t-36 16.5t-45 8t-41.5 2q-80 0 -131.5 -24.5t-94.5 -65.5l-141 182q27 29 68 50.5t89 36 t101 21.5t107 7q80 0 149.5 -18.5t119.5 -52t78.5 -78.5t28.5 -97q0 -74 -54 -122t-146 -62q104 -14 162.5 -80.5t58.5 -152.5q0 -72 -36 -122t-93.5 -81t-130 -45.5t-148.5 -14.5z" />
<glyph unicode="&#x2084;" horiz-adv-x="882" d="M479 -182v170h-440v219l510 512h151v-512h131v-219h-131v-170h-221zM246 207h241v248z" />
<glyph unicode="&#x2085;" horiz-adv-x="841" d="M440 408q76 0 140.5 -21.5t112.5 -60.5t75 -93.5t27 -117.5q0 -68 -30 -125.5t-84 -99.5t-129 -64.5t-163 -22.5q-113 0 -206 38t-144 104l127 155q43 -39 103.5 -60.5t133.5 -21.5q68 0 116 24t48 85q0 31 -13 53.5t-34.5 36.5t-46 20.5t-47.5 6.5q-47 0 -96 -24.5 t-70 -63.5h-192q27 141 63.5 280t61.5 283h528v-223h-369l-35 -105q14 4 44 10.5t79 6.5z" />
<glyph unicode="&#x2086;" horiz-adv-x="903" d="M852 119q0 -66 -29.5 -123t-83 -100t-126 -68t-158.5 -25q-186 0 -291 116t-105 331q0 221 114 348t312 127q96 0 181.5 -30.5t146.5 -90.5l-127 -158q-35 33 -91 49.5t-120 16.5q-94 0 -150.5 -35t-60.5 -100q35 23 93.5 31t107.5 8q86 0 157.5 -22.5t123 -62.5 t79 -94.5t27.5 -117.5zM459 8q74 0 128 33t54 78t-53 74.5t-129 29.5q-78 0 -131.5 -29.5t-53.5 -74.5t55.5 -78t129.5 -33z" />
<glyph unicode="&#x2087;" horiz-adv-x="856" d="M518 496h-471v223h819l-530 -901h-252z" />
<glyph unicode="&#x2088;" horiz-adv-x="899" d="M844 88q0 -61 -32 -113.5t-85 -90.5t-125 -59.5t-151 -21.5q-80 0 -153 21.5t-126 60.5t-85 92.5t-32 114.5q0 39 13.5 70t35 55.5t51 44t62.5 35.5q-51 23 -89 61.5t-38 102.5q0 55 32 102t83 81t115.5 53.5t128.5 19.5q63 0 127.5 -18.5t116.5 -52.5t85 -80t33 -101 q0 -59 -37 -101t-92 -67q72 -35 117 -84t45 -125zM618 113q0 39 -52 61.5t-117 22.5q-70 0 -119 -23.5t-49 -60.5q0 -39 53 -62.5t117 -23.5q66 0 116.5 24.5t50.5 61.5zM311 440q0 -29 44 -45t94 -16q49 0 94 16.5t45 44.5q0 29 -42 45.5t-97 16.5t-96.5 -16.5t-41.5 -45.5 z" />
<glyph unicode="&#x2089;" horiz-adv-x="903" d="M51 408q0 68 30 125t83 100t125.5 67.5t159.5 24.5q186 0 290.5 -116.5t104.5 -332.5q0 -221 -113 -347t-311 -126q-98 0 -183 31t-147 90l127 158q35 -33 91.5 -50.5t119.5 -17.5q94 0 150.5 36t60.5 102q-33 -23 -91.5 -32t-111.5 -9q-86 0 -156.5 22.5t-120.5 62.5 t-79 94.5t-29 117.5zM444 520q-74 0 -127 -33.5t-53 -78.5q0 -43 53.5 -73t128.5 -30q76 0 129.5 30t53.5 73q0 45 -54.5 78.5t-130.5 33.5z" />
<glyph unicode="&#x20a1;" horiz-adv-x="1198" d="M385 27q-82 33 -144.5 86t-105.5 119.5t-64.5 144.5t-21.5 162q0 82 21.5 159.5t64.5 144t105.5 120t144.5 88.5v270h172v-227q20 2 40.5 3t43.5 1h19.5t19.5 -2v225h172v-254q111 -35 189.5 -102.5t125.5 -159.5l-379 -115q-55 80 -149 80q-80 0 -135 -60.5t-55 -170.5 q0 -111 55 -171.5t135 -60.5q94 0 149 80l379 -115q-47 -92 -125.5 -159.5t-189.5 -102.5v-256h-172v228q-10 -2 -19.5 -2h-19.5q-23 0 -43 1t-41 3v-230h-172v273z" />
<glyph unicode="&#x20a3;" horiz-adv-x="1241" d="M209 0v156h-137v245h137v1053h997v-348h-598v-242h488v-323h-488v-140h215v-245h-215v-156h-399z" />
<glyph unicode="&#x20a4;" horiz-adv-x="1173" d="M74 946h127q-10 35 -17.5 70t-7.5 71q0 80 36 149t99.5 119t147.5 79.5t182 29.5q135 0 259 -56t212 -159l-197 -239q-27 31 -60.5 56.5t-70 43.5t-74.5 29.5t-71 11.5q-55 0 -87 -28.5t-32 -78.5q0 -43 23 -98h317v-246h-225q4 -16 6 -30.5t2 -30.5h217v-246h-280 q-31 -49 -76 -94q49 16 87 23.5t73 7.5q66 0 133 -15.5t133 -15.5q35 0 63.5 6t65.5 21l94 -287q-47 -31 -114.5 -50.5t-129.5 -19.5q-47 0 -98 10.5t-103.5 23.5t-105.5 23.5t-104 10.5q-59 0 -138 -15.5t-157 -39.5l-78 274q78 47 129 137h-180v246h235q-4 16 -7 30.5 t-7 30.5h-221v246z" />
<glyph unicode="&#x20a6;" horiz-adv-x="1781" d="M1702 887h-164v-348h164v-246h-164v-293h-317l-238 293h-340v-293h-399v293h-164v246h164v348h-164v246h164v321h311l254 -321h330v321h399v-321h164v-246zM643 539h141l-141 176v-176zM1139 715v172h-138z" />
<glyph unicode="&#x20a9;" horiz-adv-x="2390" d="M88 455h387l-88 225h-299v246h203l-207 528h432l166 -528h192l-178 528h367l127 -448l129 448h367l-183 -528h195l166 528h434l-207 -528h213v-246h-309l-88 -225h397v-246h-494l-81 -209h-332l-207 520l-205 -520h-332l-82 209h-483v246zM1550 457l70 223h-147zM831 457 l74 223h-145z" />
<glyph unicode="&#x20ac;" horiz-adv-x="1642" d="M242 950q33 102 95 195.5t152.5 164t206 111.5t256.5 41q211 0 366 -87t230 -230l-305 -217q-20 53 -54 88t-75 55.5t-85 28.5t-85 8q-100 0 -167.5 -45t-106.5 -113h368l-82 -205h-342q0 -33 1 -52t3 -36h363l-82 -204h-190q43 -51 102 -81t137 -30q41 0 84 9t83 30.5 t72 55.5t50 83l326 -194q-33 -80 -99.5 -143.5t-151.5 -106.5t-182.5 -65.5t-189.5 -22.5q-119 0 -224.5 35.5t-191.5 99t-151.5 148.5t-104.5 182h-198l82 204h61q-2 20 -3 41t-1 47h-139l82 205h90z" />
<glyph unicode="&#x20b9;" horiz-adv-x="1185" d="M1108 825h-223q-25 -90 -85.5 -164.5t-146.5 -125.5l369 -535h-451l-489 754h315q47 0 78 71h-393v246h391q-16 37 -39.5 56.5t-46.5 19.5h-305v307h1026v-246h-279q39 -70 58 -137h221v-246z" />
<glyph unicode="&#x2113;" horiz-adv-x="673" d="M432 231q20 0 48 7.5t50 17.5l45 -227q-45 -18 -106 -30.5t-109 -12.5q-125 0 -195.5 59t-70.5 166v1038q0 57 24.5 105.5t66.5 84.5t100.5 56.5t126.5 20.5q135 0 217 -74t82 -193q0 -90 -32 -203.5t-84 -229.5t-119.5 -222.5t-139.5 -179.5v-56q0 -59 25.5 -93 t70.5 -34zM483 1155q0 137 -69 137q-35 0 -56.5 -34.5t-21.5 -90.5v-422q31 49 57.5 104.5t46 110t31.5 104.5t12 91z" />
<glyph unicode="&#x2116;" horiz-adv-x="2359" d="M563 715v-715h-399v1454h311l584 -739v739h399v-1454h-317zM1958 682q-96 0 -169 31.5t-122 86t-74.5 125t-25.5 148.5t25.5 148.5t74.5 125t122 86t169 31.5t170 -31.5t123 -86t73.5 -125t24.5 -148.5t-24.5 -148.5t-73.5 -125t-123 -86t-170 -31.5zM1839 1073 q0 -76 33 -119t86 -43t86 43t33 119t-33 119t-86 43t-86 -43t-33 -119z" />
<glyph unicode="&#x2120;" horiz-adv-x="1742" d="M1257 1454h373v-633h-246v330l-98 -244h-199l-98 244v-330h-246v633h371l72 -268zM569 1231q-66 29 -110.5 43t-85.5 14q-27 0 -43.5 -5t-16.5 -17q0 -14 21.5 -23.5t87.5 -21.5q143 -37 198.5 -81t55.5 -120q0 -98 -74 -154.5t-201 -56.5q-41 0 -86 6t-90 16.5t-85 23.5 t-70 30l88 176q66 -35 126 -53.5t111 -18.5q61 0 62 21q0 12 -24.5 21t-92.5 24q-133 35 -185.5 77t-52.5 113q0 98 76 159.5t195 61.5q129 0 284 -69z" />
<glyph unicode="&#x2122;" horiz-adv-x="1867" d="M758 1212h-195v-391h-246v391h-194v246h635v-246zM1366 1454h373v-633h-246v330l-98 -244h-199l-98 244v-330h-246v633h371l71 -268z" />
<glyph unicode="&#x2126;" horiz-adv-x="1622" d="M61 266h306q-133 78 -209 207t-76 295q0 137 55.5 263t152.5 222.5t230 153.5t291 57q156 0 290 -57t231.5 -153.5t152.5 -222.5t55 -263q0 -166 -75.5 -295t-209.5 -207h306v-266h-674v266q61 27 109 78t82 118.5t52.5 146.5t18.5 159q0 63 -23.5 124.5t-66.5 111 t-105.5 79t-142.5 29.5t-142.5 -29.5t-105.5 -79t-66.5 -111t-23.5 -124.5q0 -80 18.5 -159t52.5 -146.5t82 -118.5t109 -78v-266h-674v266z" />
<glyph unicode="&#x212e;" horiz-adv-x="1267" d="M645 96q150 0 253 42t165 100l74 -88q-78 -72 -200 -121t-292 -49q-133 0 -242.5 45t-186.5 120.5t-119 176t-42 210.5q0 117 43 219.5t120 179.5t185.5 122t241.5 45t241.5 -48.5t186.5 -131t121 -195.5t43 -242h-881v-268q53 -51 129 -84t160 -33zM645 981 q-84 0 -159.5 -36t-129.5 -107v-234h582v232q-53 74 -130 109.5t-163 35.5z" />
<glyph unicode="&#x2153;" horiz-adv-x="2131" d="M336 133l579 653l515 691l169 -154l-555 -633l-538 -710zM635 809v-219h-518v219h155v453q-10 -14 -32.5 -33t-49 -36t-55.5 -28.5t-53 -11.5v223q31 0 64.5 18.5t61.5 41t46 41t18 20.5h226v-688h137zM1657 -12q-129 0 -219 34.5t-131 110.5l116 172q41 -37 93.5 -64.5 t136.5 -27.5q74 0 129 15.5t55 56.5q0 47 -80 65.5t-223 18.5h-51v202h49q119 0 196.5 17.5t77.5 64.5q0 16 -14 26.5t-35.5 16.5t-45 8.5t-42.5 2.5q-80 0 -131 -25t-94 -66l-141 183q27 29 67.5 50t88.5 35.5t101.5 21.5t106.5 7q80 0 149.5 -18t120 -52t79 -79t28.5 -96 q0 -74 -54.5 -122t-146.5 -63q104 -14 162.5 -80.5t58.5 -152.5q0 -72 -35.5 -122t-93 -81t-130 -45t-148.5 -14z" />
<glyph unicode="&#x2154;" horiz-adv-x="2228" d="M512 133l580 653l514 691l170 -154l-555 -633l-539 -710zM1751 -12q-129 0 -219 34.5t-131 110.5l117 172q41 -37 93 -64.5t136 -27.5q74 0 129 15.5t55 56.5q0 47 -79.5 65.5t-223.5 18.5h-51v202h49q119 0 197 17.5t78 64.5q0 16 -14.5 26.5t-36 16.5t-45 8.5 t-42.5 2.5q-80 0 -131 -25t-94 -66l-141 183q27 29 67.5 50t89 35.5t101.5 21.5t106 7q80 0 149.5 -18t120 -52t79 -79t28.5 -96q0 -74 -54 -122t-147 -63q104 -14 163 -80.5t59 -152.5q0 -72 -36 -122t-93.5 -81t-130 -45t-148.5 -14zM82 586q0 88 12 152.5t43 114.5t84 89 t135 74q49 20 96.5 39.5t84 41t59 46t22.5 59.5q0 47 -39.5 62.5t-107.5 15.5q-78 0 -141.5 -27.5t-104.5 -62.5l-139 164q45 59 153.5 101t264.5 42q178 0 273 -74.5t95 -222.5q0 -70 -25.5 -119t-63.5 -83.5t-83 -55t-84 -31.5q-74 -20 -118.5 -42.5t-44.5 -63.5h383v-219 h-754z" />
<glyph unicode="&#x215b;" horiz-adv-x="2121" d="M362 133l580 653l514 691l170 -154l-555 -633l-539 -710zM637 809v-219h-518v219h155v453q-10 -14 -32.5 -33t-49 -36t-55 -28.5t-53.5 -11.5v223q31 0 64.5 18.5t61.5 41t46 41t18 20.5h226v-688h137zM2054 272q0 -61 -31.5 -113.5t-85 -90t-125 -59t-151.5 -21.5 t-152.5 21.5t-126 60.5t-85 92t-31.5 114q0 39 13 70t34.5 55.5t51.5 44t62 35.5q-51 23 -89 62t-38 102q0 55 32 102.5t83 81t115.5 53t128.5 19.5q63 0 127.5 -18.5t117 -52t85 -79.5t32.5 -102q0 -59 -36.5 -101t-92.5 -67q72 -35 117 -84t45 -125zM1829 297 q0 39 -52.5 61.5t-117.5 22.5q-70 0 -119 -23.5t-49 -60.5q0 -39 53 -62.5t117 -23.5q66 0 117 24.5t51 61.5zM1522 625q0 -29 44 -45.5t93 -16.5t94 16.5t45 45.5t-42 45t-97 16t-96 -16t-41 -45z" />
<glyph unicode="&#x215c;" horiz-adv-x="2148" d="M444 133l580 653l514 691l170 -154l-555 -633l-539 -710zM2081 272q0 -61 -32 -113.5t-85 -90t-125 -59t-151 -21.5q-80 0 -153 21.5t-126 60.5t-85 92t-32 114q0 39 13.5 70t35 55.5t51 44t62.5 35.5q-51 23 -89 62t-38 102q0 55 32 102.5t83 81t115.5 53t128.5 19.5 q63 0 127.5 -18.5t116.5 -52t85 -79.5t33 -102q0 -59 -37 -101t-92 -67q72 -35 117 -84t45 -125zM1855 297q0 39 -52 61.5t-117 22.5q-70 0 -119 -23.5t-49 -60.5q0 -39 53 -62.5t117 -23.5q66 0 116.5 24.5t50.5 61.5zM1548 625q0 -29 44 -45.5t94 -16.5q49 0 94 16.5 t45 45.5t-42 45t-97 16t-96.5 -16t-41.5 -45zM428 571q-129 0 -219 35t-131 111l117 172q41 -37 93 -64.5t136 -27.5q74 0 129 15t55 56q0 47 -79.5 65.5t-223.5 18.5h-51v203h49q119 0 197 17.5t78 64.5q0 16 -14.5 26.5t-36 16.5t-45 8t-42.5 2q-80 0 -131 -24.5 t-94 -65.5l-141 182q27 29 67.5 50.5t89 36t101.5 21.5t106 7q80 0 149.5 -18.5t120 -52t79 -78.5t28.5 -97q0 -74 -54 -122t-147 -62q104 -14 163 -80.5t59 -152.5q0 -72 -36 -122t-93.5 -81t-130 -45.5t-148.5 -14.5z" />
<glyph unicode="&#x215d;" horiz-adv-x="2191" d="M457 133l579 653l514 691l170 -154l-555 -633l-538 -710zM2122 272q0 -61 -32 -113.5t-85 -90t-125 -59t-151 -21.5q-80 0 -153 21.5t-126 60.5t-85 92t-32 114q0 39 13.5 70t35 55.5t51 44t62.5 35.5q-51 23 -89 62t-38 102q0 55 32 102.5t83 81t115.5 53t127.5 19.5 t128 -18.5t117 -52t85 -79.5t33 -102q0 -59 -37 -101t-92 -67q72 -35 117 -84t45 -125zM1896 297q0 39 -52 61.5t-118 22.5q-70 0 -118.5 -23.5t-48.5 -60.5q0 -39 53 -62.5t117 -23.5q66 0 116.5 24.5t50.5 61.5zM1589 625q0 -29 44 -45.5t93 -16.5t94.5 16.5t45.5 45.5 t-42 45t-98 16q-55 0 -96 -16t-41 -45zM467 1186q76 0 140.5 -21.5t112.5 -60.5t74.5 -93.5t26.5 -117.5q0 -68 -29.5 -125t-84 -99t-129 -64.5t-162.5 -22.5q-113 0 -206 37.5t-144 103.5l127 156q43 -39 103 -60.5t134 -21.5q68 0 116 23.5t48 84.5q0 31 -13.5 53.5 t-35 37t-46 20.5t-46.5 6q-47 0 -96.5 -24.5t-69.5 -63.5h-193q27 141 64 280.5t61 282.5h529v-223h-369l-35 -105q14 4 44 10.5t79 6.5z" />
<glyph unicode="&#x215e;" horiz-adv-x="2033" d="M238 133l579 653l514 691l170 -154l-555 -633l-538 -710zM1966 272q0 -61 -31.5 -113.5t-85 -90t-125 -59t-151.5 -21.5t-152.5 21.5t-126 60.5t-85 92t-31.5 114q0 39 13 70t34.5 55.5t51.5 44t62 35.5q-51 23 -89 62t-38 102q0 55 32 102.5t83 81t115.5 53t128.5 19.5 q63 0 127.5 -18.5t117 -52t85 -79.5t32.5 -102q0 -59 -36.5 -101t-92.5 -67q72 -35 117 -84t45 -125zM1741 297q0 39 -52.5 61.5t-117.5 22.5q-70 0 -119 -23.5t-49 -60.5q0 -39 53 -62.5t117 -23.5q66 0 117 24.5t51 61.5zM1434 625q0 -29 44 -45.5t93 -16.5t94 16.5 t45 45.5t-42 45t-97 16t-96 -16t-41 -45zM553 1274h-471v223h819l-530 -901h-252z" />
<glyph unicode="&#x2202;" horiz-adv-x="1200" d="M526 -20q-109 0 -201 33.5t-159.5 92t-105 139.5t-37.5 175q0 106 47 196.5t123.5 155t176 100t203.5 35.5q139 0 211 -69q0 29 -2 55.5t-6 48.5q-16 100 -65 154.5t-131 54.5q-41 0 -92.5 -14.5t-88.5 -40.5l-211 221q92 72 198 110.5t222 38.5q248 0 387.5 -178 t139.5 -514q0 -182 -42 -328.5t-121 -250t-192 -159.5t-254 -56zM555 264q35 0 68.5 16.5t60.5 43t43 62.5t16 75q0 70 -47 116t-116 46q-39 0 -73 -14.5t-58.5 -40t-39 -59.5t-14.5 -73q0 -72 47 -122t113 -50z" />
<glyph unicode="&#x2206;" horiz-adv-x="1312" d="M1303 307v-307h-1293v307l486 1147h323zM930 348l-273 670l-260 -670h533z" />
<glyph unicode="&#x220f;" horiz-adv-x="1480" d="M874 1126h-268v-1310h-379v1310h-164v328h1354v-328h-164v-1310h-379v1310z" />
<glyph unicode="&#x2211;" horiz-adv-x="1193" d="M1116 1167h-602v-8l346 -403l-364 -420v-8h620v-328h-1050v256l415 473l-401 469v256h1036v-287z" />
<glyph unicode="&#x2212;" horiz-adv-x="1052" d="M113 573v308h827v-308h-827z" />
<glyph unicode="&#x2215;" horiz-adv-x="1312" d="M-45 162l1184 1315l219 -183l-1184 -1314z" />
<glyph unicode="&#x2219;" horiz-adv-x="520" d="M102 487v377h316v-377h-316z" />
<glyph unicode="&#x221a;" horiz-adv-x="1284" d="M12 809h506l150 -549l229 1358h336l-311 -1618h-500l-158 545h-252v264z" />
<glyph unicode="&#x221e;" horiz-adv-x="1540" d="M442 1141q66 0 116 -13.5t88 -37t68.5 -54t55.5 -63.5q25 33 54.5 63.5t68.5 54t89 37t116 13.5q84 0 151.5 -34t115.5 -91.5t73.5 -134t25.5 -162.5q0 -88 -28.5 -165t-77.5 -133t-116.5 -89t-145.5 -33q-63 0 -112.5 12.5t-87.5 33t-67.5 47t-54.5 57.5 q-47 -59 -121.5 -104.5t-210.5 -45.5q-70 0 -136 34t-117.5 91t-83 134t-31.5 163q0 88 28.5 164t77.5 133t116.5 90t145.5 33zM483 586q66 0 102 39t66 92q-31 55 -66.5 95t-101.5 40q-43 0 -83 -29.5t-40 -101.5t40 -103.5t83 -31.5zM1057 586q45 0 83 31.5t38 103.5 t-38 101.5t-83 29.5q-68 0 -102.5 -42t-61.5 -101q29 -51 65 -87t99 -36z" />
<glyph unicode="&#x222b;" horiz-adv-x="835" d="M186 1368q-8 152 72 231.5t236 79.5q78 0 164.5 -18.5t158.5 -50.5l-53 -287q-47 31 -88 31q-100 0 -94 -123l67 -1262q8 -152 -71.5 -231.5t-235.5 -79.5q-78 0 -165 18.5t-159 51.5l54 286q47 -31 88 -30q100 0 94 122z" />
<glyph unicode="&#x2248;" horiz-adv-x="954" d="M872 786q-16 -35 -39.5 -69.5t-55.5 -62t-70.5 -45t-88.5 -17.5q-47 0 -82.5 15.5t-66.5 33.5t-60.5 33.5t-64.5 15.5t-53.5 -14t-28.5 -33l-180 90q16 33 38.5 65.5t53.5 59.5t69 42t85 15q49 0 86 -16t67.5 -35.5t59 -36t63.5 -16.5q37 0 58.5 17.5t31.5 39.5zM872 410 q-16 -35 -39.5 -70t-55.5 -62.5t-70.5 -45t-88.5 -17.5q-47 0 -82.5 15.5t-66.5 34t-60.5 33.5t-64.5 15t-53.5 -14t-28.5 -33l-180 90q16 33 38.5 66t53.5 59.5t69 42t85 15.5q49 0 86 -16.5t67.5 -36t59 -36t63.5 -16.5q37 0 58.5 17.5t31.5 40.5z" />
<glyph unicode="&#x2260;" horiz-adv-x="907" d="M123 903h403l125 266l133 -69l-94 -197h94v-246h-209l-88 -184h297v-246h-411l-119 -252l-133 66l88 186h-86v246h201l86 184h-287v246z" />
<glyph unicode="&#x2264;" horiz-adv-x="1013" d="M84 2v307h778v-307h-778zM92 1008l768 344v-373l-405 -113l405 -96v-373l-768 308v303z" />
<glyph unicode="&#x2265;" horiz-adv-x="1013" d="M152 2v307h778v-307h-778zM922 705l-768 -308v373l405 96l-405 113v373l768 -344v-303z" />
<glyph unicode="&#x25ca;" horiz-adv-x="1257" d="M848 1493l381 -745l-381 -750h-438l-381 750l381 745h438zM883 723l-256 508l-236 -465l254 -512z" />
<glyph unicode="&#x25fc;" horiz-adv-x="1075" d="M0 1075h1075v-1075h-1075v1075z" />
<glyph unicode="&#xf6c3;" horiz-adv-x="493" d="M174 -436l74 125h-117v217h322v-217l-111 -125h-168z" />
<glyph unicode="&#xfb06;" horiz-adv-x="1863" d="M1851 59q-82 -35 -175 -58.5t-183 -23.5q-66 0 -125 16.5t-103 53.5t-70 96.5t-26 147.5v493h-133v293h133q-2 135 -25.5 195.5t-105.5 60.5q-78 0 -119.5 -46t-41.5 -111q0 -47 20.5 -98.5t58.5 -94.5l-141 -248q-104 53 -176 74.5t-129 21.5q-47 0 -72.5 -14t-25.5 -43 q0 -35 40 -51t132 -41q121 -33 199.5 -65.5t125.5 -70.5t65.5 -86t18.5 -112q0 -178 -117.5 -273t-322.5 -95q-66 0 -138.5 10t-144 26.5t-137 40t-115.5 52.5l142 264q106 -59 202.5 -90t178.5 -31q98 0 98 51q0 33 -41 50.5t-143 45.5q-106 31 -179 60.5t-118 65.5 t-65.5 81t-20.5 109q0 88 33.5 158.5t91 120.5t132 78t154.5 28q20 0 54 -2t72 -9.5t77 -20.5t74 -34q-23 35 -31 72t-8 82q0 63 24.5 119.5t74.5 98.5t130 65.5t191 23.5q141 0 224 -27.5t126 -82t55.5 -132t12.5 -176.5h210v-293h-210v-356q0 -53 22.5 -74.5t60.5 -21.5 q29 0 66 9t74 26z" />
<glyph horiz-adv-x="1228" d="M-18 0l491 1163h283l489 -1163h-368l-84 209h-359l-82 -209h-370zM614 743l-106 -231h207z" />
<glyph horiz-adv-x="1249" d="M1202 297q0 -80 -37 -136.5t-99 -92t-145 -52t-178 -16.5h-630v1163h741q68 0 122 -25.5t92 -68.5t58.5 -96t20.5 -109q0 -80 -46 -155.5t-138 -112.5q111 -29 175 -101.5t64 -197.5zM848 371q0 37 -25.5 59.5t-66.5 22.5h-295v-160h282q43 0 74 18.5t31 59.5zM461 866 v-141h244q37 0 66.5 10t29.5 62q0 41 -25.5 55t-60.5 14h-254z" />
<glyph horiz-adv-x="1212" d="M45 592q0 106 43 209.5t124 185.5t197.5 132t266.5 50q176 0 307 -68.5t193 -185.5l-267 -190q-16 39 -43.5 65.5t-60.5 42t-69 21.5t-66 6q-70 0 -121 -24.5t-84 -64.5t-49.5 -90t-16.5 -99q0 -55 18.5 -106.5t54.5 -90.5t86 -62.5t116 -23.5q33 0 67.5 7t66.5 22.5 t57.5 41t39.5 62.5l285 -172q-29 -66 -85 -116t-128 -83.5t-153 -52t-158 -18.5q-137 0 -251 52t-196 137t-128 192.5t-46 220.5z" />
<glyph horiz-adv-x="1320" d="M113 0v1163h499q162 0 286 -45t207 -124t125 -184t42 -226q0 -133 -47 -240.5t-133 -183.5t-208 -118t-272 -42h-499zM918 584q0 125 -81 200.5t-225 75.5h-151v-557h151q147 0 226.5 79t79.5 202z" />
<glyph horiz-adv-x="1105" d="M1042 303v-303h-929v1163h913v-303h-565v-127h483v-282h-483v-148h581z" />
<glyph horiz-adv-x="1040" d="M113 0v1163h895v-303h-547v-160h448v-282h-448v-418h-348z" />
<glyph horiz-adv-x="1456" d="M780 -10q-164 0 -299 62.5t-231 167t-150.5 239.5t-54.5 280q0 137 49 268.5t141.5 232.5t226.5 162.5t304 61.5q188 0 331.5 -75.5t225.5 -221.5l-317 -247q-4 10 -20.5 41.5t-48.5 64.5t-80 58.5t-116 25.5q-74 0 -129 -33t-91 -87t-53 -122.5t-17 -138.5 q0 -63 15 -132t49 -125t89 -92t135 -36q86 0 152.5 38t95.5 85h-227v348h659v-182q0 -133 -45 -250t-128 -204t-202 -138t-264 -51z" />
<glyph horiz-adv-x="1273" d="M918 84q-66 -49 -133.5 -70.5t-149.5 -21.5q-119 0 -226.5 48t-188.5 130t-128 190.5t-47 231.5t48 229.5t132 184t198 121.5t245 44q166 0 296 -67.5t193 -185.5l-260 -199q-33 63 -100.5 103t-141.5 40q-113 0 -184.5 -76.5t-71.5 -205.5t74 -204t193 -75q106 0 204 76 h-192v250h528v-627h-288v84z" />
<glyph horiz-adv-x="1376" d="M1264 1163v-1163h-349v442h-454v-442h-348v1163h348v-415h454v415h349z" />
<glyph horiz-adv-x="573" d="M113 0v1163h348v-1163h-348z" />
<glyph horiz-adv-x="921" d="M82 338q6 -2 24.5 -10.5t47 -16.5t63.5 -14t76 -6q59 0 95 14t54.5 48t24.5 87.5t6 130.5v592h348v-592q0 -133 -16.5 -241.5t-71.5 -186t-159.5 -119.5t-280.5 -42q-166 0 -285 71z" />
<glyph horiz-adv-x="1271" d="M113 0v1163h348v-446l448 446h359l-477 -522l509 -641h-364l-352 446l-123 -102v-344h-348z" />
<glyph horiz-adv-x="978" d="M113 0v1163h348v-860h508v-303h-856z" />
<glyph horiz-adv-x="1570" d="M1110 0v563l-231 -387h-187l-231 387v-563h-348v1163h381l292 -512l293 512h379v-1163h-348z" />
<glyph horiz-adv-x="1386" d="M461 518v-518h-348v1163h272l541 -536v536h348v-1163h-277z" />
<glyph horiz-adv-x="1343" d="M670 -10q-139 0 -255 50t-198 133t-127 190.5t-45 220.5q0 115 47 221t131 187t200 129t253 48q141 0 256 -51t196.5 -134t125.5 -190.5t44 -218.5q0 -115 -46 -220t-130 -186t-199.5 -130t-252.5 -49zM399 580q0 -53 17.5 -103.5t51.5 -90.5t85 -63.5t121 -23.5 t121 24.5t83.5 65.5t49 91t16.5 104q0 53 -17.5 103t-51 88t-85 61.5t-118.5 23.5q-70 0 -121 -24.5t-85 -63.5t-50.5 -90t-16.5 -102z" />
<glyph horiz-adv-x="1146" d="M113 0v1163h563q94 0 175 -35.5t139.5 -93t91 -130.5t32.5 -148q0 -78 -30.5 -152t-87 -131t-136.5 -92t-176 -35h-223v-346h-348zM461 651h201q37 0 67.5 19.5t30.5 85.5q0 33 -10.5 53t-25.5 31.5t-33.5 15.5t-37.5 4h-192v-209z" />
<glyph horiz-adv-x="1347" d="M975 63q-68 -35 -143.5 -53t-161.5 -18q-139 0 -255 50t-198 133t-127 189.5t-45 219.5q0 115 47 221t131 187t200 130t253 49q141 0 256 -51t196.5 -135t125.5 -191.5t44 -218.5q0 -102 -36.5 -195t-102.5 -171l205 -209h-326zM674 301q33 0 61 6l-198 203h327l54 -55 q14 29 20 61.5t6 67.5q0 53 -17.5 103t-51 89t-85 62.5t-118.5 23.5q-70 0 -121 -24.5t-85 -64.5t-50.5 -91t-16.5 -102q0 -53 17.5 -103.5t51.5 -89.5t85 -62.5t121 -23.5z" />
<glyph horiz-adv-x="1259" d="M113 0v1163h598q96 0 176 -35.5t138 -93t91 -130.5t33 -148q0 -98 -50 -185.5t-143 -146.5l297 -424h-395l-250 346h-147v-346h-348zM461 651h237q37 0 67 25.5t30 79.5q0 53 -35 78.5t-72 25.5h-227v-209z" />
<glyph horiz-adv-x="1107" d="M874 760q-6 4 -37.5 21.5t-77.5 36t-102.5 32.5t-111.5 14q-45 0 -72 -7t-27 -28q0 -37 61.5 -53t170.5 -49q86 -25 156.5 -54.5t120 -71.5t76 -99.5t26.5 -139.5q0 -109 -42 -181t-109.5 -116.5t-153.5 -62.5t-174 -18q-68 0 -142 10t-144.5 27.5t-138 42t-122.5 53.5 l151 305q8 -10 45 -30.5t92.5 -41t124 -36t140.5 -15.5q53 0 74.5 9t21.5 22q0 20 -22.5 33.5t-60.5 25.5t-88 23.5t-106 29.5q-166 53 -241.5 130t-75.5 210q0 94 39 168t103.5 123t149.5 75t177 26q68 0 134.5 -12.5t127 -31t112.5 -41t95 -40.5z" />
<glyph horiz-adv-x="1159" d="M1135 860h-379v-860h-350v860h-381v303h1110v-303z" />
<glyph horiz-adv-x="1341" d="M670 299q63 0 106 21.5t69.5 58.5t39 85t12.5 99v600h348v-600q0 -123 -34.5 -227.5t-105.5 -181t-179.5 -120.5t-255.5 -44q-154 0 -262.5 46t-177 125t-101.5 182t-33 220v600h348v-600q0 -53 12.5 -101t40 -84t70 -57.5t103.5 -21.5z" />
<glyph horiz-adv-x="1228" d="M350 1163l266 -669l263 669h366l-483 -1163h-291l-489 1163h368z" />
<glyph horiz-adv-x="2353" d="M2353 1456l-448 -1454h-414l-315 799l-314 -801h-413l-449 1454h453l243 -850l262 850h435l264 -848l241 850h455z" />
<glyph horiz-adv-x="1943" d="M532 1163h320l119 -350l119 350h321l-217 -563l84 -182l307 745h381l-516 -1163h-289l-190 393l-189 -393h-290l-515 1163h377l312 -745l79 182z" />
<glyph horiz-adv-x="1218" d="M362 1163l248 -346l246 346h377l-440 -590l426 -573h-377l-232 330l-231 -330h-379l426 573l-440 590h376z" />
<glyph horiz-adv-x="1206" d="M358 1163l244 -485l248 485h379l-453 -784v-379h-348v381l-446 782h376z" />
<glyph horiz-adv-x="1165" d="M59 258l625 602h-598v303h1001v-258l-589 -602h600v-303h-1039v258z" />
<glyph horiz-adv-x="1325" d="M549 -20q-111 0 -204 40.5t-160.5 115.5t-105.5 178.5t-38 226.5q0 119 35 221t97.5 177t148.5 117t188 42q109 0 195 -47t133 -133v143h389v-1061h-387v141q-47 -82 -116 -121.5t-175 -39.5zM840 610q-29 74 -85.5 117t-117.5 43q-41 0 -77 -19.5t-62.5 -51t-41 -74.5 t-14.5 -93q0 -102 59.5 -163.5t151.5 -61.5q59 0 103.5 27.5t83.5 83.5v192z" />
<glyph horiz-adv-x="1196" d="M735 0v133q-106 -154 -319 -153q-80 0 -149.5 26.5t-120 72.5t-79 109.5t-28.5 137.5q0 82 35 149.5t96 116.5t146 75.5t188 26.5q131 0 217 -41v33q0 76 -44 113t-142 37q-92 0 -170 -30t-164 -87l-113 242q213 137 485 137q258 0 397.5 -115t139.5 -344v-639h-375z M670 299q23 16 37 35.5t14 40.5v80q-35 12 -76 20t-74 8q-72 0 -118.5 -34.5t-46.5 -88.5q0 -45 35.5 -73.5t90.5 -28.5q35 0 72 11.5t66 29.5z" />
<glyph horiz-adv-x="2052" d="M2040 59q-82 -35 -175 -58.5t-184 -23.5q-66 0 -125 16.5t-103 53.5t-69.5 96.5t-25.5 147.5v493h-133v293h133q0 70 -7.5 119t-22.5 80t-41.5 44t-67.5 13q-88 0 -121 -50t-33 -124q0 -47 9 -97t23.5 -97t31 -89t28.5 -71l-379 -115q-55 80 -149 80q-80 0 -135.5 -60.5 t-55.5 -170.5q0 -111 55.5 -171.5t135.5 -60.5q94 0 149 80l379 -115q-66 -129 -198 -210.5t-328 -81.5q-143 0 -254 46t-185.5 122.5t-113.5 178t-39 214.5q0 111 38 211t113.5 177t189.5 123t265 46q49 0 88 -5.5t73 -14.5t65.5 -23.5t66.5 -32.5q-16 43 -22.5 83t-6.5 75 q0 154 108.5 234.5t319.5 80.5q154 0 237 -39t121 -100.5t45 -135t7 -143.5h211v-293h-211v-356q0 -53 22.5 -74.5t61.5 -21.5q29 0 65.5 9t73.5 26z" />
<glyph horiz-adv-x="581" d="M338 1139l-246 65l103 291h346z" />
<glyph horiz-adv-x="1325" d="M840 0v141q-47 -82 -116 -121.5t-175 -39.5q-111 0 -204 40.5t-160.5 115.5t-105.5 178.5t-38 226.5q0 119 35 221t97.5 177t148.5 117t188 42q109 0 195 -47t133 -133v577h389v-1495h-387zM840 610q-29 74 -85.5 117t-117.5 43q-41 0 -77 -19.5t-62.5 -51t-41 -74.5 t-14.5 -93q0 -102 59.5 -163.5t151.5 -61.5q59 0 103.5 27.5t83.5 83.5v192z" />
<glyph horiz-adv-x="1251" d="M1174 453q0 -106 -43.5 -193.5t-118 -150t-175 -96t-212.5 -33.5q-109 0 -208.5 33.5t-175 97t-120.5 153.5t-45 201q0 55 16.5 102t42 86t56 70t61.5 53q-59 35 -97 104.5t-38 141.5q0 104 48 185t121.5 136.5t164 83t174.5 27.5t174 -27.5t164.5 -81t123 -134.5 t48.5 -185q0 -72 -39 -143.5t-99 -106.5q31 -23 63 -54.5t56.5 -72.5t41 -90t16.5 -106zM778 475q0 68 -44 104.5t-109 36.5q-68 0 -111 -37.5t-43 -103.5q0 -59 44 -100t110 -41q68 0 110.5 41t42.5 100zM512 1014q0 -55 36 -82t77 -27t77.5 26.5t36.5 82.5 q0 41 -31.5 69.5t-82.5 28.5t-82 -28.5t-31 -69.5z" />
<glyph horiz-adv-x="1191" d="M635 954q106 0 194.5 -34.5t153 -97t100 -149.5t35.5 -192q0 -111 -41 -203t-115.5 -157.5t-178 -102t-228.5 -36.5q-160 0 -288 59t-197 170l213 246q59 -63 131.5 -99t142.5 -36q76 0 119 40.5t43 110.5q0 68 -39 109t-102 41q-43 0 -79 -19.5t-55 -52.5h-333l172 905 h729v-354h-449l-22 -158q8 2 22 4q10 2 28.5 4t43.5 2z" />
<glyph horiz-adv-x="1222" d="M578 2v279h-527v348l649 827h267v-827h180v-348h-180v-279h-389zM434 629h189v245z" />
<glyph horiz-adv-x="585" d="M98 1059h389v-1495h-389v1495zM98 1495h387v-328h-387v328z" />
<glyph horiz-adv-x="585" d="M98 1495h389v-1495h-389v1495z" />
<glyph horiz-adv-x="1245" d="M74 954q0 106 41 200.5t114.5 163t173 108.5t215.5 40q131 0 232.5 -48t171.5 -140t106.5 -225t36.5 -303q0 -180 -40 -322.5t-115.5 -242t-184 -152.5t-245.5 -53q-266 0 -463 196l215 250q111 -111 254 -111q100 0 158.5 60.5t62.5 171.5q-78 -70 -221 -70 q-111 0 -204 36t-161.5 100.5t-107.5 151.5t-39 189zM618 1141q-35 0 -66.5 -15.5t-55 -41t-38 -59.5t-14.5 -71q0 -72 51.5 -122t122.5 -50q72 0 123.5 50.5t51.5 121.5q0 37 -14.5 71t-38 59.5t-55.5 41t-67 15.5z" />
<glyph horiz-adv-x="1126" d="M1081 348v-348h-948v348h291v742q-16 -25 -56 -54.5t-88.5 -57.5t-100.5 -46.5t-93 -18.5v357q55 0 114.5 29.5t108.5 64.5t81 65.5t34 34.5h397v-1116h260z" />
<glyph horiz-adv-x="1325" d="M502 -20q-98 0 -182 41.5t-145.5 117.5t-96.5 179.5t-35 224.5q0 119 38 221t103.5 176t156.5 116t200 42q123 0 206.5 -49.5t141.5 -137.5v166h338v-1515h-389v598q-47 -88 -133 -134t-203 -46zM653 307q106 0 185 111v192q-29 72 -84.5 116t-116.5 44q-43 0 -79 -18.5 t-61.5 -51t-41 -75.5t-15.5 -93q0 -102 58.5 -163.5t154.5 -61.5z" />
<glyph horiz-adv-x="1224" d="M629 1102h-555v354h1167l-711 -1454h-440z" />
<glyph d="M1171 492q0 -109 -40.5 -202t-114.5 -162t-173.5 -108.5t-215.5 -39.5q-262 0 -404.5 188t-142.5 528q0 180 40 322.5t115.5 242t184 152.5t246.5 53q266 0 462 -196l-215 -250q-111 111 -254 110q-100 0 -158.5 -60t-62.5 -171q78 70 221 70q111 0 204 -36t162 -100.5 t107.5 -151.5t38.5 -189zM627 305q35 0 66.5 15.5t55 41t38 59.5t14.5 71q0 72 -51.5 122t-122.5 50q-72 0 -123 -50.5t-51 -121.5q0 -37 14 -71t37.5 -59.5t55.5 -41t67 -15.5z" />
<glyph horiz-adv-x="882" d="M215 0v729h-164v348h164v338h399v-338h246v-348h-246v-729h-399z" />
<glyph horiz-adv-x="1200" d="M539 -18q-164 0 -280 57t-187 180l198 270q6 -6 21.5 -30.5t45.5 -51t77 -48t116 -21.5q35 0 68 6t58.5 20.5t41 37t15.5 55.5q0 80 -97.5 109.5t-279.5 29.5h-68v322h66q68 0 129 7t109.5 23.5t76 42t27.5 64.5q0 29 -13.5 44t-32 23t-37 9.5t-26.5 1.5 q-57 0 -101 -14.5t-77 -35t-54.5 -43t-35.5 -41.5l-246 289q41 45 100.5 80t128 57.5t141.5 35t142 12.5q113 0 210 -31t168 -84t111 -126t40 -157q0 -119 -74 -196.5t-191 -100.5q68 -10 121.5 -45t90 -85t57 -113.5t20.5 -131.5q0 -115 -52 -194.5t-135 -130.5 t-186.5 -73.5t-205.5 -22.5z" />
<glyph horiz-adv-x="1292" d="M74 0q0 141 12 246.5t49 187.5t107.5 144.5t187.5 117.5q63 31 120.5 60.5t101.5 64.5t70 78t26 98q0 74 -40 101.5t-94 27.5q-80 0 -160.5 -45t-140.5 -102l-239 260q41 45 101.5 87t137 75t166.5 51t191 18q250 0 386 -120.5t136 -345.5q0 -84 -19.5 -147.5t-56.5 -114 t-91 -92.5t-122 -81q-43 -25 -88 -50t-81 -52t-58.5 -56.5t-22.5 -62.5h541v-348h-1120z" />
<glyph horiz-adv-x="1269" d="M799 0v143q-55 -90 -151.5 -126.5t-201.5 -36.5q-180 0 -269 95t-89 294v708h389v-620q0 -72 31 -111t96 -39q37 0 84 20.5t94 90.5v659h389v-1077h-372z" />
<glyph horiz-adv-x="1857" d="M1069 0l-141 469l-140 -469h-423l-363 1077h399l193 -618l154 618h362l154 -618l192 618h399l-362 -1077h-424z" />
<glyph horiz-adv-x="1136" d="M1128 1077l-456 -1513h-455l170 436l-391 1077h399l205 -747l166 747h362z" />
<glyph horiz-adv-x="1462" d="M731 -20q-164 0 -286.5 68.5t-205.5 176t-125 238.5t-42 254q0 131 46 263t131 237.5t207 171t275 65.5q162 0 286 -70.5t207 -179t125 -238.5t42 -249q0 -133 -46.5 -265.5t-131.5 -236.5t-206.5 -169.5t-275.5 -65.5zM477 717q0 -68 14.5 -135.5t45 -123t79 -90 t115.5 -34.5q70 0 119 37t78.5 94t43 123.5t13.5 128.5q0 68 -14.5 135.5t-45 122.5t-78.5 90t-116 35q-72 0 -120 -37t-77.5 -94.5t-43 -124t-13.5 -127.5z" />
<glyph horiz-adv-x="552" d="M102 -436v307h349v-307h-349z" />
<glyph horiz-adv-x="1046" d="M524 582q-117 0 -205 43t-147 109.5t-89 147.5t-30 156q0 82 33 163t94.5 146.5t148.5 106.5t195 41q117 0 204 -44t146.5 -110.5t89 -147.5t29.5 -155q0 -82 -32.5 -163.5t-93 -146t-147.5 -105.5t-196 -41zM283 1038q0 -41 14 -82t44 -74.5t76 -55t107 -21.5 q63 0 108.5 22.5t75 57.5t43 75.5t13.5 77.5q0 41 -15.5 82t-45 75t-74.5 55.5t-105 21.5q-66 0 -110.5 -22.5t-74.5 -57.5t-43 -76t-13 -78z" />
<glyph horiz-adv-x="657" d="M614 809v-219h-518v219h156v453q-10 -14 -32.5 -33t-49.5 -36t-55.5 -28.5t-53.5 -11.5v223q31 0 65 18.5t61.5 41t46 41t18.5 20.5h225v-688h137z" />
<glyph horiz-adv-x="903" d="M53 586q0 88 12.5 152.5t43 114.5t84 89t135.5 74q49 20 96 39.5t84 41t59.5 46t22.5 59.5q0 47 -40 62.5t-108 15.5q-78 0 -141 -27.5t-104 -62.5l-140 164q45 59 153.5 101t264.5 42q178 0 273.5 -74.5t95.5 -222.5q0 -70 -25.5 -119t-63.5 -83.5t-83 -55t-84 -31.5 q-74 -20 -119 -42.5t-45 -63.5h383v-219h-754z" />
<glyph horiz-adv-x="864" d="M397 571q-129 0 -219 35t-131 111l117 172q41 -37 93 -64.5t136 -27.5q74 0 129.5 15t55.5 56q0 47 -80 65.5t-224 18.5h-51v203h49q119 0 197 17.5t78 64.5q0 16 -14.5 26.5t-36 16.5t-45 8t-41.5 2q-80 0 -131.5 -24.5t-94.5 -65.5l-141 182q27 29 68 50.5t89 36 t101 21.5t107 7q80 0 149.5 -18.5t119.5 -52t78.5 -78.5t28.5 -97q0 -74 -54 -122t-146 -62q104 -14 162.5 -80.5t58.5 -152.5q0 -72 -36 -122t-93.5 -81t-130 -45.5t-148.5 -14.5z" />
<glyph horiz-adv-x="882" d="M479 596v170h-440v219l510 512h151v-512h131v-219h-131v-170h-221zM246 985h241v248z" />
<glyph horiz-adv-x="841" d="M440 1186q76 0 140.5 -21.5t112.5 -60.5t75 -93.5t27 -117.5q0 -68 -30 -125t-84 -99t-129 -64.5t-163 -22.5q-113 0 -206 37.5t-144 103.5l127 156q43 -39 103.5 -60.5t133.5 -21.5q68 0 116 23.5t48 84.5q0 31 -13 53.5t-34.5 37t-46 20.5t-47.5 6q-47 0 -96 -24.5 t-70 -63.5h-192q27 141 63.5 280.5t61.5 282.5h528v-223h-369l-35 -105q14 4 44 10.5t79 6.5z" />
<glyph horiz-adv-x="903" d="M852 889q0 -66 -29.5 -123t-83 -100t-126 -68t-158.5 -25q-186 0 -291 116t-105 331q0 221 114 348t312 127q96 0 181.5 -30.5t146.5 -90.5l-127 -157q-35 33 -91 49t-120 16q-94 0 -150.5 -35t-60.5 -100q35 23 93.5 31t107.5 8q86 0 157.5 -22.5t123 -62.5t79 -94.5 t27.5 -117.5zM459 778q74 0 128 33t54 78t-53 74.5t-129 29.5q-78 0 -131.5 -29.5t-53.5 -74.5t55.5 -78t129.5 -33z" />
<glyph horiz-adv-x="856" d="M518 1274h-471v223h819l-530 -901h-252z" />
<glyph horiz-adv-x="899" d="M844 866q0 -61 -32 -113.5t-85 -90t-125 -59t-151 -21.5q-80 0 -153 21.5t-126 60t-85 92t-32 114.5q0 39 13.5 70t35 55.5t51 44t62.5 35.5q-51 23 -89 62t-38 102q0 55 32 102.5t83 81t115.5 53t128.5 19.5q63 0 127.5 -18.5t116.5 -52t85 -80t33 -101.5 q0 -59 -37 -101t-92 -67q72 -35 117 -84t45 -125zM618 891q0 39 -52 61.5t-117 22.5q-70 0 -119 -23.5t-49 -60.5q0 -39 53 -62.5t117 -23.5q66 0 116.5 24.5t50.5 61.5zM311 1219q0 -29 44 -45.5t94 -16.5q49 0 94 16.5t45 45.5t-42 45t-97 16t-96.5 -16t-41.5 -45z" />
<glyph horiz-adv-x="903" d="M51 1178q0 68 30 125t83 100t125.5 67.5t159.5 24.5q186 0 290.5 -116.5t104.5 -331.5q0 -221 -113 -347.5t-311 -126.5q-98 0 -183 31t-147 90l127 158q35 -33 91.5 -50.5t119.5 -17.5q94 0 150.5 36t60.5 102q-33 -23 -91.5 -32t-111.5 -9q-86 0 -156.5 22.5 t-120.5 62.5t-79 94.5t-29 117.5zM444 1290q-74 0 -127 -33.5t-53 -78.5q0 -43 53.5 -73t128.5 -30q76 0 129.5 30t53.5 73q0 45 -54.5 78.5t-130.5 33.5z" />
<glyph horiz-adv-x="1046" d="M524 -12q-117 0 -205 43t-147 109.5t-89 147.5t-30 156q0 82 33 163t94.5 146.5t148.5 106.5t195 41q117 0 204 -44t146.5 -110.5t89 -147.5t29.5 -155q0 -82 -32.5 -163.5t-93 -146t-147.5 -105.5t-196 -41zM283 444q0 -41 14 -81.5t44 -74.5t76 -55.5t107 -21.5 q63 0 108.5 22.5t75 57.5t43 76t13.5 77q0 41 -15.5 82t-45 75t-74.5 55.5t-105 21.5q-66 0 -110.5 -22.5t-74.5 -57.5t-43 -76t-13 -78z" />
<glyph horiz-adv-x="757" d="M725 219v-219h-629v219h211v453q-12 -14 -40.5 -32.5t-64.5 -36t-73 -29t-68 -11.5v223q39 0 83 18.5t80 41t59.5 41t23.5 20.5h225v-688h193z" />
<glyph horiz-adv-x="917" d="M53 0q0 88 12.5 152.5t43 114.5t84 89t137.5 74q49 20 95 39.5t83 41t59.5 46.5t22.5 59q0 47 -40 62.5t-108 15.5q-78 0 -141 -27.5t-104 -62.5l-140 164q45 59 153.5 101t266.5 42q176 0 271.5 -74.5t95.5 -222.5q0 -70 -25.5 -119t-63.5 -83.5t-83 -55t-84 -30.5 q-74 -20 -119 -43t-45 -64h422v-219h-793z" />
<glyph horiz-adv-x="864" d="M397 -12q-129 0 -219 34.5t-131 110.5l117 172q41 -37 93 -64.5t136 -27.5q74 0 129.5 15.5t55.5 56.5q0 47 -80 65.5t-224 18.5h-51v202h49q119 0 197 17.5t78 64.5q0 16 -14.5 26.5t-36 16.5t-45 8.5t-41.5 2.5q-80 0 -131.5 -25t-94.5 -66l-141 183q27 29 68 50 t89 35.5t101 21.5t107 7q80 0 149.5 -18t119.5 -52t78.5 -79t28.5 -96q0 -74 -54 -122t-146 -63q104 -14 162.5 -80.5t58.5 -152.5q0 -72 -36 -122t-93.5 -81t-130 -45t-148.5 -14z" />
<glyph horiz-adv-x="882" d="M479 2v170h-440v219l510 512h151v-512h131v-219h-131v-170h-221zM246 391h241v248z" />
<glyph horiz-adv-x="843" d="M442 592q76 0 140.5 -21.5t112.5 -60.5t75 -93.5t27 -117.5q0 -68 -30 -125t-84 -99t-129 -64.5t-163 -22.5q-113 0 -206 37.5t-144 103.5l127 156q43 -39 103.5 -60.5t134.5 -21.5q68 0 115.5 23.5t47.5 84.5q0 31 -13 53.5t-34.5 37t-46 20.5t-47.5 6q-47 0 -96 -24.5 t-70 -63.5h-192q27 141 63.5 280.5t61.5 282.5h528v-223h-369l-35 -105q14 4 44 10.5t79 6.5z" />
<glyph horiz-adv-x="903" d="M852 303q0 -66 -29.5 -123t-83 -100t-126 -67.5t-158.5 -24.5q-186 0 -291 115.5t-105 330.5q0 221 114 348t312 127q96 0 181.5 -30.5t146.5 -90.5l-127 -157q-35 33 -91 49t-120 16q-94 0 -150.5 -34.5t-60.5 -100.5q35 23 93.5 31t107.5 8q86 0 157.5 -22.5t123 -62.5 t79 -94.5t27.5 -117.5zM459 193q74 0 128 32.5t54 77.5t-53 75t-129 30q-78 0 -131.5 -30t-53.5 -75t55.5 -77.5t129.5 -32.5z" />
<glyph horiz-adv-x="854" d="M518 680h-471v223h819l-530 -901h-252z" />
<glyph horiz-adv-x="899" d="M844 272q0 -61 -32 -113.5t-85 -90t-125 -59t-151 -21.5q-80 0 -153 21.5t-126 60.5t-85 92t-32 114q0 39 13.5 70t35 55.5t51 44t62.5 35.5q-51 23 -89 62t-38 102q0 55 32 102.5t83 81t115.5 53t128.5 19.5q63 0 127.5 -18.5t116.5 -52t85 -79.5t33 -102 q0 -59 -37 -101t-92 -67q72 -35 117 -84t45 -125zM618 297q0 39 -52 61.5t-117 22.5q-70 0 -119 -23.5t-49 -60.5q0 -39 53 -62.5t117 -23.5q66 0 116.5 24.5t50.5 61.5zM311 625q0 -29 44 -45.5t94 -16.5q49 0 94 16.5t45 45.5t-42 45t-97 16t-96.5 -16t-41.5 -45z" />
<glyph horiz-adv-x="903" d="M51 592q0 68 30 125t83 100t125.5 67.5t159.5 24.5q186 0 290.5 -116.5t104.5 -331.5q0 -221 -113 -347t-311 -126q-98 0 -183 30.5t-147 90.5l127 157q35 -33 91.5 -50t119.5 -17q94 0 150.5 35.5t60.5 101.5q-33 -23 -91.5 -32t-111.5 -9q-86 0 -156.5 22.5 t-120.5 62.5t-79 94.5t-29 117.5zM444 705q-74 0 -127 -34t-53 -79q0 -43 53.5 -73t128.5 -30q76 0 129.5 30t53.5 73q0 45 -54.5 79t-130.5 34z" />
</font>
</defs>
</svg>
