<?xml version="1.0" standalone="no"?>
<!DOCTYPE svg PUBLIC "-//W3C//DTD SVG 1.1//EN" "http://www.w3.org/Graphics/SVG/1.1/DTD/svg11.dtd" >
<svg xmlns="http://www.w3.org/2000/svg" xmlns:xlink="http://www.w3.org/1999/xlink" version="1.1">
<metadata></metadata>
<defs>
<font id="ralewayextrabold" horiz-adv-x="1372" >
<font-face units-per-em="2048" ascent="1638" descent="-410" />
<missing-glyph horiz-adv-x="477" />
<glyph unicode="ff" horiz-adv-x="1361" d="M1202 1239q-68 0 -98.5 -43t-30.5 -109v-100h260v-248h-260v-739h-328v739h-235v-739h-328v739h-137v248h137v35q0 92 27 170t76 133t119.5 87t160.5 32q66 0 135.5 -15.5t141.5 -44.5q49 59 121.5 95.5t171.5 36.5q72 0 139 -18.5t133 -45.5l-59 -246q-31 12 -69 22.5 t-77 10.5zM745 987v28.5t1.5 49.5t3.5 50.5t4 27.5q-29 12 -62 18t-59 6q-66 0 -94.5 -36.5t-28.5 -98.5v-45h235z" />
<glyph unicode="fi" horiz-adv-x="1214" d="M182 739h-137v248h137v88q0 94 33 175t93.5 140.5t146.5 92.5t190 33q117 0 220.5 -39t209.5 -109l-127 -248q-61 53 -136 86t-146 33q-78 0 -117 -43t-39 -109v-100h594v-987h-328v739h-266v-739h-328v739z" />
<glyph unicode="fl" horiz-adv-x="1402" d="M1407 41q-2 -2 -27.5 -11.5t-65.5 -19.5t-90 -18t-100 -8q-70 0 -125 19.5t-94 52t-59.5 76.5t-20.5 93v793q0 100 -28.5 160.5t-122.5 60.5q-90 0 -126 -57.5t-38 -147.5v-47h162v-248h-162v-739h-328v739h-137v248h137v119q0 102 34 179t96.5 128t151.5 77t198 26 q127 0 220 -31t153.5 -88.5t89 -137t28.5 -178.5v-688q0 -39 21.5 -79t72.5 -40q18 0 38 5.5t37 10.5t29.5 10t14.5 5z" />
<glyph unicode="ffi" horiz-adv-x="1777" d="M182 739h-137v248h137v35q0 90 27 168t76 134t119.5 88t160.5 32q66 0 135.5 -15.5t141.5 -44.5q59 59 150 95.5t210 36.5q104 0 213 -38t223 -110l-127 -248q-59 53 -133.5 86t-140.5 33q-86 0 -125 -43t-39 -109v-100h594v-987h-330v739h-264v-739h-328v739h-235v-739 h-328v739zM745 987v28.5t1.5 49.5t3.5 50.5t4 27.5q-29 12 -62 18t-59 6q-66 0 -94.5 -37.5t-28.5 -97.5v-45h235z" />
<glyph unicode="ffl" horiz-adv-x="1966" d="M1688 -16q-72 0 -127.5 19.5t-93 52t-58 76.5t-20.5 93v807q0 43 -6.5 81t-24 65.5t-49 44t-80.5 16.5q-43 0 -73 -16.5t-48 -45t-26.5 -66.5t-8.5 -81v-43h162v-248h-162v-739h-328v739h-235v-739h-328v739h-137v248h137v35q0 92 27 170t77 133t120.5 87t156.5 32 q72 0 139.5 -15.5t139.5 -44.5q63 66 160.5 99t222.5 33q254 0 372.5 -119t118.5 -316v-688q0 -18 5 -39.5t16.5 -39t29 -29t43.5 -11.5q16 0 37 5.5t37.5 10.5t28.5 10t14 5l43 -264q-2 -2 -27.5 -11.5t-65.5 -19.5t-90 -18t-99 -8zM745 987v29.5t1.5 50.5t2.5 50.5t3 27.5 q-29 12 -59.5 17t-57.5 5q-63 0 -94 -36.5t-31 -96.5v-47h235z" />
<glyph unicode="&#xd;" horiz-adv-x="0" />
<glyph unicode=" "  horiz-adv-x="477" />
<glyph unicode="&#x09;" horiz-adv-x="477" />
<glyph unicode="&#xa0;" horiz-adv-x="477" />
<glyph unicode="!" horiz-adv-x="681" d="M176 578v890h328v-890h-328zM176 0v340h328v-340h-328z" />
<glyph unicode="&#x22;" horiz-adv-x="882" d="M117 1020v467h276v-467h-276zM489 1020v467h277v-467h-277z" />
<glyph unicode="#" horiz-adv-x="1511" d="M1438 844h-312l-55 -234h266v-243h-325l-88 -367h-262l90 367h-187l-90 -367h-262l92 367h-231v243h288l56 234h-244v225h299l94 385h262l-96 -385h189l94 385h262l-96 -385h256v-225zM811 610l55 234h-188l-55 -234h188z" />
<glyph unicode="$" horiz-adv-x="1312" d="M1042 1028q-6 8 -35.5 26.5t-75.5 40t-102.5 41t-113.5 27.5v-278l65 -17q104 -29 188.5 -62.5t142.5 -83.5t90 -122t32 -172q0 -117 -41 -199t-109.5 -134t-157.5 -78.5t-188 -30.5v-238h-141v240q-141 12 -279.5 57t-248.5 119l147 293q8 -10 44 -34t91.5 -49.5 t125 -49t142.5 -33.5v272l-98 29q-100 31 -174 66.5t-122 82.5t-71.5 108.5t-23.5 143.5q0 106 37 189.5t99.5 142.5t147.5 93t183 44v207h141v-207q133 -12 250 -59t203 -96zM872 395q0 53 -43 83t-114 54v-245q157 6 157 108zM475 1047q0 -51 36 -81t107 -53v252 q-143 -12 -143 -118z" />
<glyph unicode="%" horiz-adv-x="1671" d="M420 842q-74 0 -137.5 24.5t-110.5 67.5t-74.5 101.5t-27.5 123.5q0 66 27.5 123t74.5 100t110.5 68t137.5 25t137.5 -25t111.5 -68t74.5 -100t26.5 -123t-26.5 -124t-74.5 -101t-111.5 -67.5t-137.5 -24.5zM420 1001q51 0 87 46.5t36 111.5q0 66 -36 111t-87 45t-87 -46 t-36 -110q0 -66 36 -112t87 -46zM1251 -20q-74 0 -137 24.5t-110.5 67.5t-75 100t-27.5 123t27.5 124t75 101t111 67.5t136.5 24.5q74 0 137.5 -24.5t111.5 -67.5t75 -101.5t27 -123.5q0 -66 -27 -123t-75 -100t-111.5 -67.5t-137.5 -24.5zM1251 139q51 0 88 46t37 110 q0 66 -36.5 112t-88.5 46q-51 0 -87 -46.5t-36 -111.5q0 -66 36 -111t87 -45zM211 115l577 663l525 695l147 -132l-559 -647l-545 -712z" />
<glyph unicode="&#x26;" horiz-adv-x="1492" d="M1069 0l-96 102q-90 -61 -190.5 -91.5t-204.5 -30.5q-119 0 -212.5 37.5t-157 100t-97 142.5t-33.5 166q0 66 18.5 122t50 103t72.5 88t86 76q-74 90 -104.5 154.5t-30.5 142.5q0 84 30.5 150.5t86 113.5t130.5 72t163 25q78 0 151.5 -19.5t130 -61.5t91 -104.5 t34.5 -148.5q0 -117 -61.5 -206t-159.5 -163l227 -242q27 61 42.5 134t15.5 159h264q-2 -152 -36 -273.5t-93 -219.5l313 -328h-430zM612 236q96 0 183 55l-289 307q-53 -41 -84 -83t-31 -91q0 -33 14.5 -66.5t43 -60.5t69.5 -44t94 -17zM467 1124q0 -33 20.5 -60.5 t73.5 -80.5q63 41 94 74t31 78t-29.5 71.5t-76.5 26.5q-51 0 -82 -31t-31 -78z" />
<glyph unicode="'" horiz-adv-x="512" d="M117 1018v469h276v-469h-276z" />
<glyph unicode="(" horiz-adv-x="665" d="M61 711q0 104 25 208.5t67 211t98 215t122 219.5l250 -103q-29 -45 -72 -128t-84 -187.5t-70.5 -219t-29.5 -222.5q0 -166 69.5 -341.5t177.5 -367.5l-237 -117q-63 94 -120.5 196.5t-100.5 208t-69 213.5t-26 214z" />
<glyph unicode=")" horiz-adv-x="663" d="M602 711q0 -106 -25.5 -214t-68.5 -213.5t-100.5 -208t-120.5 -196.5l-238 117q109 193 178.5 368t69.5 341q0 109 -29.5 223t-70.5 218.5t-84 187.5t-72 128l250 103q66 -111 122 -219.5t98 -215t66.5 -211t24.5 -208.5z" />
<glyph unicode="*" horiz-adv-x="724" d="M145 1044l97 154l-146 43l43 137l150 -69l-13 164h170l-12 -164l152 69l43 -137l-146 -43l97 -154l-121 -79l-97 161l-96 -161z" />
<glyph unicode="+" horiz-adv-x="868" d="M776 858v-262h-194v-213h-295v213h-193v262h193v213h295v-213h194z" />
<glyph unicode="," horiz-adv-x="497" d="M147 -276l64 280h-100v330h276v-330l-96 -280h-144z" />
<glyph unicode="-" horiz-adv-x="851" d="M111 416v295h630v-295h-630z" />
<glyph unicode="." horiz-adv-x="489" d="M111 0v334h268v-334h-268z" />
<glyph unicode="/" horiz-adv-x="1505" d="M1450 1454l-1034 -1454h-363l1034 1454h363z" />
<glyph unicode="0" horiz-adv-x="1257" d="M1163 600q0 -135 -41 -248.5t-112.5 -196.5t-169 -129t-211.5 -46q-115 0 -213.5 46t-170 129t-111.5 196.5t-40 248.5t40 249t111.5 196.5t170 130t213.5 47.5t212 -47.5t168.5 -130t112.5 -196.5t41 -249zM834 600q0 143 -57.5 232.5t-147.5 89.5q-94 0 -150.5 -89.5 t-56.5 -232.5t56.5 -231t150.5 -88q90 0 147.5 88t57.5 231z" />
<glyph unicode="1" horiz-adv-x="1060" d="M1012 295v-295h-885v295h291v522q-18 -25 -57 -50.5t-87.5 -47t-98.5 -34.5t-89 -13v303q33 0 85 22.5t103.5 54t92.5 64.5t51 53h334v-874h260z" />
<glyph unicode="2" horiz-adv-x="1187" d="M80 0q0 96 14.5 172t49 138.5t94 115.5t149.5 104q96 53 160.5 88t102.5 62t54.5 48.5t16.5 49.5q0 57 -41 92t-117 35q-86 0 -149.5 -42t-122.5 -109l-209 241q33 37 88 72t125 62.5t152.5 44t173.5 16.5q221 0 338.5 -96.5t117.5 -259.5q0 -68 -21.5 -121.5t-56 -95.5 t-77.5 -73.5t-88 -58.5q-31 -18 -74 -42.5t-85 -50t-78 -51.5t-54 -46h557v-295h-1020z" />
<glyph unicode="3" horiz-adv-x="1165" d="M805 485q63 -12 116.5 -43.5t91.5 -80t58.5 -111t20.5 -133.5q0 -96 -39 -173t-112 -131.5t-175 -84t-229 -29.5q-311 0 -488 182l176 234q55 -57 126 -87t169 -30q231 0 232 170q0 92 -69 139t-216 47h-61v236h67q115 0 179.5 47t64.5 125q0 68 -47 102.5t-125 34.5 q-84 0 -152.5 -40t-116.5 -114l-206 238q33 43 86 80t120.5 62.5t145.5 40t160 14.5q109 0 198.5 -26t153 -74t98.5 -114.5t35 -148.5q0 -61 -19.5 -116.5t-54.5 -100.5t-83 -75t-105 -40z" />
<glyph unicode="4" horiz-adv-x="1183" d="M600 -260v280h-563v293l668 856h223v-854h180v-295h-180v-280h-328zM360 315h279v363z" />
<glyph unicode="5" horiz-adv-x="1142" d="M602 659q104 0 192.5 -34.5t153 -96t100 -147.5t35.5 -191q0 -111 -41 -201.5t-113.5 -156t-173 -101.5t-220.5 -36q-160 0 -287 63.5t-193 178.5l183 202q59 -72 138 -114.5t161 -42.5q96 0 153.5 55t57.5 147q0 88 -53.5 141.5t-139.5 53.5q-55 0 -102 -24.5t-76 -69.5 h-285q0 2 8.5 42t19.5 103.5t26.5 142t31.5 160.5q37 193 84 436h723v-299h-485l-41 -247q12 14 48 25t95 11z" />
<glyph unicode="6" horiz-adv-x="1245" d="M1165 489q0 -106 -41 -199t-112.5 -162t-170 -108.5t-212.5 -39.5q-127 0 -227.5 47t-170 135t-106.5 216t-37 292q0 190 40 338.5t113.5 250t180 154.5t240.5 53q135 0 250.5 -55t203.5 -160l-184 -209q-51 66 -123 103t-154 37q-121 0 -191.5 -86t-74.5 -244 q41 55 109.5 86t158.5 31q109 0 202 -37t160.5 -101.5t106.5 -152t39 -189.5zM629 256q45 0 86 18.5t71.5 50t49 74.5t18.5 90q0 45 -18.5 86t-49 71t-71.5 47.5t-86 17.5q-47 0 -88 -17.5t-72 -47.5t-48.5 -70.5t-17.5 -86.5q0 -47 18.5 -90t49.5 -74.5t72 -50t86 -18.5z " />
<glyph unicode="7" horiz-adv-x="1179" d="M672 897h-613v299h1129l-717 -1454h-371z" />
<glyph unicode="8" horiz-adv-x="1243" d="M1159 440q0 -104 -43 -188t-115.5 -144.5t-171 -93t-208.5 -32.5q-109 0 -206.5 33.5t-171 95t-116.5 148.5t-43 194q0 57 18.5 107t47 91t65.5 72t72 53q-68 37 -114 108.5t-46 151.5q0 100 46 179t117.5 131.5t159 80t171.5 27.5t172 -26.5t160.5 -79t118.5 -130 t46 -178.5q0 -41 -13 -79.5t-34.5 -74.5t-52.5 -63.5t-64 -46.5q37 -23 74 -55.5t66.5 -74.5t47 -93.5t17.5 -112.5zM827 461q0 43 -17 76.5t-46 56t-65.5 35t-77.5 12.5q-86 0 -145.5 -49t-59.5 -133q0 -41 17.5 -74t46 -56.5t65.5 -36.5t78 -13t78.5 13t65.5 37.5t44 58.5 t16 73zM459 1030q0 -37 14 -63.5t38 -44t52.5 -26.5t57.5 -9t58.5 9t53 27.5t37.5 45t14 61.5q0 59 -48 97t-115 38q-68 0 -115 -38t-47 -97z" />
<glyph unicode="9" horiz-adv-x="1206" d="M61 659q0 106 41 199.5t113 162.5t170 108.5t213 39.5q127 0 227.5 -47t170 -135t106.5 -217t37 -291q0 -190 -40 -338.5t-114 -250t-180.5 -154.5t-239.5 -53q-135 0 -250.5 55t-203.5 160l184 208q51 -66 122.5 -102.5t151.5 -36.5q121 0 191.5 86t75.5 244 q-41 -55 -109 -86t-158 -31q-109 0 -202 37t-160.5 101.5t-106.5 151.5t-39 189zM598 893q-45 0 -86 -18.5t-71.5 -50t-49 -74.5t-18.5 -91q0 -47 17.5 -87t48 -69.5t71.5 -47t88 -17.5q45 0 86 17.5t71.5 47t49 69.5t18.5 87t-18.5 90.5t-49 75t-71.5 50t-86 18.5z" />
<glyph unicode=":" horiz-adv-x="561" d="M147 729v334h267v-334h-267zM147 0v334h267v-334h-267z" />
<glyph unicode=";" horiz-adv-x="573" d="M152 729v334h266v-334h-266zM184 -276l66 280h-100v330h276v-330l-96 -280h-146z" />
<glyph unicode="&#x3c;" horiz-adv-x="1060" d="M66 600l864 524v-348l-389 -246l389 -231v-367l-864 512v156z" />
<glyph unicode="=" horiz-adv-x="890" d="M121 254v209h649v-209h-649zM121 668v209h649v-209h-649z" />
<glyph unicode="&#x3e;" horiz-adv-x="1060" d="M995 444l-866 -512v367l391 231l-391 246v348l866 -524v-156z" />
<glyph unicode="?" horiz-adv-x="1003" d="M223 502q0 47 6.5 90t23.5 83t50 74.5t86 63.5q27 14 71 37.5t86 54.5t72.5 71t30.5 89q0 68 -49 105.5t-113 37.5q-41 0 -72.5 -15t-57 -36.5t-44 -48.5t-32.5 -47l-211 147q53 125 168.5 195t261.5 70q78 0 155.5 -23t139 -72t100.5 -126.5t39 -188.5q0 -117 -48 -196 t-143 -138q-43 -29 -87 -51.5t-80.5 -47t-59 -55t-22.5 -73.5h-271zM229 0v307h269v-307h-269z" />
<glyph unicode="@" horiz-adv-x="1736" d="M866 1235q152 0 291 -48t246.5 -145.5t172 -245t64.5 -343.5q0 -29 -3 -76t-13 -100.5t-30.5 -108.5t-56.5 -100t-90 -73t-130 -28q-55 0 -93 15.5t-60.5 38t-34 51t-15.5 55.5q-66 -66 -157 -100.5t-191 -34.5q-154 0 -234.5 81t-80.5 210q0 86 33.5 145t87 95t122 51.5 t140.5 15.5q80 0 136 -15.5t85 -27.5q0 49 -10.5 90t-36 69.5t-69.5 45t-112 16.5q-86 0 -152.5 -23.5t-113.5 -64.5l-57 170q152 102 356 102q139 0 217 -42t116 -105.5t46 -140t8 -144.5v-168q0 -45 2 -89t12.5 -77.5t31 -55t55.5 -21.5q51 0 83.5 39.5t49 96t22.5 117 t6 99.5q0 139 -46 258t-132 206t-206.5 136t-268.5 49q-145 0 -264 -48t-203 -133t-130 -203t-46 -257q0 -133 43 -250t123 -205t193.5 -138t256.5 -50q102 0 173 22.5t149 55.5l37 -121q-86 -41 -178 -61.5t-185 -20.5q-154 0 -289 55.5t-236 155.5t-159.5 242.5 t-58.5 318.5q0 184 64.5 326.5t173 239t249.5 146.5t297 50zM958 190q43 20 69 53t26 74v82q-29 10 -89.5 24.5t-127.5 14.5q-92 0 -142.5 -35.5t-50.5 -115.5q0 -66 37 -100.5t108 -34.5q35 0 83 9t87 29z" />
<glyph unicode="A" d="M535 1454h303l530 -1454h-344l-113 326h-452l-111 -326h-344zM856 557l-170 514l-174 -514h344z" />
<glyph unicode="B" horiz-adv-x="1400" d="M1341 373q0 -94 -38.5 -164t-106.5 -116t-158 -69.5t-190 -23.5h-709v1454h809q76 0 137.5 -32.5t104.5 -85t66.5 -119t23.5 -136.5q0 -104 -52 -196t-157 -140q125 -37 197.5 -131t72.5 -241zM999 440q0 68 -38.5 115t-98.5 47h-387v-317h373q66 0 108.5 42.5 t42.5 112.5zM475 1167v-301h330q55 0 98 37t43 115q0 72 -38 110.5t-91 38.5h-342z" />
<glyph unicode="C" horiz-adv-x="1409" d="M55 739q0 131 49.5 261t143.5 232.5t229 166t307 63.5q205 0 355.5 -88t224.5 -229l-258 -180q-25 57 -62.5 95t-83 61.5t-92.5 32.5t-92 9q-96 0 -167.5 -39t-119 -100t-70 -139t-22.5 -158q0 -86 27 -166t77 -141.5t120.5 -97t158.5 -35.5q45 0 93.5 11t92.5 34.5 t80.5 61.5t59.5 93l274 -161q-33 -80 -97 -143.5t-148 -106.5t-178.5 -65.5t-184.5 -22.5q-158 0 -290 64.5t-227 171t-147.5 241.5t-52.5 274z" />
<glyph unicode="D" horiz-adv-x="1466" d="M139 0v1454h543q180 0 315.5 -57.5t226.5 -155.5t137 -230t46 -282q0 -166 -51 -300t-146.5 -229.5t-229.5 -147.5t-298 -52h-543zM1065 729q0 96 -25.5 175t-75 136.5t-121 88t-161.5 30.5h-207v-864h207q92 0 164 32.5t120 91t73.5 137.5t25.5 173z" />
<glyph unicode="E" horiz-adv-x="1226" d="M1161 295v-295h-1022v1454h1004v-295h-668v-282h574v-273h-574v-309h686z" />
<glyph unicode="F" horiz-adv-x="1165" d="M139 0v1454h987v-295h-651v-313h537v-273h-537v-573h-336z" />
<glyph unicode="G" horiz-adv-x="1499" d="M1139 143q-166 -154 -383 -153q-143 0 -270.5 54t-222.5 152.5t-150.5 236.5t-55.5 304q0 150 55.5 283t152.5 231.5t230.5 155.5t286.5 57q203 0 354.5 -85t227.5 -232l-250 -189q-49 98 -142 152.5t-202 54.5q-84 0 -152.5 -33.5t-117.5 -94t-76 -140.5t-27 -172 q0 -94 29 -174t80 -138.5t121.5 -91t156.5 -32.5q197 0 355 182v45h-283v244h561v-760h-278v143z" />
<glyph unicode="H" horiz-adv-x="1529" d="M1391 1454v-1454h-336v596h-580v-596h-336v1454h336v-563h580v563h336z" />
<glyph unicode="I" horiz-adv-x="614" d="M139 0v1454h336v-1454h-336z" />
<glyph unicode="J" horiz-adv-x="1011" d="M82 342q20 -16 87 -41t155 -25q76 0 120.5 26t69.5 79t32 136t7 198v739h336v-739q0 -166 -17.5 -302.5t-76 -232.5t-171 -149.5t-300.5 -53.5q-184 0 -316 91z" />
<glyph unicode="K" horiz-adv-x="1390" d="M139 0v1454h336v-627l533 627h376l-544 -649l581 -805h-383l-411 586l-152 -158v-428h-336z" />
<glyph unicode="L" horiz-adv-x="1198" d="M139 0v1454h336v-1159h705v-295h-1041z" />
<glyph unicode="M" horiz-adv-x="1761" d="M1286 0v870l-315 -632h-180l-316 632v-870h-336v1454h365l377 -760l379 760h362v-1454h-336z" />
<glyph unicode="N" horiz-adv-x="1554" d="M475 831v-831h-336v1454h262l678 -854v854h336v-1454h-270z" />
<glyph unicode="O" horiz-adv-x="1556" d="M776 -12q-162 0 -295 63.5t-227 167t-146.5 236.5t-52.5 274q0 143 54.5 276.5t151.5 234.5t230.5 161.5t290.5 60.5q162 0 295 -63.5t227.5 -168t145.5 -237.5t51 -270q0 -143 -54 -276.5t-150.5 -234.5t-229.5 -162.5t-291 -61.5zM397 725q0 -84 24.5 -163t73 -140.5 t120 -98t163.5 -36.5q96 0 168 39t119 101t70.5 141t23.5 161q0 84 -24.5 163t-73.5 139.5t-120 96t-163 35.5q-96 0 -166.5 -38t-119 -99t-72 -140t-23.5 -161z" />
<glyph unicode="P" horiz-adv-x="1275" d="M139 0v1454h621q104 0 191 -43t149.5 -112.5t98.5 -157.5t36 -178q0 -96 -34 -184.5t-94 -158t-146.5 -110.5t-190.5 -41h-295v-469h-336zM475 762h275q59 0 102 51t43 150q0 51 -13.5 87.5t-36 61.5t-51 36t-57.5 11h-262v-397z" />
<glyph unicode="Q" horiz-adv-x="1554" d="M1130 82q-78 -43 -167 -67.5t-187 -24.5q-162 0 -295 62.5t-227 166t-146.5 236.5t-52.5 274q0 143 54.5 276.5t151.5 235.5t230.5 162.5t290.5 60.5q162 0 295 -64.5t227.5 -169t145.5 -237.5t51 -270q0 -139 -49 -266t-139 -228l209 -229h-316zM778 289q82 0 144 26 l-234 258h316l90 -100q33 57 49 123t16 133q0 84 -24.5 163t-73.5 139.5t-120 97t-163 36.5q-96 0 -166.5 -37.5t-119 -100t-72 -141.5t-23.5 -161q0 -84 24.5 -163t73 -139.5t120 -97t163.5 -36.5z" />
<glyph unicode="R" d="M139 0v1454h656q102 0 189 -43t150.5 -112.5t99.5 -157.5t36 -178q0 -68 -16.5 -130.5t-47 -118t-75 -99.5t-99.5 -74l320 -541h-379l-279 469h-219v-469h-336zM475 762h307q59 0 102.5 56t43.5 145q0 90 -49.5 143t-106.5 53h-297v-397z" />
<glyph unicode="S" horiz-adv-x="1259" d="M1012 1028q-6 8 -43 30.5t-92.5 47t-121 43t-130.5 18.5q-180 0 -181 -120q0 -37 19.5 -61.5t57.5 -44t95.5 -36t133.5 -37.5q104 -29 188 -62.5t142.5 -83.5t90 -122t31.5 -172q0 -123 -46 -208t-122 -137t-174 -75.5t-203 -23.5q-80 0 -163.5 12t-163.5 35.5t-155 56.5 t-138 76l147 293q8 -10 53.5 -39t112 -57.5t148.5 -51t166 -22.5q178 0 178 108q0 41 -27 67.5t-74 48t-111.5 40t-140.5 41.5q-100 31 -173.5 66.5t-122 82.5t-72 108.5t-23.5 143.5q0 115 43 203t117 148.5t171 91t206 30.5q76 0 149.5 -14t141 -36.5t126 -51.5t107.5 -57 z" />
<glyph unicode="T" horiz-adv-x="1271" d="M1247 1159h-442v-1159h-336v1159h-444v295h1222v-295z" />
<glyph unicode="U" horiz-adv-x="1529" d="M764 287q86 0 145.5 35.5t96 95t52 136.5t15.5 157v743h336v-743q0 -152 -38 -283t-116.5 -229.5t-200.5 -154.5t-290 -56q-174 0 -297 59t-200 158.5t-112.5 230.5t-35.5 275v743h336v-743q0 -84 16 -160t53 -135.5t95.5 -94t144.5 -34.5z" />
<glyph unicode="V" horiz-adv-x="1380" d="M350 1454l342 -1032l338 1032h354l-550 -1454h-283l-557 1454h356z" />
<glyph unicode="W" horiz-adv-x="2160" d="M623 1452h309l147 -465l148 465h311l-244 -676l148 -391l364 1069h367l-582 -1454h-280l-232 569l-229 -569h-283l-579 1454h364l367 -1069l143 391z" />
<glyph unicode="X" horiz-adv-x="1333" d="M350 1454l318 -502l317 502h363l-504 -737l487 -717h-362l-301 481l-301 -481h-365l487 717l-503 737h364z" />
<glyph unicode="Y" horiz-adv-x="1357" d="M365 1454l313 -668l317 668h367l-518 -958v-496h-334v500l-510 954h365z" />
<glyph unicode="Z" horiz-adv-x="1280" d="M57 252l758 907h-729v295h1116v-252l-721 -907h729v-295h-1153v252z" />
<glyph unicode="[" horiz-adv-x="698" d="M164 -82v1598h440v-261h-137v-1077h137v-260h-440z" />
<glyph unicode="\" horiz-adv-x="1357" d="M416 1454l891 -1454h-361l-893 1454h363z" />
<glyph unicode="]" horiz-adv-x="698" d="M96 -82v260h135v1077h-135v261h439v-1598h-439z" />
<glyph unicode="^" horiz-adv-x="1236" d="M78 621l405 833h273l403 -833h-266l-275 563l-278 -563h-262z" />
<glyph unicode="_" horiz-adv-x="940" d="M102 -295v295h738v-295h-738z" />
<glyph unicode="`" horiz-adv-x="550" d="M94 1495h297l107 -266l-207 -58z" />
<glyph unicode="a" horiz-adv-x="1200" d="M418 -20q-80 0 -148.5 25.5t-118 71.5t-78 108.5t-28.5 136.5q0 80 34 145t95.5 112.5t145 74t186.5 26.5q68 0 131 -11.5t111 -33.5v49q0 186 -216 186q-88 0 -167.5 -29.5t-167.5 -88.5l-97 204q106 70 221 105t244 35q244 0 377 -115t133 -336v-276q0 -49 15.5 -68.5 t54.5 -24.5v-276q-43 -10 -78 -13t-63 -3q-92 0 -139.5 35.5t-59.5 101.5l-6 49q-72 -92 -171 -141t-210 -49zM514 215q53 0 103.5 18.5t82.5 49.5q47 37 48 77v103q-43 16 -93.5 25.5t-93.5 9.5q-90 0 -148.5 -41t-58.5 -107q0 -59 45 -97t115 -38z" />
<glyph unicode="b" horiz-adv-x="1310" d="M758 -20q-123 0 -215 52t-146 146v-178h-284v1495h327v-596q53 92 142.5 144.5t210.5 52.5q102 0 188 -44t147.5 -120t96.5 -179.5t35 -220.5t-38 -218t-105.5 -176t-160 -116.5t-198.5 -41.5zM666 256q57 0 104 21.5t81 58.5t53.5 87t19.5 109q0 57 -18.5 109.5 t-50.5 91.5t-77 61.5t-96 22.5q-78 0 -142.5 -53t-99.5 -133v-225q33 -70 95.5 -110t130.5 -40z" />
<glyph unicode="c" horiz-adv-x="1167" d="M49 539q0 111 39 212t112.5 178t181 122t245.5 45q186 0 313 -79t190 -206l-319 -96q-63 102 -186 102q-102 0 -171 -75.5t-69 -202.5q0 -63 18.5 -115.5t51 -89.5t76.5 -57.5t94 -20.5q61 0 112 29.5t76 76.5l320 -98q-59 -125 -189.5 -204.5t-316.5 -79.5 q-135 0 -243 46t-182.5 122.5t-113.5 178t-39 212.5z" />
<glyph unicode="d" horiz-adv-x="1339" d="M559 -20q-111 0 -204 41.5t-160.5 117.5t-105.5 177.5t-38 222.5q0 117 35 219t98.5 177t150.5 118t191 43q113 0 204 -53.5t140 -143.5v596h328v-1126q0 -49 15.5 -68.5t54.5 -24.5v-276q-45 -10 -78 -13t-62 -3q-86 0 -139 35.5t-61 103.5l-6 55q-57 -100 -154.5 -149 t-208.5 -49zM647 256q68 0 130.5 40t94.5 110v225q-31 82 -99 134t-142 52q-53 0 -97.5 -23.5t-77 -62.5t-50 -90t-17.5 -109q0 -59 19.5 -110t53.5 -88t82 -57.5t103 -20.5z" />
<glyph unicode="e" horiz-adv-x="1236" d="M627 -20q-135 0 -243 44t-182.5 119.5t-113.5 175t-39 207.5q0 117 39 220.5t112.5 181.5t181 123t245.5 45q137 0 243.5 -45t180 -122t111.5 -177.5t38 -210.5q0 -29 -2 -56.5t-6 -48.5h-795q8 -109 79 -165t161 -56q72 0 138.5 35t88.5 94l279 -78 q-63 -127 -196.5 -206.5t-319.5 -79.5zM854 639q-10 102 -73.5 161.5t-157.5 59.5q-96 0 -159 -60.5t-73 -160.5h463z" />
<glyph unicode="f" horiz-adv-x="788" d="M182 0v739h-137v248h137v88q0 100 27 182t76 139.5t118.5 88.5t153.5 31q131 0 281 -64l-60 -246q-33 14 -72.5 23.5t-74.5 9.5q-121 0 -121 -152v-100h250v-248h-250v-739h-328z" />
<glyph unicode="g" horiz-adv-x="1310" d="M530 -4q-106 0 -194 43t-150.5 116.5t-97.5 172t-35 211.5q0 119 37 220t102.5 176t157.5 118t203 43q123 0 214 -52.5t146 -144.5v176h285v-1001q0 -123 -46 -221.5t-128 -167t-196.5 -105.5t-252.5 -37q-174 0 -296.5 55.5t-215.5 159.5l177 179q59 -68 147 -108 t188 -40q59 0 112.5 16.5t94.5 50t64.5 88t23.5 130.5v104q-49 -90 -141.5 -136t-198.5 -46zM643 256q76 0 135.5 42t91.5 108v225q-33 86 -100.5 136t-142.5 50q-53 0 -97.5 -23.5t-76 -63.5t-49 -92t-17.5 -108q0 -59 19.5 -109t54.5 -87t81 -57.5t101 -20.5z" />
<glyph unicode="h" horiz-adv-x="1253" d="M1149 0h-328v604q0 104 -41 153.5t-112 49.5q-29 0 -63 -13.5t-65.5 -39t-58 -60.5t-41.5 -78v-616h-327v1495h327v-600q59 96 156.5 148.5t214.5 52.5q109 0 175.5 -38t102 -96.5t48 -131t12.5 -142.5v-688z" />
<glyph unicode="i" horiz-adv-x="552" d="M113 0v1075h327v-1075h-327zM113 1198v297h327v-297h-327z" />
<glyph unicode="j" horiz-adv-x="561" d="M55 -414q-82 0 -155.5 26t-132.5 77l137 223q23 -23 51.5 -33t58.5 -10q47 0 78 30.5t31 82.5v1093h328v-1069q0 -92 -30 -170t-83 -133t-126 -86t-157 -31zM123 1198v297h328v-297h-328z" />
<glyph unicode="k" horiz-adv-x="1165" d="M836 0l-281 432l-115 -119v-313h-327v1495h327v-866l363 446h348l-387 -463l420 -612h-348z" />
<glyph unicode="l" horiz-adv-x="686" d="M109 1495h327v-1112q0 -123 105 -123q25 0 54.5 7t53.5 22l43 -246q-61 -29 -141 -45t-150 -16q-141 0 -216.5 73.5t-75.5 212.5v1227z" />
<glyph unicode="m" horiz-adv-x="1914" d="M1812 0h-327v604q0 106 -39 154.5t-100 48.5q-33 0 -67 -14.5t-62.5 -40t-52 -60.5t-38.5 -76v-616h-327v604q0 106 -39 154.5t-101 48.5q-66 0 -128 -52.5t-91 -138.5v-616h-327v1075h295v-180q59 98 160.5 149.5t236.5 51.5q68 0 118 -16.5t87 -45t59.5 -66.5t32.5 -81 q61 100 161.5 154.5t229.5 54.5q102 0 164.5 -38t97.5 -98.5t46 -132t11 -139.5v-688z" />
<glyph unicode="n" horiz-adv-x="1253" d="M1149 0h-328v604q0 106 -40 154.5t-105 48.5q-35 0 -70 -14.5t-67.5 -40t-58 -60.5t-40.5 -76v-616h-327v1075h295v-180q59 96 167.5 148.5t249.5 52.5q104 0 168 -38t98.5 -98.5t46 -132t11.5 -139.5v-688z" />
<glyph unicode="o" horiz-adv-x="1249" d="M625 -20q-137 0 -245 45t-181.5 121.5t-111.5 178t-38 212.5t38 212t111.5 178t181 123t245.5 46q137 0 243.5 -46t180 -123t112.5 -178.5t39 -211.5q0 -111 -38 -212.5t-111.5 -178t-181 -121.5t-244.5 -45zM385 537q0 -127 67.5 -204t172.5 -77q51 0 94 20.5t74.5 57.5 t50 89t18.5 114q0 127 -67.5 203.5t-169.5 76.5q-51 0 -95.5 -20.5t-76 -57.5t-50 -89t-18.5 -113z" />
<glyph unicode="p" horiz-adv-x="1310" d="M793 -20q-123 0 -213.5 51t-139.5 143v-610h-327v1511h284v-174q59 92 148.5 143.5t212.5 51.5q109 0 200 -43t157.5 -118t104 -176.5t37.5 -217.5q0 -121 -34.5 -223.5t-96 -177t-147.5 -117.5t-186 -43zM682 256q53 0 97 23.5t77 62.5t50.5 91t17.5 110q0 59 -19.5 109 t-53.5 87t-82 57.5t-103 20.5q-68 0 -130.5 -40t-95.5 -107v-221q33 -82 99.5 -137.5t142.5 -55.5z" />
<glyph unicode="q" horiz-adv-x="1310" d="M518 -20q-102 0 -187 43t-146.5 118.5t-96.5 178t-35 221.5q0 117 38 218t104.5 176t157.5 118t200 43q123 0 212 -53.5t148 -143.5v176h285v-1126q0 -49 18.5 -68.5t65.5 -21.5v-279q-43 -8 -92 -12t-88 -4q-47 0 -89 15t-74 43t-50.5 67t-18.5 86v399 q-110 -194 -352 -194zM643 256q72 0 129 40t98 105v228q-12 39 -36.5 73.5t-57.5 60t-69.5 40t-73.5 14.5q-53 0 -98.5 -23.5t-78 -62.5t-51 -90t-18.5 -109q0 -121 70.5 -198.5t185.5 -77.5z" />
<glyph unicode="r" horiz-adv-x="819" d="M795 795q-119 -2 -215.5 -39t-139.5 -111v-645h-327v1075h301v-217q55 109 142 170.5t185 63.5h33t21 -2v-295z" />
<glyph unicode="s" horiz-adv-x="1021" d="M537 -20q-137 0 -270.5 44t-225.5 128l117 200q98 -68 191 -104.5t179 -36.5q63 0 98.5 22.5t35.5 65.5t-44.5 68.5t-154.5 54.5q-109 31 -183.5 59.5t-121.5 63.5t-67.5 80t-20.5 106q0 82 32.5 149.5t90 114.5t136.5 74t171 27q121 0 226 -33t204 -119l-127 -196 q-92 63 -164 91.5t-139 28.5q-53 0 -90 -21.5t-37 -68.5q0 -45 40 -67.5t148 -48.5q115 -31 194 -62t128 -68.5t71.5 -87t22.5 -116.5q0 -160 -118.5 -254t-321.5 -94z" />
<glyph unicode="t" horiz-adv-x="823" d="M809 57q-68 -29 -155 -53t-175 -24q-61 0 -115.5 15t-95.5 49t-64.5 89t-23.5 133v561h-137v248h137v342h328v-342h219v-248h-219v-448q0 -53 26.5 -76.5t67.5 -23.5q37 0 76 12t67 26z" />
<glyph unicode="u" horiz-adv-x="1284" d="M438 -20q-166 0 -251 103t-85 304v688h328v-616q0 -98 39 -150.5t111 -52.5q66 0 127 35t108 121v663h328v-706q0 -49 15.5 -68.5t53.5 -24.5v-276q-47 -10 -79.5 -13t-59.5 -3q-176 0 -201 137l-6 65q-74 -106 -183.5 -156t-244.5 -50z" />
<glyph unicode="v" horiz-adv-x="1138" d="M391 0l-381 1075h338l236 -813l237 813h305l-378 -1075h-357z" />
<glyph unicode="w" horiz-adv-x="1740" d="M1438 1075h311l-444 -1075h-269l-166 442l-165 -442h-269l-444 1075h309l293 -772l100 293l-190 479h262l104 -323l103 323h262l-188 -479l100 -293z" />
<glyph unicode="x" horiz-adv-x="1110" d="M340 1075l195 -303l20 -39l20 39l193 303h336l-373 -538l381 -537h-336l-203 301l-18 39l-18 -39l-203 -301h-336l381 537l-373 538h334z" />
<glyph unicode="y" horiz-adv-x="1130" d="M121 -162q41 -14 76.5 -20t64.5 -6q59 0 92 41t60 147l-410 1075h338l250 -794l215 794h307l-409 -1249q-43 -133 -154 -216t-262 -83q-41 0 -83 7t-85 24v280z" />
<glyph unicode="z" horiz-adv-x="1011" d="M49 197l549 651h-520v227h862v-196l-545 -652h559v-227h-905v197z" />
<glyph unicode="{" horiz-adv-x="704" d="M485 1255v-370q0 -47 -22.5 -83t-54.5 -65q31 -29 54 -64.5t23 -82.5v-393h113v-260h-360q-12 0 -30 12t-18 49v481q0 59 -34.5 98t-75.5 50v225q20 0 40.5 13.5t36 34t24.5 46t9 49.5v459q0 37 18.5 49.5t29.5 12.5h360v-261h-113z" />
<glyph unicode="|" horiz-adv-x="595" d="M160 -266v1853h276v-1853h-276z" />
<glyph unicode="}" horiz-adv-x="704" d="M106 1255v261h359q12 0 29.5 -12.5t17.5 -49.5v-459q0 -25 9 -50t25.5 -45.5t36 -34t42.5 -13.5v-225q-41 -10 -77 -49t-36 -99v-481q0 -37 -16.5 -49t-30.5 -12h-359v260h113v393q0 47 22.5 83t53.5 64q-33 29 -54.5 65t-21.5 83v370h-113z" />
<glyph unicode="~" horiz-adv-x="1202" d="M104 455q0 20 15.5 69t51.5 100.5t95.5 89.5t147.5 38q57 0 105 -17.5t92 -37t86 -37t89 -17.5q45 0 73 15.5t43.5 34t20.5 34.5t5 21h176q0 -12 -15.5 -60.5t-52.5 -99.5t-98 -92t-154 -41q-57 0 -104 16t-91 35.5t-87 36t-90 16.5q-45 0 -71 -15.5t-39 -35t-17 -35.5 t-4 -18h-177v0z" />
<glyph unicode="&#xa1;" horiz-adv-x="677" d="M502 879v-891h-328v891h328zM502 1456v-340h-328v340h328z" />
<glyph unicode="&#xa2;" horiz-adv-x="1236" d="M565 -246v228q-106 8 -196 58t-154.5 126t-100.5 170t-36 192q0 104 30.5 197.5t92 168.5t152.5 127t212 71v229h142v-229q141 -4 262 -74t192 -207l-319 -96q-23 39 -60 63.5t-75 28.5v-543q45 12 82.5 38t54.5 60l319 -98q-33 -72 -89 -125t-120.5 -89t-130 -53 t-116.5 -17v-226h-142zM416 528q0 -80 39 -148.5t110 -98.5v512q-72 -23 -110.5 -97t-38.5 -168z" />
<glyph unicode="&#xa3;" horiz-adv-x="1155" d="M121 786h131q-35 76 -66.5 151t-31.5 157q0 78 33.5 145.5t94 117.5t141.5 78.5t173 28.5q129 0 247 -56t199 -159l-170 -200q-51 66 -129.5 108.5t-150.5 42.5q-66 0 -107 -39t-41 -102t35 -129t66 -144h383v-243h-342q-8 -76 -45 -144.5t-111 -146.5q47 16 84 22.5 t72 6.5q72 0 138.5 -16.5t133.5 -16.5q37 0 70 7t73 21l80 -241q-47 -29 -113.5 -47.5t-125.5 -18.5q-47 0 -95.5 10.5t-98.5 21.5t-100 21.5t-99 10.5q-57 0 -132 -14.5t-147 -36.5l-68 233q88 63 141.5 150.5t61.5 177.5h-184v243z" />
<glyph unicode="&#xa4;" horiz-adv-x="1146" d="M360 1026q45 25 98.5 39t116.5 14q61 0 113.5 -14t97.5 -37l142 143l127 -127l-135 -135q63 -96 63 -217q0 -125 -65 -221l137 -135l-117 -117l-147 137q-92 -51 -216 -51q-66 0 -120 14.5t-99 38.5l-147 -139l-119 117l139 139q-29 47 -45 102.5t-16 114.5q0 119 59 213 l-137 139l129 127zM403 690q0 -84 49.5 -135t122.5 -51q74 0 123.5 51t49.5 137t-49.5 136.5t-123.5 50.5t-123 -51.5t-49 -137.5z" />
<glyph unicode="&#xa5;" horiz-adv-x="1486" d="M1092 852h141v-211h-250l-78 -145v-64h330v-211h-330v-221h-334v221h-327v211h327v68l-75 141h-250v211h143l-328 602h363l313 -668l320 668h366z" />
<glyph unicode="&#xa6;" horiz-adv-x="602" d="M440 532v-798h-278v798h278zM440 1587v-799h-278v799h278z" />
<glyph unicode="&#xa7;" horiz-adv-x="1107" d="M965 457q27 -29 44 -79t17 -128q0 -119 -46 -201t-116.5 -133t-153.5 -73.5t-155 -22.5q-84 0 -157.5 24.5t-132 59.5t-100.5 72.5t-67 66.5l209 201q59 -61 115.5 -87t116.5 -26q59 0 103 26.5t44 80.5q0 27 -11 43t-29.5 24t-41 11t-43.5 6q-217 16 -325.5 118.5 t-108.5 257.5q0 59 12.5 93t18.5 51q-23 25 -48.5 83t-25.5 136q0 80 34 152.5t93 128t140 89t177 33.5q94 0 167 -28.5t129.5 -70.5t95 -90t65.5 -85l-250 -119q-27 45 -74 74t-112 29q-63 0 -99 -30t-36 -77q0 -31 10 -49.5t28.5 -28.5t43 -14t51.5 -4q78 -2 157.5 -20.5 t145 -59.5t107.5 -108.5t42 -166.5q0 -59 -12 -101t-22 -58zM444 653q0 -45 25 -65.5t58.5 -29.5t71.5 -11t63 -10q14 10 21 30.5t7 38.5q0 29 -12 48.5t-31.5 31.5t-42 17.5t-43.5 5.5q-29 0 -55.5 5t-34.5 9q-27 -23 -27 -70z" />
<glyph unicode="&#xa8;" horiz-adv-x="1040" d="M170 1214v265h270v-265h-270zM600 1214v265h270v-265h-270z" />
<glyph unicode="&#xa9;" horiz-adv-x="1728" d="M856 -14q-166 0 -308 56t-244.5 155.5t-161 234.5t-58.5 295q0 158 58.5 293t161 233.5t244.5 154.5t308 56q170 0 315.5 -56t251 -154.5t165 -233.5t59.5 -293q0 -160 -59.5 -295t-165 -234.5t-251 -155.5t-315.5 -56zM856 100q139 0 261 46.5t211 128t140.5 196.5 t51.5 254q0 131 -50.5 244.5t-139.5 198.5t-210 133.5t-264 48.5q-139 0 -257 -48.5t-205 -132.5t-136 -197.5t-49 -244.5t49 -245.5t135 -198.5t205 -133.5t258 -49.5zM877 233q-125 0 -224.5 39t-168 105.5t-105.5 156t-37 191.5q0 96 34 185t101.5 158t166.5 110t228 41 q176 0 298 -76t182 -201l-320 -98q-29 53 -71.5 75.5t-90.5 22.5q-86 0 -139 -61.5t-53 -155.5q0 -51 16.5 -91t44 -67.5t62.5 -42t71 -14.5q51 0 94.5 25.5t69.5 72.5l318 -96q-27 -57 -71 -108.5t-104.5 -89.5t-136 -59.5t-165.5 -21.5z" />
<glyph unicode="&#xaa;" horiz-adv-x="915" d="M324 688q-53 0 -98.5 18.5t-79 50t-52 74.5t-18.5 95q0 55 22.5 101t63.5 79t97 51.5t124 18.5q94 0 156 -31v31q0 127 -138 127q-59 0 -111 -20.5t-112 -61.5l-69 145q141 96 315 96q166 0 255 -79.5t89 -233.5v-182q0 -63 57 -66v-199q-61 -12 -106 -12q-121 0 -139 98 l-5 33q-49 -66 -113 -99.5t-138 -33.5zM391 858q33 0 64.5 12.5t52.5 30.5q31 25 31 53v68q-27 12 -57.5 18.5t-59.5 6.5q-57 0 -93 -28t-36 -73q0 -37 28.5 -62.5t69.5 -25.5z" />
<glyph unicode="&#xab;" horiz-adv-x="1390" d="M68 600l553 395v-264l-295 -201l295 -186v-264l-553 364v156zM721 600l553 395v-264l-295 -201l295 -186v-264l-553 364v156z" />
<glyph unicode="&#xac;" horiz-adv-x="1275" d="M1149 850v-649h-277v354h-761v295h1038z" />
<glyph unicode="&#xad;" horiz-adv-x="1259" d="M111 416v295h1038v-295h-1038z" />
<glyph unicode="&#xae;" horiz-adv-x="1728" d="M860 -14q-170 0 -312 56t-244.5 155.5t-161 234.5t-58.5 295q0 158 58.5 293t161 233.5t244.5 154.5t312 56q168 0 312.5 -56t250 -154.5t165 -233.5t59.5 -293q0 -160 -59.5 -295t-165 -234.5t-250 -155.5t-312.5 -56zM862 98q137 0 256 47.5t207 130t138 197.5t50 250 q0 131 -49 245.5t-136 198.5t-205.5 133.5t-260.5 49.5q-141 0 -260 -49.5t-205 -133.5t-134 -197.5t-48 -244.5t48 -244.5t134 -198.5t205 -134.5t260 -49.5zM520 1176h404q63 0 117.5 -27t93.5 -70t60.5 -97t21.5 -110q0 -80 -41 -150.5t-107 -105.5l203 -329h-256 l-178 286h-86v-286h-232v889zM901 770q39 0 63.5 24.5t24.5 77.5q0 57 -28.5 80t-63.5 23h-145v-205h149z" />
<glyph unicode="&#xaf;" horiz-adv-x="876" d="M127 1272v198h623v-198h-623z" />
<glyph unicode="&#xb0;" horiz-adv-x="598" d="M74 1266q0 92 63.5 154.5t161.5 62.5t161.5 -62.5t63.5 -154.5q0 -106 -63.5 -170t-161.5 -64t-161.5 65t-63.5 169zM248 1307q-20 -20 -21 -50q0 -33 21 -49q18 -23 51 -22q33 0 49 22q10 8 15.5 22.5t5.5 26.5q0 31 -21 50q-8 10 -21.5 15t-27.5 5q-33 0 -51 -20z" />
<glyph unicode="&#xb1;" horiz-adv-x="974" d="M111 33v260h749v-260h-749zM862 911v-260h-227v-248h-295v248h-227v260h227v248h295v-248h227z" />
<glyph unicode="&#xb2;" horiz-adv-x="876" d="M57 784q0 86 13.5 149.5t44 113t83 86t130.5 69.5q49 20 97 39t86 40.5t61.5 49t23.5 64.5q0 49 -43 71.5t-121 22.5q-86 0 -148.5 -29.5t-99.5 -64.5l-121 139q37 49 140.5 95t257.5 46q172 0 261 -73.5t89 -208.5q0 -68 -26.5 -117t-65.5 -82t-85 -52.5t-85 -31.5 q-176 -51 -176 -139h409v-187h-725z" />
<glyph unicode="&#xb3;" horiz-adv-x="847" d="M395 770q-129 0 -218 39t-124 117l101 143q10 -14 29.5 -32.5t48 -35t68.5 -27.5t91 -11q80 0 139.5 21.5t59.5 68.5q0 53 -81 76.5t-224 23.5h-49v174h49q121 0 197.5 21.5t76.5 74.5q0 20 -15.5 35t-39 24t-51 13t-52.5 4q-80 0 -133 -26.5t-94 -69.5l-123 153 q25 29 63 51.5t84 38t98 22.5t103 7q78 0 144.5 -18.5t115 -51t76 -76.5t27.5 -95q0 -72 -52.5 -119t-144.5 -64q102 -14 159.5 -77.5t57.5 -149.5q0 -68 -32.5 -116t-87 -78.5t-124 -45t-143.5 -14.5z" />
<glyph unicode="&#xb4;" horiz-adv-x="550" d="M303 1171l-209 58l107 266h297z" />
<glyph unicode="&#xb5;" horiz-adv-x="1400" d="M156 1075h327v-616q0 -98 39 -150.5t119 -52.5q57 0 119.5 35t109.5 121v663h328v-706q0 -49 17.5 -68.5t64.5 -24.5v-276q-49 -10 -87 -13t-67 -3q-86 0 -138 37.5t-62 103.5l-6 61q-12 -31 -43 -66.5t-71 -66t-88 -52t-97 -21.5q-37 0 -65 11t-48.5 26.5t-31.5 33 t-13 27.5l20 -514h-327v1511z" />
<glyph unicode="&#xb6;" horiz-adv-x="1390" d="M70 924q0 254 151.5 392t425.5 138h649v-244h-143v-1374h-279v572h-83v-572h-279v572q-98 0 -180 36.5t-140.5 104t-90 163t-31.5 212.5zM342 932q0 -123 49 -198t121 -85v561q-78 -6 -124 -82.5t-46 -195.5zM874 1210h-83v-561h83v561z" />
<glyph unicode="&#xb7;" horiz-adv-x="489" d="M111 492v339h268v-339h-268z" />
<glyph unicode="&#xb8;" horiz-adv-x="702" d="M104 -260q23 -14 76 -27.5t109 -13.5q49 0 81.5 14.5t32.5 50.5q0 35 -30.5 50.5t-79.5 15.5q-43 0 -91 -8t-71 -15l127 259l123 -37l-74 -107q27 6 62 6q74 0 129 -35.5t55 -115.5q0 -82 -69.5 -138.5t-217.5 -56.5q-72 0 -127 13.5t-96 29.5z" />
<glyph unicode="&#xb9;" horiz-adv-x="632" d="M590 975v-189h-492v189h158v498q-10 -14 -32.5 -33t-50.5 -35t-56.5 -27.5t-53.5 -11.5v190q31 0 65 18.5t62.5 40t47 40t18.5 20.5h193v-700h141z" />
<glyph unicode="&#xba;" horiz-adv-x="903" d="M451 688q-92 0 -164 32t-121 85t-74.5 122.5t-25.5 147.5t25.5 147.5t74.5 123t120.5 85t164.5 31.5q92 0 164.5 -31.5t121.5 -85t75 -123t26 -147.5t-26 -147.5t-75 -122.5t-120.5 -85t-165.5 -32zM301 1075q0 -86 43 -137t107 -51q66 0 108.5 51t42.5 137t-43 137.5 t-108 51.5q-63 0 -106.5 -51.5t-43.5 -137.5z" />
<glyph unicode="&#xbb;" horiz-adv-x="1390" d="M1323 444l-553 -364v264l295 186l-295 201v264l553 -395v-156zM670 444l-553 -364v264l295 186l-295 201v264l553 -395v-156z" />
<glyph unicode="&#xbc;" horiz-adv-x="1990" d="M1604 2v180h-447v187l506 514h131v-514h127v-187h-127v-180h-190zM1337 369h275v282zM397 115l578 663l524 695l148 -132l-560 -647l-544 -712zM610 797v-189h-491v189h157v497q-10 -14 -32.5 -32.5t-50 -35t-56 -27.5t-53.5 -11v190q31 0 64.5 18.5t62.5 40t47 40 t18 20.5h193v-700h141z" />
<glyph unicode="&#xbd;" horiz-adv-x="2031" d="M1204 0q0 86 13.5 149.5t44 111.5t82 86t129.5 71q49 20 96 38.5t84 40t60.5 48t23.5 63.5q0 51 -43 74t-119 23q-86 0 -147.5 -31t-98.5 -66l-119 142q37 49 139.5 95t256.5 46q166 0 255 -74t89 -211q0 -68 -26 -116t-64.5 -80.5t-84.5 -52t-85 -31.5 q-174 -51 -174 -140h436v-186h-748zM313 115l578 663l524 695l148 -132l-559 -647l-545 -712zM606 797v-189h-491v189h157v497q-10 -14 -32.5 -32.5t-50 -35t-56.5 -27.5t-53 -11v190q31 0 64.5 18.5t62.5 40t47 40t18 20.5h193v-700h141z" />
<glyph unicode="&#xbe;" horiz-adv-x="2007" d="M420 592q-129 0 -218 39t-124 117l100 143q31 -39 88.5 -73t149.5 -34q80 0 139 21.5t59 68.5q0 53 -80.5 77t-224.5 24h-49v174h49q121 0 198 21.5t77 74.5q0 20 -15.5 34.5t-39 24t-51 13.5t-52.5 4q-80 0 -133 -26.5t-94 -69.5l-123 153q25 29 62.5 51.5t83.5 38 t98.5 22.5t103.5 7q78 0 144.5 -18.5t114.5 -51t75.5 -76.5t27.5 -96q0 -72 -52 -118.5t-144 -63.5q102 -14 159.5 -77.5t57.5 -149.5q0 -68 -33 -116t-87 -78.5t-123.5 -45t-143.5 -14.5zM1618 2v180h-447v187l506 514h131v-514h127v-187h-127v-180h-190zM1352 369h274v282 zM459 115l577 663l525 695l147 -132l-559 -647l-545 -712z" />
<glyph unicode="&#xbf;" horiz-adv-x="989" d="M772 535q0 -47 -6 -90.5t-23.5 -83t-50.5 -74.5t-86 -64q-27 -16 -70.5 -38.5t-85.5 -53.5t-73 -71t-31 -89q0 -68 49 -105.5t113 -37.5q41 0 72.5 15.5t57.5 37t44 47t33 47.5l211 -147q-53 -125 -169 -194.5t-261 -69.5q-78 0 -156 22.5t-139.5 71.5t-100.5 127 t-39 188q0 117 48.5 196t142.5 138q43 27 87 50.5t81 48t59.5 55.5t22.5 74h270zM766 1036v-307h-268v307h268z" />
<glyph unicode="&#xc0;" d="M535 1454h303l530 -1454h-344l-113 326h-452l-111 -326h-344zM856 557l-170 514l-174 -514h344zM397 1876h297l107 -266l-207 -58z" />
<glyph unicode="&#xc1;" d="M535 1454h303l530 -1454h-344l-113 326h-452l-111 -326h-344zM856 557l-170 514l-174 -514h344zM780 1550l-209 58l107 266h297z" />
<glyph unicode="&#xc2;" d="M535 1454h303l530 -1454h-344l-113 326h-452l-111 -326h-344zM856 557l-170 514l-174 -514h344zM344 1653l225 221h236l223 -221l-168 -74l-174 129l-174 -129z" />
<glyph unicode="&#xc3;" d="M535 1454h303l530 -1454h-344l-113 326h-452l-111 -326h-344zM856 557l-170 514l-174 -514h344zM817 1583q-47 0 -83 14.5t-66.5 33t-59 32.5t-63.5 14t-53.5 -14t-28.5 -32.5t-12 -34t-2 -17.5h-177q0 23 13.5 71t44 97t81 86t121.5 37q49 0 84 -15.5t65 -34t58.5 -33.5 t65.5 -15q35 0 56.5 15t32.5 33.5t14 35t3 18.5h176q0 -16 -14 -63.5t-46 -98.5t-83 -90t-127 -39z" />
<glyph unicode="&#xc4;" d="M535 1454h303l530 -1454h-344l-113 326h-452l-111 -326h-344zM856 557l-170 514l-174 -514h344zM338 1595v265h270v-265h-270zM768 1595v265h270v-265h-270z" />
<glyph unicode="&#xc5;" d="M535 1454h303l530 -1454h-344l-113 326h-452l-111 -326h-344zM856 557l-170 514l-174 -514h344zM467 1706q0 84 60.5 126t158.5 42t157.5 -42t59.5 -126q0 -82 -59.5 -124t-157.5 -42t-158.5 42t-60.5 124zM686 1778q-35 0 -58.5 -19.5t-23.5 -50.5t23.5 -51.5 t58.5 -20.5q33 0 57.5 19.5t24.5 52.5q0 31 -23.5 50.5t-58.5 19.5z" />
<glyph unicode="&#xc6;" horiz-adv-x="1982" d="M844 1454h1054v-295h-632v-272h522v-293h-522v-299h651v-295h-985v326h-440l-187 -326h-358zM905 621v458l-272 -458h272z" />
<glyph unicode="&#xc7;" horiz-adv-x="1406" d="M575 -260q23 -14 76.5 -27.5t108.5 -13.5q49 0 81.5 14.5t32.5 50.5q0 35 -30.5 50.5t-79.5 15.5q-43 0 -91 -8t-71 -15l90 185q-143 14 -261 83.5t-202 173t-130 231.5t-46 259t49.5 261t143.5 232.5t229 166t307 63.5q205 0 355.5 -88t224.5 -229l-258 -180 q-25 57 -62.5 95t-83 61.5t-92.5 32.5t-92 9q-96 0 -167.5 -39t-119 -100t-70 -139t-22.5 -158q0 -86 27 -166t77 -141.5t120.5 -97t158.5 -35.5q45 0 93.5 11t92.5 34.5t80.5 61.5t59.5 93l274 -161q-31 -74 -88 -133.5t-133 -102.5t-161 -68.5t-171 -31.5l-47 -68 q27 6 62 6q74 0 129 -35.5t55 -115.5q0 -82 -69.5 -138.5t-217.5 -56.5q-72 0 -127 13.5t-96 29.5z" />
<glyph unicode="&#xc8;" horiz-adv-x="1226" d="M1161 295v-295h-1022v1454h1004v-295h-668v-282h574v-273h-574v-309h686zM369 1876h297l106 -266l-207 -58z" />
<glyph unicode="&#xc9;" horiz-adv-x="1226" d="M752 1550l-209 58l106 266h297zM1161 295v-295h-1022v1454h1004v-295h-668v-282h574v-273h-574v-309h686z" />
<glyph unicode="&#xca;" horiz-adv-x="1226" d="M315 1653l226 221h235l223 -221l-168 -74l-174 129l-174 -129zM1161 295v-295h-1022v1454h1004v-295h-668v-282h574v-273h-574v-309h686z" />
<glyph unicode="&#xcb;" horiz-adv-x="1226" d="M307 1595v265h271v-265h-271zM737 1595v265h271v-265h-271zM1161 295v-295h-1022v1454h1004v-295h-668v-282h574v-273h-574v-309h686z" />
<glyph unicode="&#xcc;" horiz-adv-x="614" d="M139 0v1454h336v-1454h-336zM16 1876h297l107 -266l-207 -58z" />
<glyph unicode="&#xcd;" horiz-adv-x="614" d="M139 0v1454h336v-1454h-336zM399 1550l-209 58l107 266h297z" />
<glyph unicode="&#xce;" horiz-adv-x="614" d="M139 0v1454h336v-1454h-336zM-35 1653l225 221h236l223 -221l-168 -74l-174 129l-174 -129z" />
<glyph unicode="&#xcf;" horiz-adv-x="614" d="M139 0v1454h336v-1454h-336zM-43 1595v265h270v-265h-270zM387 1595v265h270v-265h-270z" />
<glyph unicode="&#xd0;" horiz-adv-x="1476" d="M150 0v610h-89v242h89v602h542q180 0 315.5 -57.5t226.5 -155.5t137 -230t46 -282q0 -166 -51 -300t-146.5 -229.5t-229.5 -147.5t-298 -52h-542zM1075 729q0 96 -25.5 175t-74.5 136.5t-121 88t-162 30.5h-207v-307h263v-242h-263v-315h207q92 0 164 32.5t120 91 t73.5 137.5t25.5 173z" />
<glyph unicode="&#xd1;" horiz-adv-x="1554" d="M475 831v-831h-336v1454h262l678 -854v854h336v-1454h-270zM903 1581q-47 0 -83 14.5t-66.5 33t-59 32.5t-63.5 14t-53.5 -14t-28.5 -32.5t-12 -34t-2 -17.5h-177q0 23 13.5 71t44 97t81 86t121.5 37q49 0 84 -15.5t65 -34t58.5 -34t65.5 -15.5q35 0 56.5 15.5t32.5 34 t14 35t3 18.5h177q0 -16 -14.5 -63.5t-46.5 -98.5t-83 -90t-127 -39z" />
<glyph unicode="&#xd2;" horiz-adv-x="1556" d="M776 -12q-162 0 -295 63.5t-227 167t-146.5 236.5t-52.5 274q0 143 54.5 276.5t151.5 234.5t230.5 161.5t290.5 60.5q162 0 295 -63.5t227.5 -168t145.5 -237.5t51 -270q0 -143 -54 -276.5t-150.5 -234.5t-229.5 -162.5t-291 -61.5zM397 725q0 -84 24.5 -163t73 -140.5 t120 -98t163.5 -36.5q96 0 168 39t119 101t70.5 141t23.5 161q0 84 -24.5 163t-73.5 139.5t-120 96t-163 35.5q-96 0 -166.5 -38t-119 -99t-72 -140t-23.5 -161zM500 1876h297l106 -266l-207 -58z" />
<glyph unicode="&#xd3;" horiz-adv-x="1556" d="M887 1550l-209 58l106 266h297zM776 -12q-162 0 -295 63.5t-227 167t-146.5 236.5t-52.5 274q0 143 54.5 276.5t151.5 234.5t230.5 161.5t290.5 60.5q162 0 295 -63.5t227.5 -168t145.5 -237.5t51 -270q0 -143 -54 -276.5t-150.5 -234.5t-229.5 -162.5t-291 -61.5z M397 725q0 -84 24.5 -163t73 -140.5t120 -98t163.5 -36.5q96 0 168 39t119 101t70.5 141t23.5 161q0 84 -24.5 163t-73.5 139.5t-120 96t-163 35.5q-96 0 -166.5 -38t-119 -99t-72 -140t-23.5 -161z" />
<glyph unicode="&#xd4;" horiz-adv-x="1556" d="M438 1653l226 221h235l223 -221l-168 -74l-174 129l-174 -129zM776 -12q-162 0 -295 63.5t-227 167t-146.5 236.5t-52.5 274q0 143 54.5 276.5t151.5 234.5t230.5 161.5t290.5 60.5q162 0 295 -63.5t227.5 -168t145.5 -237.5t51 -270q0 -143 -54 -276.5t-150.5 -234.5 t-229.5 -162.5t-291 -61.5zM397 725q0 -84 24.5 -163t73 -140.5t120 -98t163.5 -36.5q96 0 168 39t119 101t70.5 141t23.5 161q0 84 -24.5 163t-73.5 139.5t-120 96t-163 35.5q-96 0 -166.5 -38t-119 -99t-72 -140t-23.5 -161z" />
<glyph unicode="&#xd5;" horiz-adv-x="1556" d="M776 -12q-162 0 -295 63.5t-227 167t-146.5 236.5t-52.5 274q0 143 54.5 276.5t151.5 234.5t230.5 161.5t290.5 60.5q162 0 295 -63.5t227.5 -168t145.5 -237.5t51 -270q0 -143 -54 -276.5t-150.5 -234.5t-229.5 -162.5t-291 -61.5zM397 725q0 -84 24.5 -163t73 -140.5 t120 -98t163.5 -36.5q96 0 168 39t119 101t70.5 141t23.5 161q0 84 -24.5 163t-73.5 139.5t-120 96t-163 35.5q-96 0 -166.5 -38t-119 -99t-72 -140t-23.5 -161zM918 1583q-47 0 -83 14.5t-67 33t-59.5 32.5t-63.5 14t-53.5 -14t-28.5 -32.5t-12 -34t-2 -17.5h-176 q0 23 13 71t44 97t81 86t122 37q49 0 84 -15.5t64.5 -34t58 -33.5t65.5 -15q35 0 56.5 15t33 33.5t14.5 35t3 18.5h176q0 -16 -14.5 -63.5t-46 -98.5t-82.5 -90t-127 -39z" />
<glyph unicode="&#xd6;" horiz-adv-x="1556" d="M430 1595v265h270v-265h-270zM860 1595v265h270v-265h-270zM776 -12q-162 0 -295 63.5t-227 167t-146.5 236.5t-52.5 274q0 143 54.5 276.5t151.5 234.5t230.5 161.5t290.5 60.5q162 0 295 -63.5t227.5 -168t145.5 -237.5t51 -270q0 -143 -54 -276.5t-150.5 -234.5 t-229.5 -162.5t-291 -61.5zM397 725q0 -84 24.5 -163t73 -140.5t120 -98t163.5 -36.5q96 0 168 39t119 101t70.5 141t23.5 161q0 84 -24.5 163t-73.5 139.5t-120 96t-163 35.5q-96 0 -166.5 -38t-119 -99t-72 -140t-23.5 -161z" />
<glyph unicode="&#xd7;" horiz-adv-x="991" d="M895 371l-205 -203l-196 194l-195 -194l-203 203l193 194l-183 187l205 202l185 -184l184 184l203 -202l-185 -185z" />
<glyph unicode="&#xd8;" horiz-adv-x="1554" d="M1477 1454l-166 -233q90 -104 139 -233.5t49 -264.5q0 -143 -54 -276.5t-150.5 -234.5t-229.5 -162.5t-291 -61.5t-295 63l-37 -51h-362l162 227q-92 104 -140.5 234.5t-48.5 267.5q0 143 54.5 276.5t151.5 234.5t230.5 161.5t290.5 60.5q158 0 295 -63l39 55h363z M395 725q0 -57 11.5 -112.5t33.5 -104.5l453 637q-27 8 -55.5 13t-61.5 5q-96 0 -166.5 -38t-119 -99t-72 -140t-23.5 -161zM1157 729q0 55 -11 109.5t-34 103.5l-453 -639q55 -16 117 -16q96 0 168 39t119 101t70.5 141t23.5 161z" />
<glyph unicode="&#xd9;" horiz-adv-x="1529" d="M764 287q86 0 145.5 35.5t96 95t52 136.5t15.5 157v743h336v-743q0 -152 -38 -283t-116.5 -229.5t-200.5 -154.5t-290 -56q-174 0 -297 59t-200 158.5t-112.5 230.5t-35.5 275v743h336v-743q0 -84 16 -160t53 -135.5t95.5 -94t144.5 -34.5zM475 1876h297l107 -266 l-207 -58z" />
<glyph unicode="&#xda;" horiz-adv-x="1529" d="M858 1550l-209 58l107 266h297zM764 287q86 0 145.5 35.5t96 95t52 136.5t15.5 157v743h336v-743q0 -152 -38 -283t-116.5 -229.5t-200.5 -154.5t-290 -56q-174 0 -297 59t-200 158.5t-112.5 230.5t-35.5 275v743h336v-743q0 -84 16 -160t53 -135.5t95.5 -94t144.5 -34.5 z" />
<glyph unicode="&#xdb;" horiz-adv-x="1529" d="M422 1653l225 221h236l223 -221l-168 -74l-174 129l-174 -129zM764 287q86 0 145.5 35.5t96 95t52 136.5t15.5 157v743h336v-743q0 -152 -38 -283t-116.5 -229.5t-200.5 -154.5t-290 -56q-174 0 -297 59t-200 158.5t-112.5 230.5t-35.5 275v743h336v-743q0 -84 16 -160 t53 -135.5t95.5 -94t144.5 -34.5z" />
<glyph unicode="&#xdc;" horiz-adv-x="1529" d="M414 1595v265h270v-265h-270zM844 1595v265h270v-265h-270zM764 287q86 0 145.5 35.5t96 95t52 136.5t15.5 157v743h336v-743q0 -152 -38 -283t-116.5 -229.5t-200.5 -154.5t-290 -56q-174 0 -297 59t-200 158.5t-112.5 230.5t-35.5 275v743h336v-743q0 -84 16 -160 t53 -135.5t95.5 -94t144.5 -34.5z" />
<glyph unicode="&#xdd;" horiz-adv-x="1357" d="M365 1454l313 -668l317 668h367l-518 -958v-496h-334v500l-510 954h365zM770 1550l-209 58l107 266h297z" />
<glyph unicode="&#xde;" horiz-adv-x="1239" d="M727 1200q104 0 191.5 -43t149.5 -111.5t98 -156.5t36 -178q0 -96 -33.5 -185.5t-94 -158t-145.5 -109.5t-190 -41h-264v-217h-336v1454h336v-254h252zM721 512q61 0 103 56.5t42 142.5q0 90 -48 143t-107 53h-236v-395h246z" />
<glyph unicode="&#xdf;" horiz-adv-x="1146" d="M512 289q104 0 173 45t69 139q0 45 -17.5 79t-45 56.5t-61.5 33.5t-67 11h-45v293h43q59 0 90 33t31 86q0 39 -14.5 62.5t-35 37t-42 17.5t-35.5 4q-41 0 -66.5 -17.5t-40 -43t-19.5 -55.5t-5 -52v-1018h-311v1075q0 84 35.5 154.5t99 123t149.5 81t187 28.5 q88 0 162.5 -23.5t130 -66.5t86 -106.5t30.5 -143.5q0 -53 -13 -100t-35.5 -86t-52.5 -67.5t-63 -43.5q125 -41 197 -142t72 -249q0 -125 -50.5 -210t-133.5 -137t-187 -75.5t-215 -23.5v301z" />
<glyph unicode="&#xe0;" horiz-adv-x="1200" d="M418 -20q-80 0 -148.5 25.5t-118 71.5t-78 108.5t-28.5 136.5q0 80 34 145t95.5 112.5t145 74t186.5 26.5q68 0 131 -11.5t111 -33.5v49q0 186 -216 186q-88 0 -167.5 -29.5t-167.5 -88.5l-97 204q106 70 221 105t244 35q244 0 377 -115t133 -336v-276q0 -49 15.5 -68.5 t54.5 -24.5v-276q-43 -10 -78 -13t-63 -3q-92 0 -139.5 35.5t-59.5 101.5l-6 49q-72 -92 -171 -141t-210 -49zM514 215q53 0 103.5 18.5t82.5 49.5q47 37 48 77v103q-43 16 -93.5 25.5t-93.5 9.5q-90 0 -148.5 -41t-58.5 -107q0 -59 45 -97t115 -38zM276 1497h297l107 -266 l-207 -57z" />
<glyph unicode="&#xe1;" horiz-adv-x="1200" d="M418 -20q-80 0 -148.5 25.5t-118 71.5t-78 108.5t-28.5 136.5q0 80 34 145t95.5 112.5t145 74t186.5 26.5q68 0 131 -11.5t111 -33.5v49q0 186 -216 186q-88 0 -167.5 -29.5t-167.5 -88.5l-97 204q106 70 221 105t244 35q244 0 377 -115t133 -336v-276q0 -49 15.5 -68.5 t54.5 -24.5v-276q-43 -10 -78 -13t-63 -3q-92 0 -139.5 35.5t-59.5 101.5l-6 49q-72 -92 -171 -141t-210 -49zM514 215q53 0 103.5 18.5t82.5 49.5q47 37 48 77v103q-43 16 -93.5 25.5t-93.5 9.5q-90 0 -148.5 -41t-58.5 -107q0 -59 45 -97t115 -38zM659 1171l-208 58 l106 266h297z" />
<glyph unicode="&#xe2;" horiz-adv-x="1200" d="M418 -20q-80 0 -148.5 25.5t-118 71.5t-78 108.5t-28.5 136.5q0 80 34 145t95.5 112.5t145 74t186.5 26.5q68 0 131 -11.5t111 -33.5v49q0 186 -216 186q-88 0 -167.5 -29.5t-167.5 -88.5l-97 204q106 70 221 105t244 35q244 0 377 -115t133 -336v-276q0 -49 15.5 -68.5 t54.5 -24.5v-276q-43 -10 -78 -13t-63 -3q-92 0 -139.5 35.5t-59.5 101.5l-6 49q-72 -92 -171 -141t-210 -49zM514 215q53 0 103.5 18.5t82.5 49.5q47 37 48 77v103q-43 16 -93.5 25.5t-93.5 9.5q-90 0 -148.5 -41t-58.5 -107q0 -59 45 -97t115 -38zM223 1274l226 221h235 l223 -221l-168 -74l-174 129l-174 -129z" />
<glyph unicode="&#xe3;" horiz-adv-x="1200" d="M418 -20q-80 0 -148.5 25.5t-118 71.5t-78 108.5t-28.5 136.5q0 80 34 145t95.5 112.5t145 74t186.5 26.5q68 0 131 -11.5t111 -33.5v49q0 186 -216 186q-88 0 -167.5 -29.5t-167.5 -88.5l-97 204q106 70 221 105t244 35q244 0 377 -115t133 -336v-276q0 -49 15.5 -68.5 t54.5 -24.5v-276q-43 -10 -78 -13t-63 -3q-92 0 -139.5 35.5t-59.5 101.5l-6 49q-72 -92 -171 -141t-210 -49zM514 215q53 0 103.5 18.5t82.5 49.5q47 37 48 77v103q-43 16 -93.5 25.5t-93.5 9.5q-90 0 -148.5 -41t-58.5 -107q0 -59 45 -97t115 -38zM694 1204 q-47 0 -83 14.5t-66.5 33t-59 32.5t-63.5 14t-53.5 -14t-28.5 -32.5t-12 -34t-2 -17.5h-176q0 23 13 71t44 97t81 86t122 37q49 0 83.5 -15.5t64.5 -34t58.5 -33.5t65.5 -15q35 0 56.5 15t32.5 33.5t14 35t3 18.5h177q0 -16 -14.5 -63.5t-46.5 -98.5t-83 -90t-127 -39z" />
<glyph unicode="&#xe4;" horiz-adv-x="1200" d="M418 -20q-80 0 -148.5 25.5t-118 71.5t-78 108.5t-28.5 136.5q0 80 34 145t95.5 112.5t145 74t186.5 26.5q68 0 131 -11.5t111 -33.5v49q0 186 -216 186q-88 0 -167.5 -29.5t-167.5 -88.5l-97 204q106 70 221 105t244 35q244 0 377 -115t133 -336v-276q0 -49 15.5 -68.5 t54.5 -24.5v-276q-43 -10 -78 -13t-63 -3q-92 0 -139.5 35.5t-59.5 101.5l-6 49q-72 -92 -171 -141t-210 -49zM514 215q53 0 103.5 18.5t82.5 49.5q47 37 48 77v103q-43 16 -93.5 25.5t-93.5 9.5q-90 0 -148.5 -41t-58.5 -107q0 -59 45 -97t115 -38zM215 1217v264h270v-264 h-270zM645 1217v264h270v-264h-270z" />
<glyph unicode="&#xe5;" horiz-adv-x="1200" d="M418 -20q-80 0 -148.5 25.5t-118 71.5t-78 108.5t-28.5 136.5q0 80 34 145t95.5 112.5t145 74t186.5 26.5q68 0 131 -11.5t111 -33.5v49q0 186 -216 186q-88 0 -167.5 -29.5t-167.5 -88.5l-97 204q106 70 221 105t244 35q244 0 377 -115t133 -336v-276q0 -49 15.5 -68.5 t54.5 -24.5v-276q-43 -10 -78 -13t-63 -3q-92 0 -139.5 35.5t-59.5 101.5l-6 49q-72 -92 -171 -141t-210 -49zM514 215q53 0 103.5 18.5t82.5 49.5q47 37 48 77v103q-43 16 -93.5 25.5t-93.5 9.5q-90 0 -148.5 -41t-58.5 -107q0 -59 45 -97t115 -38zM346 1327q0 84 60.5 126 t158.5 42t157.5 -42t59.5 -126q0 -82 -59 -124t-158 -42q-98 0 -158.5 42t-60.5 124zM565 1399q-35 0 -58.5 -19.5t-23.5 -50.5t23.5 -51.5t58.5 -20.5q33 0 57.5 19.5t24.5 52.5q0 31 -23.5 50.5t-58.5 19.5z" />
<glyph unicode="&#xe6;" horiz-adv-x="1923" d="M416 -20q-80 0 -147.5 25.5t-117 71.5t-78 108.5t-28.5 136.5q0 80 34 145t95.5 112.5t145 74t186.5 26.5q66 0 125 -11.5t106 -29.5q0 10 2 31.5t6 29.5q-6 86 -57 128t-156 42q-88 0 -167.5 -29.5t-167.5 -88.5l-97 204q106 70 221 105t244 35q123 0 217.5 -34 t157.5 -97q70 59 162 95t209 36q137 0 244.5 -45t181 -122t112.5 -178.5t39 -213.5q0 -25 -3 -52.5t-7 -48.5h-799q4 -53 25.5 -95t55.5 -69.5t76 -42t87 -14.5q74 0 139.5 35t87.5 94l279 -78q-61 -127 -195.5 -206.5t-320.5 -79.5q-158 0 -276.5 58t-190.5 157 q-39 -57 -90 -98.5t-108.5 -67t-117 -37.5t-114.5 -12zM512 215q53 0 103.5 18.5t84.5 49.5q47 37 48 75q-2 4 -4.5 19.5t-3.5 34t-2 34t-1 21.5q-41 14 -88 22.5t-88 8.5q-90 0 -148.5 -41t-58.5 -107q0 -59 45 -97t113 -38zM1542 635q-10 102 -73.5 163.5t-161.5 61.5 t-161 -61.5t-73 -163.5h469z" />
<glyph unicode="&#xe7;" horiz-adv-x="1167" d="M461 -260q23 -14 76 -27.5t108 -13.5q49 0 82 14.5t33 50.5q0 35 -31 50.5t-80 15.5q-43 0 -91 -8t-71 -15l86 175q-123 8 -220 57t-164.5 125t-103.5 172t-36 203q0 111 39 212t112.5 178t181 122t245.5 45q186 0 313 -79t190 -206l-319 -96q-63 102 -186 102 q-102 0 -171 -75.5t-69 -202.5q0 -63 18.5 -115.5t51 -89.5t76.5 -57.5t94 -20.5q61 0 112 29.5t76 76.5l320 -98q-53 -111 -163 -187.5t-265 -92.5l-41 -62q27 6 61 6q74 0 129 -35.5t55 -115.5q0 -82 -69.5 -138.5t-216.5 -56.5q-72 0 -127.5 13.5t-96.5 29.5z" />
<glyph unicode="&#xe8;" horiz-adv-x="1236" d="M627 -20q-135 0 -243 44t-182.5 119.5t-113.5 175t-39 207.5q0 117 39 220.5t112.5 181.5t181 123t245.5 45q137 0 243.5 -45t180 -122t111.5 -177.5t38 -210.5q0 -29 -2 -56.5t-6 -48.5h-795q8 -109 79 -165t161 -56q72 0 138.5 35t88.5 94l279 -78 q-63 -127 -196.5 -206.5t-319.5 -79.5zM854 639q-10 102 -73.5 161.5t-157.5 59.5q-96 0 -159 -60.5t-73 -160.5h463zM334 1497h297l106 -266l-207 -57z" />
<glyph unicode="&#xe9;" horiz-adv-x="1236" d="M717 1171l-209 58l106 266h297zM627 -20q-135 0 -243 44t-182.5 119.5t-113.5 175t-39 207.5q0 117 39 220.5t112.5 181.5t181 123t245.5 45q137 0 243.5 -45t180 -122t111.5 -177.5t38 -210.5q0 -29 -2 -56.5t-6 -48.5h-795q8 -109 79 -165t161 -56q72 0 138.5 35 t88.5 94l279 -78q-63 -127 -196.5 -206.5t-319.5 -79.5zM854 639q-10 102 -73.5 161.5t-157.5 59.5q-96 0 -159 -60.5t-73 -160.5h463z" />
<glyph unicode="&#xea;" horiz-adv-x="1236" d="M281 1274l225 221h235l224 -221l-168 -74l-174 129l-174 -129zM627 -20q-135 0 -243 44t-182.5 119.5t-113.5 175t-39 207.5q0 117 39 220.5t112.5 181.5t181 123t245.5 45q137 0 243.5 -45t180 -122t111.5 -177.5t38 -210.5q0 -29 -2 -56.5t-6 -48.5h-795 q8 -109 79 -165t161 -56q72 0 138.5 35t88.5 94l279 -78q-63 -127 -196.5 -206.5t-319.5 -79.5zM854 639q-10 102 -73.5 161.5t-157.5 59.5q-96 0 -159 -60.5t-73 -160.5h463z" />
<glyph unicode="&#xeb;" horiz-adv-x="1236" d="M274 1217v264h271v-264h-271zM705 1217v264h270v-264h-270zM627 -20q-135 0 -243 44t-182.5 119.5t-113.5 175t-39 207.5q0 117 39 220.5t112.5 181.5t181 123t245.5 45q137 0 243.5 -45t180 -122t111.5 -177.5t38 -210.5q0 -29 -2 -56.5t-6 -48.5h-795q8 -109 79 -165 t161 -56q72 0 138.5 35t88.5 94l279 -78q-63 -127 -196.5 -206.5t-319.5 -79.5zM854 639q-10 102 -73.5 161.5t-157.5 59.5q-96 0 -159 -60.5t-73 -160.5h463z" />
<glyph unicode="&#xec;" horiz-adv-x="552" d="M113 0v1075h327v-1075h-327zM-14 1497h297l106 -266l-207 -57z" />
<glyph unicode="&#xed;" horiz-adv-x="552" d="M369 1171l-209 58l106 266h297zM113 0v1075h327v-1075h-327z" />
<glyph unicode="&#xee;" horiz-adv-x="552" d="M-66 1274l226 221h235l223 -221l-167 -74l-175 129l-174 -129zM113 0v1075h327v-1075h-327z" />
<glyph unicode="&#xef;" horiz-adv-x="552" d="M-74 1217v264h271v-264h-271zM356 1217v264h271v-264h-271zM113 0v1075h327v-1075h-327z" />
<glyph unicode="&#xf0;" horiz-adv-x="1263" d="M1100 1333l-135 -71q117 -141 179 -316.5t62 -349.5q0 -145 -42 -259t-117.5 -194t-183 -121.5t-236.5 -41.5q-123 0 -228.5 37.5t-181.5 104t-119 158t-43 199.5q0 100 38 189.5t104.5 156t155.5 104.5t194 38q96 0 180 -36t141 -95q-41 172 -153 315l-174 -94l-92 125 l157 84q-137 121 -344 229h408q98 -47 184 -121l156 84zM391 479q0 -98 66.5 -160.5t171.5 -62.5q106 0 172.5 64.5t66.5 162.5t-66.5 160t-170.5 62t-172 -64t-68 -162z" />
<glyph unicode="&#xf1;" horiz-adv-x="1253" d="M1149 0h-328v604q0 106 -40 154.5t-105 48.5q-35 0 -70 -14.5t-67.5 -40t-58 -60.5t-40.5 -76v-616h-327v1075h295v-180q59 96 167.5 148.5t249.5 52.5q104 0 168 -38t98.5 -98.5t46 -132t11.5 -139.5v-688zM795 1204q-47 0 -83 14.5t-67 33t-59.5 32.5t-63.5 14t-53 -14 t-28.5 -32.5t-12.5 -34t-2 -17.5h-176q0 23 13 71t44 97t81 86t122 37q49 0 84 -15.5t64.5 -34t58 -33.5t65.5 -15q35 0 56.5 15t33 33.5t14.5 35t3 18.5h176q0 -16 -14.5 -63.5t-46 -98.5t-82.5 -90t-127 -39z" />
<glyph unicode="&#xf2;" horiz-adv-x="1249" d="M625 -20q-137 0 -245 45t-181.5 121.5t-111.5 178t-38 212.5t38 212t111.5 178t181 123t245.5 46q137 0 243.5 -46t180 -123t112.5 -178.5t39 -211.5q0 -111 -38 -212.5t-111.5 -178t-181 -121.5t-244.5 -45zM385 537q0 -127 67.5 -204t172.5 -77q51 0 94 20.5t74.5 57.5 t50 89t18.5 114q0 127 -67.5 203.5t-169.5 76.5q-51 0 -95.5 -20.5t-76 -57.5t-50 -89t-18.5 -113zM336 1497h297l106 -266l-207 -57z" />
<glyph unicode="&#xf3;" horiz-adv-x="1249" d="M717 1171l-209 58l106 266h297zM625 -20q-137 0 -245 45t-181.5 121.5t-111.5 178t-38 212.5t38 212t111.5 178t181 123t245.5 46q137 0 243.5 -46t180 -123t112.5 -178.5t39 -211.5q0 -111 -38 -212.5t-111.5 -178t-181 -121.5t-244.5 -45zM385 537q0 -127 67.5 -204 t172.5 -77q51 0 94 20.5t74.5 57.5t50 89t18.5 114q0 127 -67.5 203.5t-169.5 76.5q-51 0 -95.5 -20.5t-76 -57.5t-50 -89t-18.5 -113z" />
<glyph unicode="&#xf4;" horiz-adv-x="1249" d="M281 1274l225 221h235l224 -221l-168 -74l-174 129l-174 -129zM625 -20q-137 0 -245 45t-181.5 121.5t-111.5 178t-38 212.5t38 212t111.5 178t181 123t245.5 46q137 0 243.5 -46t180 -123t112.5 -178.5t39 -211.5q0 -111 -38 -212.5t-111.5 -178t-181 -121.5t-244.5 -45 zM385 537q0 -127 67.5 -204t172.5 -77q51 0 94 20.5t74.5 57.5t50 89t18.5 114q0 127 -67.5 203.5t-169.5 76.5q-51 0 -95.5 -20.5t-76 -57.5t-50 -89t-18.5 -113z" />
<glyph unicode="&#xf5;" horiz-adv-x="1249" d="M625 -20q-137 0 -245 45t-181.5 121.5t-111.5 178t-38 212.5t38 212t111.5 178t181 123t245.5 46q137 0 243.5 -46t180 -123t112.5 -178.5t39 -211.5q0 -111 -38 -212.5t-111.5 -178t-181 -121.5t-244.5 -45zM385 537q0 -127 67.5 -204t172.5 -77q51 0 94 20.5t74.5 57.5 t50 89t18.5 114q0 127 -67.5 203.5t-169.5 76.5q-51 0 -95.5 -20.5t-76 -57.5t-50 -89t-18.5 -113zM754 1204q-47 0 -83 14.5t-67 33t-59.5 32.5t-63.5 14t-53 -14t-28.5 -32.5t-12.5 -34t-2 -17.5h-176q0 23 13.5 71t44 97t80.5 86t122 37q49 0 84 -15.5t64.5 -34 t58.5 -33.5t65 -15q35 0 56.5 15t33 33.5t14.5 35t3 18.5h176q0 -16 -14.5 -63.5t-46 -98.5t-82.5 -90t-127 -39z" />
<glyph unicode="&#xf6;" horiz-adv-x="1249" d="M274 1217v264h271v-264h-271zM705 1217v264h270v-264h-270zM625 -20q-137 0 -245 45t-181.5 121.5t-111.5 178t-38 212.5t38 212t111.5 178t181 123t245.5 46q137 0 243.5 -46t180 -123t112.5 -178.5t39 -211.5q0 -111 -38 -212.5t-111.5 -178t-181 -121.5t-244.5 -45z M385 537q0 -127 67.5 -204t172.5 -77q51 0 94 20.5t74.5 57.5t50 89t18.5 114q0 127 -67.5 203.5t-169.5 76.5q-51 0 -95.5 -20.5t-76 -57.5t-50 -89t-18.5 -113z" />
<glyph unicode="&#xf7;" horiz-adv-x="1021" d="M375 872v293h274v-293h-274zM375 78v293h274v-293h-274zM98 492v260h828v-260h-828z" />
<glyph unicode="&#xf8;" horiz-adv-x="1249" d="M68 -10l133 153q-74 78 -113 179.5t-39 214.5q0 111 38 212t111.5 178t181 123t245.5 46q90 0 165.5 -20.5t139.5 -55.5l55 65h180l-127 -147q78 -78 120 -181.5t42 -219.5q0 -111 -38 -212.5t-111.5 -178t-181 -121.5t-244.5 -45q-184 0 -318 81l-61 -71h-178zM625 256 q51 0 94 20.5t74.5 57.5t50 89t18.5 114q0 90 -39 157l-325 -401q51 -37 127 -37zM385 537q0 -88 33 -152l323 399q-55 33 -116 33q-51 0 -95.5 -20.5t-76 -57.5t-50 -89t-18.5 -113z" />
<glyph unicode="&#xf9;" horiz-adv-x="1284" d="M438 -20q-166 0 -251 103t-85 304v688h328v-616q0 -98 39 -150.5t111 -52.5q66 0 127 35t108 121v663h328v-706q0 -49 15.5 -68.5t53.5 -24.5v-276q-47 -10 -79.5 -13t-59.5 -3q-176 0 -201 137l-6 65q-74 -106 -183.5 -156t-244.5 -50zM334 1497h297l106 -266l-207 -57z " />
<glyph unicode="&#xfa;" horiz-adv-x="1284" d="M717 1171l-209 58l106 266h297zM438 -20q-166 0 -251 103t-85 304v688h328v-616q0 -98 39 -150.5t111 -52.5q66 0 127 35t108 121v663h328v-706q0 -49 15.5 -68.5t53.5 -24.5v-276q-47 -10 -79.5 -13t-59.5 -3q-176 0 -201 137l-6 65q-74 -106 -183.5 -156t-244.5 -50z " />
<glyph unicode="&#xfb;" horiz-adv-x="1284" d="M281 1274l225 221h235l224 -221l-168 -74l-174 129l-174 -129zM438 -20q-166 0 -251 103t-85 304v688h328v-616q0 -98 39 -150.5t111 -52.5q66 0 127 35t108 121v663h328v-706q0 -49 15.5 -68.5t53.5 -24.5v-276q-47 -10 -79.5 -13t-59.5 -3q-176 0 -201 137l-6 65 q-74 -106 -183.5 -156t-244.5 -50z" />
<glyph unicode="&#xfc;" horiz-adv-x="1284" d="M272 1217v264h271v-264h-271zM702 1217v264h271v-264h-271zM438 -20q-166 0 -251 103t-85 304v688h328v-616q0 -98 39 -150.5t111 -52.5q66 0 127 35t108 121v663h328v-706q0 -49 15.5 -68.5t53.5 -24.5v-276q-47 -10 -79.5 -13t-59.5 -3q-176 0 -201 137l-6 65 q-74 -106 -183.5 -156t-244.5 -50z" />
<glyph unicode="&#xfd;" horiz-adv-x="1130" d="M121 -162q41 -14 76.5 -20t64.5 -6q59 0 92 41t60 147l-410 1075h338l250 -794l215 794h307l-409 -1249q-43 -133 -154 -216t-262 -83q-41 0 -83 7t-85 24v280zM686 1171l-209 58l107 266h297z" />
<glyph unicode="&#xfe;" horiz-adv-x="1228" d="M1182 524q0 -115 -43 -220t-118 -185t-174 -127t-210 -47q-86 0 -132 25.5t-56 45.5v-452h-336v1890h336v-424q14 20 61 49t143 29q121 0 219.5 -52t167 -135t105.5 -188t37 -209zM846 530q0 57 -14.5 109.5t-42 91.5t-66.5 61.5t-90 22.5q-66 0 -110 -38t-74 -97v-318 q0 -18 15 -40.5t40.5 -41t57.5 -30.5t65 -12q47 0 87 22.5t69.5 61t46 93t16.5 115.5z" />
<glyph unicode="&#xff;" horiz-adv-x="1130" d="M121 -162q41 -14 76.5 -20t64.5 -6q59 0 92 41t60 147l-410 1075h338l250 -794l215 794h307l-409 -1249q-43 -133 -154 -216t-262 -83q-41 0 -83 7t-85 24v280zM244 1217v264h270v-264h-270zM674 1217v264h270v-264h-270z" />
<glyph unicode="&#x100;" d="M535 1454h303l530 -1454h-344l-113 326h-452l-111 -326h-344zM856 557l-170 514l-174 -514h344zM377 1651v198h622v-198h-622z" />
<glyph unicode="&#x101;" horiz-adv-x="1200" d="M418 -20q-80 0 -148.5 25.5t-118 71.5t-78 108.5t-28.5 136.5q0 80 34 145t95.5 112.5t145 74t186.5 26.5q68 0 131 -11.5t111 -33.5v49q0 186 -216 186q-88 0 -167.5 -29.5t-167.5 -88.5l-97 204q106 70 221 105t244 35q244 0 377 -115t133 -336v-276q0 -49 15.5 -68.5 t54.5 -24.5v-276q-43 -10 -78 -13t-63 -3q-92 0 -139.5 35.5t-59.5 101.5l-6 49q-72 -92 -171 -141t-210 -49zM514 215q53 0 103.5 18.5t82.5 49.5q47 37 48 77v103q-43 16 -93.5 25.5t-93.5 9.5q-90 0 -148.5 -41t-58.5 -107q0 -59 45 -97t115 -38zM256 1272v198h623v-198 h-623z" />
<glyph unicode="&#x102;" d="M535 1454h303l530 -1454h-344l-113 326h-452l-111 -326h-344zM856 557l-170 514l-174 -514h344zM686 1716q47 0 83 44t42 114h170q0 -66 -21.5 -121t-60.5 -95t-93 -62.5t-120 -22.5t-119 22.5t-93 62.5t-61.5 95t-21.5 121h174q0 -66 36 -112t85 -46z" />
<glyph unicode="&#x103;" horiz-adv-x="1200" d="M418 -20q-80 0 -148.5 25.5t-118 71.5t-78 108.5t-28.5 136.5q0 80 34 145t95.5 112.5t145 74t186.5 26.5q68 0 131 -11.5t111 -33.5v49q0 186 -216 186q-88 0 -167.5 -29.5t-167.5 -88.5l-97 204q106 70 221 105t244 35q244 0 377 -115t133 -336v-276q0 -49 15.5 -68.5 t54.5 -24.5v-276q-43 -10 -78 -13t-63 -3q-92 0 -139.5 35.5t-59.5 101.5l-6 49q-72 -92 -171 -141t-210 -49zM514 215q53 0 103.5 18.5t82.5 49.5q47 37 48 77v103q-43 16 -93.5 25.5t-93.5 9.5q-90 0 -148.5 -41t-58.5 -107q0 -59 45 -97t115 -38zM563 1337q47 0 83 44 t42 114h170q0 -66 -21.5 -121t-60.5 -95t-93 -62.5t-120 -22.5t-119 22.5t-93 62.5t-61.5 95.5t-21.5 120.5h174q0 -66 36 -112t85 -46z" />
<glyph unicode="&#x104;" horiz-adv-x="1390" d="M1284 -420q-137 16 -203.5 69.5t-66.5 121.5q0 59 43 117.5t129 111.5h-162l-113 326h-452l-111 -326h-344l531 1454h303l530 -1454q-154 -92 -154 -168q0 -35 33 -56.5t101 -23.5zM856 557l-170 514l-174 -514h344z" />
<glyph unicode="&#x105;" horiz-adv-x="1200" d="M1061 -420q-137 16 -203.5 69.5t-66.5 121.5q0 115 153 217q-121 20 -139 133l-6 49q-72 -92 -171.5 -141t-209.5 -49q-80 0 -148.5 25.5t-118 71.5t-78 108.5t-28.5 136.5q0 80 34 145t95.5 112.5t145 74t186.5 26.5q68 0 131 -11.5t111 -33.5v49q0 186 -216 186 q-88 0 -167.5 -29.5t-167.5 -88.5l-97 204q106 70 221 105t244 35q244 0 377 -115t133 -336v-276q0 -49 15.5 -68.5t54.5 -24.5v-276q-154 -92 -154 -168q0 -35 33 -56.5t100 -23.5zM514 215q53 0 103.5 18.5t82.5 49.5q47 37 48 77v103q-43 16 -93.5 25.5t-93.5 9.5 q-90 0 -148.5 -41t-58.5 -107q0 -59 45 -97t115 -38z" />
<glyph unicode="&#x106;" horiz-adv-x="1409" d="M885 1550l-209 58l106 266h297zM55 739q0 131 49.5 261t143.5 232.5t229 166t307 63.5q205 0 355.5 -88t224.5 -229l-258 -180q-25 57 -62.5 95t-83 61.5t-92.5 32.5t-92 9q-96 0 -167.5 -39t-119 -100t-70 -139t-22.5 -158q0 -86 27 -166t77 -141.5t120.5 -97 t158.5 -35.5q45 0 93.5 11t92.5 34.5t80.5 61.5t59.5 93l274 -161q-33 -80 -97 -143.5t-148 -106.5t-178.5 -65.5t-184.5 -22.5q-158 0 -290 64.5t-227 171t-147.5 241.5t-52.5 274z" />
<glyph unicode="&#x107;" horiz-adv-x="1167" d="M719 1171l-209 58l106 266h297zM49 539q0 111 39 212t112.5 178t181 122t245.5 45q186 0 313 -79t190 -206l-319 -96q-63 102 -186 102q-102 0 -171 -75.5t-69 -202.5q0 -63 18.5 -115.5t51 -89.5t76.5 -57.5t94 -20.5q61 0 112 29.5t76 76.5l320 -98 q-59 -125 -189.5 -204.5t-316.5 -79.5q-135 0 -243 46t-182.5 122.5t-113.5 178t-39 212.5z" />
<glyph unicode="&#x108;" horiz-adv-x="1409" d="M436 1653l226 221h235l223 -221l-168 -74l-174 129l-174 -129zM55 739q0 131 49.5 261t143.5 232.5t229 166t307 63.5q205 0 355.5 -88t224.5 -229l-258 -180q-25 57 -62.5 95t-83 61.5t-92.5 32.5t-92 9q-96 0 -167.5 -39t-119 -100t-70 -139t-22.5 -158q0 -86 27 -166 t77 -141.5t120.5 -97t158.5 -35.5q45 0 93.5 11t92.5 34.5t80.5 61.5t59.5 93l274 -161q-33 -80 -97 -143.5t-148 -106.5t-178.5 -65.5t-184.5 -22.5q-158 0 -290 64.5t-227 171t-147.5 241.5t-52.5 274z" />
<glyph unicode="&#x109;" horiz-adv-x="1167" d="M283 1274l225 221h235l224 -221l-168 -74l-174 129l-174 -129zM49 539q0 111 39 212t112.5 178t181 122t245.5 45q186 0 313 -79t190 -206l-319 -96q-63 102 -186 102q-102 0 -171 -75.5t-69 -202.5q0 -63 18.5 -115.5t51 -89.5t76.5 -57.5t94 -20.5q61 0 112 29.5 t76 76.5l320 -98q-59 -125 -189.5 -204.5t-316.5 -79.5q-135 0 -243 46t-182.5 122.5t-113.5 178t-39 212.5z" />
<glyph unicode="&#x10a;" horiz-adv-x="1409" d="M55 739q0 131 49.5 261t143.5 232.5t229 166t307 63.5q205 0 355.5 -88t224.5 -229l-258 -180q-25 57 -62.5 95t-83 61.5t-92.5 32.5t-92 9q-96 0 -167.5 -39t-119 -100t-70 -139t-22.5 -158q0 -86 27 -166t77 -141.5t120.5 -97t158.5 -35.5q45 0 93.5 11t92.5 34.5 t80.5 61.5t59.5 93l274 -161q-33 -80 -97 -143.5t-148 -106.5t-178.5 -65.5t-184.5 -22.5q-158 0 -290 64.5t-227 171t-147.5 241.5t-52.5 274zM643 1593v281h295v-281h-295z" />
<glyph unicode="&#x10b;" horiz-adv-x="1167" d="M49 539q0 111 39 212t112.5 178t181 122t245.5 45q186 0 313 -79t190 -206l-319 -96q-63 102 -186 102q-102 0 -171 -75.5t-69 -202.5q0 -63 18.5 -115.5t51 -89.5t76.5 -57.5t94 -20.5q61 0 112 29.5t76 76.5l320 -98q-59 -125 -189.5 -204.5t-316.5 -79.5 q-135 0 -243 46t-182.5 122.5t-113.5 178t-39 212.5zM479 1214v281h295v-281h-295z" />
<glyph unicode="&#x10c;" horiz-adv-x="1409" d="M623 1874l174 -129l174 129l168 -76l-224 -219h-235l-225 219zM55 739q0 131 49.5 261t143.5 232.5t229 166t307 63.5q205 0 355.5 -88t224.5 -229l-258 -180q-25 57 -62.5 95t-83 61.5t-92.5 32.5t-92 9q-96 0 -167.5 -39t-119 -100t-70 -139t-22.5 -158q0 -86 27 -166 t77 -141.5t120.5 -97t158.5 -35.5q45 0 93.5 11t92.5 34.5t80.5 61.5t59.5 93l274 -161q-33 -80 -97 -143.5t-148 -106.5t-178.5 -65.5t-184.5 -22.5q-158 0 -290 64.5t-227 171t-147.5 241.5t-52.5 274z" />
<glyph unicode="&#x10d;" horiz-adv-x="1167" d="M451 1495l174 -129l174 129l168 -76l-224 -219h-235l-225 219zM49 539q0 111 39 212t112.5 178t181 122t245.5 45q186 0 313 -79t190 -206l-319 -96q-63 102 -186 102q-102 0 -171 -75.5t-69 -202.5q0 -63 18.5 -115.5t51 -89.5t76.5 -57.5t94 -20.5q61 0 112 29.5 t76 76.5l320 -98q-59 -125 -189.5 -204.5t-316.5 -79.5q-135 0 -243 46t-182.5 122.5t-113.5 178t-39 212.5z" />
<glyph unicode="&#x10e;" horiz-adv-x="1466" d="M489 1874l175 -129l174 129l168 -76l-224 -219h-235l-225 219zM139 0v1454h543q180 0 315.5 -57.5t226.5 -155.5t137 -230t46 -282q0 -166 -51 -300t-146.5 -229.5t-229.5 -147.5t-298 -52h-543zM1065 729q0 96 -25.5 175t-75 136.5t-121 88t-161.5 30.5h-207v-864h207 q92 0 164 32.5t120 91t73.5 137.5t25.5 173z" />
<glyph unicode="&#x10f;" horiz-adv-x="1339" d="M1456 1171l-209 58l107 266h297zM559 -20q-111 0 -204 41.5t-160.5 117.5t-105.5 177.5t-38 222.5q0 117 35 219t98.5 177t150.5 118t191 43q113 0 204 -53.5t140 -143.5v596h328v-1126q0 -49 15.5 -68.5t54.5 -24.5v-276q-45 -10 -78 -13t-62 -3q-86 0 -139 35.5 t-61 103.5l-6 55q-57 -100 -154.5 -149t-208.5 -49zM647 256q68 0 130.5 40t94.5 110v225q-31 82 -99 134t-142 52q-53 0 -97.5 -23.5t-77 -62.5t-50 -90t-17.5 -109q0 -59 19.5 -110t53.5 -88t82 -57.5t103 -20.5z" />
<glyph unicode="&#x110;" horiz-adv-x="1476" d="M150 0v610h-89v242h89v602h542q180 0 315.5 -57.5t226.5 -155.5t137 -230t46 -282q0 -166 -51 -300t-146.5 -229.5t-229.5 -147.5t-298 -52h-542zM1075 729q0 96 -25.5 175t-74.5 136.5t-121 88t-162 30.5h-207v-307h263v-242h-263v-315h207q92 0 164 32.5t120 91 t73.5 137.5t25.5 173z" />
<glyph unicode="&#x111;" horiz-adv-x="1339" d="M559 -20q-111 0 -204 41.5t-160.5 117.5t-105.5 177.5t-38 222.5q0 117 35 219t98.5 177t150.5 118t191 43q113 0 204 -53.5t140 -143.5v305h-190v193h190v98h328v-98h125v-193h-125v-835q0 -49 15.5 -68.5t54.5 -24.5v-276q-45 -10 -78 -13t-62 -3q-86 0 -139 35.5 t-61 103.5l-6 55q-57 -100 -154.5 -149t-208.5 -49zM647 256q68 0 130.5 40t94.5 110v225q-31 82 -99 134t-142 52q-53 0 -97.5 -23.5t-77 -62.5t-50 -90t-17.5 -109q0 -59 19.5 -110t53.5 -88t82 -57.5t103 -20.5z" />
<glyph unicode="&#x112;" horiz-adv-x="1226" d="M1161 295v-295h-1022v1454h1004v-295h-668v-282h574v-273h-574v-309h686zM348 1651v198h623v-198h-623z" />
<glyph unicode="&#x113;" horiz-adv-x="1236" d="M627 -20q-135 0 -243 44t-182.5 119.5t-113.5 175t-39 207.5q0 117 39 220.5t112.5 181.5t181 123t245.5 45q137 0 243.5 -45t180 -122t111.5 -177.5t38 -210.5q0 -29 -2 -56.5t-6 -48.5h-795q8 -109 79 -165t161 -56q72 0 138.5 35t88.5 94l279 -78 q-63 -127 -196.5 -206.5t-319.5 -79.5zM854 639q-10 102 -73.5 161.5t-157.5 59.5q-96 0 -159 -60.5t-73 -160.5h463zM313 1272v198h623v-198h-623z" />
<glyph unicode="&#x114;" horiz-adv-x="1226" d="M1161 295v-295h-1022v1454h1004v-295h-668v-282h574v-273h-574v-309h686zM657 1716q47 0 83 44t42 114h170q0 -66 -21.5 -121t-60.5 -95t-93 -62.5t-120 -22.5t-119 22.5t-92.5 62.5t-61.5 95t-22 121h175q0 -66 35.5 -112t84.5 -46z" />
<glyph unicode="&#x115;" horiz-adv-x="1236" d="M627 -20q-135 0 -243 44t-182.5 119.5t-113.5 175t-39 207.5q0 117 39 220.5t112.5 181.5t181 123t245.5 45q137 0 243.5 -45t180 -122t111.5 -177.5t38 -210.5q0 -29 -2 -56.5t-6 -48.5h-795q8 -109 79 -165t161 -56q72 0 138.5 35t88.5 94l279 -78 q-63 -127 -196.5 -206.5t-319.5 -79.5zM854 639q-10 102 -73.5 161.5t-157.5 59.5q-96 0 -159 -60.5t-73 -160.5h463zM623 1337q47 0 82.5 44t42.5 114h170q0 -66 -22 -121t-60.5 -95t-93 -62.5t-119.5 -22.5q-66 0 -119 22.5t-93 62.5t-61.5 95.5t-21.5 120.5h174 q0 -66 36 -112t85 -46z" />
<glyph unicode="&#x116;" horiz-adv-x="1226" d="M1161 295v-295h-1022v1454h1004v-295h-668v-282h574v-273h-574v-309h686zM512 1593v281h295v-281h-295z" />
<glyph unicode="&#x117;" horiz-adv-x="1236" d="M627 -20q-135 0 -243 44t-182.5 119.5t-113.5 175t-39 207.5q0 117 39 220.5t112.5 181.5t181 123t245.5 45q137 0 243.5 -45t180 -122t111.5 -177.5t38 -210.5q0 -29 -2 -56.5t-6 -48.5h-795q8 -109 79 -165t161 -56q72 0 138.5 35t88.5 94l279 -78 q-63 -127 -196.5 -206.5t-319.5 -79.5zM854 639q-10 102 -73.5 161.5t-157.5 59.5q-96 0 -159 -60.5t-73 -160.5h463zM477 1214v281h295v-281h-295z" />
<glyph unicode="&#x118;" horiz-adv-x="1228" d="M1161 295v-295q-154 -92 -153 -168q0 -35 32.5 -56.5t100.5 -23.5l-64 -172q-137 16 -203.5 69.5t-66.5 121.5q0 59 43 117.5t129 111.5h-840v1454h1004v-295h-668v-282h574v-273h-574v-309h686z" />
<glyph unicode="&#x119;" horiz-adv-x="1236" d="M711 -420q-137 16 -204 69.5t-67 121.5q0 113 144 211q-127 6 -225.5 53t-168 120.5t-105.5 170t-36 200.5q0 117 39 220.5t112.5 181.5t181 123t245.5 45q137 0 243.5 -45t180 -122t111.5 -177.5t38 -210.5q0 -29 -2 -56.5t-6 -48.5h-795q8 -109 79 -165t161 -56 q72 0 138.5 35t88.5 94l279 -78q-47 -98 -137.5 -167.5t-212.5 -98.5q-152 -92 -152 -168q0 -35 33 -56.5t100 -23.5zM854 639q-10 102 -73.5 161.5t-157.5 59.5q-96 0 -159 -60.5t-73 -160.5h463z" />
<glyph unicode="&#x11a;" horiz-adv-x="1226" d="M483 1874l174 -129l174 129l168 -76l-223 -219h-235l-226 219zM1161 295v-295h-1022v1454h1004v-295h-668v-282h574v-273h-574v-309h686z" />
<glyph unicode="&#x11b;" horiz-adv-x="1236" d="M449 1495l174 -129l174 129l168 -76l-224 -219h-235l-225 219zM627 -20q-135 0 -243 44t-182.5 119.5t-113.5 175t-39 207.5q0 117 39 220.5t112.5 181.5t181 123t245.5 45q137 0 243.5 -45t180 -122t111.5 -177.5t38 -210.5q0 -29 -2 -56.5t-6 -48.5h-795 q8 -109 79 -165t161 -56q72 0 138.5 35t88.5 94l279 -78q-63 -127 -196.5 -206.5t-319.5 -79.5zM854 639q-10 102 -73.5 161.5t-157.5 59.5q-96 0 -159 -60.5t-73 -160.5h463z" />
<glyph unicode="&#x11c;" horiz-adv-x="1499" d="M442 1653l226 221h235l223 -221l-168 -74l-174 129l-174 -129zM1139 143q-166 -154 -383 -153q-143 0 -270.5 54t-222.5 152.5t-150.5 236.5t-55.5 304q0 150 55.5 283t152.5 231.5t230.5 155.5t286.5 57q203 0 354.5 -85t227.5 -232l-250 -189q-49 98 -142 152.5 t-202 54.5q-84 0 -152.5 -33.5t-117.5 -94t-76 -140.5t-27 -172q0 -94 29 -174t80 -138.5t121.5 -91t156.5 -32.5q197 0 355 182v45h-283v244h561v-760h-278v143z" />
<glyph unicode="&#x11d;" horiz-adv-x="1310" d="M367 1274l225 221h235l224 -221l-168 -74l-174 129l-174 -129zM530 -4q-106 0 -194 43t-150.5 116.5t-97.5 172t-35 211.5q0 119 37 220t102.5 176t157.5 118t203 43q123 0 214 -52.5t146 -144.5v176h285v-1001q0 -123 -46 -221.5t-128 -167t-196.5 -105.5t-252.5 -37 q-174 0 -296.5 55.5t-215.5 159.5l177 179q59 -68 147 -108t188 -40q59 0 112.5 16.5t94.5 50t64.5 88t23.5 130.5v104q-49 -90 -141.5 -136t-198.5 -46zM643 256q76 0 135.5 42t91.5 108v225q-33 86 -100.5 136t-142.5 50q-53 0 -97.5 -23.5t-76 -63.5t-49 -92t-17.5 -108 q0 -59 19.5 -109t54.5 -87t81 -57.5t101 -20.5z" />
<glyph unicode="&#x11e;" horiz-adv-x="1499" d="M1139 143q-166 -154 -383 -153q-143 0 -270.5 54t-222.5 152.5t-150.5 236.5t-55.5 304q0 150 55.5 283t152.5 231.5t230.5 155.5t286.5 57q203 0 354.5 -85t227.5 -232l-250 -189q-49 98 -142 152.5t-202 54.5q-84 0 -152.5 -33.5t-117.5 -94t-76 -140.5t-27 -172 q0 -94 29 -174t80 -138.5t121.5 -91t156.5 -32.5q197 0 355 182v45h-283v244h561v-760h-278v143zM784 1716q47 0 83 44t42 114h170q0 -66 -21.5 -121t-60.5 -95t-93 -62.5t-120 -22.5t-119 22.5t-93 62.5t-61.5 95t-21.5 121h175q0 -66 35.5 -112t84.5 -46z" />
<glyph unicode="&#x11f;" horiz-adv-x="1310" d="M530 -4q-106 0 -194 43t-150.5 116.5t-97.5 172t-35 211.5q0 119 37 220t102.5 176t157.5 118t203 43q123 0 214 -52.5t146 -144.5v176h285v-1001q0 -123 -46 -221.5t-128 -167t-196.5 -105.5t-252.5 -37q-174 0 -296.5 55.5t-215.5 159.5l177 179q59 -68 147 -108 t188 -40q59 0 112.5 16.5t94.5 50t64.5 88t23.5 130.5v104q-49 -90 -141.5 -136t-198.5 -46zM643 256q76 0 135.5 42t91.5 108v225q-33 86 -100.5 136t-142.5 50q-53 0 -97.5 -23.5t-76 -63.5t-49 -92t-17.5 -108q0 -59 19.5 -109t54.5 -87t81 -57.5t101 -20.5zM709 1337 q47 0 82.5 44t42.5 114h170q0 -66 -21.5 -121t-60.5 -95t-93.5 -62.5t-119.5 -22.5q-66 0 -119 22.5t-93 62.5t-61.5 95.5t-21.5 120.5h174q0 -66 36 -112t85 -46z" />
<glyph unicode="&#x120;" horiz-adv-x="1499" d="M1139 143q-166 -154 -383 -153q-143 0 -270.5 54t-222.5 152.5t-150.5 236.5t-55.5 304q0 150 55.5 283t152.5 231.5t230.5 155.5t286.5 57q203 0 354.5 -85t227.5 -232l-250 -189q-49 98 -142 152.5t-202 54.5q-84 0 -152.5 -33.5t-117.5 -94t-76 -140.5t-27 -172 q0 -94 29 -174t80 -138.5t121.5 -91t156.5 -32.5q197 0 355 182v45h-283v244h561v-760h-278v143zM641 1593v281h295v-281h-295z" />
<glyph unicode="&#x121;" horiz-adv-x="1310" d="M530 -4q-106 0 -194 43t-150.5 116.5t-97.5 172t-35 211.5q0 119 37 220t102.5 176t157.5 118t203 43q123 0 214 -52.5t146 -144.5v176h285v-1001q0 -123 -46 -221.5t-128 -167t-196.5 -105.5t-252.5 -37q-174 0 -296.5 55.5t-215.5 159.5l177 179q59 -68 147 -108 t188 -40q59 0 112.5 16.5t94.5 50t64.5 88t23.5 130.5v104q-49 -90 -141.5 -136t-198.5 -46zM643 256q76 0 135.5 42t91.5 108v225q-33 86 -100.5 136t-142.5 50q-53 0 -97.5 -23.5t-76 -63.5t-49 -92t-17.5 -108q0 -59 19.5 -109t54.5 -87t81 -57.5t101 -20.5zM561 1214 v281h295v-281h-295z" />
<glyph unicode="&#x122;" horiz-adv-x="1499" d="M657 -436l64 137h-98v203h274v-203l-96 -137h-144zM1139 143q-166 -154 -383 -153q-143 0 -270.5 54t-222.5 152.5t-150.5 236.5t-55.5 304q0 150 55.5 283t152.5 231.5t230.5 155.5t286.5 57q203 0 354.5 -85t227.5 -232l-250 -189q-49 98 -142 152.5t-202 54.5 q-84 0 -152.5 -33.5t-117.5 -94t-76 -140.5t-27 -172q0 -94 29 -174t80 -138.5t121.5 -91t156.5 -32.5q197 0 355 182v45h-283v244h561v-760h-278v143z" />
<glyph unicode="&#x123;" horiz-adv-x="1310" d="M780 1534l-63 -137h98v-203h-274v203l96 137h143zM530 -4q-106 0 -194 43t-150.5 116.5t-97.5 172t-35 211.5q0 119 37 220t102.5 176t157.5 118t203 43q123 0 214 -52.5t146 -144.5v176h285v-1001q0 -123 -46 -221.5t-128 -167t-196.5 -105.5t-252.5 -37 q-174 0 -296.5 55.5t-215.5 159.5l177 179q59 -68 147 -108t188 -40q59 0 112.5 16.5t94.5 50t64.5 88t23.5 130.5v104q-49 -90 -141.5 -136t-198.5 -46zM643 256q76 0 135.5 42t91.5 108v225q-33 86 -100.5 136t-142.5 50q-53 0 -97.5 -23.5t-76 -63.5t-49 -92t-17.5 -108 q0 -59 19.5 -109t54.5 -87t81 -57.5t101 -20.5z" />
<glyph unicode="&#x124;" horiz-adv-x="1529" d="M428 1651l225 221h236l223 -221l-168 -74l-174 129l-174 -129zM1391 1454v-1454h-336v596h-580v-596h-336v1454h336v-563h580v563h336z" />
<glyph unicode="&#x125;" horiz-adv-x="1253" d="M520 1278l193 215h198l191 -215l-144 -72l-147 125l-147 -125zM1149 0h-328v604q0 104 -41 153.5t-112 49.5q-29 0 -63 -13.5t-65.5 -39t-58 -60.5t-41.5 -78v-616h-327v1495h327v-600q59 96 156.5 148.5t214.5 52.5q109 0 175.5 -38t102 -96.5t48 -131t12.5 -142.5v-688 z" />
<glyph unicode="&#x126;" horiz-adv-x="1546" d="M1399 1454v-190h102v-156h-102v-1108h-336v596h-580v-596h-336v1108h-102v156h102v190h336v-190h580v190h336zM1063 891v217h-580v-217h580z" />
<glyph unicode="&#x127;" horiz-adv-x="1253" d="M1149 0h-328v604q0 104 -41 153.5t-112 49.5q-29 0 -63 -13.5t-65.5 -39t-58 -60.5t-41.5 -78v-616h-327v1204h-78v193h78v98h327v-98h240v-193h-240v-309q59 96 156.5 148.5t214.5 52.5q109 0 175.5 -38t102 -96.5t48 -131t12.5 -142.5v-688z" />
<glyph unicode="&#x128;" horiz-adv-x="614" d="M139 0v1454h336v-1454h-336zM436 1583q-47 0 -83 14.5t-66.5 33t-59 32.5t-63.5 14t-53.5 -14t-28.5 -32.5t-12 -34t-2 -17.5h-177q0 23 13.5 71t44.5 97t81 86t122 37q49 0 83.5 -15.5t64.5 -34t58.5 -33.5t65.5 -15q35 0 56.5 15t32.5 33.5t14 35t3 18.5h177 q0 -16 -14.5 -63.5t-46.5 -98.5t-83 -90t-127 -39z" />
<glyph unicode="&#x129;" horiz-adv-x="552" d="M113 0v1075h327v-1075h-327zM406 1204q-47 0 -83 14.5t-67 33t-59.5 32.5t-63.5 14t-53.5 -14t-28.5 -32.5t-12 -34t-2 -17.5h-176q0 23 13 71t44 97t81 86t122 37q49 0 84 -15.5t64.5 -34t58 -33.5t65.5 -15q35 0 56.5 15t33 33.5t14.5 35t3 18.5h176q0 -16 -14.5 -63.5 t-46 -98.5t-82.5 -90t-127 -39z" />
<glyph unicode="&#x12a;" horiz-adv-x="614" d="M139 0v1454h336v-1454h-336zM-2 1651v198h623v-198h-623z" />
<glyph unicode="&#x12b;" horiz-adv-x="552" d="M113 0v1075h327v-1075h-327zM-33 1272v198h623v-198h-623z" />
<glyph unicode="&#x12c;" horiz-adv-x="614" d="M139 0v1454h336v-1454h-336zM305 1716q47 0 83 44t42 114h170q0 -66 -21.5 -121t-60.5 -95t-93 -62.5t-120 -22.5t-119 22.5t-93 62.5t-61.5 95t-21.5 121h174q0 -66 36 -112t85 -46z" />
<glyph unicode="&#x12d;" horiz-adv-x="552" d="M113 0v1075h327v-1075h-327zM274 1337q47 0 83 44t42 114h170q0 -66 -21.5 -121t-60 -95t-93 -62.5t-120.5 -22.5t-119 22.5t-92.5 62.5t-61 95.5t-21.5 120.5h174q0 -66 35.5 -112t84.5 -46z" />
<glyph unicode="&#x12e;" horiz-adv-x="616" d="M391 -420q-137 16 -203.5 69.5t-66.5 121.5q0 59 43 117.5t129 111.5h-154v1454h336v-1454q-154 -92 -153 -168q0 -35 32.5 -56.5t100.5 -23.5l-64 -172v0z" />
<glyph unicode="&#x12f;" horiz-adv-x="552" d="M356 -420q-137 16 -203.5 69.5t-66.5 121.5q0 59 43 117.5t129 111.5h-145v1075h327v-1075q-154 -92 -153 -168q0 -35 32.5 -56.5t100.5 -23.5zM113 1198v297h327v-297h-327z" />
<glyph unicode="&#x130;" horiz-adv-x="614" d="M139 0v1454h336v-1454h-336zM160 1593v281h295v-281h-295z" />
<glyph unicode="&#x131;" horiz-adv-x="552" d="M113 0v1075h327v-1075h-327z" />
<glyph unicode="&#x132;" horiz-adv-x="1626" d="M139 0v1454h336v-1454h-336zM696 342q20 -16 87 -41t155 -25q76 0 121 26t69.5 79t31.5 136t7 198v739h336v-739q0 -166 -17.5 -302.5t-75.5 -232.5t-171 -149.5t-301 -53.5q-184 0 -315 91z" />
<glyph unicode="&#x133;" horiz-adv-x="1114" d="M113 0v1075h327v-1075h-327zM113 1198v297h327v-297h-327zM608 -414q-82 0 -155.5 26t-133.5 77l138 223q23 -23 51.5 -33t58.5 -10q47 0 78 30.5t31 82.5v1093h328v-1069q0 -92 -30 -170t-83 -133t-126 -86t-157 -31zM676 1198v297h328v-297h-328z" />
<glyph unicode="&#x134;" horiz-adv-x="1011" d="M383 1653l225 221h236l223 -221l-168 -74l-174 129l-174 -129zM82 342q20 -16 87 -41t155 -25q76 0 120.5 26t69.5 79t32 136t7 198v739h336v-739q0 -166 -17.5 -302.5t-76 -232.5t-171 -149.5t-300.5 -53.5q-184 0 -316 91z" />
<glyph unicode="&#x135;" horiz-adv-x="552" d="M45 -414q-168 0 -289 103l138 223q23 -23 51 -33t59 -10q47 0 78 30.5t31 82.5v1093h327v-1069q0 -92 -29.5 -170t-83 -133t-126 -86t-156.5 -31zM-66 1274l226 221h235l223 -221l-167 -74l-175 129l-174 -129z" />
<glyph unicode="&#x136;" horiz-adv-x="1390" d="M629 -436l63 137h-98v203h274v-203l-96 -137h-143zM139 0v1454h336v-627l533 627h376l-544 -649l581 -805h-383l-411 586l-152 -158v-428h-336z" />
<glyph unicode="&#x137;" horiz-adv-x="1165" d="M494 -436l63 137h-98v203h274v-203l-96 -137h-143zM836 0l-281 432l-115 -119v-313h-327v1495h327v-866l363 446h348l-387 -463l420 -612h-348z" />
<glyph unicode="&#x138;" horiz-adv-x="1165" d="M836 0l-281 432l-115 -119v-313h-327v1075h327v-446l363 446h348l-387 -463l420 -612h-348z" />
<glyph unicode="&#x139;" horiz-adv-x="1198" d="M840 1550l-209 58l106 266h297zM139 0v1454h336v-1159h705v-295h-1041z" />
<glyph unicode="&#x13a;" horiz-adv-x="686" d="M360 1561l-208 57l106 266h297zM109 1495h327v-1112q0 -123 105 -123q25 0 54.5 7t53.5 22l43 -246q-61 -29 -141 -45t-150 -16q-141 0 -216.5 73.5t-75.5 212.5v1227z" />
<glyph unicode="&#x13b;" horiz-adv-x="1198" d="M580 -436l63 137h-98v203h274v-203l-96 -137h-143zM139 0v1454h336v-1159h705v-295h-1041z" />
<glyph unicode="&#x13c;" horiz-adv-x="686" d="M291 -436l63 137h-98v203h274v-203l-96 -137h-143zM109 1495h327v-1112q0 -123 105 -123q25 0 54.5 7t53.5 22l43 -246q-61 -29 -141 -45t-150 -16q-141 0 -216.5 73.5t-75.5 212.5v1227z" />
<glyph unicode="&#x13d;" horiz-adv-x="1198" d="M870 1169l-208 58l106 266h297zM139 0v1454h336v-1159h705v-295h-1041z" />
<glyph unicode="&#x13e;" horiz-adv-x="686" d="M721 1169l-209 58l106 266h297zM109 1495h327v-1112q0 -123 105 -123q25 0 54.5 7t53.5 22l43 -246q-61 -29 -141 -45t-150 -16q-141 0 -216.5 73.5t-75.5 212.5v1227z" />
<glyph unicode="&#x13f;" horiz-adv-x="1198" d="M139 0v1454h336v-1159h705v-295h-1041zM745 666v340h269v-340h-269z" />
<glyph unicode="&#x140;" horiz-adv-x="878" d="M109 1495h327v-1112q0 -123 105 -123q25 0 54.5 7t53.5 22l43 -246q-61 -29 -141 -45t-150 -16q-141 0 -216.5 73.5t-75.5 212.5v1227zM575 594v340h269v-340h-269z" />
<glyph unicode="&#x141;" horiz-adv-x="1218" d="M162 0v561l-103 -57l-77 176l180 100v674h336v-483l188 106l76 -176l-264 -149v-457h704v-295h-1040z" />
<glyph unicode="&#x142;" horiz-adv-x="745" d="M162 586l-94 -51l-78 176l172 94v690h327v-512l173 94l77 -176l-250 -137v-381q0 -123 105 -123q25 0 54.5 7t53.5 22l43 -246q-61 -29 -141 -45t-149 -16q-141 0 -217 73.5t-76 212.5v318z" />
<glyph unicode="&#x143;" horiz-adv-x="1554" d="M868 1548l-209 58l107 266h297zM475 831v-831h-336v1454h262l678 -854v854h336v-1454h-270z" />
<glyph unicode="&#x144;" horiz-adv-x="1253" d="M758 1171l-209 58l106 266h297zM1149 0h-328v604q0 106 -40 154.5t-105 48.5q-35 0 -70 -14.5t-67.5 -40t-58 -60.5t-40.5 -76v-616h-327v1075h295v-180q59 96 167.5 148.5t249.5 52.5q104 0 168 -38t98.5 -98.5t46 -132t11.5 -139.5v-688z" />
<glyph unicode="&#x145;" horiz-adv-x="1554" d="M664 -436l63 137h-98v203h274v-203l-96 -137h-143zM475 831v-831h-336v1454h262l678 -854v854h336v-1454h-270z" />
<glyph unicode="&#x146;" horiz-adv-x="1253" d="M516 -436l64 137h-99v203h275v-203l-97 -137h-143zM1149 0h-328v604q0 106 -40 154.5t-105 48.5q-35 0 -70 -14.5t-67.5 -40t-58 -60.5t-40.5 -76v-616h-327v1075h295v-180q59 96 167.5 148.5t249.5 52.5q104 0 168 -38t98.5 -98.5t46 -132t11.5 -139.5v-688z" />
<glyph unicode="&#x147;" horiz-adv-x="1554" d="M600 1872l174 -129l174 129l168 -76l-223 -219h-236l-225 219zM475 831v-831h-336v1454h262l678 -854v854h336v-1454h-270z" />
<glyph unicode="&#x148;" horiz-adv-x="1253" d="M489 1495l175 -129l174 129l168 -76l-224 -219h-235l-225 219zM1149 0h-328v604q0 106 -40 154.5t-105 48.5q-35 0 -70 -14.5t-67.5 -40t-58 -60.5t-40.5 -76v-616h-327v1075h295v-180q59 96 167.5 148.5t249.5 52.5q104 0 168 -38t98.5 -98.5t46 -132t11.5 -139.5v-688z " />
<glyph unicode="&#x149;" horiz-adv-x="1253" d="M143 1171l-209 58l68 164l-18 102h356zM1149 0h-328v604q0 106 -40 154.5t-105 48.5q-35 0 -70 -14.5t-67.5 -40t-58 -60.5t-40.5 -76v-616h-327v1075h295v-180q59 96 167.5 148.5t249.5 52.5q104 0 168 -38t98.5 -98.5t46 -132t11.5 -139.5v-688z" />
<glyph unicode="&#x14a;" horiz-adv-x="1521" d="M475 821v-821h-336v1454h258l647 -838v836h336v-1456q0 -92 -30.5 -168t-85 -130t-126 -83t-153.5 -29q-80 0 -153.5 26t-133.5 77l138 223q20 -23 48.5 -33t59.5 -10q47 0 78 30.5t31 82.5v90z" />
<glyph unicode="&#x14b;" horiz-adv-x="1251" d="M754 -414q-168 0 -289 103l137 223q23 -23 51.5 -33t59.5 -10q47 0 77.5 30.5t30.5 82.5v622q0 106 -40 154.5t-105 48.5q-35 0 -70 -14.5t-67.5 -40t-58 -60.5t-40.5 -76v-616h-327v1075h295v-180q59 96 167.5 148.5t249.5 52.5q104 0 169 -38t98.5 -98.5t45 -132 t11.5 -139.5v-682q0 -92 -31 -170t-84 -133t-124.5 -86t-155.5 -31z" />
<glyph unicode="&#x14c;" horiz-adv-x="1556" d="M475 1651v198h623v-198h-623zM776 -12q-162 0 -295 63.5t-227 167t-146.5 236.5t-52.5 274q0 143 54.5 276.5t151.5 234.5t230.5 161.5t290.5 60.5q162 0 295 -63.5t227.5 -168t145.5 -237.5t51 -270q0 -143 -54 -276.5t-150.5 -234.5t-229.5 -162.5t-291 -61.5zM397 725 q0 -84 24.5 -163t73 -140.5t120 -98t163.5 -36.5q96 0 168 39t119 101t70.5 141t23.5 161q0 84 -24.5 163t-73.5 139.5t-120 96t-163 35.5q-96 0 -166.5 -38t-119 -99t-72 -140t-23.5 -161z" />
<glyph unicode="&#x14d;" horiz-adv-x="1249" d="M315 1272v198h623v-198h-623zM625 -20q-137 0 -245 45t-181.5 121.5t-111.5 178t-38 212.5t38 212t111.5 178t181 123t245.5 46q137 0 243.5 -46t180 -123t112.5 -178.5t39 -211.5q0 -111 -38 -212.5t-111.5 -178t-181 -121.5t-244.5 -45zM385 537q0 -127 67.5 -204 t172.5 -77q51 0 94 20.5t74.5 57.5t50 89t18.5 114q0 127 -67.5 203.5t-169.5 76.5q-51 0 -95.5 -20.5t-76 -57.5t-50 -89t-18.5 -113z" />
<glyph unicode="&#x14e;" horiz-adv-x="1556" d="M776 -12q-162 0 -295 63.5t-227 167t-146.5 236.5t-52.5 274q0 143 54.5 276.5t151.5 234.5t230.5 161.5t290.5 60.5q162 0 295 -63.5t227.5 -168t145.5 -237.5t51 -270q0 -143 -54 -276.5t-150.5 -234.5t-229.5 -162.5t-291 -61.5zM397 725q0 -84 24.5 -163t73 -140.5 t120 -98t163.5 -36.5q96 0 168 39t119 101t70.5 141t23.5 161q0 84 -24.5 163t-73.5 139.5t-120 96t-163 35.5q-96 0 -166.5 -38t-119 -99t-72 -140t-23.5 -161zM786 1716q47 0 83 44t42 114h170q0 -66 -21.5 -121t-60 -95t-93 -62.5t-120.5 -22.5t-119 22.5t-92.5 62.5 t-61 95t-21.5 121h174q0 -66 35.5 -112t84.5 -46z" />
<glyph unicode="&#x14f;" horiz-adv-x="1249" d="M625 -20q-137 0 -245 45t-181.5 121.5t-111.5 178t-38 212.5t38 212t111.5 178t181 123t245.5 46q137 0 243.5 -46t180 -123t112.5 -178.5t39 -211.5q0 -111 -38 -212.5t-111.5 -178t-181 -121.5t-244.5 -45zM385 537q0 -127 67.5 -204t172.5 -77q51 0 94 20.5t74.5 57.5 t50 89t18.5 114q0 127 -67.5 203.5t-169.5 76.5q-51 0 -95.5 -20.5t-76 -57.5t-50 -89t-18.5 -113zM623 1337q47 0 82.5 44t42.5 114h170q0 -66 -22 -121t-60.5 -95t-93 -62.5t-119.5 -22.5q-66 0 -119 22.5t-93 62.5t-61.5 95.5t-21.5 120.5h174q0 -66 36 -112t85 -46z" />
<glyph unicode="&#x150;" horiz-adv-x="1556" d="M657 1552l-157 58l92 266h246zM1016 1552l-158 58l90 266h246zM776 -12q-162 0 -295 63.5t-227 167t-146.5 236.5t-52.5 274q0 143 54.5 276.5t151.5 234.5t230.5 161.5t290.5 60.5q162 0 295 -63.5t227.5 -168t145.5 -237.5t51 -270q0 -143 -54 -276.5t-150.5 -234.5 t-229.5 -162.5t-291 -61.5zM397 725q0 -84 24.5 -163t73 -140.5t120 -98t163.5 -36.5q96 0 168 39t119 101t70.5 141t23.5 161q0 84 -24.5 163t-73.5 139.5t-120 96t-163 35.5q-96 0 -166.5 -38t-119 -99t-72 -140t-23.5 -161z" />
<glyph unicode="&#x151;" horiz-adv-x="1249" d="M494 1174l-158 57l92 266h246zM852 1174l-158 57l90 266h246zM625 -20q-137 0 -245 45t-181.5 121.5t-111.5 178t-38 212.5t38 212t111.5 178t181 123t245.5 46q137 0 243.5 -46t180 -123t112.5 -178.5t39 -211.5q0 -111 -38 -212.5t-111.5 -178t-181 -121.5t-244.5 -45z M385 537q0 -127 67.5 -204t172.5 -77q51 0 94 20.5t74.5 57.5t50 89t18.5 114q0 127 -67.5 203.5t-169.5 76.5q-51 0 -95.5 -20.5t-76 -57.5t-50 -89t-18.5 -113z" />
<glyph unicode="&#x152;" horiz-adv-x="2170" d="M2105 295v-295h-989v154q-70 -72 -164 -118t-204 -46q-156 0 -283 62.5t-218 166t-141.5 236.5t-50.5 274q0 143 52.5 276.5t145.5 235.5t221 162.5t280 60.5q111 0 203 -45t159 -116v151h971v-295h-635v-272h524v-293h-524v-299h653zM750 289q88 0 154.5 38t110.5 100 t65.5 141t21.5 161q0 84 -23.5 163t-68.5 139.5t-110.5 97t-149.5 36.5q-88 0 -154 -37.5t-110 -100t-66.5 -141.5t-22.5 -161q0 -84 23.5 -163t67.5 -139.5t110 -97t152 -36.5z" />
<glyph unicode="&#x153;" horiz-adv-x="2052" d="M621 -20q-125 0 -229.5 41.5t-180.5 115.5t-119 176.5t-43 223.5t43 223t119 177t180.5 117t226.5 42q131 0 232.5 -55.5t179.5 -161.5q86 111 186.5 164t229.5 53q123 0 226.5 -41t179 -116t118.5 -177.5t45 -224.5q0 -25 -2 -52.5t-6 -48.5h-795q4 -49 24.5 -90 t53.5 -71.5t77 -48t93 -17.5q78 0 143.5 38t88.5 97l268 -78q-33 -66 -85 -119t-118.5 -90t-144.5 -57t-162 -20q-121 0 -218 50t-202 154q-102 -109 -196 -156.5t-213 -47.5zM625 256q104 0 170.5 79t66.5 202t-66.5 201.5t-170.5 78.5q-53 0 -96.5 -20.5t-76 -58.5 t-50 -89t-17.5 -112q0 -125 68 -203t172 -78zM1675 635q-10 102 -76.5 163.5t-162.5 61.5q-98 0 -161 -62.5t-73 -162.5h473z" />
<glyph unicode="&#x154;" d="M748 1548l-209 58l106 266h297zM139 0v1454h656q102 0 189 -43t150.5 -112.5t99.5 -157.5t36 -178q0 -68 -16.5 -130.5t-47 -118t-75 -99.5t-99.5 -74l320 -541h-379l-279 469h-219v-469h-336zM475 762h307q59 0 102.5 56t43.5 145q0 90 -49.5 143t-106.5 53h-297v-397z " />
<glyph unicode="&#x155;" horiz-adv-x="819" d="M596 1171l-209 58l107 266h297zM795 795q-119 -2 -215.5 -39t-139.5 -111v-645h-327v1075h301v-217q55 109 142 170.5t185 63.5h33t21 -2v-295z" />
<glyph unicode="&#x156;" d="M602 -436l64 137h-99v203h275v-203l-97 -137h-143zM139 0v1454h656q102 0 189 -43t150.5 -112.5t99.5 -157.5t36 -178q0 -68 -16.5 -130.5t-47 -118t-75 -99.5t-99.5 -74l320 -541h-379l-279 469h-219v-469h-336zM475 762h307q59 0 102.5 56t43.5 145q0 90 -49.5 143 t-106.5 53h-297v-397z" />
<glyph unicode="&#x157;" horiz-adv-x="819" d="M154 -436l63 137h-98v203h274v-203l-96 -137h-143zM795 795q-119 -2 -215.5 -39t-139.5 -111v-645h-327v1075h301v-217q55 109 142 170.5t185 63.5h33t21 -2v-295z" />
<glyph unicode="&#x158;" d="M479 1872l174 -129l174 129l168 -76l-223 -219h-235l-226 219zM139 0v1454h656q102 0 189 -43t150.5 -112.5t99.5 -157.5t36 -178q0 -68 -16.5 -130.5t-47 -118t-75 -99.5t-99.5 -74l320 -541h-379l-279 469h-219v-469h-336zM475 762h307q59 0 102.5 56t43.5 145 q0 90 -49.5 143t-106.5 53h-297v-397z" />
<glyph unicode="&#x159;" horiz-adv-x="819" d="M328 1495l174 -129l174 129l168 -76l-223 -219h-236l-225 219zM795 795q-119 -2 -215.5 -39t-139.5 -111v-645h-327v1075h301v-217q55 109 142 170.5t185 63.5h33t21 -2v-295z" />
<glyph unicode="&#x15a;" horiz-adv-x="1259" d="M756 1559l-209 57l106 266h297zM1012 1028q-6 8 -43 30.5t-92.5 47t-121 43t-130.5 18.5q-180 0 -181 -120q0 -37 19.5 -61.5t57.5 -44t95.5 -36t133.5 -37.5q104 -29 188 -62.5t142.5 -83.5t90 -122t31.5 -172q0 -123 -46 -208t-122 -137t-174 -75.5t-203 -23.5 q-80 0 -163.5 12t-163.5 35.5t-155 56.5t-138 76l147 293q8 -10 53.5 -39t112 -57.5t148.5 -51t166 -22.5q178 0 178 108q0 41 -27 67.5t-74 48t-111.5 40t-140.5 41.5q-100 31 -173.5 66.5t-122 82.5t-72 108.5t-23.5 143.5q0 115 43 203t117 148.5t171 91t206 30.5 q76 0 149.5 -14t141 -36.5t126 -51.5t107.5 -57z" />
<glyph unicode="&#x15b;" horiz-adv-x="1021" d="M592 1171l-209 58l106 266h297zM537 -20q-137 0 -270.5 44t-225.5 128l117 200q98 -68 191 -104.5t179 -36.5q63 0 98.5 22.5t35.5 65.5t-44.5 68.5t-154.5 54.5q-109 31 -183.5 59.5t-121.5 63.5t-67.5 80t-20.5 106q0 82 32.5 149.5t90 114.5t136.5 74t171 27 q121 0 226 -33t204 -119l-127 -196q-92 63 -164 91.5t-139 28.5q-53 0 -90 -21.5t-37 -68.5q0 -45 40 -67.5t148 -48.5q115 -31 194 -62t128 -68.5t71.5 -87t22.5 -116.5q0 -160 -118.5 -254t-321.5 -94z" />
<glyph unicode="&#x15c;" horiz-adv-x="1259" d="M322 1661l225 221h235l224 -221l-168 -74l-174 129l-175 -129zM1012 1028q-6 8 -43 30.5t-92.5 47t-121 43t-130.5 18.5q-180 0 -181 -120q0 -37 19.5 -61.5t57.5 -44t95.5 -36t133.5 -37.5q104 -29 188 -62.5t142.5 -83.5t90 -122t31.5 -172q0 -123 -46 -208t-122 -137 t-174 -75.5t-203 -23.5q-80 0 -163.5 12t-163.5 35.5t-155 56.5t-138 76l147 293q8 -10 53.5 -39t112 -57.5t148.5 -51t166 -22.5q178 0 178 108q0 41 -27 67.5t-74 48t-111.5 40t-140.5 41.5q-100 31 -173.5 66.5t-122 82.5t-72 108.5t-23.5 143.5q0 115 43 203t117 148.5 t171 91t206 30.5q76 0 149.5 -14t141 -36.5t126 -51.5t107.5 -57z" />
<glyph unicode="&#x15d;" horiz-adv-x="1021" d="M158 1274l225 221h235l224 -221l-168 -74l-174 129l-174 -129zM537 -20q-137 0 -270.5 44t-225.5 128l117 200q98 -68 191 -104.5t179 -36.5q63 0 98.5 22.5t35.5 65.5t-44.5 68.5t-154.5 54.5q-109 31 -183.5 59.5t-121.5 63.5t-67.5 80t-20.5 106q0 82 32.5 149.5 t90 114.5t136.5 74t171 27q121 0 226 -33t204 -119l-127 -196q-92 63 -164 91.5t-139 28.5q-53 0 -90 -21.5t-37 -68.5q0 -45 40 -67.5t148 -48.5q115 -31 194 -62t128 -68.5t71.5 -87t22.5 -116.5q0 -160 -118.5 -254t-321.5 -94z" />
<glyph unicode="&#x15e;" horiz-adv-x="1259" d="M483 -260q23 -14 76 -27.5t109 -13.5q49 0 81.5 14.5t32.5 50.5q0 35 -30.5 50.5t-79.5 15.5q-43 0 -91.5 -8t-70.5 -15l86 179q-147 10 -294.5 55t-264.5 123l147 293q8 -10 53.5 -39t112 -57.5t148.5 -51t166 -22.5q178 0 178 108q0 41 -27 67.5t-74 48t-111.5 40 t-140.5 41.5q-100 31 -173.5 66.5t-122 82.5t-72 108.5t-23.5 143.5q0 115 43 203t117 148.5t171 91t206 30.5q76 0 149.5 -14t141 -36.5t126 -51.5t107.5 -57l-147 -279q-6 8 -43 30.5t-92.5 47t-121 43t-130.5 18.5q-180 0 -181 -120q0 -37 19.5 -61.5t57.5 -44t95.5 -36 t133.5 -37.5q104 -29 188 -62.5t142.5 -83.5t90 -122t31.5 -172q0 -113 -39 -193.5t-103.5 -133t-150.5 -80t-180 -33.5l-43 -66q27 6 62 6q74 0 129 -35.5t55 -115.5q0 -82 -69.5 -138.5t-217.5 -56.5q-72 0 -127 13.5t-96 29.5z" />
<glyph unicode="&#x15f;" horiz-adv-x="1021" d="M371 -260q23 -14 76 -27.5t108 -13.5q49 0 82 14.5t33 50.5q0 35 -31 50.5t-80 15.5q-43 0 -91 -8t-71 -15l86 175q-125 8 -241.5 51t-200.5 119l117 200q98 -68 191 -104.5t179 -36.5q63 0 98.5 22.5t35.5 65.5t-44.5 68.5t-154.5 54.5q-109 31 -183.5 59.5t-121.5 63.5 t-67.5 80t-20.5 106q0 82 32.5 149.5t90 114.5t136.5 74t171 27q121 0 226 -33t204 -119l-127 -196q-92 63 -164 91.5t-139 28.5q-53 0 -90 -21.5t-37 -68.5q0 -45 40 -67.5t148 -48.5q115 -31 194 -62t128 -68.5t71.5 -87t22.5 -116.5q0 -145 -96.5 -235.5t-264.5 -108.5 l-43 -62q27 6 62 6q74 0 129 -35.5t55 -115.5q0 -82 -69.5 -138.5t-217.5 -56.5q-72 0 -127 13.5t-96 29.5z" />
<glyph unicode="&#x160;" horiz-adv-x="1259" d="M489 1882l175 -129l174 129l168 -76l-224 -219h-235l-225 219zM1012 1028q-6 8 -43 30.5t-92.5 47t-121 43t-130.5 18.5q-180 0 -181 -120q0 -37 19.5 -61.5t57.5 -44t95.5 -36t133.5 -37.5q104 -29 188 -62.5t142.5 -83.5t90 -122t31.5 -172q0 -123 -46 -208t-122 -137 t-174 -75.5t-203 -23.5q-80 0 -163.5 12t-163.5 35.5t-155 56.5t-138 76l147 293q8 -10 53.5 -39t112 -57.5t148.5 -51t166 -22.5q178 0 178 108q0 41 -27 67.5t-74 48t-111.5 40t-140.5 41.5q-100 31 -173.5 66.5t-122 82.5t-72 108.5t-23.5 143.5q0 115 43 203t117 148.5 t171 91t206 30.5q76 0 149.5 -14t141 -36.5t126 -51.5t107.5 -57z" />
<glyph unicode="&#x161;" horiz-adv-x="1021" d="M326 1495l174 -129l174 129l168 -76l-224 -219h-235l-225 219zM537 -20q-137 0 -270.5 44t-225.5 128l117 200q98 -68 191 -104.5t179 -36.5q63 0 98.5 22.5t35.5 65.5t-44.5 68.5t-154.5 54.5q-109 31 -183.5 59.5t-121.5 63.5t-67.5 80t-20.5 106q0 82 32.5 149.5 t90 114.5t136.5 74t171 27q121 0 226 -33t204 -119l-127 -196q-92 63 -164 91.5t-139 28.5q-53 0 -90 -21.5t-37 -68.5q0 -45 40 -67.5t148 -48.5q115 -31 194 -62t128 -68.5t71.5 -87t22.5 -116.5q0 -160 -118.5 -254t-321.5 -94z" />
<glyph unicode="&#x162;" horiz-adv-x="1271" d="M451 -260q23 -14 76 -27.5t108 -13.5q49 0 82 14.5t33 50.5q0 35 -31 50.5t-80 15.5q-43 0 -91 -8t-71 -15l94 193h-102v1159h-444v295h1222v-295h-442v-1159h-98l-54 -78q27 6 62 6q74 0 129 -35.5t55 -115.5q0 -82 -69.5 -138.5t-217.5 -56.5q-72 0 -127 13.5t-96 29.5 z" />
<glyph unicode="&#x163;" horiz-adv-x="823" d="M313 -260q23 -14 76 -27.5t109 -13.5q49 0 81.5 14.5t32.5 50.5q0 35 -30.5 50.5t-79.5 15.5q-43 0 -91.5 -8t-70.5 -15l86 177q-104 12 -175 77.5t-71 204.5v561h-137v248h137v342h328v-342h219v-248h-219v-448q0 -53 26.5 -76.5t67.5 -23.5q37 0 76 12t67 26l64 -260 q-53 -23 -117.5 -42t-132.5 -29l-43 -64q27 6 62 6q74 0 129 -35.5t55 -115.5q0 -82 -69.5 -138.5t-217.5 -56.5q-72 0 -127 13.5t-96 29.5z" />
<glyph unicode="&#x164;" horiz-adv-x="1271" d="M475 1874l174 -129l174 129l168 -76l-223 -219h-236l-225 219zM1247 1159h-442v-1159h-336v1159h-444v295h1222v-295z" />
<glyph unicode="&#x165;" horiz-adv-x="823" d="M795 1171l-209 58l106 266h297zM809 57q-68 -29 -155 -53t-175 -24q-61 0 -115.5 15t-95.5 49t-64.5 89t-23.5 133v561h-137v248h137v342h328v-342h219v-248h-219v-448q0 -53 26.5 -76.5t67.5 -23.5q37 0 76 12t67 26z" />
<glyph unicode="&#x166;" horiz-adv-x="1320" d="M1272 1159h-443v-405h365v-156h-365v-598h-335v598h-367v156h367v405h-445v295h1223v-295z" />
<glyph unicode="&#x167;" horiz-adv-x="825" d="M811 57q-68 -29 -155 -53t-175 -24q-61 0 -115.5 15t-95.5 49t-64.5 89t-23.5 133v240h-137v190h137v131h-137v248h137v342h328v-342h219v-248h-219v-131h219v-190h-219v-127q0 -53 26.5 -76.5t67.5 -23.5q37 0 76 12t68 26z" />
<glyph unicode="&#x168;" horiz-adv-x="1529" d="M764 287q86 0 145.5 35.5t96 95t52 136.5t15.5 157v743h336v-743q0 -152 -38 -283t-116.5 -229.5t-200.5 -154.5t-290 -56q-174 0 -297 59t-200 158.5t-112.5 230.5t-35.5 275v743h336v-743q0 -84 16 -160t53 -135.5t95.5 -94t144.5 -34.5zM895 1583q-47 0 -83 14.5 t-66.5 33t-59.5 32.5t-63 14q-35 0 -53.5 -14t-29 -32.5t-12.5 -34t-2 -17.5h-176q0 23 13.5 71t44 97t81 86t121.5 37q49 0 84 -15.5t64.5 -34t58.5 -33.5t66 -15q35 0 56.5 15t32.5 33.5t14 35t3 18.5h176q0 -16 -14 -63.5t-46 -98.5t-83 -90t-127 -39z" />
<glyph unicode="&#x169;" horiz-adv-x="1284" d="M438 -20q-166 0 -251 103t-85 304v688h328v-616q0 -98 39 -150.5t111 -52.5q66 0 127 35t108 121v663h328v-706q0 -49 15.5 -68.5t53.5 -24.5v-276q-47 -10 -79.5 -13t-59.5 -3q-176 0 -201 137l-6 65q-74 -106 -183.5 -156t-244.5 -50zM754 1204q-47 0 -83 14.5t-67 33 t-59.5 32.5t-63.5 14t-53 -14t-28.5 -32.5t-12.5 -34t-2 -17.5h-176q0 23 13.5 71t44 97t80.5 86t122 37q49 0 84 -15.5t64.5 -34t58.5 -33.5t65 -15q35 0 56.5 15t33 33.5t14.5 35t3 18.5h176q0 -16 -14.5 -63.5t-46 -98.5t-82.5 -90t-127 -39z" />
<glyph unicode="&#x16a;" horiz-adv-x="1529" d="M764 287q86 0 145.5 35.5t96 95t52 136.5t15.5 157v743h336v-743q0 -152 -38 -283t-116.5 -229.5t-200.5 -154.5t-290 -56q-174 0 -297 59t-200 158.5t-112.5 230.5t-35.5 275v743h336v-743q0 -84 16 -160t53 -135.5t95.5 -94t144.5 -34.5zM455 1651v198h622v-198h-622z " />
<glyph unicode="&#x16b;" horiz-adv-x="1284" d="M438 -20q-166 0 -251 103t-85 304v688h328v-616q0 -98 39 -150.5t111 -52.5q66 0 127 35t108 121v663h328v-706q0 -49 15.5 -68.5t53.5 -24.5v-276q-47 -10 -79.5 -13t-59.5 -3q-176 0 -201 137l-6 65q-74 -106 -183.5 -156t-244.5 -50zM313 1272v198h623v-198h-623z" />
<glyph unicode="&#x16c;" horiz-adv-x="1529" d="M764 287q86 0 145.5 35.5t96 95t52 136.5t15.5 157v743h336v-743q0 -152 -38 -283t-116.5 -229.5t-200.5 -154.5t-290 -56q-174 0 -297 59t-200 158.5t-112.5 230.5t-35.5 275v743h336v-743q0 -84 16 -160t53 -135.5t95.5 -94t144.5 -34.5zM764 1716q47 0 83 44t42 114 h170q0 -66 -21.5 -121t-60.5 -95t-93.5 -62.5t-119.5 -22.5q-66 0 -119 22.5t-93 62.5t-61.5 95t-21.5 121h174q0 -66 36 -112t85 -46z" />
<glyph unicode="&#x16d;" horiz-adv-x="1284" d="M438 -20q-166 0 -251 103t-85 304v688h328v-616q0 -98 39 -150.5t111 -52.5q66 0 127 35t108 121v663h328v-706q0 -49 15.5 -68.5t53.5 -24.5v-276q-47 -10 -79.5 -13t-59.5 -3q-176 0 -201 137l-6 65q-74 -106 -183.5 -156t-244.5 -50zM621 1337q47 0 82.5 44t41.5 114 h170q0 -66 -21.5 -121t-60 -95t-93 -62.5t-119.5 -22.5q-66 0 -119 22.5t-93 62.5t-61.5 95.5t-21.5 120.5h174q0 -66 36 -112t85 -46z" />
<glyph unicode="&#x16e;" horiz-adv-x="1529" d="M545 1706q0 84 60.5 126t158.5 42t157.5 -42t59.5 -126q0 -82 -59.5 -124t-157.5 -42t-158.5 42t-60.5 124zM764 1778q-35 0 -58.5 -19.5t-23.5 -50.5t23.5 -51.5t58.5 -20.5q33 0 57.5 19.5t24.5 52.5q0 31 -23.5 50.5t-58.5 19.5zM764 287q86 0 145.5 35.5t96 95 t52 136.5t15.5 157v743h336v-743q0 -152 -38 -283t-116.5 -229.5t-200.5 -154.5t-290 -56q-174 0 -297 59t-200 158.5t-112.5 230.5t-35.5 275v743h336v-743q0 -84 16 -160t53 -135.5t95.5 -94t144.5 -34.5z" />
<glyph unicode="&#x16f;" horiz-adv-x="1284" d="M403 1327q0 84 60.5 126t159.5 42q98 0 157.5 -42t59.5 -126q0 -82 -59.5 -124t-157.5 -42t-159 42t-61 124zM623 1399q-35 0 -58.5 -19.5t-23.5 -50.5t23.5 -51.5t58.5 -20.5q33 0 57.5 19.5t24.5 52.5q0 31 -23.5 50.5t-58.5 19.5zM438 -20q-166 0 -251 103t-85 304 v688h328v-616q0 -98 39 -150.5t111 -52.5q66 0 127 35t108 121v663h328v-706q0 -49 15.5 -68.5t53.5 -24.5v-276q-47 -10 -79.5 -13t-59.5 -3q-176 0 -201 137l-6 65q-74 -106 -183.5 -156t-244.5 -50z" />
<glyph unicode="&#x170;" horiz-adv-x="1529" d="M764 287q86 0 145.5 35.5t96 95t52 136.5t15.5 157v743h336v-743q0 -152 -38 -283t-116.5 -229.5t-200.5 -154.5t-290 -56q-174 0 -297 59t-200 158.5t-112.5 230.5t-35.5 275v743h336v-743q0 -84 16 -160t53 -135.5t95.5 -94t144.5 -34.5zM633 1552l-158 58l92 266h246z M991 1552l-157 58l90 266h245z" />
<glyph unicode="&#x171;" horiz-adv-x="1284" d="M438 -20q-166 0 -251 103t-85 304v688h328v-616q0 -98 39 -150.5t111 -52.5q66 0 127 35t108 121v663h328v-706q0 -49 15.5 -68.5t53.5 -24.5v-276q-47 -10 -79.5 -13t-59.5 -3q-176 0 -201 137l-6 65q-74 -106 -183.5 -156t-244.5 -50zM492 1174l-158 57l92 266h246z M850 1174l-158 57l90 266h246z" />
<glyph unicode="&#x172;" horiz-adv-x="1529" d="M764 287q86 0 145.5 35.5t96 95t52 136.5t15.5 157v743h336v-743q0 -141 -34 -267.5t-104.5 -222.5t-178 -156.5t-256.5 -72.5q-137 -86 -138 -160q0 -35 33 -56.5t100 -23.5l-63 -172q-137 16 -203.5 69.5t-66.5 121.5q0 57 40 113.5t124 109.5q-145 18 -249 82.5 t-169.5 161t-95 218.5t-29.5 255v743h336v-743q0 -84 16 -160t53 -135.5t95.5 -94t144.5 -34.5z" />
<glyph unicode="&#x173;" horiz-adv-x="1286" d="M440 -20q-166 0 -251 103t-85 304v688h328v-616q0 -98 39 -150.5t111 -52.5q66 0 127 35t108 121v663h328v-706q0 -49 15.5 -68.5t53.5 -24.5v-276q-154 -92 -153 -168q0 -35 32.5 -56.5t100.5 -23.5l-64 -172q-137 16 -203.5 69.5t-66.5 121.5q0 55 38 111.5t116 107.5 q-121 18 -140 131l-6 65q-74 -106 -183.5 -156t-244.5 -50z" />
<glyph unicode="&#x174;" horiz-adv-x="2160" d="M737 1653l226 221h235l223 -221l-168 -74l-174 129l-174 -129zM623 1452h309l147 -465l148 465h311l-244 -676l148 -391l364 1069h367l-582 -1454h-280l-232 569l-229 -569h-283l-579 1454h364l367 -1069l143 391z" />
<glyph unicode="&#x175;" horiz-adv-x="1740" d="M528 1274l226 221h235l223 -221l-168 -74l-174 129l-174 -129zM1438 1075h311l-444 -1075h-269l-166 442l-165 -442h-269l-444 1075h309l293 -772l100 293l-190 479h262l104 -323l103 323h262l-188 -479l100 -293z" />
<glyph unicode="&#x176;" horiz-adv-x="1357" d="M365 1454l313 -668l317 668h367l-518 -958v-496h-334v500l-510 954h365zM334 1653l225 221h236l223 -221l-168 -74l-174 129l-174 -129z" />
<glyph unicode="&#x177;" horiz-adv-x="1130" d="M121 -162q41 -14 76.5 -20t64.5 -6q59 0 92 41t60 147l-410 1075h338l250 -794l215 794h307l-409 -1249q-43 -133 -154 -216t-262 -83q-41 0 -83 7t-85 24v280zM250 1274l225 221h236l223 -221l-168 -74l-174 129l-174 -129z" />
<glyph unicode="&#x178;" horiz-adv-x="1357" d="M365 1454l313 -668l317 668h367l-518 -958v-496h-334v500l-510 954h365zM328 1595v265h270v-265h-270zM758 1595v265h270v-265h-270z" />
<glyph unicode="&#x179;" horiz-adv-x="1280" d="M756 1550l-209 58l106 266h297zM57 252l758 907h-729v295h1116v-252l-721 -907h729v-295h-1153v252z" />
<glyph unicode="&#x17a;" horiz-adv-x="1011" d="M598 1171l-209 58l107 266h297zM49 197l549 651h-520v227h862v-196l-545 -652h559v-227h-905v197z" />
<glyph unicode="&#x17b;" horiz-adv-x="1280" d="M57 252l758 907h-729v295h1116v-252l-721 -907h729v-295h-1153v252zM514 1593v281h295v-281h-295z" />
<glyph unicode="&#x17c;" horiz-adv-x="1011" d="M49 197l549 651h-520v227h862v-196l-545 -652h559v-227h-905v197zM356 1214v281h295v-281h-295z" />
<glyph unicode="&#x17d;" horiz-adv-x="1280" d="M487 1874l175 -129l174 129l168 -76l-224 -219h-235l-226 219zM57 252l758 907h-729v295h1116v-252l-721 -907h729v-295h-1153v252z" />
<glyph unicode="&#x17e;" horiz-adv-x="1011" d="M330 1495l174 -129l174 129l168 -76l-223 -219h-236l-225 219zM49 197l549 651h-520v227h862v-196l-545 -652h559v-227h-905v197z" />
<glyph unicode="&#x18f;" horiz-adv-x="1540" d="M762 -10q-170 0 -305 64.5t-229.5 166t-144.5 227t-50 250.5q0 35 4 71t8 60h1071q-8 82 -40 144.5t-80 105.5t-108.5 64.5t-125.5 21.5q-51 0 -101.5 -13t-91.5 -39t-71.5 -61.5t-42.5 -80.5l-346 106q84 174 253.5 279.5t401.5 105.5q166 0 299 -63.5t226 -166 t143.5 -231.5t50.5 -260q0 -141 -49.5 -276t-141.5 -240.5t-226 -170t-304 -64.5zM766 285q139 0 233.5 78.5t110.5 214.5h-707q8 -66 39 -120.5t79 -93t110.5 -59t134.5 -20.5z" />
<glyph unicode="&#x192;" horiz-adv-x="1138" d="M346 -414q-80 0 -153.5 26t-133.5 77l138 223q20 -23 48.5 -33t59.5 -10q47 0 78 30.5t31 82.5v720h-138v248h138v125q0 100 26.5 182t75.5 139.5t119 88.5t153 31q131 0 281 -64l-59 -246q-33 14 -73 23.5t-75 9.5q-121 0 -121 -152v-137h250v-248h-250v-712 q0 -90 -30.5 -164t-84 -127t-126 -83t-154.5 -30z" />
<glyph unicode="&#x1c4;" horiz-adv-x="2746" d="M1954 1874l174 -129l174 129l168 -76l-223 -219h-236l-225 219zM1524 252l757 907h-729v295h1117v-252l-721 -907h729v-295h-1153v252zM139 0v1454h543q180 0 315.5 -57.5t226.5 -155.5t137 -230t46 -282q0 -166 -51 -300t-146.5 -229.5t-229.5 -147.5t-298 -52h-543z M1065 729q0 96 -25.5 175t-75 136.5t-121 88t-161.5 30.5h-207v-864h207q92 0 164 32.5t120 91t73.5 137.5t25.5 173z" />
<glyph unicode="&#x1c5;" horiz-adv-x="2478" d="M1796 1495l174 -129l174 129l168 -76l-223 -219h-236l-225 219zM1516 197l548 651h-520v227h862v-196l-544 -652h559v-227h-905v197zM139 0v1454h543q180 0 315.5 -57.5t226.5 -155.5t137 -230t46 -282q0 -166 -51 -300t-146.5 -229.5t-229.5 -147.5t-298 -52h-543z M1065 729q0 96 -25.5 175t-75 136.5t-121 88t-161.5 30.5h-207v-864h207q92 0 164 32.5t120 91t73.5 137.5t25.5 173z" />
<glyph unicode="&#x1c6;" horiz-adv-x="2351" d="M1669 1495l174 -129l174 129l168 -76l-223 -219h-236l-225 219zM1389 197l548 651h-520v227h862v-196l-544 -652h559v-227h-905v197zM559 -20q-111 0 -204 41.5t-160.5 117.5t-105.5 177.5t-38 222.5q0 117 35 219t98.5 177t150.5 118t191 43q113 0 204 -53.5t140 -143.5 v596h328v-1126q0 -49 15.5 -68.5t54.5 -24.5v-276q-45 -10 -78 -13t-62 -3q-86 0 -139 35.5t-61 103.5l-6 55q-57 -100 -154.5 -149t-208.5 -49zM647 256q68 0 130.5 40t94.5 110v225q-31 82 -99 134t-142 52q-53 0 -97.5 -23.5t-77 -62.5t-50 -90t-17.5 -109 q0 -59 19.5 -110t53.5 -88t82 -57.5t103 -20.5z" />
<glyph unicode="&#x1c7;" horiz-adv-x="2209" d="M1280 342q20 -16 87 -41t155 -25q76 0 121 26t69.5 79t31.5 136t7 198v739h336v-739q0 -166 -17.5 -302.5t-76 -232.5t-171 -149.5t-300.5 -53.5q-184 0 -316 91zM139 0v1454h336v-1159h705v-295h-1041z" />
<glyph unicode="&#x1c8;" horiz-adv-x="1759" d="M1253 -414q-82 0 -155.5 26t-132.5 77l137 223q23 -23 51.5 -33t58.5 -10q47 0 78 30.5t31 82.5v1093h328v-1069q0 -92 -30 -170t-83 -133t-126 -86t-157 -31zM1321 1198v297h328v-297h-328zM139 0v1454h336v-1159h705v-295h-1041z" />
<glyph unicode="&#x1c9;" horiz-adv-x="1247" d="M741 -414q-82 0 -155.5 26t-132.5 77l137 223q23 -23 51.5 -33t58.5 -10q47 0 78 30.5t31 82.5v1093h328v-1069q0 -92 -30 -170t-83 -133t-126 -86t-157 -31zM809 1198v297h328v-297h-328zM109 1495h327v-1112q0 -123 105 -123q25 0 54.5 7t53.5 22l43 -246 q-61 -29 -141 -45t-150 -16q-141 0 -216.5 73.5t-75.5 212.5v1227z" />
<glyph unicode="&#x1ca;" horiz-adv-x="2566" d="M1636 342q20 -16 87 -41t155 -25q76 0 121 26t69.5 79t31.5 136t7 198v739h336v-739q0 -166 -17.5 -302.5t-75.5 -232.5t-171 -149.5t-301 -53.5q-184 0 -315 91zM475 831v-831h-336v1454h262l678 -854v854h336v-1454h-270z" />
<glyph unicode="&#x1cb;" horiz-adv-x="2115" d="M1610 -414q-82 0 -156 26t-133 77l137 223q23 -23 51.5 -33t59.5 -10q47 0 77.5 30.5t30.5 82.5v1093h328v-1069q0 -92 -29.5 -170t-83 -133t-126 -86t-156.5 -31zM1677 1198v297h328v-297h-328zM475 831v-831h-336v1454h262l678 -854v854h336v-1454h-270z" />
<glyph unicode="&#x1cc;" horiz-adv-x="1814" d="M1309 -414q-82 0 -156 26t-133 77l137 223q23 -23 51.5 -33t59.5 -10q47 0 77.5 30.5t30.5 82.5v1093h328v-1069q0 -92 -29.5 -170t-83 -133t-126 -86t-156.5 -31zM1376 1198v297h328v-297h-328zM1149 0h-328v604q0 106 -40 154.5t-105 48.5q-35 0 -70 -14.5t-67.5 -40 t-58 -60.5t-40.5 -76v-616h-327v1075h295v-180q59 96 167.5 148.5t249.5 52.5q104 0 168 -38t98.5 -98.5t46 -132t11.5 -139.5v-688z" />
<glyph unicode="&#x1ea;" horiz-adv-x="1556" d="M770 -420q-137 16 -203.5 69.5t-66.5 121.5q0 57 41 114.5t125 110.5q-139 20 -252 90t-193 169t-123 222t-43 252q0 143 54.5 276.5t151.5 234.5t230.5 161.5t290.5 60.5q162 0 295 -63.5t227.5 -168t145.5 -237.5t51 -270t-49 -264t-137 -226.5t-210 -164t-267 -76.5 q-137 -86 -138 -160q0 -35 33 -56.5t101 -23.5zM397 725q0 -84 24.5 -163t73 -140.5t120 -98t163.5 -36.5q96 0 168 39t119 101t70.5 141t23.5 161q0 84 -24.5 163t-73.5 139.5t-120 96t-163 35.5q-96 0 -166.5 -38t-119 -99t-72 -140t-23.5 -161z" />
<glyph unicode="&#x1eb;" horiz-adv-x="1249" d="M702 -420q-137 16 -203.5 69.5t-66.5 121.5q0 113 143 211q-127 8 -224 56t-164.5 124t-102.5 172t-35 203q0 111 38 212t111.5 178t181 123t245.5 46q137 0 243.5 -46t180 -123t112.5 -178.5t39 -211.5q0 -94 -27.5 -181.5t-81 -159t-131 -122.5t-178.5 -76 q-150 -88 -149 -166q0 -35 32.5 -56.5t100.5 -23.5zM385 537q0 -127 67.5 -204t172.5 -77q51 0 94 20.5t74.5 57.5t50 89t18.5 114q0 127 -67.5 203.5t-169.5 76.5q-51 0 -95.5 -20.5t-76 -57.5t-50 -89t-18.5 -113z" />
<glyph unicode="&#x1f1;" horiz-adv-x="2723" d="M1503 252l758 907h-729v295h1116v-252l-721 -907h729v-295h-1153v252zM139 0v1454h543q180 0 315.5 -57.5t226.5 -155.5t137 -230t46 -282q0 -166 -51 -300t-146.5 -229.5t-229.5 -147.5t-298 -52h-543zM1065 729q0 96 -25.5 175t-75 136.5t-121 88t-161.5 30.5h-207 v-864h207q92 0 164 32.5t120 91t73.5 137.5t25.5 173z" />
<glyph unicode="&#x1f2;" horiz-adv-x="2467" d="M1507 197l549 651h-520v227h862v-196l-545 -652h560v-227h-906v197zM139 0v1454h543q180 0 315.5 -57.5t226.5 -155.5t137 -230t46 -282q0 -166 -51 -300t-146.5 -229.5t-229.5 -147.5t-298 -52h-543zM1065 729q0 96 -25.5 175t-75 136.5t-121 88t-161.5 30.5h-207v-864 h207q92 0 164 32.5t120 91t73.5 137.5t25.5 173z" />
<glyph unicode="&#x1f3;" horiz-adv-x="2351" d="M1389 197l548 651h-520v227h862v-196l-544 -652h559v-227h-905v197zM559 -20q-111 0 -204 41.5t-160.5 117.5t-105.5 177.5t-38 222.5q0 117 35 219t98.5 177t150.5 118t191 43q113 0 204 -53.5t140 -143.5v596h328v-1126q0 -49 15.5 -68.5t54.5 -24.5v-276 q-45 -10 -78 -13t-62 -3q-86 0 -139 35.5t-61 103.5l-6 55q-57 -100 -154.5 -149t-208.5 -49zM647 256q68 0 130.5 40t94.5 110v225q-31 82 -99 134t-142 52q-53 0 -97.5 -23.5t-77 -62.5t-50 -90t-17.5 -109q0 -59 19.5 -110t53.5 -88t82 -57.5t103 -20.5z" />
<glyph unicode="&#x1f4;" horiz-adv-x="1499" d="M883 1550l-209 58l106 266h297zM1139 143q-166 -154 -383 -153q-143 0 -270.5 54t-222.5 152.5t-150.5 236.5t-55.5 304q0 150 55.5 283t152.5 231.5t230.5 155.5t286.5 57q203 0 354.5 -85t227.5 -232l-250 -189q-49 98 -142 152.5t-202 54.5q-84 0 -152.5 -33.5 t-117.5 -94t-76 -140.5t-27 -172q0 -94 29 -174t80 -138.5t121.5 -91t156.5 -32.5q197 0 355 182v45h-283v244h561v-760h-278v143z" />
<glyph unicode="&#x1f5;" horiz-adv-x="1310" d="M743 1171l-208 58l106 266h297zM530 -4q-106 0 -194 43t-150.5 116.5t-97.5 172t-35 211.5q0 119 37 220t102.5 176t157.5 118t203 43q123 0 214 -52.5t146 -144.5v176h285v-1001q0 -123 -46 -221.5t-128 -167t-196.5 -105.5t-252.5 -37q-174 0 -296.5 55.5t-215.5 159.5 l177 179q59 -68 147 -108t188 -40q59 0 112.5 16.5t94.5 50t64.5 88t23.5 130.5v104q-49 -90 -141.5 -136t-198.5 -46zM643 256q76 0 135.5 42t91.5 108v225q-33 86 -100.5 136t-142.5 50q-53 0 -97.5 -23.5t-76 -63.5t-49 -92t-17.5 -108q0 -59 19.5 -109t54.5 -87 t81 -57.5t101 -20.5z" />
<glyph unicode="&#x1fa;" d="M846 1647q57 -41 57 -123q0 -72 -49 -117l514 -1407h-344l-113 326h-452l-111 -326h-344l512 1407q-49 39 -49 117q0 68 40 107.5t109 54.5l89 194h296zM856 557l-170 514l-174 -514h344zM686 1595q-35 0 -58.5 -19.5t-23.5 -49.5q0 -31 23.5 -51.5t58.5 -20.5 q33 0 57.5 19.5t24.5 52.5q0 31 -23.5 50t-58.5 19z" />
<glyph unicode="&#x1fb;" horiz-adv-x="1200" d="M418 -20q-80 0 -148.5 25.5t-118 71.5t-78 108.5t-28.5 136.5q0 80 34 145t95.5 112.5t145 74t186.5 26.5q68 0 131 -11.5t111 -33.5v49q0 186 -216 186q-88 0 -167.5 -29.5t-167.5 -88.5l-97 204q106 70 221 105t244 35q244 0 377 -115t133 -336v-276q0 -49 15.5 -68.5 t54.5 -24.5v-276q-43 -10 -78 -13t-63 -3q-92 0 -139.5 35.5t-59.5 101.5l-6 49q-72 -92 -171 -141t-210 -49zM514 215q53 0 103.5 18.5t82.5 49.5q47 37 48 77v103q-43 16 -93.5 25.5t-93.5 9.5q-90 0 -148.5 -41t-58.5 -107q0 -59 45 -97t115 -38zM659 1538l-208 57 l106 267h297zM346 1327q0 84 60.5 126t158.5 42t157.5 -42t59.5 -126q0 -82 -59 -124t-158 -42q-98 0 -158.5 42t-60.5 124zM565 1399q-35 0 -58.5 -19.5t-23.5 -50.5t23.5 -51.5t58.5 -20.5q33 0 57.5 19.5t24.5 52.5q0 31 -23.5 50.5t-58.5 19.5z" />
<glyph unicode="&#x1fc;" horiz-adv-x="1982" d="M1317 1550l-209 58l106 266h297zM844 1454h1054v-295h-632v-272h522v-293h-522v-299h651v-295h-985v326h-440l-187 -326h-358zM905 621v458l-272 -458h272z" />
<glyph unicode="&#x1fd;" horiz-adv-x="1923" d="M1034 1171l-209 58l107 266h297zM416 -20q-80 0 -147.5 25.5t-117 71.5t-78 108.5t-28.5 136.5q0 80 34 145t95.5 112.5t145 74t186.5 26.5q66 0 125 -11.5t106 -29.5q0 10 2 31.5t6 29.5q-6 86 -57 128t-156 42q-88 0 -167.5 -29.5t-167.5 -88.5l-97 204q106 70 221 105 t244 35q123 0 217.5 -34t157.5 -97q70 59 162 95t209 36q137 0 244.5 -45t181 -122t112.5 -178.5t39 -213.5q0 -25 -3 -52.5t-7 -48.5h-799q4 -53 25.5 -95t55.5 -69.5t76 -42t87 -14.5q74 0 139.5 35t87.5 94l279 -78q-61 -127 -195.5 -206.5t-320.5 -79.5 q-158 0 -276.5 58t-190.5 157q-39 -57 -90 -98.5t-108.5 -67t-117 -37.5t-114.5 -12zM512 215q53 0 103.5 18.5t84.5 49.5q47 37 48 75q-2 4 -4.5 19.5t-3.5 34t-2 34t-1 21.5q-41 14 -88 22.5t-88 8.5q-90 0 -148.5 -41t-58.5 -107q0 -59 45 -97t113 -38zM1542 635 q-10 102 -73.5 163.5t-161.5 61.5t-161 -61.5t-73 -163.5h469z" />
<glyph unicode="&#x1fe;" horiz-adv-x="1554" d="M1477 1454l-166 -233q90 -104 139 -233.5t49 -264.5q0 -143 -54 -276.5t-150.5 -234.5t-229.5 -162.5t-291 -61.5t-295 63l-37 -51h-362l162 227q-92 104 -140.5 234.5t-48.5 267.5q0 143 54.5 276.5t151.5 234.5t230.5 161.5t290.5 60.5q158 0 295 -63l39 55h363z M395 725q0 -57 11.5 -112.5t33.5 -104.5l453 637q-27 8 -55.5 13t-61.5 5q-96 0 -166.5 -38t-119 -99t-72 -140t-23.5 -161zM1157 729q0 55 -11 109.5t-34 103.5l-453 -639q55 -16 117 -16q96 0 168 39t119 101t70.5 141t23.5 161zM870 1550l-208 58l106 266h297z" />
<glyph unicode="&#x1ff;" horiz-adv-x="1249" d="M68 -10l133 153q-74 78 -113 179.5t-39 214.5q0 111 38 212t111.5 178t181 123t245.5 46q90 0 165.5 -20.5t139.5 -55.5l55 65h180l-127 -147q78 -78 120 -181.5t42 -219.5q0 -111 -38 -212.5t-111.5 -178t-181 -121.5t-244.5 -45q-184 0 -318 81l-61 -71h-178zM625 256 q51 0 94 20.5t74.5 57.5t50 89t18.5 114q0 90 -39 157l-325 -401q51 -37 127 -37zM385 537q0 -88 33 -152l323 399q-55 33 -116 33q-51 0 -95.5 -20.5t-76 -57.5t-50 -89t-18.5 -113zM717 1171l-209 58l106 266h297z" />
<glyph unicode="&#x200;" d="M535 1454h303l530 -1454h-344l-113 326h-452l-111 -326h-344zM856 557l-170 514l-174 -514h344zM651 1876h248l90 -266l-158 -58zM295 1876h246l92 -266l-160 -58z" />
<glyph unicode="&#x201;" horiz-adv-x="1200" d="M418 -20q-80 0 -148.5 25.5t-118 71.5t-78 108.5t-28.5 136.5q0 80 34 145t95.5 112.5t145 74t186.5 26.5q68 0 131 -11.5t111 -33.5v49q0 186 -216 186q-88 0 -167.5 -29.5t-167.5 -88.5l-97 204q106 70 221 105t244 35q244 0 377 -115t133 -336v-276q0 -49 15.5 -68.5 t54.5 -24.5v-276q-43 -10 -78 -13t-63 -3q-92 0 -139.5 35.5t-59.5 101.5l-6 49q-72 -92 -171 -141t-210 -49zM514 215q53 0 103.5 18.5t82.5 49.5q47 37 48 77v103q-43 16 -93.5 25.5t-93.5 9.5q-90 0 -148.5 -41t-58.5 -107q0 -59 45 -97t115 -38zM524 1495h248l90 -266 l-157 -58zM168 1495h246l92 -266l-160 -58z" />
<glyph unicode="&#x202;" d="M535 1454h303l530 -1454h-344l-113 326h-452l-111 -326h-344zM856 557l-170 514l-174 -514h344zM686 1731q-49 0 -85 -46.5t-36 -111.5h-174q0 66 21.5 121t61.5 95t93.5 62.5t118.5 22.5q66 0 120 -22.5t93 -62.5t60.5 -95.5t21.5 -120.5h-170q-6 70 -42 114t-83 44z " />
<glyph unicode="&#x203;" horiz-adv-x="1200" d="M418 -20q-80 0 -148.5 25.5t-118 71.5t-78 108.5t-28.5 136.5q0 80 34 145t95.5 112.5t145 74t186.5 26.5q68 0 131 -11.5t111 -33.5v49q0 186 -216 186q-88 0 -167.5 -29.5t-167.5 -88.5l-97 204q106 70 221 105t244 35q244 0 377 -115t133 -336v-276q0 -49 15.5 -68.5 t54.5 -24.5v-276q-43 -10 -78 -13t-63 -3q-92 0 -139.5 35.5t-59.5 101.5l-6 49q-72 -92 -171 -141t-210 -49zM514 215q53 0 103.5 18.5t82.5 49.5q47 37 48 77v103q-43 16 -93.5 25.5t-93.5 9.5q-90 0 -148.5 -41t-58.5 -107q0 -59 45 -97t115 -38zM588 1352q-49 0 -85 -46 t-36 -112h-174q0 66 21.5 121t61.5 95t93 62.5t119 22.5t120 -22.5t93 -62.5t60.5 -95t21.5 -121h-170q-6 70 -42 114t-83 44z" />
<glyph unicode="&#x204;" horiz-adv-x="1226" d="M604 1876h248l90 -266l-158 -58zM248 1876h246l92 -266l-160 -58zM1161 295v-295h-1022v1454h1004v-295h-668v-282h574v-273h-574v-309h686z" />
<glyph unicode="&#x205;" horiz-adv-x="1236" d="M594 1495h248l90 -266l-158 -58zM238 1495h245l92 -266l-159 -58zM627 -20q-135 0 -243 44t-182.5 119.5t-113.5 175t-39 207.5q0 117 39 220.5t112.5 181.5t181 123t245.5 45q137 0 243.5 -45t180 -122t111.5 -177.5t38 -210.5q0 -29 -2 -56.5t-6 -48.5h-795 q8 -109 79 -165t161 -56q72 0 138.5 35t88.5 94l279 -78q-63 -127 -196.5 -206.5t-319.5 -79.5zM854 639q-10 102 -73.5 161.5t-157.5 59.5q-96 0 -159 -60.5t-73 -160.5h463z" />
<glyph unicode="&#x206;" horiz-adv-x="1226" d="M651 1731q-49 0 -85 -46.5t-36 -111.5h-174q0 66 21.5 121t61.5 95t93.5 62.5t118.5 22.5q66 0 120 -22.5t93 -62.5t60.5 -95.5t21.5 -120.5h-170q-6 70 -42 114t-83 44zM1161 295v-295h-1022v1454h1004v-295h-668v-282h574v-273h-574v-309h686z" />
<glyph unicode="&#x207;" horiz-adv-x="1236" d="M631 1352q-49 0 -85 -46t-36 -112h-174q0 66 21.5 121t61.5 95t93 62.5t119 22.5t120 -22.5t93 -62.5t60.5 -95t21.5 -121h-170q-6 70 -42 114t-83 44zM627 -20q-135 0 -243 44t-182.5 119.5t-113.5 175t-39 207.5q0 117 39 220.5t112.5 181.5t181 123t245.5 45 q137 0 243.5 -45t180 -122t111.5 -177.5t38 -210.5q0 -29 -2 -56.5t-6 -48.5h-795q8 -109 79 -165t161 -56q72 0 138.5 35t88.5 94l279 -78q-63 -127 -196.5 -206.5t-319.5 -79.5zM854 639q-10 102 -73.5 161.5t-157.5 59.5q-96 0 -159 -60.5t-73 -160.5h463z" />
<glyph unicode="&#x208;" horiz-adv-x="614" d="M139 0v1454h336v-1454h-336zM281 1876h247l90 -266l-157 -58zM-76 1876h246l92 -266l-160 -58z" />
<glyph unicode="&#x209;" horiz-adv-x="552" d="M256 1495h248l90 -266l-158 -58zM-100 1495h245l93 -266l-160 -58zM113 0v1075h327v-1075h-327z" />
<glyph unicode="&#x20a;" horiz-adv-x="614" d="M139 0v1454h336v-1454h-336zM305 1731q-49 0 -85 -46.5t-36 -111.5h-174q0 66 21.5 121t61.5 95t93.5 62.5t118.5 22.5q66 0 120 -22.5t93 -62.5t60.5 -95.5t21.5 -120.5h-170q-6 70 -42 114t-83 44z" />
<glyph unicode="&#x20b;" horiz-adv-x="552" d="M276 1352q-49 0 -84.5 -46t-35.5 -112h-174q0 66 21.5 121t61 95t93 62.5t118.5 22.5q66 0 120.5 -22.5t93 -62.5t60 -95t21.5 -121h-170q-6 70 -42 114t-83 44zM113 0v1075h327v-1075h-327z" />
<glyph unicode="&#x20c;" horiz-adv-x="1556" d="M731 1876h248l90 -266l-158 -58zM375 1876h246l92 -266l-160 -58zM776 -12q-162 0 -295 63.5t-227 167t-146.5 236.5t-52.5 274q0 143 54.5 276.5t151.5 234.5t230.5 161.5t290.5 60.5q162 0 295 -63.5t227.5 -168t145.5 -237.5t51 -270q0 -143 -54 -276.5t-150.5 -234.5 t-229.5 -162.5t-291 -61.5zM397 725q0 -84 24.5 -163t73 -140.5t120 -98t163.5 -36.5q96 0 168 39t119 101t70.5 141t23.5 161q0 84 -24.5 163t-73.5 139.5t-120 96t-163 35.5q-96 0 -166.5 -38t-119 -99t-72 -140t-23.5 -161z" />
<glyph unicode="&#x20d;" horiz-adv-x="1249" d="M590 1495h248l90 -266l-158 -58zM233 1495h246l92 -266l-159 -58zM625 -20q-137 0 -245 45t-181.5 121.5t-111.5 178t-38 212.5t38 212t111.5 178t181 123t245.5 46q137 0 243.5 -46t180 -123t112.5 -178.5t39 -211.5q0 -111 -38 -212.5t-111.5 -178t-181 -121.5 t-244.5 -45zM385 537q0 -127 67.5 -204t172.5 -77q51 0 94 20.5t74.5 57.5t50 89t18.5 114q0 127 -67.5 203.5t-169.5 76.5q-51 0 -95.5 -20.5t-76 -57.5t-50 -89t-18.5 -113z" />
<glyph unicode="&#x20e;" horiz-adv-x="1556" d="M780 1731q-49 0 -85 -46.5t-36 -111.5h-174q0 66 21.5 121t61.5 95t93.5 62.5t118.5 22.5q66 0 120 -22.5t93 -62.5t60.5 -95.5t21.5 -120.5h-170q-6 70 -42 114t-83 44zM776 -12q-162 0 -295 63.5t-227 167t-146.5 236.5t-52.5 274q0 143 54.5 276.5t151.5 234.5 t230.5 161.5t290.5 60.5q162 0 295 -63.5t227.5 -168t145.5 -237.5t51 -270q0 -143 -54 -276.5t-150.5 -234.5t-229.5 -162.5t-291 -61.5zM397 725q0 -84 24.5 -163t73 -140.5t120 -98t163.5 -36.5q96 0 168 39t119 101t70.5 141t23.5 161q0 84 -24.5 163t-73.5 139.5 t-120 96t-163 35.5q-96 0 -166.5 -38t-119 -99t-72 -140t-23.5 -161z" />
<glyph unicode="&#x20f;" horiz-adv-x="1249" d="M623 1352q-49 0 -85 -46t-36 -112h-174q0 66 21.5 121t61.5 95t93 62.5t119 22.5t120 -22.5t92.5 -62.5t60.5 -95t22 -121h-170q-6 70 -42 114t-83 44zM625 -20q-137 0 -245 45t-181.5 121.5t-111.5 178t-38 212.5t38 212t111.5 178t181 123t245.5 46q137 0 243.5 -46 t180 -123t112.5 -178.5t39 -211.5q0 -111 -38 -212.5t-111.5 -178t-181 -121.5t-244.5 -45zM385 537q0 -127 67.5 -204t172.5 -77q51 0 94 20.5t74.5 57.5t50 89t18.5 114q0 127 -67.5 203.5t-169.5 76.5q-51 0 -95.5 -20.5t-76 -57.5t-50 -89t-18.5 -113z" />
<glyph unicode="&#x210;" d="M604 1876h248l90 -266l-158 -58zM248 1876h246l92 -266l-160 -58zM139 0v1454h656q102 0 189 -43t150.5 -112.5t99.5 -157.5t36 -178q0 -68 -16.5 -130.5t-47 -118t-75 -99.5t-99.5 -74l320 -541h-379l-279 469h-219v-469h-336zM475 762h307q59 0 102.5 56t43.5 145 q0 90 -49.5 143t-106.5 53h-297v-397z" />
<glyph unicode="&#x211;" horiz-adv-x="819" d="M426 1495h248l90 -266l-158 -58zM70 1495h245l93 -266l-160 -58zM795 795q-119 -2 -215.5 -39t-139.5 -111v-645h-327v1075h301v-217q55 109 142 170.5t185 63.5h33t21 -2v-295z" />
<glyph unicode="&#x212;" d="M659 1731q-49 0 -84.5 -46.5t-35.5 -111.5h-174q0 66 21.5 121t61 95t93 62.5t118.5 22.5q66 0 120.5 -22.5t93 -62.5t60 -95.5t21.5 -120.5h-170q-6 70 -42 114t-83 44zM139 0v1454h656q102 0 189 -43t150.5 -112.5t99.5 -157.5t36 -178q0 -68 -16.5 -130.5t-47 -118 t-75 -99.5t-99.5 -74l320 -541h-379l-279 469h-219v-469h-336zM475 762h307q59 0 102.5 56t43.5 145q0 90 -49.5 143t-106.5 53h-297v-397z" />
<glyph unicode="&#x213;" horiz-adv-x="819" d="M446 1352q-49 0 -84.5 -46t-35.5 -112h-174q0 66 21.5 121t61 95t93 62.5t118.5 22.5q66 0 120.5 -22.5t93 -62.5t60 -95t21.5 -121h-170q-6 70 -42 114t-83 44zM795 795q-119 -2 -215.5 -39t-139.5 -111v-645h-327v1075h301v-217q55 109 142 170.5t185 63.5h33t21 -2 v-295z" />
<glyph unicode="&#x214;" horiz-adv-x="1529" d="M725 1876h248l90 -266l-158 -58zM369 1876h245l93 -266l-160 -58zM764 287q86 0 145.5 35.5t96 95t52 136.5t15.5 157v743h336v-743q0 -152 -38 -283t-116.5 -229.5t-200.5 -154.5t-290 -56q-174 0 -297 59t-200 158.5t-112.5 230.5t-35.5 275v743h336v-743 q0 -84 16 -160t53 -135.5t95.5 -94t144.5 -34.5z" />
<glyph unicode="&#x215;" horiz-adv-x="1284" d="M596 1495h248l90 -266l-158 -58zM240 1495h245l93 -266l-160 -58zM438 -20q-166 0 -251 103t-85 304v688h328v-616q0 -98 39 -150.5t111 -52.5q66 0 127 35t108 121v663h328v-706q0 -49 15.5 -68.5t53.5 -24.5v-276q-47 -10 -79.5 -13t-59.5 -3q-176 0 -201 137l-6 65 q-74 -106 -183.5 -156t-244.5 -50z" />
<glyph unicode="&#x216;" horiz-adv-x="1529" d="M762 1731q-49 0 -85 -46.5t-36 -111.5h-174q0 66 21.5 121t61.5 95t93 62.5t119 22.5t120 -22.5t93 -62.5t60.5 -95.5t21.5 -120.5h-170q-6 70 -42 114t-83 44zM764 287q86 0 145.5 35.5t96 95t52 136.5t15.5 157v743h336v-743q0 -152 -38 -283t-116.5 -229.5 t-200.5 -154.5t-290 -56q-174 0 -297 59t-200 158.5t-112.5 230.5t-35.5 275v743h336v-743q0 -84 16 -160t53 -135.5t95.5 -94t144.5 -34.5z" />
<glyph unicode="&#x217;" horiz-adv-x="1284" d="M616 1352q-49 0 -84.5 -46t-35.5 -112h-174q0 66 21.5 121t61 95t93 62.5t118.5 22.5q66 0 120.5 -22.5t93 -62.5t60 -95t21.5 -121h-170q-6 70 -42 114t-83 44zM438 -20q-166 0 -251 103t-85 304v688h328v-616q0 -98 39 -150.5t111 -52.5q66 0 127 35t108 121v663h328 v-706q0 -49 15.5 -68.5t53.5 -24.5v-276q-47 -10 -79.5 -13t-59.5 -3q-176 0 -201 137l-6 65q-74 -106 -183.5 -156t-244.5 -50z" />
<glyph unicode="&#x218;" horiz-adv-x="1259" d="M555 -436l63 137h-98v203h275v-203l-97 -137h-143zM1012 1028q-6 8 -43 30.5t-92.5 47t-121 43t-130.5 18.5q-180 0 -181 -120q0 -37 19.5 -61.5t57.5 -44t95.5 -36t133.5 -37.5q104 -29 188 -62.5t142.5 -83.5t90 -122t31.5 -172q0 -123 -46 -208t-122 -137t-174 -75.5 t-203 -23.5q-80 0 -163.5 12t-163.5 35.5t-155 56.5t-138 76l147 293q8 -10 53.5 -39t112 -57.5t148.5 -51t166 -22.5q178 0 178 108q0 41 -27 67.5t-74 48t-111.5 40t-140.5 41.5q-100 31 -173.5 66.5t-122 82.5t-72 108.5t-23.5 143.5q0 115 43 203t117 148.5t171 91 t206 30.5q76 0 149.5 -14t141 -36.5t126 -51.5t107.5 -57z" />
<glyph unicode="&#x219;" horiz-adv-x="1021" d="M426 -436l63 137h-98v203h275v-203l-97 -137h-143zM537 -20q-137 0 -270.5 44t-225.5 128l117 200q98 -68 191 -104.5t179 -36.5q63 0 98.5 22.5t35.5 65.5t-44.5 68.5t-154.5 54.5q-109 31 -183.5 59.5t-121.5 63.5t-67.5 80t-20.5 106q0 82 32.5 149.5t90 114.5 t136.5 74t171 27q121 0 226 -33t204 -119l-127 -196q-92 63 -164 91.5t-139 28.5q-53 0 -90 -21.5t-37 -68.5q0 -45 40 -67.5t148 -48.5q115 -31 194 -62t128 -68.5t71.5 -87t22.5 -116.5q0 -160 -118.5 -254t-321.5 -94z" />
<glyph unicode="&#x21a;" horiz-adv-x="1271" d="M541 -436l63 137h-98v203h274v-203l-96 -137h-143zM1247 1159h-442v-1159h-336v1159h-444v295h1222v-295z" />
<glyph unicode="&#x21b;" horiz-adv-x="823" d="M369 -436l63 137h-98v203h274v-203l-96 -137h-143zM809 57q-68 -29 -155 -53t-175 -24q-61 0 -115.5 15t-95.5 49t-64.5 89t-23.5 133v561h-137v248h137v342h328v-342h219v-248h-219v-448q0 -53 26.5 -76.5t67.5 -23.5q37 0 76 12t67 26z" />
<glyph unicode="&#x237;" horiz-adv-x="552" d="M45 -414q-168 0 -289 103l138 223q23 -23 51 -33t59 -10q47 0 78 30.5t31 82.5v1093h327v-1069q0 -92 -29.5 -170t-83 -133t-126 -86t-156.5 -31z" />
<glyph unicode="&#x259;" horiz-adv-x="1236" d="M612 -20q-137 0 -244.5 45t-181 121.5t-111.5 178t-38 212.5q0 27 2 54t6 48h795q-8 109 -79 164t-161 55q-74 0 -139.5 -35t-87.5 -94l-279 80q63 125 196.5 206t319.5 81q135 0 243 -45t182.5 -120t113.5 -175.5t39 -210.5q0 -115 -38 -218.5t-111.5 -180 t-181.5 -121.5t-245 -45zM616 215q96 0 158 60.5t72 162.5h-463q10 -102 74.5 -162.5t158.5 -60.5z" />
<glyph unicode="&#x2bc;" horiz-adv-x="1075" d="M565 1171l-209 58l68 164l-18 102h356z" />
<glyph unicode="&#x2c6;" horiz-adv-x="786" d="M51 1274l225 221h236l223 -221l-168 -74l-174 129l-174 -129z" />
<glyph unicode="&#x2c7;" horiz-adv-x="786" d="M219 1495l174 -129l174 129l168 -76l-223 -219h-236l-225 219z" />
<glyph unicode="&#x2c9;" horiz-adv-x="876" d="M127 1272v198h623v-198h-623z" />
<glyph unicode="&#x2d8;" horiz-adv-x="710" d="M354 1337q47 0 83 44t42 114h170q0 -66 -21.5 -121t-60.5 -95t-93 -62.5t-120 -22.5t-119 22.5t-93 62.5t-61.5 95.5t-21.5 120.5h174q0 -66 36 -112t85 -46z" />
<glyph unicode="&#x2d9;" horiz-adv-x="499" d="M102 1214v281h295v-281h-295z" />
<glyph unicode="&#x2da;" horiz-adv-x="548" d="M55 1327q0 84 60.5 126t158.5 42t158 -42t60 -126q0 -82 -59.5 -124t-158.5 -42q-98 0 -158.5 42t-60.5 124zM274 1399q-35 0 -58 -19.5t-23 -50.5t23.5 -51.5t57.5 -20.5q33 0 57.5 19.5t24.5 52.5q0 31 -23.5 50.5t-58.5 19.5z" />
<glyph unicode="&#x2db;" horiz-adv-x="632" d="M412 -418q-137 16 -204 69.5t-67 121.5q0 72 64.5 143.5t193.5 130.5l97 -45q-154 -92 -154 -168q0 -35 33 -56.5t100 -23.5l-63 -172v0z" />
<glyph unicode="&#x2dc;" horiz-adv-x="921" d="M598 1204q-47 0 -83 14.5t-66.5 33t-59.5 32.5t-63 14q-35 0 -53.5 -14t-29 -32.5t-12.5 -34t-2 -17.5h-176q0 23 13.5 71t44 97t81 86t121.5 37q49 0 84 -15.5t65 -34t58.5 -33.5t65.5 -15q35 0 56.5 15t32.5 33.5t14 35t3 18.5h176q0 -16 -14 -63.5t-46 -98.5t-83 -90 t-127 -39z" />
<glyph unicode="&#x2dd;" horiz-adv-x="780" d="M217 1171l-158 58l93 266h245zM575 1171l-157 58l90 266h246z" />
<glyph unicode="&#x30f;" horiz-adv-x="780" d="M383 1495h248l90 -266l-158 -58zM27 1495h245l93 -266l-160 -58z" />
<glyph unicode="&#x311;" horiz-adv-x="710" d="M354 1352q-49 0 -85 -46t-36 -112h-174q0 66 21.5 121t61.5 95t93.5 62.5t118.5 22.5q66 0 120 -22.5t93 -62.5t60.5 -95t21.5 -121h-170q-6 70 -42 114t-83 44z" />
<glyph unicode="&#x394;" horiz-adv-x="1341" d="M1309 258v-258h-1276v258l504 1196h272zM985 295l-313 788l-305 -788h618z" />
<glyph unicode="&#x3a9;" horiz-adv-x="1603" d="M70 233h323q-141 82 -222 218.5t-81 310.5q0 139 54.5 266t149.5 224.5t225 154.5t282 57q154 0 283.5 -57t225 -154.5t148.5 -224.5t53 -266q0 -174 -79.5 -310.5t-221.5 -218.5h322v-233h-649v233q70 27 125 81.5t94 126t59.5 154.5t20.5 167q0 76 -27 147.5t-76 129 t-119.5 92t-158.5 34.5t-159 -34.5t-120 -92t-74.5 -129t-25.5 -147.5q0 -84 20.5 -167t59.5 -154.5t94 -126t123 -81.5v-233h-649v233z" />
<glyph unicode="&#x3bc;" horiz-adv-x="1308" d="M113 1075h327v-616q0 -98 39 -150.5t119 -52.5q57 0 118.5 35t108.5 121v663h328v-706q0 -49 18.5 -68.5t65.5 -24.5v-276q-51 -10 -88 -13t-66 -3q-86 0 -138 37.5t-62 103.5l-6 61q-12 -31 -43 -66.5t-71 -66t-88 -52t-97 -21.5q-37 0 -65 11t-48.5 26.5t-31.5 33 t-13 27.5l20 -514h-327v1511z" />
<glyph unicode="&#x3c0;" horiz-adv-x="1353" d="M528 791v-791h-325v791h-150v278h1192v-278h-180v-408q0 -123 104 -123q25 0 54.5 7t54.5 22l43 -246q-61 -29 -141 -45t-150 -16q-139 0 -216 73.5t-77 212.5v523h-209z" />
<glyph unicode="&#x400;" horiz-adv-x="1232" d="M1167 295v-295h-1022v1454h1004v-295h-668v-282h574v-273h-574v-309h686zM375 1876h297l106 -266l-207 -58z" />
<glyph unicode="&#x401;" horiz-adv-x="1232" d="M315 1595v265h271v-265h-271zM745 1595v265h271v-265h-271zM1167 295v-295h-1022v1454h1004v-295h-668v-282h574v-273h-574v-309h686z" />
<glyph unicode="&#x402;" horiz-adv-x="1531" d="M311 1167h-286v287h1175v-287h-561v-333q70 55 161 84.5t193 29.5q121 0 217.5 -34.5t163 -98t102 -154t35.5 -200.5q0 -229 -130 -355t-369 -126q-137 0 -267 45l91 272q78 -39 149 -39q86 0 140.5 47t54.5 156q0 102 -56.5 155.5t-154.5 53.5q-178 0 -330 -131v-539 h-328v1167z" />
<glyph unicode="&#x403;" horiz-adv-x="1083" d="M682 1550l-209 58l107 266h297zM1063 1159h-580v-1159h-338v1454h918v-295z" />
<glyph unicode="&#x404;" horiz-adv-x="1425" d="M1395 326q-35 -80 -99.5 -143.5t-147.5 -106.5t-178.5 -65.5t-191.5 -22.5q-162 0 -295 64.5t-228 171t-147.5 241.5t-52.5 274q0 131 49.5 261t142.5 232.5t230 166t314 63.5q211 0 361.5 -88t223.5 -229l-258 -180q-25 57 -62.5 95t-83.5 61.5t-95.5 32.5t-94.5 9 q-78 0 -137 -23.5t-104 -62.5t-75 -91t-46 -109h506v-269h-514q14 -68 47 -126t81 -102t110.5 -68.5t135.5 -24.5q47 0 96.5 11t94.5 34.5t82 61.5t59 93z" />
<glyph unicode="&#x405;" horiz-adv-x="1259" d="M1012 1028q-6 8 -43 30.5t-92.5 47t-121 43t-130.5 18.5q-180 0 -181 -120q0 -37 19.5 -61.5t57.5 -44t95.5 -36t133.5 -37.5q104 -29 188 -62.5t142.5 -83.5t90 -122t31.5 -172q0 -123 -46 -208t-122 -137t-174 -75.5t-203 -23.5q-80 0 -163.5 12t-163.5 35.5t-155 56.5 t-138 76l147 293q8 -10 53.5 -39t112 -57.5t148.5 -51t166 -22.5q178 0 178 108q0 41 -27 67.5t-74 48t-111.5 40t-140.5 41.5q-100 31 -173.5 66.5t-122 82.5t-72 108.5t-23.5 143.5q0 115 43 203t117 148.5t171 91t206 30.5q76 0 149.5 -14t141 -36.5t126 -51.5t107.5 -57 z" />
<glyph unicode="&#x406;" horiz-adv-x="628" d="M145 0v1454h336v-1454h-336z" />
<glyph unicode="&#x407;" horiz-adv-x="628" d="M145 0v1454h336v-1454h-336zM-37 1595v265h270v-265h-270zM393 1595v265h271v-265h-271z" />
<glyph unicode="&#x408;" horiz-adv-x="1017" d="M82 342q20 -16 87 -41t155 -25q76 0 120.5 26t69.5 79t32 136t7 198v739h336v-739q0 -166 -17.5 -302.5t-76 -232.5t-171 -149.5t-300.5 -53.5q-184 0 -316 91z" />
<glyph unicode="&#x409;" horiz-adv-x="2187" d="M23 281q74 8 124 35.5t84.5 106.5t58 224.5t46.5 388.5l37 418h944v-545h330q113 0 204 -30.5t156.5 -88t101 -140.5t35.5 -189q0 -109 -34.5 -195t-98 -145.5t-153 -90t-197.5 -30.5h-680v1159h-303l-21 -209q-29 -279 -68.5 -464t-108 -295.5t-177 -157.5t-270.5 -47z M1620 285q90 0 136 48t46 132q0 76 -46 127t-136 51h-303v-358h303z" />
<glyph unicode="&#x40a;" horiz-adv-x="2238" d="M145 1454h338v-555h549v555h336v-545h330q113 0 204 -30.5t156.5 -88t101 -140.5t35.5 -189q0 -109 -34.5 -195t-98 -145.5t-152.5 -90t-198 -30.5h-680v606h-549v-606h-338v1454zM1671 285q90 0 136 38.5t46 127.5q0 164 -182 163h-303v-329h303z" />
<glyph unicode="&#x40b;" horiz-adv-x="1521" d="M1126 340q0 145 -53 220t-176 75q-72 0 -138.5 -21.5t-119.5 -58.5v-555h-328v1167h-286v287h1146v-287h-532v-297q66 35 153 54.5t189 19.5q109 0 197 -27.5t149.5 -86t95 -147.5t33.5 -210v-473h-330v340z" />
<glyph unicode="&#x40c;" d="M795 1550l-209 58l106 266h297zM481 877h76l424 577h379l-522 -702l569 -752h-375l-444 571h-107v-571h-336v1454h336v-577z" />
<glyph unicode="&#x40d;" horiz-adv-x="1548" d="M535 1876h296l107 -266l-207 -58zM483 522l684 932h250v-1454h-336v909l-675 -909h-261v1454h338v-932z" />
<glyph unicode="&#x40e;" horiz-adv-x="1316" d="M418 -14q-23 0 -53.5 4t-62.5 11t-62.5 19.5t-55.5 30.5l60 277q16 -10 55 -31t86 -21q53 0 90 29t60 94l-537 1055h369l319 -721l295 721h354l-512 -1106q-45 -98 -87 -166.5t-89 -111.5t-102 -63.5t-127 -20.5zM678 1571q-88 0 -160 22.5t-124 62.5t-80.5 96t-28.5 124 h202q0 -27 15.5 -50.5t41 -41t60.5 -27.5t74 -10q74 0 128 37t64 92h201q0 -68 -28.5 -124t-81 -96t-124 -62.5t-159.5 -22.5z" />
<glyph unicode="&#x40f;" horiz-adv-x="1470" d="M145 1454h336v-1159h508v1159h336v-1454h-434v-352h-313v352h-433v1454z" />
<glyph unicode="&#x410;" d="M535 1454h303l530 -1454h-344l-113 326h-452l-111 -326h-344zM856 557l-170 514l-174 -514h344z" />
<glyph unicode="&#x411;" horiz-adv-x="1380" d="M145 1454h1088v-295h-750v-278h353q236 0 367.5 -114t131.5 -321q0 -213 -127 -329.5t-358 -116.5h-705v1454zM811 285q88 0 134 44t46 122q0 72 -45 117.5t-135 45.5h-328v-329h328z" />
<glyph unicode="&#x412;" horiz-adv-x="1409" d="M1337 373q0 -94 -38.5 -164t-106.5 -116t-158 -69.5t-190 -23.5h-709v1454h809q76 0 137.5 -32.5t104.5 -85t66.5 -119t23.5 -136.5q0 -104 -52.5 -196t-156.5 -140q125 -37 197.5 -131t72.5 -241zM995 440q0 68 -38.5 115t-98.5 47h-387v-317h373q66 0 108.5 42.5 t42.5 112.5zM471 1167v-301h330q55 0 98 37t43 115q0 72 -38 110.5t-91 38.5h-342z" />
<glyph unicode="&#x413;" horiz-adv-x="1083" d="M1063 1159h-580v-1159h-338v1454h918v-295z" />
<glyph unicode="&#x414;" horiz-adv-x="1599" d="M35 295h67q55 0 97.5 35t73 118.5t54 226t42.5 361.5l37 418h944v-1159h211v-647h-324v352h-881v-352h-321v647zM1014 295v864h-305l-19 -209q-23 -238 -58.5 -397.5t-92.5 -257.5h475z" />
<glyph unicode="&#x415;" horiz-adv-x="1232" d="M1167 295v-295h-1022v1454h1004v-295h-668v-282h574v-273h-574v-309h686z" />
<glyph unicode="&#x416;" horiz-adv-x="2113" d="M514 752l-500 702h381l398 -577h92v577h344v-577h92l397 577h381l-500 -702l547 -752h-377l-413 571h-127v-571h-344v571h-127l-414 -571h-377z" />
<glyph unicode="&#x417;" horiz-adv-x="1159" d="M59 1260q98 102 222.5 154t293.5 52q215 0 342 -94t127 -278q0 -102 -50 -190.5t-171 -131.5q135 -33 206 -126t71 -226q0 -102 -41 -183t-114 -136.5t-172 -84t-214 -28.5q-166 0 -291 48t-237 150l172 248q70 -66 150.5 -105.5t191.5 -39.5q92 0 152.5 46t60.5 138 q0 78 -56.5 131t-181.5 53h-176v234h152q117 0 176 41t59 117q0 66 -43 101.5t-133 35.5q-98 0 -175 -35t-144 -100z" />
<glyph unicode="&#x418;" horiz-adv-x="1562" d="M483 522l684 932h250v-1454h-336v909l-675 -909h-261v1454h338v-932z" />
<glyph unicode="&#x419;" horiz-adv-x="1562" d="M1208 1876q0 -68 -28.5 -124t-80.5 -96t-124 -62.5t-160 -22.5t-159.5 22.5t-124 62.5t-81 96t-28.5 124h203q0 -27 15 -50.5t41 -41t60.5 -27.5t73.5 -10q74 0 128 37t65 92h200zM483 522l684 932h250v-1454h-336v909l-675 -909h-261v1454h338v-932z" />
<glyph unicode="&#x41a;" d="M481 877h76l424 577h379l-522 -702l569 -752h-375l-444 571h-107v-571h-336v1454h336v-577z" />
<glyph unicode="&#x41b;" horiz-adv-x="1462" d="M657 950q-27 -276 -66.5 -461.5t-109 -297t-178 -158.5t-270.5 -47l-10 295q74 8 124 35.5t84.5 106.5t58 224.5t46.5 388.5l37 418h944v-1454h-336v1159h-303z" />
<glyph unicode="&#x41c;" horiz-adv-x="1775" d="M1292 0v870l-315 -632h-180l-316 632v-870h-336v1454h365l377 -760l379 760h362v-1454h-336z" />
<glyph unicode="&#x41d;" horiz-adv-x="1544" d="M1397 1454v-1454h-336v596h-580v-596h-336v1454h336v-563h580v563h336z" />
<glyph unicode="&#x41e;" horiz-adv-x="1556" d="M776 -12q-162 0 -295 63.5t-227 167t-146.5 236.5t-52.5 274q0 143 54.5 276.5t151.5 234.5t230.5 161.5t290.5 60.5q162 0 295 -63.5t227.5 -168t145.5 -237.5t51 -270q0 -143 -54 -276.5t-150.5 -234.5t-229.5 -162.5t-291 -61.5zM397 725q0 -84 24.5 -163t73 -140.5 t120 -98t163.5 -36.5q96 0 168 39t119 101t70.5 141t23.5 161q0 84 -24.5 163t-73.5 139.5t-120 96t-163 35.5q-96 0 -166.5 -38t-119 -99t-72 -140t-23.5 -161z" />
<glyph unicode="&#x41f;" horiz-adv-x="1513" d="M145 1454h1223v-1454h-336v1159h-549v-1159h-338v1454z" />
<glyph unicode="&#x420;" horiz-adv-x="1282" d="M145 0v1454h621q104 0 191 -43t149.5 -112.5t98.5 -157.5t36 -178q0 -96 -33.5 -184.5t-94 -158t-146.5 -110.5t-191 -41h-295v-469h-336zM481 762h275q59 0 102 51t43 150q0 51 -13.5 87.5t-36 61.5t-51 36t-57.5 11h-262v-397z" />
<glyph unicode="&#x421;" horiz-adv-x="1409" d="M55 739q0 131 49.5 261t143.5 232.5t229 166t307 63.5q205 0 355.5 -88t224.5 -229l-258 -180q-25 57 -62.5 95t-83 61.5t-92.5 32.5t-92 9q-96 0 -167.5 -39t-119 -100t-70 -139t-22.5 -158q0 -86 27 -166t77 -141.5t120.5 -97t158.5 -35.5q45 0 93.5 11t92.5 34.5 t80.5 61.5t59.5 93l274 -161q-33 -80 -97 -143.5t-148 -106.5t-178.5 -65.5t-184.5 -22.5q-158 0 -290 64.5t-227 171t-147.5 241.5t-52.5 274z" />
<glyph unicode="&#x422;" horiz-adv-x="1271" d="M1247 1159h-442v-1159h-336v1159h-444v295h1222v-295z" />
<glyph unicode="&#x423;" horiz-adv-x="1316" d="M418 -14q-23 0 -53.5 4t-62.5 11t-62.5 19.5t-55.5 30.5l60 277q16 -10 55 -31t86 -21q53 0 90 29t60 94l-537 1055h369l319 -721l295 721h354l-512 -1106q-45 -98 -87 -166.5t-89 -111.5t-102 -63.5t-127 -20.5z" />
<glyph unicode="&#x424;" horiz-adv-x="1646" d="M666 109q-158 18 -275 70t-194.5 135t-115.5 192.5t-38 241.5q0 125 37 234.5t112.5 193.5t193.5 139t280 74v196h319v-196q160 -18 276.5 -75t191.5 -140.5t112 -192.5t37 -233q0 -262 -153 -431.5t-464 -205.5v-179h-319v177zM985 418q156 29 223.5 112.5t67.5 219.5 q0 139 -68.5 221t-222.5 108v-661zM666 1079q-158 -27 -228.5 -107.5t-70.5 -221.5q0 -135 69.5 -220.5t229.5 -111.5v661z" />
<glyph unicode="&#x425;" horiz-adv-x="1333" d="M350 1454l318 -502l317 502h363l-504 -737l487 -717h-362l-301 481l-301 -481h-365l487 717l-503 737h364z" />
<glyph unicode="&#x426;" horiz-adv-x="1562" d="M1200 0h-1053v1454h336v-1159h494v1159h336v-1159h211v-647h-324v352z" />
<glyph unicode="&#x427;" horiz-adv-x="1323" d="M848 1454h330v-1454h-330v543q-61 -27 -132 -40.5t-184 -13.5q-129 0 -217 38t-143 105.5t-78.5 159t-23.5 197.5v465h329v-362q0 -150 53.5 -222.5t192.5 -72.5q66 0 117 11t86 32v614z" />
<glyph unicode="&#x428;" horiz-adv-x="2062" d="M1917 1454v-1454h-1772v1454h338v-1159h381v1159h336v-1159h381v1159h336z" />
<glyph unicode="&#x429;" horiz-adv-x="2166" d="M1806 0h-1659v1454h336v-1159h381v1159h336v-1159h381v1159h336v-1159h211v-647h-322v352z" />
<glyph unicode="&#x42a;" horiz-adv-x="1568" d="M23 1454h725v-498h260q117 0 212 -31.5t162.5 -92t104.5 -148.5t37 -199q0 -115 -37 -205t-102.5 -152t-157.5 -95t-205 -33h-610v1176h-389v278zM748 285h233q98 0 149.5 54t51.5 148q0 86 -51.5 144.5t-149.5 58.5h-233v-405z" />
<glyph unicode="&#x42b;" horiz-adv-x="1923" d="M145 1454h338v-498h258q117 0 212.5 -31.5t163 -92t104 -148.5t36.5 -199q0 -115 -35.5 -205t-102 -152t-159 -95t-204.5 -33h-611v1454zM1440 0v1454h336v-1454h-336zM483 285h232q100 0 150 54t50 148q0 86 -51 144.5t-149 58.5h-232v-405z" />
<glyph unicode="&#x42c;" horiz-adv-x="1302" d="M145 1454h338v-498h258q117 0 212.5 -31.5t163 -92t104 -148.5t36.5 -199q0 -115 -35.5 -205t-102 -152t-159 -95t-204.5 -33h-611v1454zM483 285h232q100 0 150 54t50 148q0 86 -51 144.5t-149 58.5h-232v-405z" />
<glyph unicode="&#x42d;" horiz-adv-x="1425" d="M647 -12q-96 0 -191.5 22.5t-178 65.5t-148.5 106.5t-98 143.5l276 161q23 -55 59.5 -93t82 -61.5t94.5 -34.5t96 -11q74 0 136.5 24.5t110.5 68.5t79.5 102.5t48.5 125.5h-514v269h506q-16 57 -46 109t-75 91t-105.5 62.5t-136.5 23.5q-47 0 -95 -9t-94 -32.5t-84 -61.5 t-63 -95l-258 180q74 141 224.5 229t361.5 88q176 0 313 -63.5t230.5 -166t142.5 -232.5t49 -261q0 -139 -52 -274t-147.5 -241.5t-228.5 -171t-295 -64.5z" />
<glyph unicode="&#x42e;" horiz-adv-x="2084" d="M1343 -12q-133 0 -245.5 44t-198.5 124t-141.5 190.5t-75.5 241.5h-199v-588h-336v1454h336v-573h201q20 131 78.5 237.5t146.5 183t200 118.5t241 42q154 0 277.5 -57t212.5 -156.5t137 -234.5t48 -291q0 -166 -51 -302t-141 -232.5t-216.5 -148.5t-273.5 -52zM1012 725 q0 -205 85 -321.5t249 -116.5q86 0 149.5 31.5t105 90t63.5 140.5t22 180q0 205 -88.5 319.5t-251.5 114.5q-166 0 -250 -119.5t-84 -318.5z" />
<glyph unicode="&#x42f;" horiz-adv-x="1380" d="M897 0v524h-174l-324 -524h-364l352 563q-123 53 -193.5 165t-70.5 261q0 98 36 182t98 147.5t149.5 99.5t191.5 36h635v-1454h-336zM897 1167h-256q-33 0 -64.5 -11t-57 -32.5t-41 -55.5t-15.5 -79q0 -90 51 -134t123 -44h260v356z" />
<glyph unicode="&#x430;" horiz-adv-x="1202" d="M418 -20q-80 0 -148.5 25.5t-118 71.5t-78 108.5t-28.5 136.5q0 80 34 145t95.5 112.5t145 74t186.5 26.5q68 0 131 -11.5t111 -33.5v49q0 186 -216 186q-88 0 -167.5 -29.5t-167.5 -88.5l-97 204q106 70 221 105t244 35q244 0 377 -115t133 -336v-276q0 -49 15.5 -68.5 t54.5 -24.5v-276q-43 -10 -78 -13t-63 -3q-92 0 -139.5 35.5t-59.5 101.5l-6 49q-72 -92 -171 -141t-210 -49zM514 215q53 0 103.5 18.5t82.5 49.5q47 37 48 77v103q-43 16 -93.5 25.5t-93.5 9.5q-90 0 -148.5 -41t-58.5 -107q0 -59 45 -97t115 -38z" />
<glyph unicode="&#x431;" horiz-adv-x="1265" d="M651 1145q-111 -23 -177 -93.5t-89 -205.5q57 72 145 112.5t205 40.5q96 0 182.5 -37.5t152 -104t103 -156t37.5 -189.5q0 -109 -37.5 -206t-109.5 -170t-178.5 -114.5t-241.5 -41.5q-279 0 -422 164.5t-143 482.5q0 190 36 327.5t106.5 232.5t178 152.5t252.5 87.5 l430 89l11 -279zM416 516q0 -119 64.5 -190.5t166.5 -71.5q100 0 163.5 70.5t63.5 185.5q0 98 -64.5 161.5t-166.5 63.5q-100 0 -163.5 -61.5t-63.5 -157.5z" />
<glyph unicode="&#x432;" horiz-adv-x="1175" d="M807 1075q61 0 110.5 -22.5t84 -60.5t54 -88t19.5 -103q0 -72 -38 -140.5t-124 -103.5q96 -29 152.5 -93.5t56.5 -178.5q0 -152 -110.5 -218.5t-302.5 -66.5h-592v1075h690zM647 633q47 0 76 25.5t29 78.5q0 43 -27 73t-74 30h-207v-207h203zM688 236q45 0 75 30.5 t30 77.5q0 51 -29 82t-76 31h-244v-221h244z" />
<glyph unicode="&#x433;" horiz-adv-x="890" d="M862 797h-420v-797h-325v1075h745v-278z" />
<glyph unicode="&#x434;" horiz-adv-x="1331" d="M29 285h55q47 4 79 23.5t54.5 68.5t36.5 133t29 215l36 350h801v-790h154v-574h-293v289h-670v-289h-282v574zM795 285v510h-193l-14 -121q-16 -133 -43 -225.5t-68 -163.5h318z" />
<glyph unicode="&#x435;" horiz-adv-x="1236" d="M627 -20q-135 0 -243 44t-182.5 119.5t-113.5 175t-39 207.5q0 117 39 220.5t112.5 181.5t181 123t245.5 45q137 0 243.5 -45t180 -122t111.5 -177.5t38 -210.5q0 -29 -2 -56.5t-6 -48.5h-795q8 -109 79 -165t161 -56q72 0 138.5 35t88.5 94l279 -78 q-63 -127 -196.5 -206.5t-319.5 -79.5zM854 639q-10 102 -73.5 161.5t-157.5 59.5q-96 0 -159 -60.5t-73 -160.5h463z" />
<glyph unicode="&#x436;" horiz-adv-x="1787" d="M391 1075l266 -395h70v395h336v-395h70l264 395h370l-364 -518l399 -557h-389l-270 401h-82v-401h-334v401h-80l-270 -401h-389l395 557l-363 518h371z" />
<glyph unicode="&#x437;" horiz-adv-x="935" d="M61 956q90 72 193.5 106t208.5 34q74 0 140.5 -17.5t117.5 -52.5t82 -89t31 -128q0 -80 -45.5 -146.5t-126.5 -82.5q115 -29 172 -101.5t57 -175.5q0 -72 -34 -131t-92 -102t-139 -66.5t-173 -23.5q-135 0 -249 40.5t-177 112.5l149 209q35 -43 96.5 -67.5t133.5 -24.5 q78 0 123.5 27.5t45.5 84.5q0 59 -46 91t-171 32h-92v170h88q96 0 144.5 34t48.5 87q0 45 -34 66.5t-87 21.5q-55 0 -119.5 -23.5t-113.5 -66.5z" />
<glyph unicode="&#x438;" horiz-adv-x="1263" d="M442 469l469 606h236v-1075h-328v588l-463 -588h-239v1075h325v-606z" />
<glyph unicode="&#x439;" horiz-adv-x="1263" d="M1001 1495q-2 -137 -98 -219t-252 -82t-252 82t-100 219h174q2 -72 47 -115t131 -43q82 0 126 41t50 117h174zM442 469l469 606h236v-1075h-328v588l-463 -588h-239v1075h325v-606z" />
<glyph unicode="&#x43a;" horiz-adv-x="1148" d="M786 1075h351l-420 -520l454 -555h-376l-312 383h-43v-383h-323v1075h323v-403h37z" />
<glyph unicode="&#x43b;" horiz-adv-x="1196" d="M20 283q55 2 91 19t60 65.5t39 133.5t32 224l37 350h802v-1075h-327v795h-191l-16 -121q-27 -199 -62.5 -329t-94 -208t-145.5 -110.5t-216 -34.5z" />
<glyph unicode="&#x43c;" horiz-adv-x="1497" d="M750 565l292 510h338v-1075h-311v584l-248 -428h-145l-248 428v-584h-311v1075h340z" />
<glyph unicode="&#x43d;" horiz-adv-x="1247" d="M442 692h363v383h325v-1075h-325v410h-363v-410h-325v1075h325v-383z" />
<glyph unicode="&#x43e;" horiz-adv-x="1249" d="M625 -20q-137 0 -245 45t-181.5 121.5t-111.5 178t-38 212.5t38 212t111.5 178t181 123t245.5 46q137 0 243.5 -46t180 -123t112.5 -178.5t39 -211.5q0 -111 -38 -212.5t-111.5 -178t-181 -121.5t-244.5 -45zM385 537q0 -127 67.5 -204t172.5 -77q51 0 94 20.5t74.5 57.5 t50 89t18.5 114q0 127 -67.5 203.5t-169.5 76.5q-51 0 -95.5 -20.5t-76 -57.5t-50 -89t-18.5 -113z" />
<glyph unicode="&#x43f;" horiz-adv-x="1216" d="M1100 0h-326v791h-332v-791h-325v1075h983v-1075z" />
<glyph unicode="&#x440;" horiz-adv-x="1312" d="M797 -20q-123 0 -213 51t-140 143v-610h-327v1511h284v-174q59 92 148.5 143.5t212.5 51.5q109 0 200 -43t157.5 -118t104.5 -176.5t38 -217.5q0 -121 -35 -223.5t-96.5 -177t-147.5 -117.5t-186 -43zM686 256q53 0 97 23.5t77 62.5t50.5 91t17.5 110q0 59 -19.5 109 t-53.5 87t-82 57.5t-103 20.5q-68 0 -130.5 -40t-95.5 -107v-221q33 -82 99.5 -137.5t142.5 -55.5z" />
<glyph unicode="&#x441;" horiz-adv-x="1167" d="M49 539q0 111 39 212t112.5 178t181 122t245.5 45q186 0 313 -79t190 -206l-319 -96q-63 102 -186 102q-102 0 -171 -75.5t-69 -202.5q0 -63 18.5 -115.5t51 -89.5t76.5 -57.5t94 -20.5q61 0 112 29.5t76 76.5l320 -98q-59 -125 -189.5 -204.5t-316.5 -79.5 q-135 0 -243 46t-182.5 122.5t-113.5 178t-39 212.5z" />
<glyph unicode="&#x442;" horiz-adv-x="1030" d="M680 0h-326v791h-323v284h970v-284h-321v-791z" />
<glyph unicode="&#x443;" horiz-adv-x="1130" d="M164 -162q35 -16 66.5 -21t54.5 -5q47 0 78.5 39.5t50.5 148.5l-410 1075h338l250 -794l215 794h307l-395 -1210q-57 -174 -157.5 -256t-242.5 -82q-41 0 -80.5 7t-74.5 24v280z" />
<glyph unicode="&#x444;" horiz-adv-x="1513" d="M926 1083q266 -37 402 -185t136 -363q0 -223 -138 -365.5t-400 -177.5v-428h-328v426q-268 31 -408.5 173t-140.5 372q0 109 35 201.5t103.5 164.5t172 119t238.5 65v410h328v-412zM598 825q-125 -25 -179 -97.5t-54 -188.5q0 -119 52 -193t181 -100v579zM926 250 q121 27 172 100.5t51 188.5t-52.5 186.5t-170.5 97.5v-573z" />
<glyph unicode="&#x445;" horiz-adv-x="1110" d="M340 1075l195 -303l20 -39l20 39l193 303h336l-373 -538l381 -537h-336l-203 301l-18 39l-18 -39l-203 -301h-336l381 537l-373 538h334z" />
<glyph unicode="&#x446;" horiz-adv-x="1280" d="M117 1075h325v-790h299v790h328v-790h166v-574h-293v289h-825v1075z" />
<glyph unicode="&#x447;" horiz-adv-x="1085" d="M969 0h-320v360q-51 -18 -101 -28t-114 -10q-88 0 -157.5 28.5t-117.5 78.5t-74 118.5t-26 146.5v381h312v-334q0 -88 36.5 -128t110.5 -40q78 0 131 35v467h320v-1075z" />
<glyph unicode="&#x448;" horiz-adv-x="1761" d="M117 0v1075h325v-790h275v790h327v-790h273v790h328v-1075h-1528z" />
<glyph unicode="&#x449;" horiz-adv-x="1857" d="M117 1075h325v-790h275v790h327v-790h273v790h328v-790h167v-574h-294v289h-1401v1075z" />
<glyph unicode="&#x44a;" horiz-adv-x="1296" d="M621 752h215q96 0 176 -26t136 -73t87 -115.5t31 -154.5q0 -90 -30 -160.5t-84 -120t-131 -76t-171 -26.5h-555v807h-266v268h592v-323zM805 252q59 0 93 31.5t34 91.5q0 59 -35 93t-92 34h-184v-250h184z" />
<glyph unicode="&#x44b;" horiz-adv-x="1609" d="M117 1075h325v-323h170q98 0 177 -26t136.5 -73t88 -115.5t30.5 -154.5q0 -90 -29.5 -160.5t-83.5 -120t-131 -76t-171 -26.5h-512v1075zM1167 1075h326v-1075h-326v1075zM584 252q59 0 93 31.5t34 91.5q0 59 -35 93t-92 34h-142v-250h142z" />
<glyph unicode="&#x44c;" horiz-adv-x="1118" d="M117 1075h325v-323h213q98 0 177 -26t136.5 -73t88 -115.5t30.5 -154.5q0 -90 -29.5 -160.5t-83.5 -120t-131 -76t-171 -26.5h-555v1075zM627 252q59 0 94 31.5t35 91.5q0 59 -36 93t-93 34h-185v-250h185z" />
<glyph unicode="&#x44d;" horiz-adv-x="1140" d="M518 -20q-80 0 -154.5 17t-139 50t-115 80t-80.5 106l245 146q37 -63 104.5 -96t133.5 -33q84 0 145.5 50t83.5 134h-335v203h339q-27 86 -93 137t-156 51q-61 0 -125 -27.5t-105 -90.5l-223 149q59 106 181 173t284 67q135 0 243.5 -47.5t184.5 -125t117 -177t41 -203.5 q0 -109 -42 -210.5t-118 -179t-182.5 -125.5t-233.5 -48z" />
<glyph unicode="&#x44e;" horiz-adv-x="1654" d="M582 690q20 94 66 169t111.5 127t148.5 81t179 29q117 0 212.5 -41t163 -116t104.5 -179.5t37 -229.5q0 -131 -39 -233t-109 -173t-164 -107.5t-207 -36.5q-205 0 -338 115.5t-169 310.5h-136v-406h-327v1075h327v-385h140zM879 537q0 -137 56 -204t148 -67 q96 0 151.5 68.5t55.5 206.5q0 137 -56 202.5t-149 65.5q-96 0 -151 -68.5t-55 -203.5z" />
<glyph unicode="&#x44f;" horiz-adv-x="1150" d="M307 401q-98 33 -152.5 109t-54.5 203q0 86 30 153.5t83 114.5t125 72.5t158 25.5h538v-1079h-325v350h-111l-217 -350h-348zM709 588v239h-166q-43 0 -77 -31.5t-34 -88.5q0 -55 32 -87t79 -32h166z" />
<glyph unicode="&#x450;" horiz-adv-x="1236" d="M627 -20q-135 0 -243 44t-182.5 119.5t-113.5 175t-39 207.5q0 117 39 220.5t112.5 181.5t181 123t245.5 45q137 0 243.5 -45t180 -122t111.5 -177.5t38 -210.5q0 -29 -2 -56.5t-6 -48.5h-795q8 -109 79 -165t161 -56q72 0 138.5 35t88.5 94l279 -78 q-63 -127 -196.5 -206.5t-319.5 -79.5zM854 639q-10 102 -73.5 161.5t-157.5 59.5q-96 0 -159 -60.5t-73 -160.5h463zM334 1497h297l106 -266l-207 -57z" />
<glyph unicode="&#x451;" horiz-adv-x="1236" d="M274 1217v264h271v-264h-271zM705 1217v264h270v-264h-270zM627 -20q-135 0 -243 44t-182.5 119.5t-113.5 175t-39 207.5q0 117 39 220.5t112.5 181.5t181 123t245.5 45q137 0 243.5 -45t180 -122t111.5 -177.5t38 -210.5q0 -29 -2 -56.5t-6 -48.5h-795q8 -109 79 -165 t161 -56q72 0 138.5 35t88.5 94l279 -78q-63 -127 -196.5 -206.5t-319.5 -79.5zM854 639q-10 102 -73.5 161.5t-157.5 59.5q-96 0 -159 -60.5t-73 -160.5h463z" />
<glyph unicode="&#x452;" horiz-adv-x="1263" d="M1153 6q0 -92 -29.5 -169t-82 -133t-126 -87t-159.5 -31q-80 0 -154 27t-131 76l137 223q18 -20 47 -31.5t60 -11.5q49 0 79.5 30.5t30.5 82.5v516q0 104 -41 153t-106 49q-78 0 -141.5 -68.5t-92.5 -178.5v-453h-327v1126h-160v197h160v172h327v-172h430v-197h-430v-374 q55 113 152.5 174t220.5 61q104 0 170 -36t102.5 -93t50 -130t13.5 -146v-576z" />
<glyph unicode="&#x453;" horiz-adv-x="892" d="M582 1171l-209 58l106 266h297zM862 797h-420v-797h-325v1075h745v-278z" />
<glyph unicode="&#x454;" horiz-adv-x="1142" d="M625 -20q-127 0 -233.5 44t-183.5 119.5t-119 178t-42 221.5q0 111 41 210t117 176t185.5 122t244.5 45q160 0 283.5 -66.5t183.5 -173.5l-244 -170q-33 72 -100.5 105.5t-124.5 33.5q-47 0 -86 -16t-68.5 -42t-50 -59.5t-33.5 -70.5h340v-203h-336q23 -78 84.5 -131 t147.5 -53q61 0 125.5 36t93.5 101l264 -154q-25 -59 -77 -106t-119.5 -80t-143 -50t-149.5 -17z" />
<glyph unicode="&#x455;" horiz-adv-x="1021" d="M537 -20q-137 0 -270.5 44t-225.5 128l117 200q98 -68 191 -104.5t179 -36.5q63 0 98.5 22.5t35.5 65.5t-44.5 68.5t-154.5 54.5q-109 31 -183.5 59.5t-121.5 63.5t-67.5 80t-20.5 106q0 82 32.5 149.5t90 114.5t136.5 74t171 27q121 0 226 -33t204 -119l-127 -196 q-92 63 -164 91.5t-139 28.5q-53 0 -90 -21.5t-37 -68.5q0 -45 40 -67.5t148 -48.5q115 -31 194 -62t128 -68.5t71.5 -87t22.5 -116.5q0 -160 -118.5 -254t-321.5 -94z" />
<glyph unicode="&#x456;" horiz-adv-x="561" d="M117 0v1075h327v-1075h-327zM117 1198v297h327v-297h-327z" />
<glyph unicode="&#x457;" horiz-adv-x="561" d="M-70 1217v264h271v-264h-271zM360 1217v264h271v-264h-271zM117 0v1075h327v-1075h-327z" />
<glyph unicode="&#x458;" horiz-adv-x="569" d="M59 -414q-82 0 -155.5 26t-132.5 77l137 223q23 -23 51.5 -33t58.5 -10q47 0 78 30.5t31 82.5v1093h328v-1069q0 -92 -30 -170t-83 -133t-126 -86t-157 -31zM127 1198v297h328v-297h-328z" />
<glyph unicode="&#x459;" horiz-adv-x="1724" d="M20 283q55 2 91 19t60 65.5t39 133.5t32 224l39 350h800v-368h189q94 0 171 -24t131 -69t84 -109.5t30 -144.5q0 -172 -108 -266t-290 -94h-532v795h-193l-14 -121q-25 -201 -59.5 -331t-94 -207t-147.5 -109.5t-217 -34.5zM1235 254q53 0 82 26.5t29 77.5q0 49 -30 77 t-79 28h-156v-209h154z" />
<glyph unicode="&#x45a;" horiz-adv-x="1773" d="M117 1075h325v-379h367v379h328v-368h184q188 0 300 -92.5t112 -254.5q0 -172 -106.5 -266t-291.5 -94h-526v412h-367v-412h-325v1075zM1286 254q53 0 82 26.5t29 77.5q0 49 -30 77t-81 28h-149v-209h149z" />
<glyph unicode="&#x45b;" horiz-adv-x="1261" d="M825 498q0 104 -41 153t-106 49q-78 0 -141.5 -66.5t-92.5 -178.5v-455h-327v1126h-160v197h160v172h327v-172h430v-197h-430v-372q53 111 150.5 172t220.5 61q104 0 171 -36t103.5 -93t50 -130t13.5 -146v-582h-328v498z" />
<glyph unicode="&#x45c;" horiz-adv-x="1148" d="M688 1171l-209 58l107 266h297zM786 1075h351l-420 -520l454 -555h-376l-312 383h-43v-383h-323v1075h323v-403h37z" />
<glyph unicode="&#x45d;" horiz-adv-x="1249" d="M442 469l469 606h236v-1075h-328v588l-463 -588h-239v1075h325v-606zM360 1497h297l107 -266l-207 -57z" />
<glyph unicode="&#x45e;" horiz-adv-x="1130" d="M178 -176q35 -8 62.5 -11t46.5 -3q23 0 40 7t32.5 26.5t28.5 57.5t26 99l-410 1075h338l250 -794l215 794h307l-412 -1249q-47 -147 -144 -223t-239 -76q-33 0 -69.5 4t-71.5 14v279zM942 1495q-2 -137 -98 -219t-252 -82t-252 82t-100 219h174q2 -72 47 -115t131 -43 q82 0 126 41t50 117h174z" />
<glyph unicode="&#x45f;" horiz-adv-x="1200" d="M449 0h-332v1075h325v-790h316v790h325v-1075h-333v-289h-301v289z" />
<glyph unicode="&#x490;" horiz-adv-x="1081" d="M145 1454h625l14 338h277v-633h-580v-1159h-336v1454z" />
<glyph unicode="&#x491;" horiz-adv-x="892" d="M117 1075h458l21 289h266v-569h-420v-795h-325v1075z" />
<glyph unicode="&#x4b0;" horiz-adv-x="1306" d="M1155 471v-211h-336v-260h-334v260h-333v211h333v29l-510 954h365l313 -668l318 668h364l-516 -954v-29h336z" />
<glyph unicode="&#x4b1;" horiz-adv-x="1105" d="M403 0h-280v209h260v8l-391 858h350l211 -588l225 588h336l-395 -858v-8h262v-209h-283v-436h-295v436z" />
<glyph unicode="&#x1e0c;" horiz-adv-x="1466" d="M555 -418v281h295v-281h-295zM139 0v1454h543q180 0 315.5 -57.5t226.5 -155.5t137 -230t46 -282q0 -166 -51 -300t-146.5 -229.5t-229.5 -147.5t-298 -52h-543zM1065 729q0 96 -25.5 175t-75 136.5t-121 88t-161.5 30.5h-207v-864h207q92 0 164 32.5t120 91t73.5 137.5 t25.5 173z" />
<glyph unicode="&#x1e0d;" horiz-adv-x="1339" d="M547 -418v281h295v-281h-295zM559 -20q-111 0 -204 41.5t-160.5 117.5t-105.5 177.5t-38 222.5q0 117 35 219t98.5 177t150.5 118t191 43q113 0 204 -53.5t140 -143.5v596h328v-1126q0 -49 15.5 -68.5t54.5 -24.5v-276q-45 -10 -78 -13t-62 -3q-86 0 -139 35.5t-61 103.5 l-6 55q-57 -100 -154.5 -149t-208.5 -49zM647 256q68 0 130.5 40t94.5 110v225q-31 82 -99 134t-142 52q-53 0 -97.5 -23.5t-77 -62.5t-50 -90t-17.5 -109q0 -59 19.5 -110t53.5 -88t82 -57.5t103 -20.5z" />
<glyph unicode="&#x1e24;" horiz-adv-x="1529" d="M1391 1454v-1454h-336v596h-580v-596h-336v1454h336v-563h580v563h336zM614 -418v281h295v-281h-295z" />
<glyph unicode="&#x1e25;" horiz-adv-x="1253" d="M1149 0h-328v604q0 104 -41 153.5t-112 49.5q-29 0 -63 -13.5t-65.5 -39t-58 -60.5t-41.5 -78v-616h-327v1495h327v-600q59 96 156.5 148.5t214.5 52.5q109 0 175.5 -38t102 -96.5t48 -131t12.5 -142.5v-688zM483 -418v281h295v-281h-295z" />
<glyph unicode="&#x1e44;" horiz-adv-x="1554" d="M627 1591v281h295v-281h-295zM475 831v-831h-336v1454h262l678 -854v854h336v-1454h-270z" />
<glyph unicode="&#x1e45;" horiz-adv-x="1253" d="M516 1214v281h295v-281h-295zM1149 0h-328v604q0 106 -40 154.5t-105 48.5q-35 0 -70 -14.5t-67.5 -40t-58 -60.5t-40.5 -76v-616h-327v1075h295v-180q59 96 167.5 148.5t249.5 52.5q104 0 168 -38t98.5 -98.5t46 -132t11.5 -139.5v-688z" />
<glyph unicode="&#x1e5a;" d="M139 0v1454h656q102 0 189 -43t150.5 -112.5t99.5 -157.5t36 -178q0 -68 -16.5 -130.5t-47 -118t-75 -99.5t-99.5 -74l320 -541h-379l-279 469h-219v-469h-336zM475 762h307q59 0 102.5 56t43.5 145q0 90 -49.5 143t-106.5 53h-297v-397zM549 -418v281h295v-281h-295z " />
<glyph unicode="&#x1e5b;" horiz-adv-x="819" d="M795 795q-119 -2 -215.5 -39t-139.5 -111v-645h-327v1075h301v-217q55 109 142 170.5t185 63.5h33t21 -2v-295zM129 -418v281h295v-281h-295z" />
<glyph unicode="&#x1e62;" horiz-adv-x="1259" d="M1012 1028q-6 8 -43 30.5t-92.5 47t-121 43t-130.5 18.5q-180 0 -181 -120q0 -37 19.5 -61.5t57.5 -44t95.5 -36t133.5 -37.5q104 -29 188 -62.5t142.5 -83.5t90 -122t31.5 -172q0 -123 -46 -208t-122 -137t-174 -75.5t-203 -23.5q-80 0 -163.5 12t-163.5 35.5t-155 56.5 t-138 76l147 293q8 -10 53.5 -39t112 -57.5t148.5 -51t166 -22.5q178 0 178 108q0 41 -27 67.5t-74 48t-111.5 40t-140.5 41.5q-100 31 -173.5 66.5t-122 82.5t-72 108.5t-23.5 143.5q0 115 43 203t117 148.5t171 91t206 30.5q76 0 149.5 -14t141 -36.5t126 -51.5t107.5 -57 zM475 -418v281h295v-281h-295z" />
<glyph unicode="&#x1e63;" horiz-adv-x="1021" d="M537 -20q-137 0 -270.5 44t-225.5 128l117 200q98 -68 191 -104.5t179 -36.5q63 0 98.5 22.5t35.5 65.5t-44.5 68.5t-154.5 54.5q-109 31 -183.5 59.5t-121.5 63.5t-67.5 80t-20.5 106q0 82 32.5 149.5t90 114.5t136.5 74t171 27q121 0 226 -33t204 -119l-127 -196 q-92 63 -164 91.5t-139 28.5q-53 0 -90 -21.5t-37 -68.5q0 -45 40 -67.5t148 -48.5q115 -31 194 -62t128 -68.5t71.5 -87t22.5 -116.5q0 -160 -118.5 -254t-321.5 -94zM365 -418v281h294v-281h-294z" />
<glyph unicode="&#x1e6c;" horiz-adv-x="1271" d="M483 -418v281h295v-281h-295zM1247 1159h-442v-1159h-336v1159h-444v295h1222v-295z" />
<glyph unicode="&#x1e6d;" horiz-adv-x="823" d="M322 -418v281h294v-281h-294zM809 57q-68 -29 -155 -53t-175 -24q-61 0 -115.5 15t-95.5 49t-64.5 89t-23.5 133v561h-137v248h137v342h328v-342h219v-248h-219v-448q0 -53 26.5 -76.5t67.5 -23.5q37 0 76 12t67 26z" />
<glyph unicode="&#x1e80;" horiz-adv-x="2160" d="M623 1452h309l147 -465l148 465h311l-244 -676l148 -391l364 1069h367l-582 -1454h-280l-232 569l-229 -569h-283l-579 1454h364l367 -1069l143 391zM791 1876h296l107 -266l-207 -58z" />
<glyph unicode="&#x1e81;" horiz-adv-x="1740" d="M1438 1075h311l-444 -1075h-269l-166 442l-165 -442h-269l-444 1075h309l293 -772l100 293l-190 479h262l104 -323l103 323h262l-188 -479l100 -293zM582 1497h297l106 -266l-207 -57z" />
<glyph unicode="&#x1e82;" horiz-adv-x="2160" d="M1174 1550l-209 58l106 266h297zM623 1452h309l147 -465l148 465h311l-244 -676l148 -391l364 1069h367l-582 -1454h-280l-232 569l-229 -569h-283l-579 1454h364l367 -1069l143 391z" />
<glyph unicode="&#x1e83;" horiz-adv-x="1740" d="M965 1171l-209 58l106 266h297zM1438 1075h311l-444 -1075h-269l-166 442l-165 -442h-269l-444 1075h309l293 -772l100 293l-190 479h262l104 -323l103 323h262l-188 -479l100 -293z" />
<glyph unicode="&#x1e84;" horiz-adv-x="2160" d="M729 1595v265h270v-265h-270zM1159 1595v265h271v-265h-271zM623 1452h309l147 -465l148 465h311l-244 -676l148 -391l364 1069h367l-582 -1454h-280l-232 569l-229 -569h-283l-579 1454h364l367 -1069l143 391z" />
<glyph unicode="&#x1e85;" horiz-adv-x="1740" d="M520 1217v264h271v-264h-271zM950 1217v264h271v-264h-271zM1438 1075h311l-444 -1075h-269l-166 442l-165 -442h-269l-444 1075h309l293 -772l100 293l-190 479h262l104 -323l103 323h262l-188 -479l100 -293z" />
<glyph unicode="&#x1e92;" horiz-adv-x="1280" d="M57 252l758 907h-729v295h1116v-252l-721 -907h729v-295h-1153v252zM500 -418v281h295v-281h-295z" />
<glyph unicode="&#x1e93;" horiz-adv-x="1011" d="M49 197l549 651h-520v227h862v-196l-545 -652h559v-227h-905v197zM354 -418v281h295v-281h-295z" />
<glyph unicode="&#x1eb8;" horiz-adv-x="1226" d="M1161 295v-295h-1022v1454h1004v-295h-668v-282h574v-273h-574v-309h686zM504 -418v281h295v-281h-295z" />
<glyph unicode="&#x1eb9;" horiz-adv-x="1236" d="M627 -20q-135 0 -243 44t-182.5 119.5t-113.5 175t-39 207.5q0 117 39 220.5t112.5 181.5t181 123t245.5 45q137 0 243.5 -45t180 -122t111.5 -177.5t38 -210.5q0 -29 -2 -56.5t-6 -48.5h-795q8 -109 79 -165t161 -56q72 0 138.5 35t88.5 94l279 -78 q-63 -127 -196.5 -206.5t-319.5 -79.5zM854 639q-10 102 -73.5 161.5t-157.5 59.5q-96 0 -159 -60.5t-73 -160.5h463zM467 -418v281h295v-281h-295z" />
<glyph unicode="&#x1ebc;" horiz-adv-x="1226" d="M1161 295v-295h-1022v1454h1004v-295h-668v-282h574v-273h-574v-309h686zM788 1583q-47 0 -82.5 14.5t-66.5 33t-59.5 32.5t-63.5 14t-53.5 -14t-28.5 -32.5t-12 -34t-2 -17.5h-176q0 23 13 71t44 97t81 86t122 37q49 0 84 -15.5t64.5 -34t58 -33.5t65.5 -15 q35 0 56.5 15t33 33.5t14.5 35t3 18.5h176q0 -16 -14.5 -63.5t-46 -98.5t-83 -90t-127.5 -39z" />
<glyph unicode="&#x1ebd;" horiz-adv-x="1236" d="M627 -20q-135 0 -243 44t-182.5 119.5t-113.5 175t-39 207.5q0 117 39 220.5t112.5 181.5t181 123t245.5 45q137 0 243.5 -45t180 -122t111.5 -177.5t38 -210.5q0 -29 -2 -56.5t-6 -48.5h-795q8 -109 79 -165t161 -56q72 0 138.5 35t88.5 94l279 -78 q-63 -127 -196.5 -206.5t-319.5 -79.5zM854 639q-10 102 -73.5 161.5t-157.5 59.5q-96 0 -159 -60.5t-73 -160.5h463zM754 1204q-47 0 -83 14.5t-67 33t-59.5 32.5t-63.5 14t-53 -14t-28.5 -32.5t-12.5 -34t-2 -17.5h-176q0 23 13.5 71t44 97t80.5 86t122 37q49 0 84 -15.5 t64.5 -34t58.5 -33.5t65 -15q35 0 56.5 15t33 33.5t14.5 35t3 18.5h176q0 -16 -14.5 -63.5t-46 -98.5t-82.5 -90t-127 -39z" />
<glyph unicode="&#x1eca;" horiz-adv-x="614" d="M139 0v1454h336v-1454h-336zM156 -418v281h295v-281h-295z" />
<glyph unicode="&#x1ecb;" horiz-adv-x="552" d="M113 0v1075h327v-1075h-327zM113 1198v297h327v-297h-327zM125 -418v281h295v-281h-295z" />
<glyph unicode="&#x1ecc;" horiz-adv-x="1556" d="M627 -418v281h295v-281h-295zM776 -12q-162 0 -295 63.5t-227 167t-146.5 236.5t-52.5 274q0 143 54.5 276.5t151.5 234.5t230.5 161.5t290.5 60.5q162 0 295 -63.5t227.5 -168t145.5 -237.5t51 -270q0 -143 -54 -276.5t-150.5 -234.5t-229.5 -162.5t-291 -61.5zM397 725 q0 -84 24.5 -163t73 -140.5t120 -98t163.5 -36.5q96 0 168 39t119 101t70.5 141t23.5 161q0 84 -24.5 163t-73.5 139.5t-120 96t-163 35.5q-96 0 -166.5 -38t-119 -99t-72 -140t-23.5 -161z" />
<glyph unicode="&#x1ecd;" horiz-adv-x="1249" d="M477 -418v281h295v-281h-295zM625 -20q-137 0 -245 45t-181.5 121.5t-111.5 178t-38 212.5t38 212t111.5 178t181 123t245.5 46q137 0 243.5 -46t180 -123t112.5 -178.5t39 -211.5q0 -111 -38 -212.5t-111.5 -178t-181 -121.5t-244.5 -45zM385 537q0 -127 67.5 -204 t172.5 -77q51 0 94 20.5t74.5 57.5t50 89t18.5 114q0 127 -67.5 203.5t-169.5 76.5q-51 0 -95.5 -20.5t-76 -57.5t-50 -89t-18.5 -113z" />
<glyph unicode="&#x1ee4;" horiz-adv-x="1529" d="M764 287q86 0 145.5 35.5t96 95t52 136.5t15.5 157v743h336v-743q0 -152 -38 -283t-116.5 -229.5t-200.5 -154.5t-290 -56q-174 0 -297 59t-200 158.5t-112.5 230.5t-35.5 275v743h336v-743q0 -84 16 -160t53 -135.5t95.5 -94t144.5 -34.5zM612 -418v281h295v-281h-295z " />
<glyph unicode="&#x1ee5;" horiz-adv-x="1284" d="M438 -20q-166 0 -251 103t-85 304v688h328v-616q0 -98 39 -150.5t111 -52.5q66 0 127 35t108 121v663h328v-706q0 -49 15.5 -68.5t53.5 -24.5v-276q-47 -10 -79.5 -13t-59.5 -3q-176 0 -201 137l-6 65q-74 -106 -183.5 -156t-244.5 -50zM471 -418v281h295v-281h-295z" />
<glyph unicode="&#x1ef2;" horiz-adv-x="1357" d="M365 1454l313 -668l317 668h367l-518 -958v-496h-334v500l-510 954h365zM387 1876h297l107 -266l-207 -58z" />
<glyph unicode="&#x1ef3;" horiz-adv-x="1130" d="M121 -162q41 -14 76.5 -20t64.5 -6q59 0 92 41t60 147l-410 1075h338l250 -794l215 794h307l-409 -1249q-43 -133 -154 -216t-262 -83q-41 0 -83 7t-85 24v280zM303 1497h297l107 -266l-207 -57z" />
<glyph unicode="&#x1ef8;" horiz-adv-x="1357" d="M365 1454l313 -668l317 668h367l-518 -958v-496h-334v500l-510 954h365zM807 1583q-47 0 -83 14.5t-66.5 33t-59.5 32.5t-63 14q-35 0 -53.5 -14t-29 -32.5t-12.5 -34t-2 -17.5h-176q0 23 13.5 71t44 97t81 86t121.5 37q49 0 84 -15.5t64.5 -34t58.5 -33.5t66 -15 q35 0 56 15t32.5 33.5t14.5 35t3 18.5h176q0 -16 -14 -63.5t-46 -98.5t-83 -90t-127 -39z" />
<glyph unicode="&#x1ef9;" horiz-adv-x="1130" d="M121 -162q41 -14 76.5 -20t64.5 -6q59 0 92 41t60 147l-410 1075h338l250 -794l215 794h307l-409 -1249q-43 -133 -154 -216t-262 -83q-41 0 -83 7t-85 24v280zM723 1204q-47 0 -83 14.5t-66.5 33t-59.5 32.5t-63 14q-35 0 -53.5 -14t-29 -32.5t-12.5 -34t-2 -17.5h-176 q0 23 13.5 71t44 97t81 86t121.5 37q49 0 84 -15.5t64.5 -34t58.5 -33.5t66 -15q35 0 56 15t32.5 33.5t14.5 35t3 18.5h176q0 -16 -14 -63.5t-46 -98.5t-83 -90t-127 -39z" />
<glyph unicode="&#x2000;" horiz-adv-x="942" />
<glyph unicode="&#x2001;" horiz-adv-x="1884" />
<glyph unicode="&#x2002;" horiz-adv-x="1251" />
<glyph unicode="&#x2003;" horiz-adv-x="1912" />
<glyph unicode="&#x2004;" horiz-adv-x="628" />
<glyph unicode="&#x2005;" horiz-adv-x="471" />
<glyph unicode="&#x2006;" horiz-adv-x="314" />
<glyph unicode="&#x2007;" horiz-adv-x="314" />
<glyph unicode="&#x2008;" horiz-adv-x="235" />
<glyph unicode="&#x2009;" horiz-adv-x="376" />
<glyph unicode="&#x200a;" horiz-adv-x="104" />
<glyph unicode="&#x2010;" horiz-adv-x="851" d="M111 416v295h630v-295h-630z" />
<glyph unicode="&#x2011;" horiz-adv-x="851" d="M111 416v295h630v-295h-630z" />
<glyph unicode="&#x2012;" horiz-adv-x="851" d="M111 416v295h630v-295h-630z" />
<glyph unicode="&#x2013;" horiz-adv-x="1259" d="M111 416v295h1038v-295h-1038z" />
<glyph unicode="&#x2014;" horiz-adv-x="1918" d="M111 416v295h1697v-295h-1697z" />
<glyph unicode="&#x2018;" horiz-adv-x="548" d="M399 1495l-49 -258h92v-301h-333v307l77 252h213z" />
<glyph unicode="&#x2019;" horiz-adv-x="528" d="M143 956l50 258h-93v302h334v-308l-78 -252h-213z" />
<glyph unicode="&#x201a;" horiz-adv-x="557" d="M154 -287l51 287h-94v334h335v-342l-79 -279h-213z" />
<glyph unicode="&#x201c;" horiz-adv-x="991" d="M399 1495l-49 -258h92v-301h-333v307l77 252h213zM842 1495l-49 -258h92v-301h-334v307l78 252h213z" />
<glyph unicode="&#x201d;" horiz-adv-x="970" d="M143 956l50 258h-93v302h334v-308l-78 -252h-213zM586 956l49 258h-92v302h334v-308l-78 -252h-213z" />
<glyph unicode="&#x201e;" horiz-adv-x="983" d="M154 -287l51 287h-94v334h335v-342l-79 -279h-213zM580 -287l51 287h-94v334h333v-342l-77 -279h-213z" />
<glyph unicode="&#x2020;" horiz-adv-x="989" d="M340 -266v674h-270v294h270v885h311v-885h269v-294h-269v-674h-311z" />
<glyph unicode="&#x2021;" horiz-adv-x="1030" d="M360 -266v428h-270v295h270v229h-270v295h270v606h312v-606h268v-295h-268v-229h268v-295h-268v-428h-312z" />
<glyph unicode="&#x2022;" horiz-adv-x="751" d="M600 719q0 -47 -17.5 -88t-48 -72t-71.5 -48t-88 -17t-88 17t-72 48t-48 72t-17 88q0 45 17 86t48 71.5t72 49t88 18.5t88 -18.5t71.5 -49t48 -71.5t17.5 -86z" />
<glyph unicode="&#x2026;" horiz-adv-x="1347" d="M111 0v334h268v-334h-268zM541 0v334h266v-334h-266zM969 0v334h266v-334h-266z" />
<glyph unicode="&#x202f;" horiz-adv-x="376" />
<glyph unicode="&#x2030;" horiz-adv-x="2478" d="M428 842q-74 0 -137.5 24.5t-111.5 67.5t-74.5 101.5t-26.5 123.5q0 66 26.5 123t74.5 100t111.5 68t137.5 25t137.5 -25t111.5 -68t74.5 -100t26.5 -123t-26.5 -124t-74.5 -101t-111.5 -67.5t-137.5 -24.5zM428 1001q51 0 87 46.5t36 111.5q0 66 -37 111t-86 45 q-51 0 -87 -46t-36 -110q0 -66 37 -112t86 -46zM1260 -20q-74 0 -137.5 24.5t-111.5 67.5t-75 100t-27 123t27 124t75 101t111.5 67.5t137.5 24.5t137 -24.5t111 -67.5t75 -101.5t27 -123.5q0 -66 -27 -123t-75 -100t-111 -67.5t-137 -24.5zM1260 139q51 0 86.5 46t35.5 110 q0 66 -35.5 112t-86.5 46t-87 -46.5t-36 -111.5q0 -66 36 -111t87 -45zM2064 -20q-74 0 -137 24.5t-111.5 67.5t-75 100t-26.5 123t26.5 124t75 101t112 67.5t136.5 24.5q74 0 137.5 -24.5t111.5 -67.5t75 -101.5t27 -123.5q0 -66 -27 -123t-75 -100t-111.5 -67.5 t-137.5 -24.5zM2064 139q51 0 87 46t36 110q0 66 -36.5 112t-86.5 46q-51 0 -88 -46.5t-37 -111.5q0 -66 37 -111t88 -45zM219 115l578 663l524 695l147 -132l-559 -647l-544 -712z" />
<glyph unicode="&#x2039;" horiz-adv-x="737" d="M68 600l553 395v-264l-295 -201l295 -186v-264l-553 364v156z" />
<glyph unicode="&#x203a;" horiz-adv-x="737" d="M670 444l-553 -364v264l295 186l-295 201v264l553 -395v-156z" />
<glyph unicode="&#x2044;" horiz-adv-x="448" d="M-401 115l577 663l524 695l148 -132l-559 -647l-545 -712z" />
<glyph unicode="&#x205f;" horiz-adv-x="471" />
<glyph unicode="&#x2070;" horiz-adv-x="1019" d="M512 780q-113 0 -198 42t-141 106.5t-85 144.5t-29 154q0 80 32 159.5t90.5 143t142.5 103.5t188 40q111 0 195 -43t140 -108.5t85 -144.5t29 -150q0 -80 -31 -160t-89.5 -143.5t-141.5 -103.5t-187 -40zM256 1227q0 -45 15.5 -90t47 -82t79.5 -60.5t114 -23.5t114 24.5 t78.5 63.5t46 83t15.5 85q0 45 -16.5 90t-48 82t-80 60.5t-109.5 23.5q-68 0 -116 -24.5t-79.5 -62.5t-46 -83t-14.5 -86z" />
<glyph unicode="&#x2074;" horiz-adv-x="860" d="M487 795v180h-446v186l506 514h131v-514h127v-186h-127v-180h-191zM221 1161h275v285z" />
<glyph unicode="&#x2075;" horiz-adv-x="825" d="M428 1368q74 0 136.5 -21.5t108.5 -59.5t72.5 -90t26.5 -114q0 -68 -28.5 -123t-80 -95t-123 -62.5t-155.5 -22.5q-111 0 -201 39t-137 107l111 129q41 -41 102.5 -65.5t136.5 -24.5q76 0 128.5 30.5t52.5 96.5q0 35 -15.5 60.5t-39 41.5t-52.5 23.5t-55 7.5 q-51 0 -102.5 -24.5t-73.5 -65.5h-168q12 63 28.5 132.5t34 140.5t32.5 139.5t26 127.5h512v-190h-373l-43 -146q18 10 53 19.5t86 9.5z" />
<glyph unicode="&#x2076;" horiz-adv-x="884" d="M829 1081q0 -66 -29.5 -122t-80.5 -97t-121 -65.5t-152 -24.5q-178 0 -279 110.5t-101 313.5q0 227 108.5 352t298.5 125q94 0 177 -31.5t138 -95.5l-110 -133q-33 37 -90.5 57.5t-122.5 20.5q-100 0 -160.5 -47t-62.5 -135q33 33 94 48t121 15q82 0 150.5 -22.5 t117.5 -61.5t76.5 -92.5t27.5 -114.5zM451 948q39 0 75.5 10.5t63 29t43 42t16.5 49.5q0 53 -58.5 90t-139.5 37q-86 0 -143.5 -35.5t-57.5 -89.5q0 -27 16.5 -51t44 -42.5t63.5 -29t77 -10.5z" />
<glyph unicode="&#x2077;" horiz-adv-x="823" d="M528 1485h-479v190h778l-518 -880h-215z" />
<glyph unicode="&#x2078;" horiz-adv-x="878" d="M817 1055q0 -59 -30.5 -109.5t-82 -87.5t-121 -57.5t-145.5 -20.5q-78 0 -146.5 21.5t-119.5 58.5t-81 88t-30 111q0 80 50.5 127t117.5 78q-53 23 -94 62.5t-41 103.5q0 53 31 98t80 76.5t110.5 50t122.5 18.5t123 -17.5t112 -49t80.5 -76.5t30.5 -98 q0 -59 -38.5 -102.5t-96.5 -65.5q72 -33 120 -83t48 -126zM625 1075q0 25 -16.5 43.5t-42 31.5t-59.5 20.5t-69 7.5q-74 0 -129 -28t-55 -75q0 -25 16.5 -43t43 -32.5t59.5 -21.5t67 -7q35 0 69 7t59.5 21.5t41 33.5t15.5 42zM285 1411q0 -37 49 -57.5t104 -20.5t105.5 20.5 t50.5 57.5t-47 57.5t-109 20.5q-61 0 -107 -21.5t-46 -56.5z" />
<glyph unicode="&#x2079;" horiz-adv-x="884" d="M55 1364q0 66 29 122t80 98t120.5 65.5t151.5 23.5q178 0 280.5 -110.5t102.5 -313.5q0 -227 -108.5 -352t-298.5 -125q-96 0 -178 33t-140 96l111 133q35 -39 92 -60.5t123 -21.5q98 0 158.5 49.5t64.5 135.5q-33 -31 -95.5 -47.5t-121.5 -16.5q-82 0 -149.5 22.5 t-116.5 61.5t-77 92.5t-28 114.5zM434 1497q-41 0 -76.5 -10t-62.5 -28.5t-42 -43t-15 -51.5q0 -51 58 -88t140 -37t139.5 37t57.5 88q0 27 -15.5 51.5t-43 43t-63.5 28.5t-77 10z" />
<glyph unicode="&#x2080;" horiz-adv-x="1019" d="M512 -190q-113 0 -198 42t-141 106.5t-85 144t-29 153.5q0 80 32 160t90.5 143.5t142.5 103t188 39.5q111 0 195 -43t140 -108.5t85 -144t29 -150.5q0 -80 -31 -160t-89.5 -143.5t-141.5 -103t-187 -39.5zM256 256q0 -45 15.5 -90t47 -82t79.5 -60.5t114 -23.5t114 24.5 t78.5 63.5t46 83t15.5 85q0 45 -16.5 90t-48 82t-80 60.5t-109.5 23.5q-68 0 -116 -24.5t-79.5 -62.5t-46 -83t-14.5 -86z" />
<glyph unicode="&#x2081;" horiz-adv-x="716" d="M682 8v-186h-584v186h203v498q-12 -14 -40 -32.5t-61.5 -35t-69.5 -28t-67 -11.5v191q39 0 81 18.5t77 40t57.5 41t22.5 21.5h193v-703h188z" />
<glyph unicode="&#x2082;" horiz-adv-x="886" d="M57 -178q0 86 13.5 149.5t45 111.5t84 85t130.5 70q49 20 96 39.5t85 41t61.5 48t23.5 63.5q0 51 -43 73.5t-121 22.5q-86 0 -148.5 -30.5t-99.5 -65.5l-121 141q39 49 141.5 95.5t258.5 46.5q170 0 259 -74t89 -211q0 -68 -25.5 -116t-65.5 -80.5t-86 -52t-85 -32.5 q-176 -51 -176 -139h440v-186h-756z" />
<glyph unicode="&#x2083;" horiz-adv-x="847" d="M395 -190q-129 0 -218 38.5t-124 116.5l101 144q29 -39 87 -73t150 -34q80 0 139.5 21.5t59.5 68.5q0 53 -81 77t-224 24h-49v174h49q121 0 197.5 21.5t76.5 72.5q0 20 -15.5 34.5t-39 23.5t-51 13.5t-52.5 4.5q-80 0 -133 -27t-94 -70l-123 156q25 29 63 50.5t84 36.5 t98 23.5t103 8.5q78 0 144.5 -18.5t115 -51.5t76 -77t27.5 -95q0 -72 -52.5 -120t-144.5 -62q102 -14 159.5 -79t57.5 -149q0 -68 -32.5 -115.5t-87 -78.5t-124 -45t-143.5 -14z" />
<glyph unicode="&#x2084;" horiz-adv-x="858" d="M487 -176v180h-446v186l506 515h131v-515h127v-186h-127v-180h-191zM221 190h275v283z" />
<glyph unicode="&#x2085;" horiz-adv-x="823" d="M428 395q74 0 136.5 -20.5t108.5 -58t72.5 -90t26.5 -115.5q0 -66 -28.5 -121.5t-81 -95t-124 -62t-155.5 -22.5q-111 0 -201 38.5t-137 104.5l111 131q41 -41 102 -65.5t137 -24.5t128 30.5t52 96.5q0 35 -15 59.5t-38.5 41t-52.5 24.5t-55 8q-51 0 -102.5 -24.5 t-73.5 -65.5h-166q12 63 28.5 133t33 140.5t32.5 139t27 128.5h509v-191h-372l-43 -145q20 10 54 18t87 8z" />
<glyph unicode="&#x2086;" horiz-adv-x="884" d="M829 117q0 -66 -28.5 -121t-79.5 -97t-122 -65.5t-153 -23.5q-176 0 -278 109.5t-102 313.5q0 227 108.5 352.5t298.5 125.5q96 0 178 -33t137 -94l-108 -135q-35 39 -92.5 59t-122.5 20q-100 0 -159.5 -47t-63.5 -135q33 31 95 46.5t120 15.5q82 0 150.5 -23 t117.5 -61.5t76.5 -92t27.5 -114.5zM451 -14q41 0 76.5 10t63 28.5t43 42t15.5 50.5q0 53 -58.5 90t-139.5 37q-41 0 -78 -10.5t-64.5 -27t-43 -40t-15.5 -49.5q0 -27 16.5 -50.5t44 -42t63.5 -28.5t77 -10z" />
<glyph unicode="&#x2087;" horiz-adv-x="823" d="M530 514h-481v191h778l-518 -881h-215z" />
<glyph unicode="&#x2088;" horiz-adv-x="878" d="M817 84q0 -59 -30.5 -109.5t-82 -87.5t-121 -57t-145.5 -20q-78 0 -146.5 21.5t-119.5 58t-81 88t-30 110.5q0 80 50.5 126t117.5 79q-53 23 -94 62.5t-41 103.5q0 53 31 98t80 77t110.5 50t122.5 18t123 -17t112 -49t80.5 -77t30.5 -98q0 -59 -38.5 -102.5t-96.5 -65.5 q72 -35 120 -84t48 -125zM625 104q0 25 -16.5 43.5t-42 32t-59.5 20.5t-69 7q-74 0 -129 -28.5t-55 -74.5q0 -25 16.5 -43t43 -32.5t59.5 -21.5t67 -7q35 0 69 7t59.5 21.5t41 33.5t15.5 42zM285 440q0 -37 49 -57.5t104 -20.5t105.5 20.5t50.5 57.5q0 35 -47 56.5 t-109 21.5q-61 0 -107 -21.5t-46 -56.5z" />
<glyph unicode="&#x2089;" horiz-adv-x="884" d="M55 401q0 63 29 121t80 99t121.5 65.5t152.5 24.5q176 0 278.5 -112t102.5 -314q0 -225 -107.5 -350t-297.5 -125q-96 0 -179 32.5t-139 94.5l109 133q35 -37 92 -58.5t123 -21.5q100 0 160.5 48t62.5 136q-31 -33 -94.5 -49t-122.5 -16q-82 0 -149.5 22.5t-116.5 61 t-77 93t-28 115.5zM434 535q-41 0 -75.5 -10.5t-62.5 -29t-43 -43t-15 -51.5q0 -53 58 -89t140 -36t140.5 36t58.5 89q0 27 -16.5 51.5t-44 43t-63.5 29t-77 10.5z" />
<glyph unicode="&#x20a1;" horiz-adv-x="1181" d="M410 18q-84 31 -149.5 84.5t-111 122t-69 148.5t-23.5 166t23.5 165.5t69 148.5t111 121t149.5 83v264h147v-229q18 2 37.5 3t40.5 1h22.5t22.5 -2v227h147v-252q111 -35 188 -101.5t124 -156.5l-320 -96q-63 102 -186 102q-100 0 -170 -75.5t-70 -202.5 q0 -63 18.5 -115.5t51.5 -89.5t77 -57.5t93 -20.5q61 0 112.5 29.5t75.5 76.5l320 -98q-43 -90 -123 -157.5t-191 -100.5v-252h-147v228q-10 -2 -22.5 -2h-22.5q-20 0 -40 1t-38 3v-230h-147v264z" />
<glyph unicode="&#x20a3;" horiz-adv-x="1245" d="M219 0v186h-151v215h151v1053h987v-295h-651v-313h537v-273h-537v-172h223v-215h-223v-186h-336z" />
<glyph unicode="&#x20a4;" horiz-adv-x="1130" d="M82 911h131q-18 45 -30.5 90.5t-12.5 92.5q0 78 34 145.5t94 117.5t141 78.5t173 28.5q129 0 247 -56t200 -159l-170 -200q-51 66 -130 108.5t-151 42.5q-66 0 -106.5 -39t-40.5 -102q0 -35 12 -72t31 -76h344v-204h-260l8 -40t6 -40h246v-205h-281q-35 -80 -123 -170 q47 16 85 22.5t73 6.5q72 0 138.5 -16.5t133.5 -16.5q35 0 69 7t75 21l80 -241q-49 -29 -114.5 -47.5t-125.5 -18.5q-47 0 -95 10.5t-98.5 21.5t-100.5 21.5t-99 10.5q-57 0 -132 -14.5t-147 -36.5l-67 233q57 41 100 94t70 113h-207v205h237q-6 45 -20 80h-217v204z" />
<glyph unicode="&#x20a6;" horiz-adv-x="1771" d="M1694 852h-168v-281h168v-204h-168v-367h-271l-294 367h-375v-367h-336v367h-172v204h172v281h-172v205h172v397h262l315 -397h363v397h336v-397h168v-205zM586 571h209l-209 260v-260zM1190 600v252h-201z" />
<glyph unicode="&#x20a9;" horiz-adv-x="2371" d="M86 537h369l-80 200h-289v205h207l-203 512h365l174 -512h276l-180 510h309l148 -465l147 465h311l-184 -510h277l176 512h366l-204 -512h217v-205h-299l-80 -200h379v-205h-461l-133 -332h-281l-231 569l-230 -569h-282l-133 332h-451v205zM1487 537h108l68 200h-252z M768 537h109l73 200h-250z" />
<glyph unicode="&#x20ac;" horiz-adv-x="1638" d="M250 926q29 106 89 203.5t149.5 171t207 117.5t258.5 44q205 0 355.5 -88t224.5 -229l-258 -180q-25 57 -62.5 95t-83 61.5t-92.5 32.5t-92 9q-133 0 -217 -68.5t-125 -168.5h455l-70 -176h-422v-23q0 -20 1 -38.5t3 -37.5h426l-69 -176h-295q49 -86 130 -137t187 -51 q45 0 93.5 11t92.5 34.5t80.5 61.5t59.5 93l274 -161q-33 -80 -97 -143.5t-148 -106.5t-178.5 -65.5t-184.5 -22.5q-121 0 -226.5 39t-190.5 104.5t-149.5 154.5t-101.5 189h-204l69 176h90q-2 23 -3 44.5t-1 43.5v11h-141l70 176h96z" />
<glyph unicode="&#x20b9;" horiz-adv-x="1136" d="M1061 905h-209q-16 -117 -84 -214t-178 -150l364 -541h-381l-473 733h271q49 0 89 47t52 125h-428v205h393q-23 37 -54.5 58.5t-64.5 21.5h-274v264h977v-205h-299q43 -61 69 -139h230v-205z" />
<glyph unicode="&#x2113;" horiz-adv-x="673" d="M434 207q20 0 49 7t54 17l41 -202q-45 -18 -106.5 -30.5t-109.5 -12.5q-121 0 -188.5 59t-67.5 166v1038q0 57 24 105.5t65 84.5t97 56.5t122 20.5q129 0 207.5 -74t78.5 -193q0 -86 -31.5 -196.5t-84 -223t-120 -216t-138.5 -175.5v-104q0 -59 28.5 -93t79.5 -34z M496 1180q0 137 -80 137q-41 0 -65.5 -35t-24.5 -90v-469q35 51 65.5 112.5t54 123t37 119t13.5 102.5z" />
<glyph unicode="&#x2116;" horiz-adv-x="2361" d="M504 831v-831h-338v1454h262l678 -854v854h336v-1454h-271zM1958 688q-92 0 -164 32t-121 85t-74.5 122.5t-25.5 147.5t25.5 147.5t74.5 123t121 85t164 31.5t164.5 -31.5t122 -85t75 -123t25.5 -147.5t-25.5 -147.5t-75 -122.5t-121 -85t-165.5 -32zM1808 1075 q0 -86 43 -137t107 -51q66 0 108.5 51t42.5 137t-43 137.5t-108 51.5q-63 0 -106.5 -51.5t-43.5 -137.5z" />
<glyph unicode="&#x2120;" horiz-adv-x="1675" d="M1239 1454h315v-620h-208v356l-117 -270h-170l-117 270v-356h-209v620h311l99 -297zM559 1249q-53 29 -98 44.5t-92 15.5q-74 0 -74 -33q0 -18 22.5 -31.5t94.5 -27.5q135 -27 190 -71t55 -126q0 -96 -72.5 -147.5t-193.5 -51.5q-80 0 -166 22.5t-145 57.5l80 152 q53 -33 112.5 -52.5t114.5 -19.5q78 0 78 29q0 18 -27.5 30.5t-99.5 30.5q-63 16 -106.5 32.5t-71 38t-39.5 50.5t-12 65q0 94 72.5 151.5t189.5 57.5q63 0 130.5 -18t133.5 -51z" />
<glyph unicode="&#x2122;" horiz-adv-x="1775" d="M723 1249h-195v-415h-209v415h-194v209h598v-209zM1325 1454h313v-620h-208v356l-117 -270h-170l-115 270v-356h-211v620h313l97 -297z" />
<glyph unicode="&#x2126;" horiz-adv-x="1603" d="M70 236h323q-141 80 -222 216t-81 310q0 139 54.5 266t149.5 224.5t225 154.5t282 57q154 0 283.5 -57t225 -154.5t148.5 -224.5t53 -266q0 -174 -79.5 -310.5t-221.5 -215.5h322v-236h-649v236q70 27 125 81t94 124.5t59.5 153.5t20.5 167q0 76 -27 147.5t-76 129 t-119.5 92t-158.5 34.5t-159 -34.5t-120 -92t-74.5 -129t-25.5 -147.5q0 -84 20.5 -167t59.5 -153.5t94 -125t123 -80.5v-236h-649v236z" />
<glyph unicode="&#x212e;" horiz-adv-x="1255" d="M639 84q147 0 247.5 43t162.5 102l67 -79q-78 -72 -194.5 -121t-282.5 -49q-129 0 -235.5 45t-182.5 120.5t-117 176t-41 210.5q0 115 42 217.5t118 179.5t181.5 122t234.5 45t235.5 -47.5t182.5 -128t118 -191.5t42 -235h-875v-281q53 -57 132 -93t165 -36zM639 989 q-86 0 -165 -38t-132 -111v-236h598v234q-55 76 -134 113.5t-167 37.5z" />
<glyph unicode="&#x2153;" horiz-adv-x="2039" d="M303 115l578 663l524 695l147 -132l-559 -647l-544 -712zM612 797v-189h-491v189h158v497q-10 -14 -33 -32.5t-50.5 -35t-56 -27.5t-53.5 -11v190q31 0 64.5 18.5t62.5 40t47.5 40t18.5 20.5h192v-700h141zM1583 -12q-129 0 -218 39t-124 116l100 144q31 -39 88.5 -73 t149.5 -34q80 0 139.5 21.5t59.5 68.5q0 53 -81 77t-224 24h-50v174h50q121 0 197.5 21.5t76.5 72.5q0 20 -15.5 35.5t-39 24t-51 12.5t-52.5 4q-80 0 -133 -26.5t-94 -70.5l-123 156q25 29 62.5 51.5t84 38t98.5 22.5t103 7q78 0 144.5 -18.5t114.5 -51t76 -77t28 -95.5 q0 -72 -52.5 -119t-144.5 -63q102 -14 159.5 -78.5t57.5 -148.5q0 -68 -32.5 -116t-87 -79t-124 -45t-143.5 -14z" />
<glyph unicode="&#x2154;" horiz-adv-x="2113" d="M84 606q0 86 12.5 149.5t43 111.5t81.5 86t129 71q49 20 97.5 38.5t85 40t60 48.5t23.5 63q0 51 -43 74t-118 23q-86 0 -147.5 -30t-98.5 -64l-119 139q18 25 53 50.5t85.5 44.5t115 32.5t139.5 13.5q170 0 258 -73.5t88 -211.5q0 -68 -25.5 -115.5t-64.5 -80.5 t-85 -52.5t-85 -31.5q-88 -27 -141 -60.5t-53 -78.5h426v-187h-717zM459 115l577 663l525 695l147 -132l-559 -647l-545 -712zM1657 -12q-129 0 -218 39t-124 116l100 144q31 -39 88.5 -73t149.5 -34q80 0 139 21.5t59 68.5q0 53 -80.5 77t-224.5 24h-49v174h49 q121 0 198 21.5t77 72.5q0 20 -15.5 35.5t-39 24t-51 12.5t-52.5 4q-80 0 -133 -26.5t-94 -70.5l-123 156q25 29 62.5 51.5t83.5 38t98.5 22.5t103.5 7q78 0 144.5 -18.5t114.5 -51t75.5 -77t27.5 -95.5q0 -72 -52 -119t-144 -63q102 -14 159.5 -78.5t57.5 -148.5 q0 -68 -33 -116t-87 -79t-123.5 -45t-143.5 -14z" />
<glyph unicode="&#x215b;" horiz-adv-x="2031" d="M330 115l577 663l525 695l147 -132l-559 -647l-545 -712zM612 797v-189h-491v189h158v497q-10 -14 -33 -32.5t-50.5 -35t-56 -27.5t-53.5 -11v190q31 0 64.5 18.5t62.5 40t47.5 40t18.5 20.5h192v-700h141zM1964 262q0 -59 -30.5 -109.5t-82 -87t-121 -57t-145.5 -20.5 q-78 0 -146.5 21.5t-119.5 58t-81 88t-30 110.5q0 80 50.5 126t117.5 79q-53 23 -94 62.5t-41 103.5q0 53 31 98t80 77t110.5 50.5t122.5 18.5t122.5 -17.5t112 -49.5t81 -77t30.5 -98q0 -59 -39 -102t-96 -66q72 -35 120 -84t48 -125zM1772 283q0 25 -16.5 43t-42 31.5 t-59.5 20.5t-69 7q-74 0 -129 -27.5t-55 -74.5q0 -25 16.5 -43.5t43 -32.5t59 -21.5t67.5 -7.5t69 7.5t59.5 21.5t41 33.5t15.5 42.5zM1432 618q0 -37 49 -57t104 -20t105.5 20.5t50.5 56.5q0 35 -47 56.5t-109 21.5q-61 0 -107 -21.5t-46 -56.5z" />
<glyph unicode="&#x215c;" horiz-adv-x="2054" d="M422 592q-129 0 -218 39t-124 117l100 143q31 -39 88.5 -73t149.5 -34q80 0 139 21.5t59 68.5q0 53 -80.5 77t-224.5 24h-49v174h49q121 0 198 21.5t77 74.5q0 20 -15.5 34.5t-39 24t-51 13.5t-52.5 4q-80 0 -133 -26.5t-94 -69.5l-123 153q25 29 62.5 51.5t83.5 38 t98.5 22.5t103.5 7q78 0 144.5 -18.5t114.5 -51t75.5 -76.5t27.5 -96q0 -72 -52 -118.5t-144 -63.5q102 -14 159.5 -77.5t57.5 -149.5q0 -68 -33 -116t-87 -78.5t-123.5 -45t-143.5 -14.5zM403 115l578 663l524 695l148 -132l-559 -647l-545 -712zM1985 262 q0 -59 -31 -109.5t-82 -87t-121 -57t-145 -20.5q-78 0 -146.5 21.5t-120 58t-81 88t-29.5 110.5q0 80 50 126t118 79q-53 23 -94 62.5t-41 103.5q0 53 30.5 98t79.5 77t110.5 50.5t123.5 18.5q61 0 122.5 -17.5t111.5 -49.5t81 -77t31 -98q0 -59 -39 -102t-96 -66 q72 -35 120 -84t48 -125zM1792 283q0 25 -16.5 43t-42 31.5t-59.5 20.5t-68 7q-74 0 -129.5 -27.5t-55.5 -74.5q0 -25 16.5 -43.5t43 -32.5t59.5 -21.5t68 -7.5t68.5 7.5t59 21.5t41 33.5t15.5 42.5zM1452 618q0 -37 49 -57t105 -20q55 0 105 20.5t50 56.5q0 35 -47 56.5 t-108 21.5t-107.5 -21.5t-46.5 -56.5z" />
<glyph unicode="&#x215d;" horiz-adv-x="2088" d="M451 1188q74 0 136 -20.5t108 -58.5t73 -90t27 -114q0 -68 -29 -123t-81 -95t-124 -62.5t-155 -22.5q-111 0 -201 39t-137 107l110 129q41 -41 102.5 -66t137.5 -25t128 31t52 96q0 35 -15.5 60.5t-39 42t-52 24t-55.5 7.5q-51 0 -102 -25t-74 -66h-166q12 63 28.5 133 t33 140.5t33 139.5t26.5 128h510v-190h-373l-43 -146q20 10 54.5 18.5t87.5 8.5zM410 115l577 663l524 695l148 -132l-559 -647l-545 -712zM2017 262q0 -59 -30.5 -109.5t-82 -87t-121 -57t-145.5 -20.5q-78 0 -146.5 21.5t-119.5 58t-80.5 88t-29.5 110.5q0 80 50 126 t118 79q-53 23 -94.5 62.5t-41.5 103.5q0 53 31 98t80 77t110.5 50.5t122.5 18.5t123 -17.5t112 -49.5t81 -77t31 -98q0 -59 -39 -102t-97 -66q72 -35 120 -84t48 -125zM1825 283q0 25 -16.5 43t-42 31.5t-59.5 20.5t-69 7q-74 0 -129 -27.5t-55 -74.5q0 -25 16.5 -43.5 t43 -32.5t59.5 -21.5t67 -7.5q35 0 69 7.5t59.5 21.5t41 33.5t15.5 42.5zM1485 618q0 -37 49 -57t104 -20t105.5 20.5t50.5 56.5q0 35 -47 56.5t-109 21.5q-61 0 -107 -21.5t-46 -56.5z" />
<glyph unicode="&#x215e;" horiz-adv-x="1961" d="M213 115l578 663l524 695l147 -132l-559 -647l-545 -712zM1892 262q0 -59 -30.5 -109.5t-81.5 -87t-121 -57t-146 -20.5q-78 0 -146.5 21.5t-119.5 58t-80.5 88t-29.5 110.5q0 80 50 126t118 79q-53 23 -94.5 62.5t-41.5 103.5q0 53 31 98t80 77t110.5 50.5t122.5 18.5 t123 -17.5t112 -49.5t81 -77t31 -98q0 -59 -39 -102t-97 -66q72 -35 120 -84t48 -125zM1700 283q0 25 -16.5 43t-42 31.5t-59.5 20.5t-69 7q-74 0 -129 -27.5t-55 -74.5q0 -25 16.5 -43.5t43 -32.5t59.5 -21.5t68 -7.5t68.5 7.5t59 21.5t41 33.5t15.5 42.5zM1360 618 q0 -37 49 -57t104 -20t105.5 20.5t50.5 56.5q0 35 -47 56.5t-109 21.5q-61 0 -107 -21.5t-46 -56.5zM563 1307h-479v190h778l-518 -881h-215z" />
<glyph unicode="&#x2202;" horiz-adv-x="1185" d="M518 -20q-104 0 -194.5 32.5t-155 91t-101 138.5t-36.5 172q0 104 45 193t119.5 154.5t171 102.5t200.5 37q170 0 244 -104v34q0 190 -59.5 277.5t-169.5 87.5q-55 0 -114.5 -18.5t-98.5 -51.5l-179 189q84 72 190.5 111.5t225.5 39.5q240 0 372 -171t132 -509 q0 -188 -42 -337.5t-119 -254t-186.5 -159.5t-244.5 -55zM541 225q45 0 86 19.5t73.5 52.5t52 76t19.5 90q0 84 -57.5 139t-141.5 55q-47 0 -88 -18t-71.5 -49t-49 -72t-18.5 -88q0 -43 15.5 -81t41 -65.5t61.5 -43t77 -15.5z" />
<glyph unicode="&#x2206;" horiz-adv-x="1298" d="M1286 258v-258h-1274v258l502 1196h272zM965 295l-314 788l-305 -788h619z" />
<glyph unicode="&#x220f;" horiz-adv-x="1482" d="M936 1176h-389v-1360h-320v1360h-164v278h1354v-278h-164v-1360h-317v1360z" />
<glyph unicode="&#x2211;" horiz-adv-x="1171" d="M1087 1208h-628v-8l358 -444l-385 -469v-8h664v-279h-1030v219l428 510l-414 510v215h1007v-246z" />
<glyph unicode="&#x2212;" horiz-adv-x="1067" d="M121 567v260h825v-260h-825z" />
<glyph unicode="&#x2215;" horiz-adv-x="1288" d="M-37 137l1176 1336l186 -154l-1175 -1337z" />
<glyph unicode="&#x2219;" horiz-adv-x="489" d="M111 492v339h268v-339h-268z" />
<glyph unicode="&#x221a;" horiz-adv-x="1185" d="M14 791h453l143 -562l230 1389h286l-311 -1618h-409l-164 565h-228v226z" />
<glyph unicode="&#x221e;" horiz-adv-x="1501" d="M434 1116q63 0 111.5 -14.5t85.5 -38t65.5 -55t53.5 -66.5q25 35 53 66.5t65 55t85 38t112 14.5q82 0 147.5 -31.5t111.5 -86t71.5 -126t25.5 -153.5t-27.5 -153.5t-75.5 -126t-113.5 -85t-141.5 -30.5q-121 0 -191.5 46t-117.5 109q-23 -31 -51.5 -59.5t-66.5 -50 t-87 -33.5t-115 -12q-68 0 -132 31.5t-113.5 86t-80 126t-30.5 153.5t27.5 153.5t74.5 126t112.5 85t141.5 30.5zM463 567q37 0 63.5 12.5t48 32t40 47t34.5 58.5q-35 63 -73.5 108t-112.5 45q-49 0 -95 -34.5t-46 -114.5q0 -82 46 -118t95 -36zM1036 567q51 0 95.5 36 t44.5 118q0 80 -44.5 114.5t-95.5 34.5q-74 0 -112.5 -48t-69.5 -113q33 -59 72.5 -100.5t109.5 -41.5z" />
<glyph unicode="&#x222b;" horiz-adv-x="780" d="M190 1393q-8 137 66 211.5t215 74.5q68 0 147.5 -16t145.5 -45l-51 -240q-23 12 -48.5 20.5t-48.5 8.5q-49 0 -75.5 -30.5t-22.5 -92.5l72 -1339q8 -141 -65.5 -214t-215.5 -73q-68 0 -147.5 16.5t-143.5 44.5l50 240q23 -12 48 -20.5t46 -8.5q106 0 100 123z" />
<glyph unicode="&#x2248;" horiz-adv-x="935" d="M840 758q-31 -61 -88.5 -113.5t-145.5 -52.5q-47 0 -83 14.5t-66.5 32.5t-60 32.5t-62.5 14.5q-37 0 -56.5 -14.5t-29.5 -34.5l-152 90q29 59 84.5 108.5t141.5 49.5q47 0 81.5 -15.5t65.5 -35t59.5 -35t65.5 -15.5q41 0 63.5 16.5t34.5 39.5zM840 408q-16 -29 -38 -59 t-50.5 -52.5t-65.5 -36.5t-80 -14q-47 0 -83 15t-66.5 32.5t-60 33t-62.5 15.5q-37 0 -56.5 -15.5t-29.5 -33.5l-152 90q29 59 84.5 107.5t141.5 48.5q47 0 81.5 -15.5t65.5 -34t59.5 -34t65.5 -15.5q41 0 63.5 15.5t34.5 38.5z" />
<glyph unicode="&#x2260;" horiz-adv-x="929" d="M139 862h393l130 262l116 -63l-98 -199h111v-209h-213l-86 -176h299v-209h-402l-123 -252l-116 60l94 192h-105v209h207l86 176h-293v209z" />
<glyph unicode="&#x2264;" horiz-adv-x="987" d="M94 33v260h750v-260h-750zM98 946l742 342v-315l-408 -139l408 -127v-316l-742 314v241z" />
<glyph unicode="&#x2265;" horiz-adv-x="987" d="M143 33v260h750v-260h-750zM889 705l-742 -314v316l408 127l-408 139v315l742 -342v-241z" />
<glyph unicode="&#x25ca;" horiz-adv-x="1202" d="M784 1493l381 -745l-381 -750h-366l-381 750l381 745h366zM872 723l-274 545l-252 -502l270 -547z" />
<glyph unicode="&#x25fc;" horiz-adv-x="1075" d="M0 1075h1075v-1075h-1075v1075z" />
<glyph unicode="&#xf6c3;" horiz-adv-x="450" d="M162 -436l63 137h-98v203h274v-203l-96 -137h-143z" />
<glyph unicode="&#xfb06;" horiz-adv-x="1814" d="M1798 57q-66 -29 -154 -53t-174 -24q-61 0 -115.5 15t-95 49t-64.5 89t-24 133v561h-137v248h137q0 80 -6 134.5t-22.5 88t-45 49t-73.5 15.5q-92 0 -135 -49t-43 -119q0 -66 27.5 -126t60.5 -95l-125 -207q-94 57 -168 79.5t-135 22.5q-59 0 -100 -21.5t-41 -70.5 q0 -57 55 -77.5t147 -39.5q111 -23 189 -50t127 -65t71.5 -89.5t22.5 -118.5q0 -88 -32 -154.5t-90 -111.5t-138 -67.5t-174 -22.5q-66 0 -136.5 10t-138 28.5t-129 43t-108.5 53.5l123 223q102 -61 197 -94t181 -33q63 0 104.5 20.5t41.5 67.5q0 27 -15.5 44t-43 29.5 t-67.5 23t-91 22.5q-98 25 -171 51.5t-120 61t-69.5 81.5t-22.5 115q0 88 33.5 156.5t91 116t131.5 72t151 24.5q25 0 57.5 -3t69.5 -10.5t74 -19.5t70 -31q-23 39 -34 79t-11 91q0 63 22.5 117.5t70.5 95.5t122.5 64.5t181.5 23.5q135 0 213 -28.5t118 -83t50 -134 t10 -182.5h217v-248h-217v-448q0 -53 26.5 -76.5t67.5 -23.5q35 0 74 12t72 26z" />
<glyph horiz-adv-x="0" />
<glyph horiz-adv-x="860" d="M487 2v180h-446v187l506 514h131v-514h127v-187h-127v-180h-191zM221 369h275v282z" />
<glyph horiz-adv-x="632" d="M590 797v-189h-492v189h158v497q-10 -14 -32.5 -32.5t-50.5 -35t-56.5 -27.5t-53.5 -11v190q31 0 65 18.5t62.5 40t47 40t18.5 20.5h193v-700h141z" />
<glyph horiz-adv-x="888" d="M57 0q0 86 13.5 149.5t45 111.5t84 86t130.5 71q49 20 96 38.5t85 40t61.5 48t23.5 63.5q0 51 -43 74t-121 23q-86 0 -148.5 -31t-99.5 -66l-121 142q39 49 141.5 95t258.5 46q170 0 259 -74t89 -211q0 -68 -25.5 -116t-65.5 -80.5t-86 -52t-85 -31.5q-176 -51 -176 -140 h440v-186h-756z" />
<glyph horiz-adv-x="847" d="M395 592q-129 0 -218 39t-124 117l101 143q31 -39 88 -73t149 -34q80 0 139.5 21.5t59.5 68.5q0 53 -81 77t-224 24h-49v174h49q121 0 197.5 21.5t76.5 74.5q0 20 -15.5 34.5t-39 24t-51 13.5t-52.5 4q-80 0 -133 -26.5t-94 -69.5l-123 153q25 29 63 51.5t84 38t98 22.5 t103 7q78 0 144.5 -18.5t115 -51t76 -76.5t27.5 -96q0 -72 -52.5 -118.5t-144.5 -63.5q102 -14 159.5 -77.5t57.5 -149.5q0 -68 -32.5 -116t-87 -78.5t-124 -45t-143.5 -14.5z" />
<glyph horiz-adv-x="550" d="M303 1171l-209 58l107 266h297z" />
<glyph horiz-adv-x="499" d="M102 -418v281h295v-281h-295z" />
<glyph horiz-adv-x="847" d="M395 -12q-129 0 -218 39t-124 116l101 144q31 -39 88 -73t149 -34q80 0 139.5 21.5t59.5 68.5q0 53 -81 77t-224 24h-49v174h49q121 0 197.5 21.5t76.5 72.5q0 20 -15.5 35.5t-39 24t-51 12.5t-52.5 4q-80 0 -133 -26.5t-94 -70.5l-123 156q25 29 63 51.5t84 38t98 22.5 t103 7q78 0 144.5 -18.5t115 -51t76 -77t27.5 -95.5q0 -72 -52.5 -119t-144.5 -63q102 -14 159.5 -78.5t57.5 -148.5q0 -68 -32.5 -116t-87 -79t-124 -45t-143.5 -14z" />
<glyph horiz-adv-x="876" d="M57 606q0 86 13.5 149.5t44 111.5t83 86t130.5 71q49 20 97 38.5t86 40t61.5 48.5t23.5 63q0 51 -43 74t-121 23q-86 0 -148.5 -30t-99.5 -64l-121 139q37 49 140.5 95t257.5 46q172 0 261 -73.5t89 -211.5q0 -68 -26.5 -115.5t-65.5 -80.5t-85 -52.5t-85 -31.5 q-90 -27 -143.5 -60.5t-53.5 -78.5h430v-187h-725z" />
<glyph horiz-adv-x="878" d="M817 262q0 -59 -30.5 -109.5t-82 -87t-121 -57t-145.5 -20.5q-78 0 -146.5 21.5t-119.5 58t-81 88t-30 110.5q0 80 50.5 126t117.5 79q-53 23 -94 62.5t-41 103.5q0 53 31 98t80 77t110.5 50.5t122.5 18.5t123 -17.5t112 -49.5t80.5 -77t30.5 -98q0 -59 -38.5 -102 t-96.5 -66q72 -35 120 -84t48 -125zM625 283q0 25 -16.5 43t-42 31.5t-59.5 20.5t-69 7q-74 0 -129 -27.5t-55 -74.5q0 -25 16.5 -43.5t43 -32.5t59.5 -21.5t67 -7.5q35 0 69 7.5t59.5 21.5t41 33.5t15.5 42.5zM285 618q0 -37 49 -57t104 -20t105.5 20.5t50.5 56.5 q0 35 -47 56.5t-109 21.5q-61 0 -107 -21.5t-46 -56.5z" />
<glyph horiz-adv-x="823" d="M428 1188q74 0 136.5 -20.5t108.5 -58.5t72.5 -90t26.5 -114q0 -68 -28.5 -123t-81 -95t-124 -62.5t-155.5 -22.5q-111 0 -201 39t-137 107l111 129q41 -41 102 -66t137 -25t128 31t52 96q0 35 -15 60.5t-38.5 42t-52.5 24t-55 7.5q-51 0 -102.5 -25t-73.5 -66h-166 q12 63 28.5 133t33 140.5t32.5 139.5t27 128h509v-190h-372l-43 -146q20 10 54 18.5t87 8.5z" />
<glyph horiz-adv-x="823" d="M528 1307h-479v190h778l-518 -881h-215z" />
<glyph horiz-adv-x="1236" d="M127 0v1153h580q92 0 168.5 -35t132 -90t87 -126t31.5 -144q0 -104 -56 -192.5t-155 -139.5l297 -426h-333l-258 360h-199v-360h-295zM422 618h274q53 0 92 37t39 103t-44 102.5t-97 36.5h-264v-279z" />
<glyph horiz-adv-x="1243" d="M1159 440q0 -104 -43 -188t-115.5 -144.5t-171 -93t-208.5 -32.5q-109 0 -206.5 33.5t-171 95t-116.5 148.5t-43 194q0 57 18.5 107t47 91t65.5 72t72 53q-68 37 -114 108.5t-46 151.5q0 100 46 179t117.5 131.5t159 80t171.5 27.5t172 -26.5t160.5 -79t118.5 -130 t46 -178.5q0 -41 -13 -79.5t-34.5 -74.5t-52.5 -63.5t-64 -46.5q37 -23 74 -55.5t66.5 -74.5t47 -93.5t17.5 -112.5zM827 461q0 43 -17 76.5t-46 56t-65.5 35t-77.5 12.5q-86 0 -145.5 -49t-59.5 -133q0 -41 17.5 -74t46 -56.5t65.5 -36.5t78 -13t78.5 13t65.5 37.5t44 58.5 t16 73zM459 1030q0 -37 14 -63.5t38 -44t52.5 -26.5t57.5 -9t58.5 9t53 27.5t37.5 45t14 61.5q0 59 -48 97t-115 38q-68 0 -115 -38t-47 -97z" />
<glyph horiz-adv-x="878" d="M817 877q0 -59 -30.5 -109.5t-82 -87.5t-121 -57.5t-145.5 -20.5q-78 0 -146.5 21.5t-119.5 58.5t-81 88t-30 111q0 80 50.5 126t117.5 78q-53 23 -94 63t-41 103q0 53 31 98.5t80 77t110.5 50t122.5 18.5t123 -17.5t112 -49t80.5 -76.5t30.5 -99q0 -59 -38.5 -102 t-96.5 -66q72 -35 120 -83.5t48 -124.5zM625 897q0 25 -16.5 43t-42 31.5t-59.5 20.5t-69 7q-74 0 -129 -27.5t-55 -74.5q0 -25 16.5 -43t43 -32.5t59.5 -21.5t67 -7q35 0 69 7t59.5 21.5t41 33.5t15.5 42zM285 1233q0 -37 49 -57.5t104 -20.5t105.5 20.5t50.5 57.5 t-47 57.5t-109 20.5q-61 0 -107 -21.5t-46 -56.5z" />
<glyph horiz-adv-x="1097" d="M874 793q-12 10 -43.5 28.5t-76.5 35.5t-99.5 30.5t-109.5 13.5q-147 0 -148 -74q0 -25 17.5 -42t49.5 -30.5t80 -26.5t109 -30q88 -25 161 -52.5t123 -67t77.5 -96t27.5 -136.5q0 -102 -39.5 -171t-105.5 -110.5t-150.5 -60t-173.5 -18.5q-139 0 -280 37.5t-252 101.5 l129 256q14 -16 53 -37.5t94.5 -43t122 -36t138.5 -14.5q145 0 145 69q0 27 -22.5 45.5t-61.5 34t-94.5 28.5t-118.5 32q-172 49 -252 122.5t-80 206.5q0 92 37 162t99.5 117t146.5 71.5t176 24.5q133 0 250 -41t198 -86z" />
<glyph horiz-adv-x="548" d="M127 0v1153h295v-1153h-295z" />
<glyph horiz-adv-x="1818" d="M1083 0l-174 563l-176 -563h-354l-367 1075h338l221 -686l185 686h307l184 -686l221 686h338l-366 -1075h-357z" />
<glyph horiz-adv-x="1132" d="M1114 1075l-491 -1511h-381l11 28q11 29 27.5 72t37 94.5t39 99.5t34 87t23.5 55l-410 1075h338l250 -794l217 794h305z" />
<glyph horiz-adv-x="1099" d="M1032 256v-256h-905v1153h889v-256h-594v-190h510v-240h-510v-211h610z" />
<glyph horiz-adv-x="1019" d="M512 -12q-113 0 -198 42t-141 106.5t-85 144t-29 153.5q0 80 32 160t90.5 143.5t142.5 103.5t188 40q111 0 195 -43t140 -108.5t85 -144.5t29 -151q0 -80 -31 -159.5t-89.5 -143t-141.5 -103.5t-187 -40zM256 434q0 -45 15.5 -90t47 -82t79.5 -60.5t114 -23.5t114 24.5 t78.5 63.5t46 83t15.5 85q0 45 -16.5 90t-48 82t-80 60.5t-109.5 23.5q-68 0 -116 -24.5t-79.5 -62.5t-46 -83t-14.5 -86z" />
<glyph horiz-adv-x="1447" d="M723 -20q-160 0 -279.5 69.5t-200.5 177t-122 237.5t-41 253q0 131 45 263t128 237.5t201.5 171t268.5 65.5q160 0 280.5 -70.5t201.5 -179t122 -238.5t41 -249q0 -133 -45 -264t-128 -236.5t-202.5 -171t-269.5 -65.5zM420 717q0 -78 18.5 -156t55 -140.5t94 -102 t135.5 -39.5q82 0 140.5 43t95 107.5t53 141t16.5 146.5q0 76 -18.5 154.5t-56.5 141t-95 102.5t-135 40q-82 0 -139.5 -43t-94 -107.5t-53 -141t-16.5 -146.5z" />
<glyph horiz-adv-x="1019" d="M512 602q-113 0 -198 42t-141 106.5t-85 144.5t-29 154q0 80 32 159.5t90.5 143t142.5 103.5t188 40q111 0 195 -43t140 -108.5t85 -144.5t29 -150q0 -80 -31 -160t-89.5 -143.5t-141.5 -103.5t-187 -40zM256 1049q0 -45 15.5 -90.5t47 -82t79.5 -60t114 -23.5t114 24.5 t78.5 63.5t46 83t15.5 85q0 45 -16.5 90t-48 81.5t-80 60.5t-109.5 24q-68 0 -116 -25t-79.5 -62.5t-46 -82.5t-14.5 -86z" />
<glyph horiz-adv-x="1140" d="M1112 897h-393v-897h-295v897h-393v256h1081v-256z" />
<glyph horiz-adv-x="825" d="M428 573q74 0 136.5 -20.5t108.5 -58t72.5 -90t26.5 -115.5q0 -66 -28.5 -121t-80 -95t-123 -62.5t-155.5 -22.5q-111 0 -201 39t-137 104l111 131q41 -41 102.5 -65.5t136.5 -24.5q76 0 128.5 30.5t52.5 96.5q0 35 -15.5 60.5t-39 42t-52.5 23.5t-55 7 q-51 0 -102.5 -24.5t-73.5 -65.5h-168q12 63 28.5 133t34 140.5t32.5 139t26 128.5h512v-191h-373l-43 -145q18 10 53 18t86 8z" />
<glyph horiz-adv-x="1177" d="M621 946q104 0 192 -34.5t152.5 -96t100.5 -147.5t36 -191q0 -111 -41 -202t-114 -156.5t-174 -101t-220 -35.5q-160 0 -287 63.5t-194 177.5l184 203q57 -72 137 -115t162 -43q94 0 152.5 54.5t58.5 146.5q0 88 -54.5 142.5t-138.5 54.5q-55 0 -103 -25t-75 -70h-284 q0 2 8 42t19.5 103.5t26.5 142.5t32 161q37 193 84 436h723v-299h-486l-43 -248q14 14 50.5 25.5t95.5 11.5z" />
<glyph horiz-adv-x="1339" d="M670 252q76 0 127 26.5t81.5 69.5t44 98.5t13.5 114.5v592h293v-592q0 -121 -33 -224.5t-101.5 -181t-174 -121.5t-250.5 -44q-152 0 -257.5 47t-173 125t-98 181t-30.5 218v592h295v-592q0 -61 14 -116.5t45 -98.5t81 -68.5t124 -25.5z" />
<glyph horiz-adv-x="1210" d="M625 2v305h-572v293l676 856h223v-856h181v-293h-181v-305h-327zM379 600h283v365z" />
<glyph horiz-adv-x="1232" d="M1176 295q0 -76 -35 -131t-93.5 -92t-137.5 -54.5t-167 -17.5h-616v1153h704q68 0 121.5 -25.5t90 -67.5t57 -95.5t20.5 -108.5q0 -80 -45 -154.5t-135 -109.5q109 -29 172.5 -102.5t63.5 -194.5zM877 356q0 47 -34 79t-87 32h-334v-219h321q55 0 94.5 29.5t39.5 78.5z M422 901v-203h285q49 0 85.5 22.5t36.5 80.5q0 53 -32.5 76.5t-79.5 23.5h-295z" />
<glyph horiz-adv-x="860" d="M487 616v181h-446v186l506 514h131v-514h127v-186h-127v-181h-191zM221 983h275v283z" />
<glyph horiz-adv-x="1222" d="M307 1153l307 -737l304 737h309l-490 -1153h-248l-493 1153h311z" />
<glyph horiz-adv-x="2310" d="M2300 1456l-453 -1454h-348l-346 903l-342 -905h-348l-453 1454h381l281 -948l297 948h366l303 -946l279 948h383z" />
<glyph horiz-adv-x="909" d="M82 293q18 -10 77.5 -29.5t137.5 -19.5q68 0 107.5 18.5t61 57t29 100t7.5 147.5v586h293v-586q0 -133 -15.5 -240.5t-66.5 -184t-150.5 -118.5t-265.5 -42q-162 0 -281 71z" />
<glyph horiz-adv-x="1918" d="M555 1151h272l131 -360l132 360h272l-217 -543l121 -254l340 799h321l-516 -1153h-246l-207 430l-204 -430h-248l-514 1153h319l342 -799l115 254z" />
<glyph horiz-adv-x="552" d="M113 1059h327v-1495h-327v1495zM113 1491h325v-293h-325v293z" />
<glyph horiz-adv-x="1243" d="M127 0v1153h295v-494l500 494h307l-484 -514l515 -639h-310l-381 473l-147 -129v-344h-295z" />
<glyph horiz-adv-x="1198" d="M315 1153l285 -379l283 379h319l-448 -584l434 -569h-320l-268 362l-268 -362h-322l434 569l-448 584h319z" />
<glyph horiz-adv-x="1214" d="M55 586q0 106 42 208.5t122 183.5t194.5 131t260.5 50q174 0 302 -68.5t187 -183.5l-225 -159q-20 43 -51 72.5t-68 46t-75.5 23.5t-75.5 7q-80 0 -138.5 -28.5t-97.5 -73.5t-58.5 -102.5t-19.5 -114.5q0 -66 22.5 -124.5t63.5 -103.5t100.5 -71.5t131.5 -26.5 q37 0 76.5 8t75.5 25.5t66 46t48 69.5l242 -143q-29 -66 -84.5 -115t-126 -83.5t-150.5 -52t-155 -17.5q-133 0 -245 51t-193 136t-126 191.5t-45 217.5z" />
<glyph horiz-adv-x="1193" d="M315 1153l281 -512l285 512h319l-457 -766v-387h-294v389l-453 764h319z" />
<glyph horiz-adv-x="557" d="M115 1495h327v-1495h-327v1495z" />
<glyph horiz-adv-x="987" d="M127 0v1153h295v-897h549v-256h-844z" />
<glyph horiz-adv-x="1157" d="M63 219l674 678h-649v256h991v-219l-645 -678h651v-256h-1022v219z" />
<glyph horiz-adv-x="884" d="M55 580q0 63 29 120.5t80 98.5t121.5 65.5t152.5 24.5q176 0 278.5 -110.5t102.5 -315.5q0 -225 -107.5 -350t-297.5 -125q-96 0 -179 32.5t-139 94.5l109 133q35 -37 92 -58.5t123 -21.5q100 0 160.5 48t62.5 136q-31 -33 -94.5 -49t-122.5 -16q-82 0 -149.5 22.5 t-116.5 61.5t-77 93.5t-28 115.5zM434 713q-41 0 -75.5 -10.5t-62.5 -29t-43 -43t-15 -50.5q0 -53 58 -89t140 -36t140.5 35.5t58.5 89.5q0 27 -16.5 51t-44 42.5t-63.5 29t-77 10.5z" />
<glyph horiz-adv-x="1243" d="M78 956q0 106 41 199.5t112.5 162t171 108.5t213.5 40q127 0 227.5 -47t170 -135t106.5 -217t37 -291q0 -190 -40 -338.5t-114.5 -250t-181 -154.5t-237.5 -53q-135 0 -252 55t-205 160l184 208q53 -66 125 -102.5t152 -36.5q121 0 191.5 86t74.5 244q-41 -57 -109.5 -88 t-156.5 -31q-109 0 -202 37t-161.5 101.5t-107.5 152.5t-39 190zM616 1190q-45 0 -86 -18.5t-71.5 -50t-49 -74.5t-18.5 -91q0 -47 17.5 -87t48 -69.5t71.5 -47t88 -17.5q45 0 86 17.5t72 47t49.5 69.5t18.5 87t-18.5 90.5t-49.5 75t-72 50t-86 18.5z" />
<glyph horiz-adv-x="1312" d="M559 -20q-111 0 -204 41.5t-160.5 117.5t-105.5 177.5t-38 222.5q0 117 36 219t99.5 177t150.5 118t189 43q115 0 206 -53.5t140 -143.5v162h328v-1061h-326v160q-49 -88 -125.5 -134t-189.5 -46zM874 629q-35 86 -100 137t-143 51q-53 0 -97.5 -23.5t-76 -63.5t-50 -91 t-18.5 -107q0 -59 19.5 -109t53.5 -87t81 -58.5t102 -21.5q76 0 132.5 40t96.5 110v223z" />
<glyph horiz-adv-x="884" d="M55 1186q0 66 29 122t80 98t120.5 65.5t151.5 23.5q178 0 280.5 -110.5t102.5 -313.5q0 -227 -108.5 -352t-298.5 -125q-96 0 -178 32.5t-140 96.5l111 131q35 -37 92 -58.5t123 -21.5q98 0 158.5 49t64.5 135q-33 -31 -95.5 -47t-121.5 -16q-82 0 -149.5 22.5 t-116.5 61.5t-77 92.5t-28 114.5zM434 1319q-41 0 -76.5 -10.5t-62.5 -28.5t-42 -43t-15 -51q0 -51 58 -88t140 -37t139.5 37t57.5 88q0 27 -15.5 51.5t-43 42.5t-63.5 28.5t-77 10.5z" />
<glyph horiz-adv-x="1175" d="M760 0v141q-57 -80 -144.5 -120.5t-197.5 -40.5q-80 0 -148.5 25.5t-118 71.5t-78 108.5t-28.5 136.5q0 82 36 148.5t98.5 112.5t146.5 71.5t180 25.5q76 0 138.5 -12.5t103.5 -32.5v49q0 186 -216 186q-88 0 -167.5 -29.5t-167.5 -88.5l-97 204q104 68 218 104t247 36 q246 0 378 -117t132 -334v-645h-315zM700 283q47 37 48 77v103q-43 16 -93.5 25.5t-93.5 9.5q-82 0 -144.5 -39t-62.5 -109q0 -59 46 -97t114 -38q49 0 100 17.5t86 50.5z" />
<glyph horiz-adv-x="1566" d="M1145 0v643l-283 -459h-157l-283 459v-643h-295v1153h319l338 -569l336 569h320v-1153h-295z" />
<glyph horiz-adv-x="1382" d="M422 608v-608h-295v1153h229l605 -627v627h294v-1153h-235z" />
<glyph horiz-adv-x="716" d="M682 186v-186h-584v186h203v498q-12 -14 -40 -32.5t-61.5 -35t-69.5 -27.5t-67 -11v190q39 0 81 18.5t77 40t57.5 41t22.5 21.5h193v-703h188z" />
<glyph horiz-adv-x="1060" d="M1016 295v-295h-883v295h289v850q-16 -25 -55 -54.5t-88.5 -57t-100.5 -46t-92 -18.5v301q55 0 113.5 29.5t107.5 65.5t81 66.5t34 34.5h334v-1171h260z" />
<glyph horiz-adv-x="1042" d="M127 0v1153h872v-256h-577v-217h479v-240h-479v-440h-295z" />
<glyph horiz-adv-x="1339" d="M668 -10q-137 0 -250 50t-194 132t-125 188.5t-44 217.5q0 115 46 220t129 185t197 128t247 48q137 0 249.5 -50t192.5 -133t124 -188.5t44 -216.5q0 -113 -46 -218t-127 -186t-194.5 -129t-248.5 -48zM354 575q0 -61 20.5 -119.5t61.5 -103.5t99.5 -72.5t136.5 -27.5 t136 28.5t98 74.5t59.5 104.5t19.5 118.5q0 61 -21.5 119.5t-61.5 102.5t-98.5 70.5t-133.5 26.5q-78 0 -136.5 -27.5t-98.5 -72.5t-60.5 -104t-20.5 -118z" />
<glyph horiz-adv-x="1310" d="M518 -20q-102 0 -187 43t-146.5 118.5t-96.5 178t-35 221.5q0 117 38 218t104.5 176t157.5 118t200 43q123 0 212 -53.5t148 -143.5v176h285v-1513h-328v612q-110 -194 -352 -194zM643 256q72 0 129 40t98 105v228q-12 39 -36.5 73.5t-57.5 60t-69.5 40t-73.5 14.5 q-53 0 -98.5 -23.5t-78 -62.5t-51 -90t-18.5 -109q0 -121 70.5 -198.5t185.5 -77.5z" />
<glyph horiz-adv-x="1468" d="M780 -10q-160 0 -293 62.5t-229 166t-149.5 238.5t-53.5 280q0 139 49.5 270.5t141.5 232.5t224 162.5t298 61.5q188 0 330.5 -78.5t226.5 -222.5l-266 -209q-12 20 -36 56.5t-60.5 70t-90 59t-122.5 25.5q-86 0 -153 -37.5t-111 -99t-66.5 -140.5t-22.5 -161 q0 -76 20.5 -153.5t63.5 -141t109.5 -103.5t157.5 -40q57 0 108 17.5t92 46t70 65.5t43 78h-275v295h639v-150q0 -131 -47 -250t-132 -208t-204 -141t-262 -52z" />
<glyph horiz-adv-x="1990" d="M1976 57q-68 -29 -153.5 -53t-175.5 -24q-61 0 -115.5 15t-95.5 49t-64.5 89t-23.5 133v561h-138v248h138q0 72 -6.5 126t-22.5 90t-48 53.5t-83 17.5q-92 0 -129 -53.5t-37 -130.5q0 -47 12.5 -100.5t28.5 -102.5t35.5 -92t31.5 -72l-319 -96q-66 102 -188 102 q-53 0 -96.5 -21.5t-75 -58.5t-49 -88t-17.5 -112t18.5 -113.5t51 -89.5t76.5 -57.5t94 -20.5q57 0 109 27.5t79 78.5l320 -98q-61 -129 -192.5 -206.5t-313.5 -77.5q-137 0 -245 46t-181.5 122.5t-112.5 178t-39 212.5q0 109 38 210t111.5 178t183.5 123t253 46 q98 0 163.5 -20.5t131.5 -59.5q-18 45 -30.5 90t-12.5 90q0 147 100 227t299 80q145 0 224 -38t116 -99t43 -138t6 -153h219v-248h-219v-448q0 -53 27 -76.5t67 -23.5q37 0 76 12t70 26z" />
<glyph horiz-adv-x="1271" d="M948 102q-70 -59 -144.5 -84.5t-162.5 -25.5q-121 0 -227.5 48t-186.5 130t-126 189.5t-46 226.5q0 121 47.5 225t129 182t193.5 123t241 45q168 0 293.5 -67.5t189.5 -184.5l-221 -166q-39 72 -114 114t-161 42q-66 0 -121 -24.5t-95 -67.5t-61.5 -102.5t-21.5 -129.5 q0 -72 23.5 -130t64.5 -101t98.5 -66.5t125.5 -23.5q78 0 149.5 34t132.5 99v10h-246v211h492v-608h-246v102z" />
<glyph horiz-adv-x="823" d="M530 692h-481v191h778l-518 -881h-215z" />
<glyph horiz-adv-x="1185" d="M682 1157h-610v299h1126l-717 -1454h-370z" />
<glyph horiz-adv-x="884" d="M829 295q0 -63 -28.5 -119.5t-79.5 -97.5t-122 -65.5t-153 -24.5q-176 0 -278 109.5t-102 314.5q0 227 108.5 352t298.5 125q96 0 178 -33t137 -94l-108 -133q-35 37 -92.5 57.5t-122.5 20.5q-100 0 -159.5 -47.5t-63.5 -135.5q33 33 95 48.5t120 15.5q82 0 150.5 -22.5 t117.5 -61.5t76.5 -93.5t27.5 -115.5zM451 164q41 0 76.5 10t63 28.5t43 42t15.5 50.5q0 53 -58.5 90t-139.5 37q-41 0 -78 -10.5t-64.5 -26.5t-43 -39.5t-15.5 -50.5t16.5 -50.5t44 -42t63.5 -28.5t77 -10z" />
<glyph horiz-adv-x="1245" d="M1165 489q0 -106 -41 -199t-112.5 -162t-170 -108.5t-212.5 -39.5q-127 0 -227.5 47t-170 135t-106.5 216t-37 292q0 190 40 338.5t113.5 250t180 154.5t240.5 53q135 0 250.5 -55t203.5 -160l-184 -209q-51 66 -123 103t-154 37q-121 0 -191.5 -86t-74.5 -244 q41 55 109.5 86t158.5 31q109 0 202 -37t160.5 -101.5t106.5 -152t39 -189.5zM629 256q45 0 86 18.5t71.5 50t49 74.5t18.5 90q0 45 -18.5 86t-49 71t-71.5 47.5t-86 17.5q-47 0 -88 -17.5t-72 -47.5t-48.5 -70.5t-17.5 -86.5q0 -47 18.5 -90t49.5 -74.5t72 -50t86 -18.5z " />
</font>
</defs>
</svg>
